M48
;Layer_Color=9474304
;FILE_FORMAT=2:5
INCH,LZ
;TYPE=PLATED
T01F00S00C0.01181
T02F00S00C0.02000
T04F00S00C0.12500
;TYPE=NON_PLATED
T05F00S00C0.02756
%
T01
X0073524Y0005807
X0096752Y0000492
X0101772Y-0005512
X0103839Y0016043
Y0018701
X0107972Y0025197
X0100984Y0030906
X0083661Y002628
X0090847Y0017618
X0065945Y0021457
X0062894Y0012205
X0063779Y-0003937
X0050787Y0022244
X0046063Y0034941
X0033366Y0028937
X0033169Y0015551
T02
X0033465Y-001378
X0031496Y-000689
X0033465Y0
X0040354Y0001969
X0047244Y0
X0049213Y-000689
X0047244Y-001378
X0040354Y-0016732
T04
X0040354Y-000689
T05
X0020472Y0010382
Y0033138
M30
