G04*
G04 #@! TF.GenerationSoftware,Altium Limited,Altium Designer,24.4.1 (13)*
G04*
G04 Layer_Color=32896*
%FSLAX25Y25*%
%MOIN*%
G70*
G04*
G04 #@! TF.SameCoordinates,70575355-2F91-4737-89AD-C6C8FBE0A886*
G04*
G04*
G04 #@! TF.FilePolarity,Positive*
G04*
G01*
G75*
%ADD10C,0.00787*%
D10*
X115848Y17355D02*
X116307Y17814D01*
X117225D01*
X117684Y17355D01*
Y15518D01*
X117225Y15059D01*
X116307D01*
X115848Y15518D01*
Y16437D01*
X116766D01*
X114929Y15059D02*
Y17814D01*
X113093Y15059D01*
Y17814D01*
X112174D02*
Y15059D01*
X110797D01*
X110338Y15518D01*
Y17355D01*
X110797Y17814D01*
X112174D01*
X117684Y25197D02*
Y27952D01*
X116307D01*
X115848Y27493D01*
Y26574D01*
X116307Y26115D01*
X117684D01*
X116766D02*
X115848Y25197D01*
X114929Y27952D02*
X113093Y25197D01*
Y27952D02*
X114929Y25197D01*
X112174Y27952D02*
Y25197D01*
X110797D01*
X110338Y25656D01*
Y27493D01*
X110797Y27952D01*
X112174D01*
X114929Y35531D02*
Y38287D01*
X113093Y35531D01*
Y38287D01*
X110338Y37827D02*
X110797Y38287D01*
X111715D01*
X112174Y37827D01*
Y35991D01*
X111715Y35531D01*
X110797D01*
X110338Y35991D01*
M02*
