G04*
G04 #@! TF.GenerationSoftware,Altium Limited,Altium Designer,24.4.1 (13)*
G04*
G04 Layer_Color=65535*
%FSLAX25Y25*%
%MOIN*%
G70*
G04*
G04 #@! TF.SameCoordinates,79C11BDE-9AA4-4B6C-B3B8-DA90EC57A962*
G04*
G04*
G04 #@! TF.FilePolarity,Positive*
G04*
G01*
G75*
%ADD10C,0.00787*%
%ADD11C,0.00000*%
%ADD12C,0.00394*%
%ADD13C,0.00500*%
%ADD14C,0.00600*%
%ADD15C,0.00800*%
G36*
X32730Y62463D02*
X32863D01*
Y62430D01*
X32996D01*
Y62397D01*
X33062D01*
Y62364D01*
X33129D01*
Y62331D01*
X33195D01*
Y62297D01*
X33262D01*
Y62264D01*
X33295D01*
Y62231D01*
X33362D01*
Y62198D01*
X33395D01*
Y62164D01*
X33428D01*
Y62131D01*
X33461D01*
Y62098D01*
X33495D01*
Y62064D01*
X33528D01*
Y62031D01*
X33561D01*
Y61998D01*
X33595D01*
Y61965D01*
X33628D01*
Y61932D01*
X33661D01*
Y61898D01*
X33727D01*
Y61865D01*
X33761D01*
Y61832D01*
X33794D01*
Y61799D01*
X33827D01*
Y61765D01*
X33860D01*
Y61732D01*
X33894D01*
Y61699D01*
X33927D01*
Y61665D01*
X33960D01*
Y61632D01*
X33994D01*
Y61599D01*
X34027D01*
Y61566D01*
X34060D01*
Y61532D01*
X34093D01*
Y61499D01*
X34126D01*
Y61466D01*
X34160D01*
Y61433D01*
X34193D01*
Y61400D01*
X34226D01*
Y61366D01*
X34260D01*
Y61333D01*
X34293D01*
Y61300D01*
X34326D01*
Y61266D01*
X34359D01*
Y61233D01*
X34392D01*
Y61200D01*
X34426D01*
Y61167D01*
X34459D01*
Y61133D01*
X34492D01*
Y61100D01*
X34525D01*
Y61067D01*
X34559D01*
Y61034D01*
X34592D01*
Y61001D01*
X34625D01*
Y60967D01*
X34659D01*
Y60934D01*
X34692D01*
Y60901D01*
X34725D01*
Y60868D01*
X34758D01*
Y60834D01*
X34791D01*
Y60801D01*
X34825D01*
Y60768D01*
X34858D01*
Y60734D01*
X34891D01*
Y60701D01*
X34925D01*
Y60668D01*
X34958D01*
Y60635D01*
X34991D01*
Y60602D01*
X35024D01*
Y60568D01*
X35058D01*
Y60535D01*
X35091D01*
Y60502D01*
X35124D01*
Y60469D01*
X35157D01*
Y60435D01*
X35190D01*
Y60402D01*
X35224D01*
Y60369D01*
X35257D01*
Y60335D01*
X35290D01*
Y60302D01*
X35324D01*
Y60269D01*
X35357D01*
Y60236D01*
X35390D01*
Y60202D01*
X35423D01*
Y60169D01*
X35456D01*
Y60136D01*
X35490D01*
Y60103D01*
X35523D01*
Y60070D01*
X35556D01*
Y60036D01*
X35590D01*
Y60003D01*
X35623D01*
Y59970D01*
X35656D01*
Y59936D01*
X35689D01*
Y59903D01*
X35723D01*
Y59870D01*
X35756D01*
Y59837D01*
X35789D01*
Y59803D01*
X35822D01*
Y59770D01*
X35855D01*
Y59737D01*
X35889D01*
Y59704D01*
X35922D01*
Y59671D01*
X35955D01*
Y59637D01*
X35989D01*
Y59604D01*
X36022D01*
Y59571D01*
X36055D01*
Y59504D01*
X36088D01*
Y59471D01*
X36121D01*
Y59438D01*
X36155D01*
Y59371D01*
X36188D01*
Y59305D01*
X36221D01*
Y59238D01*
X36255D01*
Y59172D01*
X36288D01*
Y59105D01*
X36321D01*
Y58972D01*
X36354D01*
Y58839D01*
X36388D01*
Y54650D01*
X36354D01*
Y54483D01*
X36321D01*
Y54384D01*
X36288D01*
Y54284D01*
X36255D01*
Y54217D01*
X36221D01*
Y54151D01*
X36188D01*
Y54118D01*
X36155D01*
Y54051D01*
X36121D01*
Y54018D01*
X36088D01*
Y53951D01*
X36055D01*
Y53918D01*
X36022D01*
Y53885D01*
X35989D01*
Y53852D01*
X35955D01*
Y53818D01*
X35922D01*
Y53785D01*
X35889D01*
Y53752D01*
X35855D01*
Y53719D01*
X35822D01*
Y53685D01*
X35789D01*
Y53652D01*
X35756D01*
Y53619D01*
X35723D01*
Y53586D01*
X35689D01*
Y53552D01*
X35656D01*
Y53519D01*
X35623D01*
Y53486D01*
X35590D01*
Y53453D01*
X35556D01*
Y53419D01*
X35523D01*
Y53386D01*
X35490D01*
Y53353D01*
X35456D01*
Y53320D01*
X35423D01*
Y53286D01*
X35390D01*
Y53253D01*
X35357D01*
Y53220D01*
X35324D01*
Y53187D01*
X35290D01*
Y53153D01*
X35257D01*
Y53120D01*
X35224D01*
Y53087D01*
X35190D01*
Y53054D01*
X35157D01*
Y53021D01*
X35124D01*
Y52987D01*
X35091D01*
Y52954D01*
X35058D01*
Y52921D01*
X35024D01*
Y52887D01*
X34991D01*
Y52854D01*
X34958D01*
Y52821D01*
X34925D01*
Y52788D01*
X34891D01*
Y52754D01*
X34858D01*
Y52721D01*
X34825D01*
Y52688D01*
X34791D01*
Y52655D01*
X34758D01*
Y52622D01*
X34725D01*
Y52588D01*
X34692D01*
Y52555D01*
X34659D01*
Y52522D01*
X34625D01*
Y52488D01*
X34592D01*
Y52455D01*
X34559D01*
Y52389D01*
X34525D01*
Y52355D01*
X34492D01*
Y52322D01*
X34459D01*
Y52256D01*
X34426D01*
Y52189D01*
X34392D01*
Y52123D01*
X34359D01*
Y52056D01*
X34326D01*
Y51990D01*
X34293D01*
Y51890D01*
X34260D01*
Y51724D01*
X34226D01*
Y51258D01*
X34260D01*
Y51092D01*
X34293D01*
Y50992D01*
X34326D01*
Y50893D01*
X34359D01*
Y50826D01*
X34392D01*
Y50759D01*
X34426D01*
Y50693D01*
X34459D01*
Y50660D01*
X34492D01*
Y50593D01*
X34525D01*
Y50527D01*
X34559D01*
Y50460D01*
X34592D01*
Y50394D01*
X34625D01*
Y50327D01*
X34659D01*
Y50261D01*
X34692D01*
Y50227D01*
X34725D01*
Y50161D01*
X34758D01*
Y50094D01*
X34791D01*
Y50028D01*
X34825D01*
Y49962D01*
X34858D01*
Y49895D01*
X34891D01*
Y49828D01*
X34925D01*
Y49795D01*
X34958D01*
Y49729D01*
X34991D01*
Y49662D01*
X35024D01*
Y49596D01*
X35058D01*
Y49529D01*
X35091D01*
Y49463D01*
X35124D01*
Y49430D01*
X35157D01*
Y49363D01*
X35190D01*
Y49296D01*
X35224D01*
Y49230D01*
X35257D01*
Y49163D01*
X35290D01*
Y49097D01*
X35324D01*
Y49031D01*
X35357D01*
Y48997D01*
X35390D01*
Y48931D01*
X35423D01*
Y48864D01*
X35456D01*
Y48798D01*
X35490D01*
Y48731D01*
X35523D01*
Y48665D01*
X35556D01*
Y48632D01*
X35590D01*
Y48565D01*
X35623D01*
Y48498D01*
X35656D01*
Y48432D01*
X35689D01*
Y48365D01*
X35723D01*
Y48299D01*
X35756D01*
Y48232D01*
X35789D01*
Y48166D01*
X35822D01*
Y48099D01*
X35855D01*
Y48000D01*
X35889D01*
Y47867D01*
X35922D01*
Y47268D01*
X35889D01*
Y47135D01*
X35855D01*
Y47035D01*
X35822D01*
Y46936D01*
X35789D01*
Y46869D01*
X35756D01*
Y46803D01*
X35723D01*
Y46769D01*
X35689D01*
Y46703D01*
X35656D01*
Y46670D01*
X35623D01*
Y46603D01*
X35590D01*
Y46570D01*
X35556D01*
Y46537D01*
X35523D01*
Y46503D01*
X35490D01*
Y46470D01*
X35456D01*
Y46437D01*
X35423D01*
Y46404D01*
X35390D01*
Y46370D01*
X35357D01*
Y46337D01*
X35290D01*
Y46304D01*
X35257D01*
Y46271D01*
X35190D01*
Y46237D01*
X35157D01*
Y46204D01*
X35091D01*
Y46171D01*
X35024D01*
Y46138D01*
X34925D01*
Y46104D01*
X34825D01*
Y46071D01*
X34659D01*
Y46038D01*
X31766D01*
Y46071D01*
X31633D01*
Y46104D01*
X31533D01*
Y46138D01*
X31433D01*
Y46171D01*
X31367D01*
Y46204D01*
X31300D01*
Y46237D01*
X31234D01*
Y46271D01*
X31201D01*
Y46304D01*
X31134D01*
Y46337D01*
X31101D01*
Y46370D01*
X31067D01*
Y46404D01*
X31034D01*
Y46437D01*
X31001D01*
Y46470D01*
X30968D01*
Y46503D01*
X30935D01*
Y46537D01*
X30901D01*
Y46570D01*
X30868D01*
Y46603D01*
X30835D01*
Y46636D01*
X30801D01*
Y46670D01*
X30768D01*
Y46736D01*
X30735D01*
Y46769D01*
X30702D01*
Y46836D01*
X30669D01*
Y46902D01*
X30635D01*
Y46969D01*
X30602D01*
Y47035D01*
X30569D01*
Y47102D01*
X30536D01*
Y47168D01*
X30502D01*
Y47268D01*
X30469D01*
Y47335D01*
X30436D01*
Y47401D01*
X30402D01*
Y47468D01*
X30369D01*
Y47534D01*
X30336D01*
Y47601D01*
X30303D01*
Y47667D01*
X30270D01*
Y47734D01*
X30236D01*
Y47800D01*
X30203D01*
Y47867D01*
X30170D01*
Y47966D01*
X30136D01*
Y48033D01*
X30103D01*
Y48099D01*
X30070D01*
Y48166D01*
X30037D01*
Y48232D01*
X30003D01*
Y48299D01*
X29970D01*
Y48365D01*
X29937D01*
Y48432D01*
X29904D01*
Y48498D01*
X29871D01*
Y48565D01*
X29837D01*
Y48632D01*
X29804D01*
Y48731D01*
X29771D01*
Y48798D01*
X29737D01*
Y48864D01*
X29704D01*
Y48931D01*
X29671D01*
Y48997D01*
X29638D01*
Y49064D01*
X29605D01*
Y49130D01*
X29571D01*
Y49197D01*
X29538D01*
Y49263D01*
X29505D01*
Y49330D01*
X29471D01*
Y49430D01*
X29438D01*
Y49496D01*
X29405D01*
Y49562D01*
X29372D01*
Y49629D01*
X29338D01*
Y49695D01*
X29305D01*
Y49762D01*
X29272D01*
Y49828D01*
X29239D01*
Y49895D01*
X29206D01*
Y49962D01*
X29172D01*
Y50028D01*
X29139D01*
Y50094D01*
X29106D01*
Y50161D01*
X29072D01*
Y50227D01*
X29039D01*
Y50294D01*
X29006D01*
Y50327D01*
X28973D01*
Y50394D01*
X28940D01*
Y50427D01*
X28906D01*
Y50460D01*
X28873D01*
Y50494D01*
X28840D01*
Y50527D01*
X28806D01*
Y50560D01*
X28773D01*
Y50593D01*
X28740D01*
Y50626D01*
X28707D01*
Y50660D01*
X28673D01*
Y50693D01*
X28607D01*
Y50726D01*
X28541D01*
Y50759D01*
X28507D01*
Y50793D01*
X28441D01*
Y50826D01*
X28341D01*
Y50859D01*
X28275D01*
Y50893D01*
X28141D01*
Y50926D01*
X27975D01*
Y50959D01*
X27277D01*
Y50926D01*
X27111D01*
Y50893D01*
X26978D01*
Y50859D01*
X26911D01*
Y50826D01*
X26812D01*
Y50793D01*
X26745D01*
Y50759D01*
X26712D01*
Y50726D01*
X26645D01*
Y50693D01*
X26612D01*
Y50660D01*
X26546D01*
Y50626D01*
X26512D01*
Y50593D01*
X26479D01*
Y50560D01*
X26446D01*
Y50527D01*
X26412D01*
Y50494D01*
X26379D01*
Y50460D01*
X26346D01*
Y50427D01*
X26313D01*
Y50394D01*
X26280D01*
Y50327D01*
X26246D01*
Y50294D01*
X26213D01*
Y50227D01*
X26180D01*
Y50161D01*
X26147D01*
Y50094D01*
X26113D01*
Y50028D01*
X26080D01*
Y49928D01*
X26047D01*
Y49828D01*
X26013D01*
Y49596D01*
X25980D01*
Y49363D01*
Y49330D01*
Y47268D01*
X25947D01*
Y47135D01*
X25914D01*
Y47035D01*
X25881D01*
Y46936D01*
X25847D01*
Y46869D01*
X25814D01*
Y46803D01*
X25781D01*
Y46769D01*
X25747D01*
Y46703D01*
X25714D01*
Y46670D01*
X25681D01*
Y46636D01*
X25648D01*
Y46570D01*
X25615D01*
Y46537D01*
X25581D01*
Y46503D01*
X25548D01*
Y46470D01*
X25515D01*
Y46437D01*
X25482D01*
Y46404D01*
X25448D01*
Y46370D01*
X25382D01*
Y46337D01*
X25348D01*
Y46304D01*
X25315D01*
Y46271D01*
X25249D01*
Y46237D01*
X25182D01*
Y46204D01*
X25149D01*
Y46171D01*
X25049D01*
Y46138D01*
X24983D01*
Y46104D01*
X24883D01*
Y46071D01*
X24717D01*
Y46038D01*
X21724D01*
Y46071D01*
X21591D01*
Y46104D01*
X21492D01*
Y46138D01*
X21392D01*
Y46171D01*
X21325D01*
Y46204D01*
X21259D01*
Y46237D01*
X21192D01*
Y46271D01*
X21159D01*
Y46304D01*
X21092D01*
Y46337D01*
X21059D01*
Y46370D01*
X21026D01*
Y46404D01*
X20993D01*
Y46437D01*
X20959D01*
Y46470D01*
X20926D01*
Y46503D01*
X20893D01*
Y46537D01*
X20860D01*
Y46570D01*
X20827D01*
Y46603D01*
X20793D01*
Y46636D01*
X20760D01*
Y46703D01*
X20727D01*
Y46736D01*
X20694D01*
Y46803D01*
X20660D01*
Y46836D01*
X20627D01*
Y46902D01*
X20594D01*
Y47002D01*
X20561D01*
Y47069D01*
X20527D01*
Y47202D01*
X20494D01*
Y47368D01*
X20461D01*
Y61200D01*
X20494D01*
Y61366D01*
X20527D01*
Y61466D01*
X20561D01*
Y61566D01*
X20594D01*
Y61632D01*
X20627D01*
Y61699D01*
X20660D01*
Y61765D01*
X20694D01*
Y61799D01*
X20727D01*
Y61865D01*
X20760D01*
Y61898D01*
X20793D01*
Y61932D01*
X20827D01*
Y61965D01*
X20860D01*
Y61998D01*
X20893D01*
Y62031D01*
X20926D01*
Y62064D01*
X20959D01*
Y62098D01*
X20993D01*
Y62131D01*
X21026D01*
Y62164D01*
X21059D01*
Y62198D01*
X21092D01*
Y62231D01*
X21159D01*
Y62264D01*
X21192D01*
Y62297D01*
X21259D01*
Y62331D01*
X21325D01*
Y62364D01*
X21392D01*
Y62397D01*
X21458D01*
Y62430D01*
X21558D01*
Y62463D01*
X21724D01*
Y62497D01*
X32730D01*
Y62463D01*
D02*
G37*
G36*
X113870Y50439D02*
X88681D01*
Y58760D01*
X113870D01*
Y50439D01*
D02*
G37*
%LPC*%
G36*
X29638Y59970D02*
X29372D01*
Y59936D01*
X29305D01*
Y59903D01*
X29239D01*
Y59870D01*
X29206D01*
Y59803D01*
X29172D01*
Y59770D01*
X29139D01*
Y59637D01*
X29106D01*
Y59172D01*
X28840D01*
Y59205D01*
X28806D01*
Y59737D01*
X28773D01*
Y59803D01*
X28740D01*
Y59870D01*
X28707D01*
Y59903D01*
X28640D01*
Y59936D01*
X28574D01*
Y59970D01*
X28308D01*
Y59936D01*
X28241D01*
Y59903D01*
X28208D01*
Y59870D01*
X28175D01*
Y59837D01*
X28141D01*
Y59803D01*
X28108D01*
Y59704D01*
X28075D01*
Y59272D01*
Y59238D01*
Y59205D01*
X28042D01*
Y59172D01*
X27809D01*
Y59205D01*
X27776D01*
Y59704D01*
X27742D01*
Y59803D01*
X27709D01*
Y59837D01*
X27676D01*
Y59870D01*
X27643D01*
Y59903D01*
X27610D01*
Y59936D01*
X27543D01*
Y59970D01*
X27277D01*
Y59936D01*
X27211D01*
Y59903D01*
X27144D01*
Y59870D01*
X27111D01*
Y59803D01*
X27077D01*
Y59737D01*
X27044D01*
Y59205D01*
X27011D01*
Y59172D01*
X25980D01*
Y58108D01*
X25482D01*
Y58074D01*
X25382D01*
Y58041D01*
X25315D01*
Y58008D01*
X25282D01*
Y57975D01*
X25249D01*
Y57908D01*
X25216D01*
Y57842D01*
X25182D01*
Y57609D01*
X25216D01*
Y57543D01*
X25249D01*
Y57476D01*
X25282D01*
Y57443D01*
X25348D01*
Y57410D01*
X25382D01*
Y57376D01*
X25548D01*
Y57343D01*
X25980D01*
Y57077D01*
X25947D01*
Y57044D01*
X25415D01*
Y57011D01*
X25348D01*
Y56977D01*
X25315D01*
Y56944D01*
X25282D01*
Y56911D01*
X25249D01*
Y56877D01*
X25216D01*
Y56778D01*
X25182D01*
Y56578D01*
X25216D01*
Y56512D01*
X25249D01*
Y56445D01*
X25282D01*
Y56412D01*
X25315D01*
Y56379D01*
X25382D01*
Y56345D01*
X25448D01*
Y56312D01*
X25980D01*
Y56013D01*
X25448D01*
Y55980D01*
X25382D01*
Y55946D01*
X25315D01*
Y55913D01*
X25282D01*
Y55880D01*
X25249D01*
Y55813D01*
X25216D01*
Y55747D01*
X25182D01*
Y55547D01*
X25216D01*
Y55448D01*
X25249D01*
Y55414D01*
X25282D01*
Y55348D01*
X25348D01*
Y55315D01*
X25415D01*
Y55282D01*
X25947D01*
Y55248D01*
X25980D01*
Y54217D01*
X29771D01*
Y54251D01*
X29937D01*
Y54284D01*
X30037D01*
Y54317D01*
X30136D01*
Y54351D01*
X30203D01*
Y54384D01*
X30270D01*
Y54417D01*
X30303D01*
Y54450D01*
X30369D01*
Y54483D01*
X30402D01*
Y54517D01*
X30436D01*
Y54550D01*
X30469D01*
Y54583D01*
X30502D01*
Y54616D01*
X30536D01*
Y54650D01*
X30569D01*
Y54683D01*
X30602D01*
Y54716D01*
X30635D01*
Y54783D01*
X30669D01*
Y54816D01*
X30702D01*
Y54882D01*
X30735D01*
Y54949D01*
X30768D01*
Y55015D01*
X30801D01*
Y55115D01*
X30835D01*
Y55215D01*
X30868D01*
Y55381D01*
X30901D01*
Y59172D01*
X29904D01*
Y59205D01*
X29871D01*
Y59671D01*
X29837D01*
Y59770D01*
X29804D01*
Y59837D01*
X29771D01*
Y59870D01*
X29737D01*
Y59903D01*
X29704D01*
Y59936D01*
X29638D01*
Y59970D01*
D02*
G37*
G36*
X91924Y55837D02*
X91870D01*
X91770Y55829D01*
X91675Y55812D01*
X91587Y55783D01*
X91504Y55750D01*
X91429Y55704D01*
X91358Y55658D01*
X91296Y55604D01*
X91238Y55554D01*
X91188Y55500D01*
X91146Y55446D01*
X91109Y55400D01*
X91080Y55355D01*
X91055Y55321D01*
X91038Y55292D01*
X91030Y55276D01*
X91026Y55267D01*
Y55758D01*
X90256D01*
Y52093D01*
X91026D01*
Y54635D01*
X91084Y54714D01*
X91146Y54785D01*
X91208Y54847D01*
X91271Y54897D01*
X91338Y54943D01*
X91400Y54976D01*
X91458Y55009D01*
X91516Y55030D01*
X91571Y55051D01*
X91620Y55063D01*
X91662Y55076D01*
X91699Y55080D01*
X91733Y55084D01*
X91754Y55088D01*
X91862D01*
X91945Y55080D01*
X92024Y55076D01*
X92090Y55068D01*
X92149Y55059D01*
X92190Y55055D01*
X92207Y55051D01*
X92219Y55047D01*
X92228D01*
Y55800D01*
X92149Y55812D01*
X92078Y55821D01*
X92020Y55829D01*
X91966Y55833D01*
X91924Y55837D01*
D02*
G37*
G36*
X97719D02*
X97657D01*
X97540Y55833D01*
X97432Y55825D01*
X97332Y55808D01*
X97236Y55787D01*
X97145Y55766D01*
X97062Y55742D01*
X96987Y55712D01*
X96916Y55683D01*
X96858Y55654D01*
X96804Y55625D01*
X96758Y55600D01*
X96720Y55579D01*
X96687Y55559D01*
X96667Y55542D01*
X96654Y55533D01*
X96650Y55529D01*
X96583Y55471D01*
X96525Y55409D01*
X96475Y55346D01*
X96429Y55280D01*
X96396Y55217D01*
X96363Y55151D01*
X96338Y55088D01*
X96317Y55030D01*
X96305Y54972D01*
X96292Y54922D01*
X96284Y54872D01*
X96275Y54835D01*
Y54801D01*
X96271Y54776D01*
Y54760D01*
Y54756D01*
X96275Y54660D01*
X96284Y54573D01*
X96300Y54493D01*
X96321Y54419D01*
X96342Y54352D01*
X96367Y54294D01*
X96396Y54240D01*
X96425Y54194D01*
X96454Y54152D01*
X96483Y54115D01*
X96508Y54086D01*
X96529Y54065D01*
X96550Y54044D01*
X96567Y54032D01*
X96575Y54028D01*
X96579Y54023D01*
X96641Y53986D01*
X96708Y53949D01*
X96779Y53915D01*
X96854Y53882D01*
X97008Y53820D01*
X97162Y53765D01*
X97232Y53745D01*
X97299Y53724D01*
X97357Y53703D01*
X97407Y53691D01*
X97453Y53678D01*
X97482Y53670D01*
X97503Y53662D01*
X97511D01*
X97623Y53632D01*
X97727Y53607D01*
X97819Y53578D01*
X97902Y53557D01*
X97977Y53537D01*
X98039Y53516D01*
X98097Y53495D01*
X98147Y53478D01*
X98189Y53466D01*
X98226Y53453D01*
X98256Y53441D01*
X98276Y53433D01*
X98293Y53424D01*
X98305Y53420D01*
X98314Y53416D01*
X98347Y53399D01*
X98372Y53379D01*
X98418Y53337D01*
X98451Y53291D01*
X98472Y53246D01*
X98484Y53204D01*
X98488Y53171D01*
X98493Y53146D01*
Y53141D01*
Y53137D01*
Y53100D01*
X98484Y53062D01*
X98464Y52992D01*
X98435Y52929D01*
X98401Y52879D01*
X98368Y52838D01*
X98339Y52805D01*
X98318Y52788D01*
X98314Y52780D01*
X98310D01*
X98272Y52755D01*
X98235Y52734D01*
X98147Y52696D01*
X98056Y52671D01*
X97969Y52655D01*
X97890Y52646D01*
X97856Y52642D01*
X97823D01*
X97798Y52638D01*
X97690D01*
X97623Y52646D01*
X97561Y52655D01*
X97499Y52667D01*
X97390Y52696D01*
X97299Y52738D01*
X97220Y52788D01*
X97157Y52842D01*
X97103Y52900D01*
X97057Y52963D01*
X97024Y53021D01*
X96999Y53079D01*
X96978Y53133D01*
X96966Y53183D01*
X96958Y53225D01*
X96953Y53254D01*
Y53275D01*
Y53283D01*
X96188D01*
X96201Y53167D01*
X96217Y53058D01*
X96242Y52959D01*
X96275Y52863D01*
X96317Y52775D01*
X96363Y52696D01*
X96413Y52617D01*
X96467Y52551D01*
X96525Y52484D01*
X96587Y52426D01*
X96654Y52372D01*
X96720Y52322D01*
X96791Y52280D01*
X96862Y52239D01*
X96933Y52205D01*
X97008Y52172D01*
X97153Y52122D01*
X97290Y52081D01*
X97419Y52052D01*
X97478Y52043D01*
X97536Y52035D01*
X97586Y52027D01*
X97632Y52022D01*
X97673Y52018D01*
X97707D01*
X97736Y52014D01*
X97773D01*
X97898Y52018D01*
X98014Y52027D01*
X98123Y52043D01*
X98226Y52068D01*
X98322Y52093D01*
X98409Y52118D01*
X98493Y52151D01*
X98563Y52181D01*
X98630Y52210D01*
X98688Y52243D01*
X98738Y52268D01*
X98776Y52297D01*
X98809Y52318D01*
X98834Y52334D01*
X98846Y52343D01*
X98851Y52347D01*
X98921Y52413D01*
X98984Y52480D01*
X99038Y52551D01*
X99088Y52622D01*
X99125Y52692D01*
X99158Y52763D01*
X99187Y52829D01*
X99208Y52896D01*
X99225Y52959D01*
X99237Y53017D01*
X99246Y53067D01*
X99254Y53108D01*
Y53146D01*
X99258Y53175D01*
Y53196D01*
X99254Y53291D01*
X99246Y53383D01*
X99229Y53466D01*
X99208Y53541D01*
X99179Y53612D01*
X99154Y53674D01*
X99121Y53728D01*
X99092Y53778D01*
X99063Y53820D01*
X99029Y53857D01*
X99004Y53886D01*
X98979Y53911D01*
X98954Y53928D01*
X98938Y53944D01*
X98930Y53949D01*
X98925Y53953D01*
X98859Y53994D01*
X98788Y54032D01*
X98713Y54069D01*
X98634Y54102D01*
X98472Y54169D01*
X98314Y54223D01*
X98243Y54248D01*
X98172Y54269D01*
X98110Y54286D01*
X98056Y54298D01*
X98014Y54311D01*
X97981Y54319D01*
X97960Y54327D01*
X97952D01*
X97840Y54356D01*
X97736Y54381D01*
X97644Y54406D01*
X97561Y54431D01*
X97486Y54452D01*
X97424Y54473D01*
X97369Y54489D01*
X97324Y54506D01*
X97282Y54519D01*
X97253Y54531D01*
X97224Y54539D01*
X97207Y54548D01*
X97191Y54556D01*
X97182Y54560D01*
X97174Y54564D01*
X97128Y54598D01*
X97095Y54635D01*
X97070Y54677D01*
X97053Y54718D01*
X97045Y54756D01*
X97041Y54785D01*
X97037Y54805D01*
Y54814D01*
X97041Y54847D01*
X97045Y54880D01*
X97066Y54939D01*
X97095Y54989D01*
X97128Y55030D01*
X97162Y55063D01*
X97191Y55084D01*
X97211Y55101D01*
X97220Y55105D01*
X97295Y55138D01*
X97374Y55163D01*
X97453Y55184D01*
X97528Y55197D01*
X97594Y55205D01*
X97623D01*
X97648Y55209D01*
X97698D01*
X97815Y55205D01*
X97914Y55188D01*
X98002Y55163D01*
X98077Y55130D01*
X98143Y55093D01*
X98197Y55051D01*
X98247Y55005D01*
X98285Y54959D01*
X98314Y54914D01*
X98335Y54868D01*
X98351Y54826D01*
X98364Y54789D01*
X98372Y54756D01*
X98376Y54731D01*
X98380Y54714D01*
Y54710D01*
X99142D01*
X99133Y54814D01*
X99121Y54909D01*
X99096Y54997D01*
X99067Y55080D01*
X99033Y55159D01*
X98992Y55234D01*
X98946Y55301D01*
X98896Y55363D01*
X98842Y55417D01*
X98784Y55471D01*
X98721Y55517D01*
X98659Y55563D01*
X98526Y55638D01*
X98389Y55696D01*
X98251Y55742D01*
X98118Y55779D01*
X97993Y55804D01*
X97935Y55812D01*
X97885Y55821D01*
X97835Y55825D01*
X97790Y55829D01*
X97752Y55833D01*
X97719Y55837D01*
D02*
G37*
G36*
X95572Y55758D02*
X94807D01*
Y53183D01*
X94732Y53092D01*
X94653Y53013D01*
X94574Y52942D01*
X94499Y52884D01*
X94420Y52834D01*
X94349Y52792D01*
X94279Y52755D01*
X94212Y52730D01*
X94150Y52705D01*
X94091Y52692D01*
X94042Y52680D01*
X94000Y52671D01*
X93963Y52667D01*
X93937Y52663D01*
X93858D01*
X93804Y52671D01*
X93709Y52688D01*
X93630Y52717D01*
X93567Y52746D01*
X93521Y52775D01*
X93484Y52805D01*
X93467Y52821D01*
X93459Y52829D01*
X93434Y52863D01*
X93413Y52900D01*
X93384Y52992D01*
X93359Y53087D01*
X93343Y53183D01*
X93334Y53271D01*
X93330Y53308D01*
Y53341D01*
X93326Y53370D01*
Y53391D01*
Y53404D01*
Y53408D01*
Y55758D01*
X92556D01*
Y53383D01*
X92560Y53258D01*
X92569Y53141D01*
X92590Y53033D01*
X92611Y52929D01*
X92640Y52838D01*
X92673Y52746D01*
X92710Y52667D01*
X92756Y52592D01*
X92802Y52522D01*
X92852Y52459D01*
X92902Y52401D01*
X92956Y52347D01*
X93014Y52301D01*
X93072Y52260D01*
X93130Y52218D01*
X93189Y52185D01*
X93305Y52131D01*
X93422Y52085D01*
X93530Y52056D01*
X93625Y52035D01*
X93667Y52027D01*
X93704Y52022D01*
X93738Y52018D01*
X93767D01*
X93792Y52014D01*
X93821D01*
X93933Y52018D01*
X94042Y52035D01*
X94141Y52064D01*
X94237Y52097D01*
X94324Y52135D01*
X94403Y52181D01*
X94478Y52226D01*
X94545Y52276D01*
X94607Y52326D01*
X94657Y52372D01*
X94703Y52418D01*
X94740Y52455D01*
X94770Y52488D01*
X94790Y52517D01*
X94803Y52534D01*
X94807Y52538D01*
Y52093D01*
X95572D01*
Y55758D01*
D02*
G37*
G36*
X112296Y57102D02*
X111526D01*
Y52093D01*
X112296D01*
Y57102D01*
D02*
G37*
G36*
X105336Y57185D02*
X105303D01*
X105174Y57181D01*
X105049Y57168D01*
X104932Y57148D01*
X104820Y57123D01*
X104716Y57094D01*
X104620Y57056D01*
X104537Y57023D01*
X104458Y56985D01*
X104387Y56944D01*
X104325Y56911D01*
X104271Y56877D01*
X104225Y56844D01*
X104192Y56819D01*
X104167Y56798D01*
X104150Y56786D01*
X104146Y56782D01*
X104067Y56703D01*
X103996Y56619D01*
X103938Y56528D01*
X103884Y56436D01*
X103834Y56341D01*
X103797Y56245D01*
X103763Y56149D01*
X103734Y56062D01*
X103709Y55975D01*
X103693Y55895D01*
X103676Y55821D01*
X103668Y55762D01*
X103659Y55708D01*
X103655Y55671D01*
X103651Y55646D01*
Y55642D01*
Y55638D01*
X104433D01*
X104441Y55725D01*
X104454Y55808D01*
X104471Y55883D01*
X104491Y55954D01*
X104512Y56020D01*
X104537Y56074D01*
X104562Y56128D01*
X104583Y56174D01*
X104608Y56212D01*
X104633Y56249D01*
X104654Y56278D01*
X104670Y56299D01*
X104687Y56320D01*
X104699Y56332D01*
X104704Y56336D01*
X104708Y56341D01*
X104753Y56378D01*
X104803Y56411D01*
X104849Y56440D01*
X104899Y56465D01*
X104999Y56503D01*
X105086Y56532D01*
X105165Y56544D01*
X105199Y56549D01*
X105228Y56553D01*
X105253Y56557D01*
X105286D01*
X105357Y56553D01*
X105423Y56549D01*
X105486Y56536D01*
X105544Y56524D01*
X105598Y56507D01*
X105648Y56490D01*
X105694Y56470D01*
X105735Y56453D01*
X105769Y56432D01*
X105802Y56411D01*
X105827Y56395D01*
X105852Y56378D01*
X105868Y56366D01*
X105881Y56353D01*
X105885Y56349D01*
X105889Y56345D01*
X105927Y56303D01*
X105960Y56257D01*
X105989Y56212D01*
X106014Y56166D01*
X106051Y56066D01*
X106080Y55975D01*
X106093Y55891D01*
X106097Y55854D01*
X106101Y55825D01*
X106105Y55800D01*
Y55779D01*
Y55766D01*
Y55762D01*
X106101Y55683D01*
X106093Y55608D01*
X106080Y55533D01*
X106064Y55463D01*
X106043Y55396D01*
X106022Y55334D01*
X105997Y55271D01*
X105972Y55217D01*
X105947Y55167D01*
X105922Y55126D01*
X105902Y55084D01*
X105881Y55055D01*
X105864Y55026D01*
X105852Y55009D01*
X105843Y54997D01*
X105839Y54993D01*
X105785Y54926D01*
X105723Y54855D01*
X105648Y54781D01*
X105573Y54702D01*
X105407Y54548D01*
X105240Y54398D01*
X105161Y54327D01*
X105086Y54265D01*
X105020Y54207D01*
X104962Y54157D01*
X104912Y54115D01*
X104874Y54082D01*
X104849Y54065D01*
X104845Y54057D01*
X104841D01*
X104708Y53949D01*
X104587Y53840D01*
X104475Y53741D01*
X104371Y53649D01*
X104279Y53557D01*
X104192Y53474D01*
X104117Y53395D01*
X104055Y53325D01*
X103996Y53262D01*
X103946Y53208D01*
X103905Y53158D01*
X103876Y53117D01*
X103851Y53083D01*
X103830Y53062D01*
X103822Y53046D01*
X103817Y53042D01*
X103768Y52963D01*
X103726Y52884D01*
X103689Y52800D01*
X103655Y52717D01*
X103626Y52638D01*
X103605Y52559D01*
X103585Y52484D01*
X103572Y52413D01*
X103560Y52343D01*
X103551Y52285D01*
X103543Y52231D01*
X103539Y52185D01*
X103535Y52147D01*
Y52093D01*
X106904D01*
Y52809D01*
X104550D01*
X104554Y52821D01*
X104562Y52838D01*
X104575Y52855D01*
X104591Y52875D01*
X104637Y52925D01*
X104691Y52983D01*
X104758Y53046D01*
X104832Y53117D01*
X104912Y53187D01*
X104991Y53262D01*
X105074Y53333D01*
X105149Y53399D01*
X105224Y53462D01*
X105290Y53520D01*
X105344Y53566D01*
X105386Y53603D01*
X105403Y53616D01*
X105415Y53624D01*
X105419Y53632D01*
X105423D01*
X105577Y53765D01*
X105719Y53886D01*
X105852Y54007D01*
X105968Y54115D01*
X106076Y54215D01*
X106172Y54311D01*
X106255Y54394D01*
X106330Y54473D01*
X106393Y54539D01*
X106447Y54602D01*
X106492Y54652D01*
X106526Y54697D01*
X106555Y54731D01*
X106571Y54751D01*
X106584Y54768D01*
X106588Y54772D01*
X106642Y54851D01*
X106688Y54935D01*
X106729Y55022D01*
X106763Y55105D01*
X106792Y55188D01*
X106817Y55267D01*
X106838Y55346D01*
X106854Y55421D01*
X106867Y55488D01*
X106875Y55554D01*
X106883Y55608D01*
X106888Y55658D01*
X106892Y55696D01*
Y55725D01*
Y55746D01*
Y55750D01*
X106888Y55862D01*
X106875Y55970D01*
X106854Y56070D01*
X106825Y56166D01*
X106796Y56257D01*
X106759Y56341D01*
X106721Y56420D01*
X106684Y56490D01*
X106642Y56553D01*
X106605Y56611D01*
X106567Y56661D01*
X106538Y56698D01*
X106509Y56732D01*
X106488Y56752D01*
X106476Y56769D01*
X106472Y56773D01*
X106388Y56844D01*
X106301Y56911D01*
X106210Y56965D01*
X106114Y57010D01*
X106018Y57052D01*
X105918Y57085D01*
X105823Y57110D01*
X105731Y57135D01*
X105644Y57152D01*
X105565Y57164D01*
X105490Y57173D01*
X105427Y57177D01*
X105373Y57181D01*
X105336Y57185D01*
D02*
G37*
G36*
X110444Y56636D02*
X109679D01*
Y55758D01*
X109242D01*
Y55126D01*
X109679D01*
Y53196D01*
X109683Y53058D01*
X109687Y52938D01*
X109691Y52884D01*
X109696Y52834D01*
X109700Y52788D01*
X109704Y52746D01*
X109708Y52709D01*
X109712Y52676D01*
Y52646D01*
X109716Y52622D01*
X109721Y52605D01*
X109725Y52592D01*
Y52584D01*
Y52580D01*
X109750Y52497D01*
X109783Y52422D01*
X109825Y52359D01*
X109866Y52301D01*
X109904Y52260D01*
X109937Y52226D01*
X109962Y52205D01*
X109966Y52197D01*
X109970D01*
X110012Y52172D01*
X110053Y52147D01*
X110149Y52110D01*
X110253Y52085D01*
X110353Y52068D01*
X110399Y52060D01*
X110440Y52056D01*
X110482Y52052D01*
X110515D01*
X110544Y52047D01*
X110582D01*
X110677Y52052D01*
X110769Y52056D01*
X110856Y52064D01*
X110935Y52072D01*
X111002Y52081D01*
X111031Y52085D01*
X111056Y52089D01*
X111077Y52093D01*
X111089Y52097D01*
X111102D01*
Y52701D01*
X111019Y52692D01*
X110944Y52684D01*
X110881Y52680D01*
X110823Y52676D01*
X110781Y52671D01*
X110719D01*
X110673Y52676D01*
X110632Y52684D01*
X110598Y52696D01*
X110569Y52709D01*
X110544Y52721D01*
X110528Y52734D01*
X110519Y52742D01*
X110515Y52746D01*
X110503Y52763D01*
X110490Y52788D01*
X110482Y52813D01*
X110474Y52846D01*
X110461Y52913D01*
X110453Y52983D01*
X110449Y53050D01*
Y53083D01*
X110444Y53108D01*
Y53129D01*
Y53150D01*
Y53158D01*
Y53162D01*
Y55126D01*
X111019D01*
Y55758D01*
X110444D01*
Y56636D01*
D02*
G37*
G36*
X108510D02*
X107745D01*
Y55758D01*
X107308D01*
Y55126D01*
X107745D01*
Y53196D01*
X107749Y53058D01*
X107753Y52938D01*
X107757Y52884D01*
X107761Y52834D01*
X107765Y52788D01*
X107770Y52746D01*
X107774Y52709D01*
X107778Y52676D01*
Y52646D01*
X107782Y52622D01*
X107786Y52605D01*
X107790Y52592D01*
Y52584D01*
Y52580D01*
X107815Y52497D01*
X107849Y52422D01*
X107890Y52359D01*
X107932Y52301D01*
X107969Y52260D01*
X108002Y52226D01*
X108027Y52205D01*
X108032Y52197D01*
X108036D01*
X108077Y52172D01*
X108119Y52147D01*
X108215Y52110D01*
X108319Y52085D01*
X108419Y52068D01*
X108464Y52060D01*
X108506Y52056D01*
X108547Y52052D01*
X108581D01*
X108610Y52047D01*
X108647D01*
X108743Y52052D01*
X108835Y52056D01*
X108922Y52064D01*
X109001Y52072D01*
X109067Y52081D01*
X109097Y52085D01*
X109122Y52089D01*
X109142Y52093D01*
X109155Y52097D01*
X109167D01*
Y52701D01*
X109084Y52692D01*
X109009Y52684D01*
X108947Y52680D01*
X108888Y52676D01*
X108847Y52671D01*
X108784D01*
X108739Y52676D01*
X108697Y52684D01*
X108664Y52696D01*
X108635Y52709D01*
X108610Y52721D01*
X108593Y52734D01*
X108585Y52742D01*
X108581Y52746D01*
X108568Y52763D01*
X108556Y52788D01*
X108547Y52813D01*
X108539Y52846D01*
X108527Y52913D01*
X108518Y52983D01*
X108514Y53050D01*
Y53083D01*
X108510Y53108D01*
Y53129D01*
Y53150D01*
Y53158D01*
Y53162D01*
Y55126D01*
X109084D01*
Y55758D01*
X108510D01*
Y56636D01*
D02*
G37*
G36*
X100689Y57102D02*
X99920D01*
Y52093D01*
X100689D01*
Y52364D01*
X100747Y52301D01*
X100810Y52247D01*
X100881Y52201D01*
X100951Y52160D01*
X101026Y52126D01*
X101101Y52101D01*
X101172Y52077D01*
X101242Y52060D01*
X101313Y52043D01*
X101376Y52031D01*
X101430Y52027D01*
X101480Y52018D01*
X101521D01*
X101555Y52014D01*
X101579D01*
X101704Y52018D01*
X101821Y52035D01*
X101933Y52064D01*
X102041Y52097D01*
X102141Y52135D01*
X102233Y52181D01*
X102316Y52226D01*
X102395Y52276D01*
X102461Y52326D01*
X102524Y52372D01*
X102574Y52418D01*
X102619Y52455D01*
X102653Y52488D01*
X102678Y52517D01*
X102694Y52534D01*
X102699Y52538D01*
X102778Y52642D01*
X102844Y52750D01*
X102907Y52863D01*
X102956Y52979D01*
X102998Y53100D01*
X103035Y53216D01*
X103065Y53333D01*
X103089Y53441D01*
X103106Y53545D01*
X103119Y53645D01*
X103131Y53732D01*
X103135Y53807D01*
X103139Y53865D01*
X103144Y53895D01*
Y53953D01*
X103139Y54111D01*
X103127Y54256D01*
X103106Y54398D01*
X103081Y54527D01*
X103052Y54652D01*
X103019Y54764D01*
X102981Y54864D01*
X102948Y54959D01*
X102911Y55043D01*
X102873Y55113D01*
X102840Y55176D01*
X102811Y55230D01*
X102786Y55267D01*
X102765Y55296D01*
X102752Y55317D01*
X102748Y55321D01*
X102669Y55413D01*
X102586Y55492D01*
X102499Y55563D01*
X102407Y55621D01*
X102312Y55671D01*
X102220Y55712D01*
X102129Y55746D01*
X102037Y55775D01*
X101954Y55796D01*
X101875Y55808D01*
X101808Y55821D01*
X101746Y55829D01*
X101696Y55833D01*
X101658Y55837D01*
X101625D01*
X101513Y55833D01*
X101405Y55816D01*
X101309Y55791D01*
X101217Y55758D01*
X101130Y55721D01*
X101055Y55679D01*
X100985Y55633D01*
X100922Y55588D01*
X100868Y55542D01*
X100822Y55496D01*
X100781Y55454D01*
X100747Y55417D01*
X100723Y55384D01*
X100706Y55359D01*
X100693Y55342D01*
X100689Y55338D01*
Y57102D01*
D02*
G37*
%LPD*%
G36*
X101634Y55205D02*
X101696Y55197D01*
X101758Y55180D01*
X101812Y55159D01*
X101912Y55109D01*
X101954Y55080D01*
X101995Y55051D01*
X102029Y55022D01*
X102058Y54993D01*
X102087Y54968D01*
X102108Y54943D01*
X102124Y54922D01*
X102137Y54905D01*
X102141Y54897D01*
X102145Y54893D01*
X102183Y54830D01*
X102216Y54764D01*
X102245Y54689D01*
X102270Y54614D01*
X102307Y54460D01*
X102332Y54306D01*
X102341Y54236D01*
X102345Y54169D01*
X102349Y54107D01*
X102353Y54057D01*
X102357Y54011D01*
Y53982D01*
Y53961D01*
Y53953D01*
X102353Y53832D01*
X102349Y53720D01*
X102337Y53616D01*
X102324Y53516D01*
X102307Y53429D01*
X102287Y53345D01*
X102266Y53275D01*
X102245Y53208D01*
X102224Y53150D01*
X102203Y53100D01*
X102187Y53058D01*
X102166Y53025D01*
X102154Y52996D01*
X102141Y52979D01*
X102137Y52967D01*
X102133Y52963D01*
X102091Y52904D01*
X102041Y52855D01*
X101995Y52813D01*
X101945Y52775D01*
X101896Y52742D01*
X101846Y52717D01*
X101800Y52696D01*
X101754Y52680D01*
X101671Y52655D01*
X101634Y52646D01*
X101604Y52642D01*
X101579D01*
X101559Y52638D01*
X101542D01*
X101451Y52642D01*
X101363Y52655D01*
X101280Y52676D01*
X101201Y52701D01*
X101126Y52730D01*
X101055Y52759D01*
X100993Y52796D01*
X100931Y52834D01*
X100876Y52867D01*
X100831Y52904D01*
X100789Y52934D01*
X100752Y52967D01*
X100727Y52988D01*
X100706Y53008D01*
X100693Y53021D01*
X100689Y53025D01*
Y54652D01*
X100764Y54751D01*
X100839Y54835D01*
X100918Y54909D01*
X100993Y54976D01*
X101068Y55026D01*
X101143Y55072D01*
X101209Y55109D01*
X101276Y55138D01*
X101338Y55163D01*
X101392Y55180D01*
X101442Y55192D01*
X101484Y55201D01*
X101521Y55205D01*
X101546Y55209D01*
X101567D01*
X101634Y55205D01*
D02*
G37*
D10*
X52034Y18425D02*
G03*
X52034Y18425I-394J0D01*
G01*
X31693Y35146D02*
G03*
X31693Y35146I-394J0D01*
G01*
X120571Y295D02*
G03*
X120571Y295I-394J0D01*
G01*
X110138Y38287D02*
Y35531D01*
X111515D01*
X111975Y35991D01*
Y37827D01*
X111515Y38287D01*
X110138D01*
X114729D02*
X112893D01*
Y35531D01*
X114729D01*
X112893Y36909D02*
X113811D01*
X110138Y27952D02*
X111975D01*
X111056D01*
Y25197D01*
X112893Y27952D02*
X114729Y25197D01*
Y27952D02*
X112893Y25197D01*
X115648Y27952D02*
Y25197D01*
X117025D01*
X117484Y25656D01*
Y27493D01*
X117025Y27952D01*
X115648D01*
X110138Y17355D02*
X110597Y17814D01*
X111515D01*
X111975Y17355D01*
Y16896D01*
X111515Y16437D01*
X111056D01*
X111515D01*
X111975Y15977D01*
Y15518D01*
X111515Y15059D01*
X110597D01*
X110138Y15518D01*
X112893Y15059D02*
Y15518D01*
X113352D01*
Y15059D01*
X112893D01*
X115189Y17355D02*
X115648Y17814D01*
X116566D01*
X117025Y17355D01*
Y16896D01*
X116566Y16437D01*
X116107D01*
X116566D01*
X117025Y15977D01*
Y15518D01*
X116566Y15059D01*
X115648D01*
X115189Y15518D01*
X117944Y17814D02*
Y15977D01*
X118862Y15059D01*
X119780Y15977D01*
Y17814D01*
X75755Y-17323D02*
Y-19619D01*
X76214Y-20078D01*
X77133D01*
X77592Y-19619D01*
Y-17323D01*
X78510Y-17783D02*
X78970Y-17323D01*
X79888D01*
X80347Y-17783D01*
Y-18242D01*
X79888Y-18701D01*
X79429D01*
X79888D01*
X80347Y-19160D01*
Y-19619D01*
X79888Y-20078D01*
X78970D01*
X78510Y-19619D01*
X101510Y36811D02*
X103347Y34056D01*
Y36811D02*
X101510Y34056D01*
X104265D02*
X105183D01*
X104724D01*
Y36811D01*
X104265Y36351D01*
X11779Y44881D02*
X13616Y42126D01*
Y44881D02*
X11779Y42126D01*
X16371D02*
X14534D01*
X16371Y43963D01*
Y44422D01*
X15912Y44881D01*
X14993D01*
X14534Y44422D01*
X39830Y14468D02*
Y12172D01*
X40289Y11713D01*
X41208D01*
X41667Y12172D01*
Y14468D01*
X44422Y11713D02*
X42585D01*
X44422Y13550D01*
Y14009D01*
X43963Y14468D01*
X43044D01*
X42585Y14009D01*
X60565Y32185D02*
Y29889D01*
X61024Y29430D01*
X61942D01*
X62402Y29889D01*
Y32185D01*
X63320Y29430D02*
X64238D01*
X63779D01*
Y32185D01*
X63320Y31725D01*
X78511Y3741D02*
Y6496D01*
X79889D01*
X80348Y6036D01*
Y5118D01*
X79889Y4659D01*
X78511D01*
X79430D02*
X80348Y3741D01*
X82644D02*
Y6496D01*
X81266Y5118D01*
X83103D01*
X78807Y43308D02*
Y46062D01*
X80184D01*
X80643Y45603D01*
Y44685D01*
X80184Y44226D01*
X78807D01*
X79725D02*
X80643Y43308D01*
X81561Y45603D02*
X82021Y46062D01*
X82939D01*
X83398Y45603D01*
Y45144D01*
X82939Y44685D01*
X82480D01*
X82939D01*
X83398Y44226D01*
Y43767D01*
X82939Y43308D01*
X82021D01*
X81561Y43767D01*
X88059Y31300D02*
Y34055D01*
X89436D01*
X89895Y33595D01*
Y32677D01*
X89436Y32218D01*
X88059D01*
X88977D02*
X89895Y31300D01*
X92650D02*
X90813D01*
X92650Y33136D01*
Y33595D01*
X92191Y34055D01*
X91273D01*
X90813Y33595D01*
X88714Y20768D02*
Y23523D01*
X90092D01*
X90551Y23064D01*
Y22146D01*
X90092Y21687D01*
X88714D01*
X89633D02*
X90551Y20768D01*
X91470D02*
X92388D01*
X91929D01*
Y23523D01*
X91470Y23064D01*
X45637Y29922D02*
Y32677D01*
X47015D01*
X47474Y32217D01*
Y31299D01*
X47015Y30840D01*
X45637D01*
X46556D02*
X47474Y29922D01*
X50229Y32677D02*
X49311Y32217D01*
X48392Y31299D01*
Y30381D01*
X48851Y29922D01*
X49770D01*
X50229Y30381D01*
Y30840D01*
X49770Y31299D01*
X48392D01*
X45736Y37205D02*
Y39960D01*
X47113D01*
X47572Y39501D01*
Y38583D01*
X47113Y38124D01*
X45736D01*
X46654D02*
X47572Y37205D01*
X50327Y39960D02*
X48491D01*
Y38583D01*
X49409Y39042D01*
X49868D01*
X50327Y38583D01*
Y37664D01*
X49868Y37205D01*
X48950D01*
X48491Y37664D01*
X90125Y6299D02*
Y3544D01*
X91503D01*
X91962Y4003D01*
Y5840D01*
X91503Y6299D01*
X90125D01*
X94717Y3544D02*
X92880D01*
X94717Y5380D01*
Y5840D01*
X94258Y6299D01*
X93340D01*
X92880Y5840D01*
X90486Y46062D02*
Y43308D01*
X91864D01*
X92323Y43767D01*
Y45603D01*
X91864Y46062D01*
X90486D01*
X93241Y43308D02*
X94160D01*
X93700D01*
Y46062D01*
X93241Y45603D01*
X71391Y32021D02*
X70932Y32480D01*
X70014D01*
X69555Y32021D01*
Y30184D01*
X70014Y29725D01*
X70932D01*
X71391Y30184D01*
X74146Y29725D02*
X72310D01*
X74146Y31561D01*
Y32021D01*
X73687Y32480D01*
X72769D01*
X72310Y32021D01*
X68405Y5938D02*
X67946Y6397D01*
X67028D01*
X66569Y5938D01*
Y4101D01*
X67028Y3642D01*
X67946D01*
X68405Y4101D01*
X69324Y3642D02*
X70242D01*
X69783D01*
Y6397D01*
X69324Y5938D01*
X96588Y-14338D02*
X96129Y-13878D01*
X95211D01*
X94751Y-14338D01*
Y-16174D01*
X95211Y-16633D01*
X96129D01*
X96588Y-16174D01*
X98884Y-16633D02*
Y-13878D01*
X97506Y-15256D01*
X99343D01*
X61647Y-9810D02*
X61188Y-9351D01*
X60270D01*
X59811Y-9810D01*
Y-11647D01*
X60270Y-12106D01*
X61188D01*
X61647Y-11647D01*
X62565Y-9810D02*
X63025Y-9351D01*
X63943D01*
X64402Y-9810D01*
Y-10269D01*
X63943Y-10728D01*
X63484D01*
X63943D01*
X64402Y-11187D01*
Y-11647D01*
X63943Y-12106D01*
X63025D01*
X62565Y-11647D01*
X113911Y-5676D02*
X113452Y-5217D01*
X112533D01*
X112074Y-5676D01*
Y-7513D01*
X112533Y-7972D01*
X113452D01*
X113911Y-7513D01*
X116666Y-5217D02*
X114829D01*
Y-6594D01*
X115748Y-6135D01*
X116207D01*
X116666Y-6594D01*
Y-7513D01*
X116207Y-7972D01*
X115288D01*
X114829Y-7513D01*
D11*
X73957Y-2182D02*
G03*
X73957Y-3082I-667J-450D01*
G01*
X63976Y27559D02*
G03*
X63976Y27559I-787J0D01*
G01*
D12*
X39970Y36192D02*
Y39892D01*
X38770D02*
X39970D01*
X38770Y36192D02*
Y39892D01*
Y36192D02*
X39970D01*
X34252Y35236D02*
X44488D01*
X34252D02*
Y40748D01*
X44488D01*
Y35236D02*
Y40748D01*
X39970Y30090D02*
Y33790D01*
X38770D02*
X39970D01*
X38770Y30090D02*
Y33790D01*
Y30090D02*
X39970D01*
X34252Y29134D02*
X44488D01*
X34252D02*
Y34646D01*
X44488D01*
Y29134D02*
Y34646D01*
X93188Y8760D02*
Y11909D01*
X91613D02*
X93188Y10335D01*
X91613Y8760D02*
X93188Y10335D01*
X91613Y8760D02*
Y11909D01*
X87282Y7579D02*
Y13091D01*
Y7579D02*
X97518D01*
Y13091D01*
X87282D02*
X97518D01*
X94753Y19891D02*
X98453D01*
X94753Y18691D02*
Y19891D01*
Y18691D02*
X98453D01*
Y19891D01*
X99410Y14173D02*
Y24409D01*
X93898Y14173D02*
X99410D01*
X93898D02*
Y24409D01*
X99410D01*
X63287Y7579D02*
Y13091D01*
Y7579D02*
X74311D01*
Y13091D01*
X63287D02*
X74311D01*
X69399Y8635D02*
Y12035D01*
X68199Y8635D02*
Y12035D01*
X65748Y-1476D02*
X71260D01*
X65748Y-12500D02*
Y-1476D01*
Y-12500D02*
X71260D01*
Y-1476D01*
X66804Y-7588D02*
X70204D01*
X66804Y-6388D02*
X70204D01*
X80109Y8435D02*
Y12135D01*
Y8435D02*
X81309D01*
Y12135D01*
X80109D02*
X81309D01*
X75590Y13091D02*
X85827D01*
Y7579D02*
Y13091D01*
X75590Y7579D02*
X85827D01*
X75590D02*
Y13091D01*
X86516Y28346D02*
Y33858D01*
X75492D02*
X86516D01*
X75492Y28346D02*
Y33858D01*
Y28346D02*
X86516D01*
X80404Y29402D02*
Y32802D01*
X81604Y29402D02*
Y32802D01*
X80010Y37273D02*
Y40973D01*
Y37273D02*
X81210D01*
Y40973D01*
X80010D02*
X81210D01*
X75492Y41929D02*
X85728D01*
Y36417D02*
Y41929D01*
X75492Y36417D02*
X85728D01*
X75492D02*
Y41929D01*
X93089Y37598D02*
Y40748D01*
X91514D02*
X93089Y39173D01*
X91514Y37598D02*
X93089Y39173D01*
X91514Y37598D02*
Y40748D01*
X87184Y36417D02*
Y41929D01*
Y36417D02*
X97420D01*
Y41929D01*
X87184D02*
X97420D01*
X94854Y29518D02*
X98554D01*
Y30718D01*
X94854D02*
X98554D01*
X94854Y29518D02*
Y30718D01*
X93898Y25000D02*
Y35236D01*
X99410D01*
Y25000D02*
Y35236D01*
X93898Y25000D02*
X99410D01*
X93996Y-1476D02*
X99508D01*
X93996Y-12500D02*
Y-1476D01*
Y-12500D02*
X99508D01*
Y-1476D01*
X95052Y-7588D02*
X98452D01*
X95052Y-6388D02*
X98452D01*
D13*
X38382Y28307D02*
X44780D01*
X38382Y15984D02*
X44780D01*
X11496Y39358D02*
X17165D01*
X11496Y4161D02*
X17165D01*
X-4134D02*
X709D01*
X-4134D02*
Y39358D01*
X709D01*
X102854Y3976D02*
X115453D01*
X102854Y-3386D02*
X115453D01*
D14*
X76057Y-382D02*
Y518D01*
X91857D01*
Y-15282D02*
Y-14382D01*
X76057Y-15282D02*
X91857D01*
X76057D02*
Y-14382D01*
X91857Y-382D02*
Y518D01*
D15*
X64567Y15846D02*
X75590D01*
X64567Y27067D02*
X75590D01*
M02*
