G04*
G04 #@! TF.GenerationSoftware,Altium Limited,Altium Designer,24.4.1 (13)*
G04*
G04 Layer_Physical_Order=1*
G04 Layer_Color=255*
%FSLAX25Y25*%
%MOIN*%
G70*
G04*
G04 #@! TF.SameCoordinates,79C11BDE-9AA4-4B6C-B3B8-DA90EC57A962*
G04*
G04*
G04 #@! TF.FilePolarity,Positive*
G04*
G01*
G75*
G04:AMPARAMS|DCode=16|XSize=39.37mil|YSize=118.11mil|CornerRadius=4.92mil|HoleSize=0mil|Usage=FLASHONLY|Rotation=90.000|XOffset=0mil|YOffset=0mil|HoleType=Round|Shape=RoundedRectangle|*
%AMROUNDEDRECTD16*
21,1,0.03937,0.10827,0,0,90.0*
21,1,0.02953,0.11811,0,0,90.0*
1,1,0.00984,0.05413,0.01476*
1,1,0.00984,0.05413,-0.01476*
1,1,0.00984,-0.05413,-0.01476*
1,1,0.00984,-0.05413,0.01476*
%
%ADD16ROUNDEDRECTD16*%
%ADD17R,0.02362X0.03543*%
G04:AMPARAMS|DCode=18|XSize=47.64mil|YSize=23.23mil|CornerRadius=2.9mil|HoleSize=0mil|Usage=FLASHONLY|Rotation=180.000|XOffset=0mil|YOffset=0mil|HoleType=Round|Shape=RoundedRectangle|*
%AMROUNDEDRECTD18*
21,1,0.04764,0.01742,0,0,180.0*
21,1,0.04183,0.02323,0,0,180.0*
1,1,0.00581,-0.02092,0.00871*
1,1,0.00581,0.02092,0.00871*
1,1,0.00581,0.02092,-0.00871*
1,1,0.00581,-0.02092,-0.00871*
%
%ADD18ROUNDEDRECTD18*%
%ADD19R,0.03543X0.02362*%
%ADD20R,0.03150X0.03150*%
%ADD21R,0.03150X0.03150*%
%ADD22R,0.08700X0.11800*%
%ADD23R,0.03600X0.02000*%
%ADD24R,0.05709X0.02362*%
%ADD25R,0.05709X0.01181*%
G04:AMPARAMS|DCode=26|XSize=67.32mil|YSize=48.42mil|CornerRadius=6.05mil|HoleSize=0mil|Usage=FLASHONLY|Rotation=180.000|XOffset=0mil|YOffset=0mil|HoleType=Round|Shape=RoundedRectangle|*
%AMROUNDEDRECTD26*
21,1,0.06732,0.03632,0,0,180.0*
21,1,0.05522,0.04842,0,0,180.0*
1,1,0.01211,-0.02761,0.01816*
1,1,0.01211,0.02761,0.01816*
1,1,0.01211,0.02761,-0.01816*
1,1,0.01211,-0.02761,-0.01816*
%
%ADD26ROUNDEDRECTD26*%
%ADD42C,0.01000*%
%ADD43R,0.03937X0.01181*%
%ADD44C,0.02362*%
%ADD45C,0.01575*%
%ADD46C,0.01968*%
%ADD47C,0.03937*%
%ADD48C,0.03150*%
%ADD49O,0.08268X0.04134*%
%ADD50C,0.02756*%
%ADD51C,0.25000*%
%ADD52C,0.02362*%
%ADD53C,0.03500*%
G36*
X29014Y19371D02*
X29044Y19357D01*
X29094Y19346D01*
X29164Y19335D01*
X29364Y19320D01*
X30004Y19307D01*
Y18307D01*
X29814Y18306D01*
X29044Y18257D01*
X29014Y18244D01*
X29004Y18228D01*
Y19386D01*
X29014Y19371D01*
D02*
G37*
G36*
X34277Y17807D02*
X34275Y17902D01*
X34251Y17987D01*
X34205Y18062D01*
X34137Y18127D01*
X34047Y18182D01*
X33935Y18227D01*
X33801Y18262D01*
X33644Y18287D01*
X33466Y18302D01*
X33265Y18307D01*
X33271Y19307D01*
X33431Y19309D01*
X33853Y19344D01*
X33974Y19365D01*
X34086Y19390D01*
X34189Y19421D01*
X34282Y19455D01*
X34366Y19495D01*
X34440Y19539D01*
X34277Y17807D01*
D02*
G37*
G36*
X48869Y19408D02*
X48936Y19345D01*
X49015Y19290D01*
X49105Y19243D01*
X49207Y19202D01*
X49322Y19169D01*
X49448Y19144D01*
X49586Y19125D01*
X49736Y19114D01*
X49897Y19111D01*
Y18111D01*
X49702Y18106D01*
X49527Y18091D01*
X49373Y18066D01*
X49241Y18031D01*
X49129Y17986D01*
X49038Y17931D01*
X48968Y17866D01*
X48920Y17791D01*
X48892Y17706D01*
X48885Y17611D01*
X48814Y19477D01*
X48869Y19408D01*
D02*
G37*
G36*
X80904Y18093D02*
X80933Y18088D01*
X80984Y18083D01*
X81384Y18071D01*
X81893Y18069D01*
Y17069D01*
X81704Y17068D01*
X81054Y17023D01*
X80984Y17006D01*
X80933Y16987D01*
X80904Y16965D01*
X80893Y16941D01*
Y18098D01*
X80904Y18093D01*
D02*
G37*
G36*
X90038Y16757D02*
X89969Y16816D01*
X89894Y16869D01*
X89813Y16916D01*
X89727Y16957D01*
X89635Y16991D01*
X89538Y17019D01*
X89435Y17041D01*
X89326Y17056D01*
X89212Y17066D01*
X89092Y17069D01*
X89046Y18069D01*
X89166Y18072D01*
X89280Y18082D01*
X89388Y18100D01*
X89490Y18123D01*
X89585Y18154D01*
X89674Y18191D01*
X89757Y18236D01*
X89834Y18287D01*
X89905Y18344D01*
X89969Y18409D01*
X90038Y16757D01*
D02*
G37*
G36*
X95099Y18017D02*
X95467Y17706D01*
X95629Y17593D01*
X95778Y17508D01*
X95912Y17451D01*
X96032Y17423D01*
X96138D01*
X96230Y17451D01*
X96308Y17508D01*
X94894Y16093D01*
X94950Y16171D01*
X94979Y16263D01*
Y16369D01*
X94950Y16489D01*
X94894Y16624D01*
X94809Y16772D01*
X94696Y16935D01*
X94555Y17112D01*
X94187Y17508D01*
X94894Y18215D01*
X95099Y18017D01*
D02*
G37*
G36*
X32783Y14435D02*
X32741Y14445D01*
X32679Y14454D01*
X32491Y14469D01*
X31653Y14488D01*
X31422Y14488D01*
X31281Y15488D01*
X31404Y15492D01*
X31517Y15504D01*
X31618Y15523D01*
X31710Y15550D01*
X31790Y15585D01*
X31860Y15628D01*
X31919Y15678D01*
X31968Y15736D01*
X32006Y15802D01*
X32034Y15876D01*
X32783Y14435D01*
D02*
G37*
G36*
X30004Y14488D02*
X29814Y14486D01*
X29364Y14457D01*
X29254Y14439D01*
X29164Y14417D01*
X29094Y14392D01*
X29044Y14362D01*
X29014Y14329D01*
X29004Y14291D01*
Y15449D01*
X29014Y15456D01*
X29044Y15463D01*
X29094Y15469D01*
X29254Y15478D01*
X30004Y15488D01*
Y14488D01*
D02*
G37*
G36*
X97559Y15171D02*
X97474Y15141D01*
X97399Y15090D01*
X97334Y15020D01*
X97278Y14929D01*
X97234Y14817D01*
X97199Y14686D01*
X97174Y14534D01*
X97159Y14362D01*
X97154Y14169D01*
X96153D01*
X96149Y14362D01*
X96134Y14534D01*
X96109Y14686D01*
X96074Y14817D01*
X96029Y14929D01*
X95974Y15020D01*
X95909Y15090D01*
X95834Y15141D01*
X95749Y15171D01*
X95653Y15181D01*
X97654D01*
X97559Y15171D01*
D02*
G37*
G36*
X78459Y13886D02*
X78406Y13811D01*
X78360Y13731D01*
X78319Y13645D01*
X78285Y13553D01*
X78257Y13455D01*
X78235Y13352D01*
X78219Y13244D01*
X78210Y13129D01*
X78208Y13052D01*
X78212Y12902D01*
X78227Y12730D01*
X78252Y12578D01*
X78287Y12447D01*
X78332Y12335D01*
X78387Y12244D01*
X78452Y12173D01*
X78527Y12123D01*
X78612Y12092D01*
X78707Y12082D01*
X76707D01*
X76802Y12092D01*
X76887Y12123D01*
X76962Y12173D01*
X77027Y12244D01*
X77082Y12335D01*
X77127Y12447D01*
X77162Y12578D01*
X77187Y12730D01*
X77202Y12902D01*
X77205Y13026D01*
X77203Y13084D01*
X77193Y13198D01*
X77176Y13305D01*
X77152Y13407D01*
X77122Y13502D01*
X77084Y13592D01*
X77040Y13675D01*
X76989Y13751D01*
X76931Y13822D01*
X76867Y13887D01*
X78519Y13956D01*
X78459Y13886D01*
D02*
G37*
G36*
X72255Y13334D02*
X72336Y12239D01*
X72377Y12138D01*
X72432Y12047D01*
X72497Y11976D01*
X72572Y11926D01*
X72657Y11896D01*
X72752Y11885D01*
X72363D01*
X72373Y11746D01*
X72416Y11544D01*
X72467Y11381D01*
X72524Y11256D01*
X72588Y11169D01*
X70916D01*
X70980Y11256D01*
X71037Y11381D01*
X71087Y11544D01*
X71131Y11746D01*
X71153Y11885D01*
X70752D01*
X70847Y11896D01*
X70932Y11926D01*
X71007Y11976D01*
X71072Y12047D01*
X71127Y12138D01*
X71172Y12250D01*
X71202Y12362D01*
X71222Y12583D01*
X71249Y13334D01*
X71252Y13767D01*
X72252D01*
X72255Y13334D01*
D02*
G37*
G36*
X42543Y15209D02*
X42614Y14807D01*
X42732Y14453D01*
X42898Y14146D01*
X43110Y13886D01*
X43370Y13673D01*
X43677Y13508D01*
X44032Y13390D01*
X44433Y13319D01*
X44882Y13295D01*
X44882Y13295D01*
X44882D01*
X41339Y10933D01*
D01*
X41339D01*
X37795Y13295D01*
X37795D01*
X37795Y13295D01*
X38244Y13319D01*
X38646Y13390D01*
X39000Y13508D01*
X39307Y13673D01*
X39567Y13886D01*
X39779Y14146D01*
X39945Y14453D01*
X40024Y14689D01*
X40063Y14807D01*
X40075Y14878D01*
X40134Y15209D01*
X40157Y15657D01*
X40157D01*
Y15657D01*
X42520D01*
X42543Y15209D01*
D02*
G37*
G36*
X64296Y9335D02*
X64285Y9430D01*
X64255Y9515D01*
X64205Y9590D01*
X64134Y9655D01*
X64043Y9710D01*
X63931Y9755D01*
X63800Y9790D01*
X63648Y9815D01*
X63476Y9830D01*
X63340Y9833D01*
X63273Y9831D01*
X63159Y9822D01*
X63050Y9805D01*
X62948Y9782D01*
X62852Y9753D01*
X62761Y9717D01*
X62676Y9674D01*
X62598Y9625D01*
X62525Y9570D01*
X62458Y9508D01*
Y11161D01*
X62525Y11099D01*
X62598Y11044D01*
X62676Y10995D01*
X62761Y10952D01*
X62852Y10916D01*
X62948Y10887D01*
X63050Y10864D01*
X63159Y10848D01*
X63273Y10838D01*
X63340Y10836D01*
X63476Y10840D01*
X63648Y10855D01*
X63800Y10880D01*
X63931Y10915D01*
X64043Y10960D01*
X64134Y11015D01*
X64205Y11080D01*
X64255Y11155D01*
X64285Y11240D01*
X64296Y11335D01*
Y9335D01*
D02*
G37*
G36*
X88290Y9335D02*
X88280Y9430D01*
X88250Y9515D01*
X88199Y9590D01*
X88129Y9655D01*
X88037Y9710D01*
X87926Y9755D01*
X87795Y9790D01*
X87643Y9815D01*
X87471Y9830D01*
X87278Y9835D01*
Y10835D01*
X87471Y10840D01*
X87643Y10855D01*
X87795Y10880D01*
X87926Y10915D01*
X88037Y10960D01*
X88129Y11015D01*
X88199Y11080D01*
X88250Y11155D01*
X88280Y11240D01*
X88290Y11335D01*
Y9335D01*
D02*
G37*
G36*
X84829Y11240D02*
X84859Y11155D01*
X84910Y11080D01*
X84980Y11015D01*
X85071Y10960D01*
X85183Y10915D01*
X85314Y10880D01*
X85466Y10855D01*
X85638Y10840D01*
X85830Y10835D01*
Y9835D01*
X85638Y9830D01*
X85466Y9815D01*
X85314Y9790D01*
X85183Y9755D01*
X85071Y9710D01*
X84980Y9655D01*
X84910Y9590D01*
X84859Y9515D01*
X84829Y9430D01*
X84819Y9335D01*
Y11335D01*
X84829Y11240D01*
D02*
G37*
G36*
X25344Y8647D02*
X25354Y8170D01*
X25388Y7804D01*
X26329Y7807D01*
X26142Y7787D01*
X25974Y7727D01*
X25827Y7628D01*
X25699Y7489D01*
X25591Y7310D01*
X25502Y7093D01*
X25490Y7047D01*
X25496Y7014D01*
X25582Y6720D01*
X25686Y6472D01*
X25810Y6269D01*
X25952Y6112D01*
X26113Y6000D01*
X26294Y5934D01*
X25353Y6148D01*
X25344Y5827D01*
X23376D01*
X23354Y6600D01*
X22417Y6813D01*
X22599Y6793D01*
X22762Y6821D01*
X22906Y6897D01*
X23031Y7021D01*
X23136Y7193D01*
X23223Y7412D01*
X23290Y7679D01*
X23338Y7994D01*
X23366Y8357D01*
X23376Y8768D01*
X25344Y8647D01*
D02*
G37*
G36*
X118720Y9857D02*
X118386Y9738D01*
X118091Y9541D01*
X117835Y9265D01*
X117618Y8909D01*
X117441Y8475D01*
X117303Y7961D01*
X117205Y7369D01*
X117146Y6698D01*
X117131Y6147D01*
X117133Y6013D01*
X117291Y3916D01*
X117364Y3508D01*
X117450Y3147D01*
X117550Y2832D01*
X117662Y2564D01*
X117788Y2343D01*
X111280Y2539D01*
X111643Y2810D01*
X111967Y3112D01*
X112253Y3445D01*
X112502Y3810D01*
X112712Y4205D01*
X112883Y4632D01*
X113017Y5091D01*
X113113Y5580D01*
X113170Y6101D01*
X113178Y6349D01*
X113169Y6698D01*
X113110Y7369D01*
X113012Y7961D01*
X112874Y8475D01*
X112697Y8909D01*
X112480Y9265D01*
X112224Y9541D01*
X111929Y9738D01*
X111594Y9857D01*
X111221Y9896D01*
X119095D01*
X118720Y9857D01*
D02*
G37*
G36*
X73242Y8748D02*
X73177Y8677D01*
X73120Y8559D01*
X73071Y8394D01*
X73028Y8181D01*
X72994Y7921D01*
X72948Y7260D01*
X72939Y6768D01*
X72957Y6441D01*
X73028Y6039D01*
X73146Y5685D01*
X73311Y5378D01*
X73524Y5118D01*
X73783Y4905D01*
X74090Y4740D01*
X74445Y4622D01*
X74847Y4551D01*
X75295Y4528D01*
X71752Y2165D01*
X68209Y4528D01*
X68657Y4551D01*
X69059Y4622D01*
X69413Y4740D01*
X69721Y4905D01*
X69980Y5118D01*
X70193Y5378D01*
X70358Y5685D01*
X70476Y6039D01*
X70547Y6441D01*
X70567Y6823D01*
X70567Y6859D01*
X70475Y8181D01*
X70433Y8394D01*
X70384Y8559D01*
X70327Y8677D01*
X70262Y8748D01*
X70189Y8772D01*
X73315D01*
X73242Y8748D01*
D02*
G37*
G36*
X56739Y5881D02*
X57093Y5597D01*
X57462Y5346D01*
X57845Y5129D01*
X58241Y4945D01*
X58651Y4795D01*
X59075Y4678D01*
X59513Y4594D01*
X59965Y4544D01*
X60430Y4528D01*
X61122Y2165D01*
X60673Y2142D01*
X60272Y2071D01*
X59917Y1953D01*
X59610Y1787D01*
X59350Y1575D01*
X59138Y1315D01*
X58972Y1008D01*
X58854Y654D01*
X58784Y252D01*
X58760Y-197D01*
X56398Y495D01*
X56381Y960D01*
X56331Y1412D01*
X56247Y1850D01*
X56130Y2274D01*
X55980Y2684D01*
X55796Y3081D01*
X55579Y3463D01*
X55329Y3832D01*
X55045Y4187D01*
X54727Y4528D01*
X56398Y6198D01*
X56739Y5881D01*
D02*
G37*
G36*
X97517Y-418D02*
X97461Y-491D01*
X97412Y-570D01*
X97370Y-655D01*
X97334Y-745D01*
X97304Y-842D01*
X97281Y-944D01*
X97265Y-1052D01*
X97255Y-1166D01*
X97252Y-1287D01*
X96252D01*
X96249Y-1166D01*
X96239Y-1052D01*
X96223Y-944D01*
X96200Y-842D01*
X96170Y-745D01*
X96134Y-655D01*
X96092Y-570D01*
X96043Y-491D01*
X95987Y-418D01*
X95925Y-351D01*
X97579D01*
X97517Y-418D01*
D02*
G37*
G36*
X115557Y-2114D02*
X115314Y-1936D01*
X115026Y-1847D01*
X114693Y-1847D01*
X114316Y-1937D01*
X113893Y-2117D01*
X113425Y-2385D01*
X112912Y-2743D01*
X112354Y-3190D01*
X111103Y-4353D01*
X108876Y-2126D01*
X109209Y-1770D01*
X109520Y-1394D01*
X109806Y-998D01*
X110069Y-581D01*
X110308Y-144D01*
X110523Y313D01*
X110715Y790D01*
X110883Y1287D01*
X111028Y1805D01*
X111149Y2343D01*
X115557Y-2114D01*
D02*
G37*
G36*
X97257Y-1665D02*
X97272Y-1837D01*
X97297Y-1989D01*
X97332Y-2120D01*
X97377Y-2232D01*
X97432Y-2323D01*
X97497Y-2394D01*
X97572Y-2444D01*
X97657Y-2475D01*
X97752Y-2485D01*
X95752D01*
X95847Y-2475D01*
X95932Y-2444D01*
X96007Y-2394D01*
X96072Y-2323D01*
X96127Y-2232D01*
X96172Y-2120D01*
X96207Y-1989D01*
X96232Y-1837D01*
X96247Y-1665D01*
X96252Y-1473D01*
X97252D01*
X97257Y-1665D01*
D02*
G37*
G36*
X102772Y-2114D02*
X102677Y-2120D01*
X102592Y-2146D01*
X102517Y-2195D01*
X102452Y-2264D01*
X102397Y-2355D01*
X102352Y-2467D01*
X102317Y-2600D01*
X102292Y-2754D01*
X102277Y-2929D01*
X102272Y-3126D01*
X101272D01*
X101267Y-2920D01*
X101252Y-2735D01*
X101227Y-2571D01*
X101193Y-2429D01*
X101148Y-2308D01*
X101094Y-2208D01*
X101030Y-2129D01*
X100956Y-2071D01*
X100872Y-2035D01*
X100778Y-2020D01*
X102772Y-2114D01*
D02*
G37*
G36*
X75269Y-3670D02*
X75259Y-3577D01*
X75229Y-3494D01*
X75179Y-3421D01*
X75109Y-3358D01*
X75019Y-3304D01*
X74909Y-3260D01*
X74779Y-3226D01*
X74629Y-3201D01*
X74459Y-3187D01*
X74269Y-3182D01*
Y-2182D01*
X74459Y-2177D01*
X74629Y-2162D01*
X74779Y-2138D01*
X74909Y-2104D01*
X75019Y-2060D01*
X75109Y-2006D01*
X75179Y-1943D01*
X75229Y-1870D01*
X75259Y-1787D01*
X75269Y-1694D01*
Y-3670D01*
D02*
G37*
G36*
X71067Y-3461D02*
X70875Y-3466D01*
X70704Y-3481D01*
X70552Y-3506D01*
X70421Y-3541D01*
X70310Y-3586D01*
X70219Y-3641D01*
X70148Y-3706D01*
X70096Y-3781D01*
X70066Y-3866D01*
X70055Y-3961D01*
X70067Y-2473D01*
X70077Y-2470D01*
X70107Y-2468D01*
X70557Y-2462D01*
X71067Y-2461D01*
Y-3461D01*
D02*
G37*
G36*
X102275Y-3853D02*
X102285Y-3967D01*
X102301Y-4075D01*
X102324Y-4178D01*
X102353Y-4274D01*
X102389Y-4365D01*
X102432Y-4450D01*
X102481Y-4528D01*
X102536Y-4601D01*
X102598Y-4668D01*
X100945D01*
X101007Y-4601D01*
X101063Y-4528D01*
X101111Y-4450D01*
X101154Y-4365D01*
X101190Y-4274D01*
X101219Y-4178D01*
X101242Y-4075D01*
X101259Y-3967D01*
X101268Y-3853D01*
X101272Y-3733D01*
X102272D01*
X102275Y-3853D01*
D02*
G37*
G36*
X64690Y-3172D02*
X64763Y-3228D01*
X64842Y-3277D01*
X64926Y-3319D01*
X65017Y-3355D01*
X65113Y-3385D01*
X65216Y-3408D01*
X65324Y-3424D01*
X65438Y-3434D01*
X65558Y-3437D01*
Y-4437D01*
X65438Y-4440D01*
X65324Y-4450D01*
X65216Y-4466D01*
X65113Y-4489D01*
X65017Y-4519D01*
X64926Y-4555D01*
X64842Y-4597D01*
X64763Y-4646D01*
X64690Y-4702D01*
X64623Y-4764D01*
Y-3110D01*
X64690Y-3172D01*
D02*
G37*
G36*
X66941Y-4937D02*
X66931Y-4842D01*
X66901Y-4757D01*
X66851Y-4682D01*
X66781Y-4617D01*
X66691Y-4562D01*
X66581Y-4517D01*
X66451Y-4482D01*
X66301Y-4457D01*
X66131Y-4442D01*
X65941Y-4437D01*
Y-3437D01*
X66131Y-3432D01*
X66301Y-3417D01*
X66451Y-3392D01*
X66581Y-3357D01*
X66691Y-3312D01*
X66781Y-3257D01*
X66851Y-3192D01*
X66901Y-3117D01*
X66931Y-3032D01*
X66941Y-2937D01*
Y-4937D01*
D02*
G37*
G36*
X88299Y-4357D02*
X88346Y-4491D01*
X88425Y-4609D01*
X88537Y-4711D01*
X88679Y-4798D01*
X88854Y-4868D01*
X88940Y-4891D01*
X89006Y-4866D01*
X89053Y-4832D01*
X89069Y-4794D01*
Y-4925D01*
X89298Y-4963D01*
X89568Y-4987D01*
X89869Y-4995D01*
Y-6569D01*
X89568Y-6577D01*
X89298Y-6601D01*
X89069Y-6639D01*
Y-6770D01*
X89053Y-6732D01*
X89006Y-6698D01*
X88940Y-6672D01*
X88854Y-6695D01*
X88679Y-6766D01*
X88537Y-6853D01*
X88425Y-6955D01*
X88346Y-7073D01*
X88299Y-7207D01*
X88283Y-7357D01*
Y-6587D01*
X87793Y-6571D01*
X87494Y-6569D01*
Y-4995D01*
X87793Y-4992D01*
X88283Y-4959D01*
Y-4207D01*
X88299Y-4357D01*
D02*
G37*
G36*
X75269Y-6770D02*
X73694Y-6782D01*
Y-5207D01*
X73993Y-5203D01*
X74702Y-5141D01*
X74875Y-5104D01*
X75017Y-5058D01*
X75127Y-5005D01*
X75206Y-4943D01*
X75253Y-4872D01*
X75269Y-4794D01*
Y-6770D01*
D02*
G37*
G36*
X77603Y-6365D02*
X77593Y-6422D01*
X77585Y-6509D01*
X77574Y-6770D01*
X78057D01*
X77962Y-6780D01*
X77877Y-6810D01*
X77802Y-6860D01*
X77737Y-6930D01*
X77682Y-7020D01*
X77637Y-7130D01*
X77602Y-7260D01*
X77581Y-7384D01*
X77602Y-7510D01*
X77637Y-7642D01*
X77682Y-7753D01*
X77737Y-7844D01*
X77802Y-7915D01*
X77877Y-7965D01*
X77962Y-7996D01*
X78057Y-8006D01*
X76057D01*
X76152Y-7996D01*
X76237Y-7965D01*
X76312Y-7915D01*
X76377Y-7844D01*
X76432Y-7753D01*
X76477Y-7642D01*
X76512Y-7510D01*
X76532Y-7384D01*
X76512Y-7260D01*
X76477Y-7130D01*
X76432Y-7020D01*
X76377Y-6930D01*
X76312Y-6860D01*
X76237Y-6810D01*
X76152Y-6780D01*
X76057Y-6770D01*
X76515D01*
X76500Y-6338D01*
X77614D01*
X77603Y-6365D01*
D02*
G37*
G36*
X91652Y-6718D02*
X91655Y-6758D01*
X92431D01*
X92282Y-6774D01*
X92148Y-6821D01*
X92030Y-6901D01*
X91927Y-7012D01*
X91841Y-7155D01*
X91770Y-7329D01*
X91757Y-7378D01*
X91770Y-7427D01*
X91841Y-7600D01*
X91927Y-7742D01*
X92030Y-7852D01*
X92148Y-7931D01*
X92282Y-7978D01*
X92431Y-7994D01*
X91656D01*
X91652Y-8043D01*
X91644Y-8345D01*
X90069D01*
X90061Y-8043D01*
X90057Y-7994D01*
X89282D01*
X89432Y-7978D01*
X89565Y-7931D01*
X89684Y-7852D01*
X89786Y-7742D01*
X89872Y-7600D01*
X89943Y-7427D01*
X89956Y-7378D01*
X89943Y-7329D01*
X89872Y-7155D01*
X89786Y-7012D01*
X89684Y-6901D01*
X89565Y-6821D01*
X89432Y-6774D01*
X89282Y-6758D01*
X90058D01*
X90061Y-6718D01*
X90069Y-6419D01*
X91644D01*
X91652Y-6718D01*
D02*
G37*
G36*
X71354Y-8205D02*
X70803Y-8778D01*
X70375Y-9283D01*
X70196Y-9539D01*
X70061Y-9773D01*
X69971Y-9984D01*
X69925Y-10174D01*
X69924Y-10196D01*
X69942Y-10215D01*
X70055Y-10102D01*
X70041Y-10141D01*
X70056Y-10202D01*
X70098Y-10286D01*
X70169Y-10392D01*
X70267Y-10521D01*
X70548Y-10847D01*
X71048Y-11367D01*
X71324Y-11648D01*
X70211Y-12762D01*
X69245Y-11863D01*
X68955Y-11605D01*
X68849Y-11535D01*
X68765Y-11492D01*
X68704Y-11478D01*
X68665Y-11492D01*
X68752Y-11404D01*
X68447Y-11121D01*
X69509Y-10059D01*
X67840Y-8390D01*
X67961Y-8478D01*
X68105Y-8521D01*
X68271Y-8520D01*
X68460Y-8474D01*
X68672Y-8384D01*
X68906Y-8249D01*
X69162Y-8070D01*
X69441Y-7846D01*
X70011Y-7317D01*
X70240Y-7091D01*
X71354Y-8205D01*
D02*
G37*
G36*
X88299Y-7557D02*
X88346Y-7691D01*
X88425Y-7809D01*
X88537Y-7911D01*
X88679Y-7998D01*
X88854Y-8068D01*
X88940Y-8091D01*
X89006Y-8066D01*
X89053Y-8032D01*
X89069Y-7994D01*
Y-8125D01*
X89298Y-8163D01*
X89568Y-8187D01*
X89869Y-8195D01*
Y-9769D01*
X89568Y-9777D01*
X89298Y-9801D01*
X89069Y-9839D01*
Y-9970D01*
X89053Y-9932D01*
X89006Y-9898D01*
X88940Y-9872D01*
X88854Y-9895D01*
X88679Y-9966D01*
X88537Y-10053D01*
X88425Y-10155D01*
X88346Y-10273D01*
X88299Y-10407D01*
X88285Y-10531D01*
X88299Y-10657D01*
X88347Y-10791D01*
X88427Y-10909D01*
X88538Y-11011D01*
X88681Y-11098D01*
X88856Y-11169D01*
X88941Y-11191D01*
X89007Y-11166D01*
X89053Y-11132D01*
X89069Y-11094D01*
Y-11225D01*
X89299Y-11263D01*
X89569Y-11287D01*
X89869Y-11294D01*
Y-12869D01*
X89570Y-12873D01*
X89069Y-12916D01*
Y-13070D01*
X89053Y-13032D01*
X89007Y-12998D01*
X88929Y-12968D01*
X88822Y-12942D01*
X88688Y-12969D01*
X88547Y-13013D01*
X88436Y-13066D01*
X88358Y-13126D01*
X88310Y-13194D01*
X88295Y-13270D01*
X88293Y-12887D01*
X87814Y-12871D01*
X87519Y-12869D01*
Y-11294D01*
X87814Y-11293D01*
X88286Y-11260D01*
X88283Y-10555D01*
X88283Y-10557D01*
Y-9787D01*
X87793Y-9771D01*
X87494Y-9769D01*
Y-8195D01*
X87793Y-8192D01*
X88283Y-8159D01*
Y-7407D01*
X88299Y-7557D01*
D02*
G37*
G36*
X92660Y-8032D02*
X92708Y-8066D01*
X92786Y-8096D01*
X92897Y-8122D01*
X93038Y-8144D01*
X93416Y-8176D01*
X93920Y-8192D01*
X94219Y-8195D01*
Y-8215D01*
X94937Y-8261D01*
X95047Y-8285D01*
X95126Y-8312D01*
X95173Y-8343D01*
X95189Y-8378D01*
Y-9741D01*
X95191Y-9730D01*
X96963Y-11502D01*
X96808Y-11531D01*
X96648Y-11580D01*
X96482Y-11647D01*
X96311Y-11733D01*
X96134Y-11837D01*
X95951Y-11960D01*
X95764Y-12102D01*
X95372Y-12441D01*
X95168Y-12639D01*
X94219Y-11690D01*
Y-12869D01*
X93920Y-12871D01*
X92897Y-12942D01*
X92786Y-12968D01*
X92708Y-12998D01*
X92660Y-13032D01*
X92645Y-13070D01*
Y-11094D01*
X92660Y-11132D01*
X92708Y-11166D01*
X92786Y-11196D01*
X92897Y-11222D01*
X93038Y-11244D01*
X93416Y-11276D01*
X93920Y-11293D01*
X94219Y-11294D01*
Y-11354D01*
X94253Y-11319D01*
X94591Y-10929D01*
X94733Y-10741D01*
X94856Y-10559D01*
X94960Y-10383D01*
X95046Y-10211D01*
X95061Y-10175D01*
X95047Y-10155D01*
X94937Y-10053D01*
X94796Y-9966D01*
X94622Y-9895D01*
X94418Y-9840D01*
X94181Y-9801D01*
X93914Y-9777D01*
X93857Y-9776D01*
X92897Y-9842D01*
X92786Y-9868D01*
X92708Y-9898D01*
X92660Y-9932D01*
X92645Y-9970D01*
Y-7994D01*
X92660Y-8032D01*
D02*
G37*
G36*
X66941Y-11504D02*
X66918Y-11431D01*
X66847Y-11366D01*
X66729Y-11309D01*
X66563Y-11259D01*
X66351Y-11218D01*
X66091Y-11183D01*
X65429Y-11137D01*
X64579Y-11122D01*
Y-8760D01*
X65028Y-8756D01*
X66351Y-8664D01*
X66563Y-8622D01*
X66729Y-8573D01*
X66847Y-8516D01*
X66918Y-8451D01*
X66941Y-8378D01*
Y-11504D01*
D02*
G37*
G36*
X77559Y-9970D02*
X78057D01*
X77962Y-9980D01*
X77877Y-10010D01*
X77802Y-10060D01*
X77737Y-10130D01*
X77682Y-10220D01*
X77637Y-10330D01*
X77602Y-10460D01*
X77589Y-10535D01*
X77602Y-10610D01*
X77637Y-10742D01*
X77682Y-10853D01*
X77737Y-10944D01*
X77802Y-11015D01*
X77877Y-11065D01*
X77962Y-11096D01*
X78057Y-11106D01*
X77599D01*
X77614Y-11525D01*
X76500D01*
X76510Y-11499D01*
X76520Y-11442D01*
X76529Y-11355D01*
X76539Y-11106D01*
X76057D01*
X76152Y-11096D01*
X76237Y-11065D01*
X76312Y-11015D01*
X76377Y-10944D01*
X76432Y-10853D01*
X76477Y-10742D01*
X76512Y-10610D01*
X76524Y-10535D01*
X76512Y-10460D01*
X76477Y-10330D01*
X76432Y-10220D01*
X76377Y-10130D01*
X76312Y-10060D01*
X76237Y-10010D01*
X76152Y-9980D01*
X76057Y-9970D01*
X76556D01*
X76557Y-9899D01*
X77557D01*
X77559Y-9970D01*
D02*
G37*
G36*
X91652Y-9818D02*
X91664Y-9958D01*
X92431D01*
X92282Y-9974D01*
X92148Y-10021D01*
X92030Y-10101D01*
X91927Y-10212D01*
X91841Y-10355D01*
X91770Y-10528D01*
X91841Y-10700D01*
X91927Y-10842D01*
X92030Y-10952D01*
X92148Y-11031D01*
X92282Y-11078D01*
X92431Y-11094D01*
X91665D01*
X91652Y-11243D01*
X91644Y-11545D01*
X90069D01*
X90061Y-11243D01*
X90048Y-11094D01*
X89282D01*
X89432Y-11078D01*
X89565Y-11031D01*
X89684Y-10952D01*
X89786Y-10842D01*
X89872Y-10700D01*
X89943Y-10528D01*
X89872Y-10355D01*
X89786Y-10212D01*
X89684Y-10101D01*
X89565Y-10021D01*
X89432Y-9974D01*
X89282Y-9958D01*
X90049D01*
X90061Y-9818D01*
X90069Y-9519D01*
X91644D01*
X91652Y-9818D01*
D02*
G37*
G36*
X75269Y-13070D02*
X75253Y-13055D01*
X75206Y-13042D01*
X75127Y-13030D01*
X75017Y-13020D01*
X74261Y-12995D01*
X73694Y-12992D01*
Y-11417D01*
X73993Y-11414D01*
X74702Y-11366D01*
X74875Y-11337D01*
X75017Y-11301D01*
X75127Y-11259D01*
X75206Y-11210D01*
X75253Y-11155D01*
X75269Y-11094D01*
Y-13070D01*
D02*
G37*
G36*
X55108Y63827D02*
X55208D01*
Y63794D01*
X55241D01*
Y63761D01*
X55275D01*
Y63694D01*
X55308D01*
Y63462D01*
X55275D01*
Y63395D01*
X55241D01*
Y63362D01*
X55208D01*
Y63328D01*
X55108D01*
Y63295D01*
X54909D01*
Y63328D01*
X54842D01*
Y63362D01*
X54809D01*
Y63395D01*
X54776D01*
Y63462D01*
X54743D01*
Y63694D01*
X54776D01*
Y63761D01*
X54809D01*
Y63794D01*
X54842D01*
Y63827D01*
X54942D01*
Y63860D01*
X55108D01*
Y63827D01*
D02*
G37*
G36*
X39847Y62530D02*
X39946D01*
Y62497D01*
X39980D01*
Y62364D01*
X39946D01*
Y62131D01*
X39847D01*
Y62165D01*
X39514D01*
Y62131D01*
X39348D01*
Y62098D01*
X39248D01*
Y62065D01*
X39182D01*
Y62032D01*
X39115D01*
Y61998D01*
X39082D01*
Y61965D01*
X39015D01*
Y61932D01*
X38982D01*
Y61899D01*
X38949D01*
Y61865D01*
X38916D01*
Y61832D01*
X38882D01*
Y61799D01*
X38849D01*
Y61732D01*
X38816D01*
Y61699D01*
X38783D01*
Y61633D01*
X38749D01*
Y61566D01*
X38716D01*
Y61500D01*
X38683D01*
Y61433D01*
X38649D01*
Y61300D01*
X38616D01*
Y58740D01*
X38217D01*
Y62497D01*
X38616D01*
Y61965D01*
X38683D01*
Y62032D01*
X38716D01*
Y62065D01*
X38749D01*
Y62131D01*
X38783D01*
Y62165D01*
X38816D01*
Y62198D01*
X38849D01*
Y62231D01*
X38882D01*
Y62264D01*
X38916D01*
Y62298D01*
X38949D01*
Y62331D01*
X38982D01*
Y62364D01*
X39049D01*
Y62397D01*
X39082D01*
Y62431D01*
X39148D01*
Y62464D01*
X39248D01*
Y62497D01*
X39348D01*
Y62530D01*
X39481D01*
Y62564D01*
X39847D01*
Y62530D01*
D02*
G37*
G36*
X61526D02*
X61758D01*
Y62497D01*
X61858D01*
Y62464D01*
X61958D01*
Y62431D01*
X62024D01*
Y62397D01*
X62091D01*
Y62364D01*
X62157D01*
Y62331D01*
X62224D01*
Y62298D01*
X62257D01*
Y62264D01*
X62290D01*
Y62231D01*
X62357D01*
Y62198D01*
X62390D01*
Y62165D01*
X62423D01*
Y62131D01*
X62457D01*
Y62065D01*
X62490D01*
Y62032D01*
X62523D01*
Y61998D01*
X62556D01*
Y61932D01*
X62590D01*
Y61865D01*
X62623D01*
Y61766D01*
X62656D01*
Y61599D01*
X62689D01*
Y61433D01*
X62257D01*
Y61633D01*
X62224D01*
Y61699D01*
X62191D01*
Y61766D01*
X62157D01*
Y61832D01*
X62124D01*
Y61865D01*
X62091D01*
Y61899D01*
X62058D01*
Y61932D01*
X62024D01*
Y61965D01*
X61991D01*
Y61998D01*
X61958D01*
Y62032D01*
X61891D01*
Y62065D01*
X61825D01*
Y62098D01*
X61758D01*
Y62131D01*
X61692D01*
Y62165D01*
X61526D01*
Y62198D01*
X61027D01*
Y62165D01*
X60894D01*
Y62131D01*
X60794D01*
Y62098D01*
X60728D01*
Y62065D01*
X60661D01*
Y62032D01*
X60628D01*
Y61998D01*
X60595D01*
Y61965D01*
X60561D01*
Y61932D01*
X60528D01*
Y61899D01*
X60495D01*
Y61865D01*
X60462D01*
Y61799D01*
X60428D01*
Y61732D01*
X60395D01*
Y61367D01*
X60428D01*
Y61267D01*
X60462D01*
Y61234D01*
X60495D01*
Y61200D01*
X60528D01*
Y61134D01*
X60595D01*
Y61101D01*
X60628D01*
Y61067D01*
X60694D01*
Y61034D01*
X60761D01*
Y61001D01*
X60827D01*
Y60968D01*
X60927D01*
Y60934D01*
X61027D01*
Y60901D01*
X61127D01*
Y60868D01*
X61260D01*
Y60835D01*
X61393D01*
Y60801D01*
X61526D01*
Y60768D01*
X61625D01*
Y60735D01*
X61758D01*
Y60702D01*
X61858D01*
Y60668D01*
X61958D01*
Y60635D01*
X62024D01*
Y60602D01*
X62091D01*
Y60569D01*
X62157D01*
Y60535D01*
X62224D01*
Y60502D01*
X62290D01*
Y60469D01*
X62324D01*
Y60436D01*
X62357D01*
Y60402D01*
X62423D01*
Y60369D01*
X62457D01*
Y60336D01*
X62490D01*
Y60303D01*
X62523D01*
Y60236D01*
X62556D01*
Y60203D01*
X62590D01*
Y60136D01*
X62623D01*
Y60070D01*
X62656D01*
Y59970D01*
X62689D01*
Y59438D01*
X62656D01*
Y59338D01*
X62623D01*
Y59272D01*
X62590D01*
Y59205D01*
X62556D01*
Y59139D01*
X62523D01*
Y59106D01*
X62490D01*
Y59072D01*
X62457D01*
Y59039D01*
X62423D01*
Y59006D01*
X62390D01*
Y58973D01*
X62357D01*
Y58939D01*
X62290D01*
Y58906D01*
X62257D01*
Y58873D01*
X62191D01*
Y58840D01*
X62124D01*
Y58806D01*
X62058D01*
Y58773D01*
X61991D01*
Y58740D01*
X61891D01*
Y58707D01*
X61725D01*
Y58673D01*
X61459D01*
Y58640D01*
X61193D01*
Y58673D01*
X60894D01*
Y58707D01*
X60761D01*
Y58740D01*
X60628D01*
Y58773D01*
X60561D01*
Y58806D01*
X60495D01*
Y58840D01*
X60428D01*
Y58873D01*
X60362D01*
Y58906D01*
X60329D01*
Y58939D01*
X60262D01*
Y58973D01*
X60229D01*
Y59006D01*
X60196D01*
Y59039D01*
X60162D01*
Y59072D01*
X60129D01*
Y59106D01*
X60096D01*
Y59139D01*
X60063D01*
Y59172D01*
X60029D01*
Y59205D01*
X59996D01*
Y59272D01*
X59963D01*
Y59305D01*
X59930D01*
Y59405D01*
X59896D01*
Y59471D01*
X59863D01*
Y59638D01*
X59830D01*
Y59771D01*
X60262D01*
Y59638D01*
X60295D01*
Y59538D01*
X60329D01*
Y59471D01*
X60362D01*
Y59405D01*
X60395D01*
Y59372D01*
X60428D01*
Y59305D01*
X60462D01*
Y59272D01*
X60495D01*
Y59239D01*
X60561D01*
Y59205D01*
X60595D01*
Y59172D01*
X60661D01*
Y59139D01*
X60728D01*
Y59106D01*
X60794D01*
Y59072D01*
X60894D01*
Y59039D01*
X61060D01*
Y59006D01*
X61559D01*
Y59039D01*
X61725D01*
Y59072D01*
X61825D01*
Y59106D01*
X61891D01*
Y59139D01*
X61958D01*
Y59172D01*
X61991D01*
Y59205D01*
X62058D01*
Y59239D01*
X62091D01*
Y59272D01*
X62124D01*
Y59305D01*
X62157D01*
Y59338D01*
X62191D01*
Y59405D01*
X62224D01*
Y59471D01*
X62257D01*
Y59571D01*
X62290D01*
Y59804D01*
X62257D01*
Y59904D01*
X62224D01*
Y60003D01*
X62191D01*
Y60037D01*
X62157D01*
Y60070D01*
X62124D01*
Y60103D01*
X62091D01*
Y60136D01*
X62058D01*
Y60170D01*
X62024D01*
Y60203D01*
X61991D01*
Y60236D01*
X61925D01*
Y60269D01*
X61858D01*
Y60303D01*
X61792D01*
Y60336D01*
X61692D01*
Y60369D01*
X61625D01*
Y60402D01*
X61492D01*
Y60436D01*
X61359D01*
Y60469D01*
X61226D01*
Y60502D01*
X61093D01*
Y60535D01*
X60960D01*
Y60569D01*
X60827D01*
Y60602D01*
X60728D01*
Y60635D01*
X60661D01*
Y60668D01*
X60561D01*
Y60702D01*
X60495D01*
Y60735D01*
X60428D01*
Y60768D01*
X60395D01*
Y60801D01*
X60329D01*
Y60835D01*
X60295D01*
Y60868D01*
X60262D01*
Y60901D01*
X60196D01*
Y60934D01*
X60162D01*
Y61001D01*
X60129D01*
Y61034D01*
X60096D01*
Y61067D01*
X60063D01*
Y61134D01*
X60029D01*
Y61234D01*
X59996D01*
Y61333D01*
X59963D01*
Y61699D01*
X59996D01*
Y61832D01*
X60029D01*
Y61932D01*
X60063D01*
Y61965D01*
X60096D01*
Y62032D01*
X60129D01*
Y62065D01*
X60162D01*
Y62131D01*
X60196D01*
Y62165D01*
X60229D01*
Y62198D01*
X60262D01*
Y62231D01*
X60295D01*
Y62264D01*
X60362D01*
Y62298D01*
X60395D01*
Y62331D01*
X60462D01*
Y62364D01*
X60495D01*
Y62397D01*
X60561D01*
Y62431D01*
X60661D01*
Y62464D01*
X60761D01*
Y62497D01*
X60861D01*
Y62530D01*
X61060D01*
Y62564D01*
X61526D01*
Y62530D01*
D02*
G37*
G36*
X57968D02*
X58167D01*
Y62497D01*
X58267D01*
Y62464D01*
X58367D01*
Y62431D01*
X58433D01*
Y62397D01*
X58500D01*
Y62364D01*
X58566D01*
Y62331D01*
X58600D01*
Y62298D01*
X58666D01*
Y62264D01*
X58699D01*
Y62231D01*
X58733D01*
Y62198D01*
X58766D01*
Y62165D01*
X58799D01*
Y62131D01*
X58832D01*
Y62098D01*
X58866D01*
Y62065D01*
X58899D01*
Y62032D01*
X58932D01*
Y61998D01*
X58965D01*
Y61932D01*
X58999D01*
Y61899D01*
X59032D01*
Y61832D01*
X59065D01*
Y61766D01*
X59098D01*
Y61666D01*
X59132D01*
Y61566D01*
X59165D01*
Y61400D01*
X59198D01*
Y61234D01*
X58799D01*
Y61333D01*
X58766D01*
Y61500D01*
X58733D01*
Y61599D01*
X58699D01*
Y61666D01*
X58666D01*
Y61732D01*
X58633D01*
Y61766D01*
X58600D01*
Y61832D01*
X58566D01*
Y61865D01*
X58533D01*
Y61899D01*
X58500D01*
Y61932D01*
X58467D01*
Y61965D01*
X58433D01*
Y61998D01*
X58367D01*
Y62032D01*
X58334D01*
Y62065D01*
X58267D01*
Y62098D01*
X58201D01*
Y62131D01*
X58101D01*
Y62165D01*
X57968D01*
Y62198D01*
X57502D01*
Y62165D01*
X57369D01*
Y62131D01*
X57270D01*
Y62098D01*
X57203D01*
Y62065D01*
X57137D01*
Y62032D01*
X57103D01*
Y61998D01*
X57070D01*
Y61965D01*
X57004D01*
Y61932D01*
X56970D01*
Y61899D01*
X56937D01*
Y61865D01*
X56904D01*
Y61799D01*
X56871D01*
Y61766D01*
X56837D01*
Y61732D01*
X56804D01*
Y61666D01*
X56771D01*
Y61599D01*
X56738D01*
Y61533D01*
X56704D01*
Y61466D01*
X56671D01*
Y61367D01*
X56638D01*
Y61234D01*
X56605D01*
Y61067D01*
X56571D01*
Y60136D01*
X56605D01*
Y59970D01*
X56638D01*
Y59837D01*
X56671D01*
Y59737D01*
X56704D01*
Y59671D01*
X56738D01*
Y59604D01*
X56771D01*
Y59538D01*
X56804D01*
Y59471D01*
X56837D01*
Y59438D01*
X56871D01*
Y59405D01*
X56904D01*
Y59338D01*
X56937D01*
Y59305D01*
X56970D01*
Y59272D01*
X57004D01*
Y59239D01*
X57070D01*
Y59205D01*
X57103D01*
Y59172D01*
X57170D01*
Y59139D01*
X57203D01*
Y59106D01*
X57303D01*
Y59072D01*
X57403D01*
Y59039D01*
X57536D01*
Y59006D01*
X57968D01*
Y59039D01*
X58101D01*
Y59072D01*
X58201D01*
Y59106D01*
X58267D01*
Y59139D01*
X58334D01*
Y59172D01*
X58400D01*
Y59205D01*
X58433D01*
Y59239D01*
X58500D01*
Y59272D01*
X58533D01*
Y59305D01*
X58566D01*
Y59338D01*
X58600D01*
Y59405D01*
X58633D01*
Y59438D01*
X58666D01*
Y59505D01*
X58699D01*
Y59538D01*
X58733D01*
Y59638D01*
X58766D01*
Y59771D01*
X58799D01*
Y59870D01*
X58832D01*
Y59904D01*
X59165D01*
Y59870D01*
X59198D01*
Y59704D01*
X59165D01*
Y59571D01*
X59132D01*
Y59505D01*
X59098D01*
Y59405D01*
X59065D01*
Y59372D01*
X59032D01*
Y59305D01*
X58999D01*
Y59239D01*
X58965D01*
Y59205D01*
X58932D01*
Y59172D01*
X58899D01*
Y59139D01*
X58866D01*
Y59106D01*
X58832D01*
Y59072D01*
X58799D01*
Y59039D01*
X58766D01*
Y59006D01*
X58733D01*
Y58973D01*
X58699D01*
Y58939D01*
X58633D01*
Y58906D01*
X58600D01*
Y58873D01*
X58533D01*
Y58840D01*
X58467D01*
Y58806D01*
X58400D01*
Y58773D01*
X58334D01*
Y58740D01*
X58234D01*
Y58707D01*
X58101D01*
Y58673D01*
X57868D01*
Y58640D01*
X57635D01*
Y58673D01*
X57369D01*
Y58707D01*
X57236D01*
Y58740D01*
X57137D01*
Y58773D01*
X57070D01*
Y58806D01*
X57004D01*
Y58840D01*
X56937D01*
Y58873D01*
X56871D01*
Y58906D01*
X56837D01*
Y58939D01*
X56804D01*
Y58973D01*
X56738D01*
Y59006D01*
X56704D01*
Y59039D01*
X56671D01*
Y59072D01*
X56638D01*
Y59106D01*
X56605D01*
Y59139D01*
X56571D01*
Y59205D01*
X56538D01*
Y59239D01*
X56505D01*
Y59272D01*
X56472D01*
Y59338D01*
X56438D01*
Y59372D01*
X56405D01*
Y59438D01*
X56372D01*
Y59505D01*
X56339D01*
Y59571D01*
X56305D01*
Y59671D01*
X56272D01*
Y59737D01*
X56239D01*
Y59870D01*
X56206D01*
Y60003D01*
X56172D01*
Y60236D01*
X56139D01*
Y60968D01*
X56172D01*
Y61200D01*
X56206D01*
Y61333D01*
X56239D01*
Y61466D01*
X56272D01*
Y61566D01*
X56305D01*
Y61633D01*
X56339D01*
Y61699D01*
X56372D01*
Y61766D01*
X56405D01*
Y61832D01*
X56438D01*
Y61899D01*
X56472D01*
Y61932D01*
X56505D01*
Y61965D01*
X56538D01*
Y62032D01*
X56571D01*
Y62065D01*
X56605D01*
Y62098D01*
X56638D01*
Y62131D01*
X56671D01*
Y62165D01*
X56704D01*
Y62198D01*
X56738D01*
Y62231D01*
X56771D01*
Y62264D01*
X56837D01*
Y62298D01*
X56871D01*
Y62331D01*
X56937D01*
Y62364D01*
X57004D01*
Y62397D01*
X57070D01*
Y62431D01*
X57137D01*
Y62464D01*
X57236D01*
Y62497D01*
X57336D01*
Y62530D01*
X57536D01*
Y62564D01*
X57968D01*
Y62530D01*
D02*
G37*
G36*
X55208Y62464D02*
X55241D01*
Y58740D01*
X54809D01*
Y62497D01*
X55208D01*
Y62464D01*
D02*
G37*
G36*
X53113Y62497D02*
X53878D01*
Y62464D01*
X53911D01*
Y62165D01*
X53147D01*
Y62131D01*
X53113D01*
Y59471D01*
X53147D01*
Y59305D01*
X53180D01*
Y59239D01*
X53213D01*
Y59172D01*
X53246D01*
Y59139D01*
X53280D01*
Y59106D01*
X53313D01*
Y59072D01*
X53379D01*
Y59039D01*
X53512D01*
Y59006D01*
X53712D01*
Y59039D01*
X53945D01*
Y58806D01*
X53978D01*
Y58707D01*
X53878D01*
Y58673D01*
X53645D01*
Y58640D01*
X53413D01*
Y58673D01*
X53213D01*
Y58707D01*
X53113D01*
Y58740D01*
X53080D01*
Y58773D01*
X53014D01*
Y58806D01*
X52980D01*
Y58840D01*
X52947D01*
Y58873D01*
X52914D01*
Y58906D01*
X52881D01*
Y58939D01*
X52847D01*
Y59006D01*
X52814D01*
Y59072D01*
X52781D01*
Y59139D01*
X52748D01*
Y59272D01*
X52714D01*
Y62098D01*
X52681D01*
Y62165D01*
X52016D01*
Y62497D01*
X52681D01*
Y62530D01*
X52714D01*
Y63462D01*
X53113D01*
Y62497D01*
D02*
G37*
G36*
X50154Y62530D02*
X50354D01*
Y62497D01*
X50453D01*
Y62464D01*
X50553D01*
Y62431D01*
X50653D01*
Y62397D01*
X50719D01*
Y62364D01*
X50753D01*
Y62331D01*
X50819D01*
Y62298D01*
X50886D01*
Y62264D01*
X50919D01*
Y62231D01*
X50952D01*
Y62198D01*
X50985D01*
Y62165D01*
X51052D01*
Y62131D01*
X51085D01*
Y62098D01*
X51118D01*
Y62032D01*
X51152D01*
Y61998D01*
X51185D01*
Y61965D01*
X51218D01*
Y61932D01*
X51251D01*
Y61865D01*
X51285D01*
Y61832D01*
X51318D01*
Y61766D01*
X51351D01*
Y61732D01*
X51384D01*
Y61666D01*
X51418D01*
Y61599D01*
X51451D01*
Y61500D01*
X51484D01*
Y61400D01*
X51517D01*
Y61300D01*
X51551D01*
Y61134D01*
X51584D01*
Y60901D01*
X51617D01*
Y60269D01*
X51584D01*
Y60070D01*
X51551D01*
Y59904D01*
X51517D01*
Y59804D01*
X51484D01*
Y59704D01*
X51451D01*
Y59638D01*
X51418D01*
Y59571D01*
X51384D01*
Y59505D01*
X51351D01*
Y59438D01*
X51318D01*
Y59372D01*
X51285D01*
Y59338D01*
X51251D01*
Y59272D01*
X51218D01*
Y59239D01*
X51185D01*
Y59205D01*
X51152D01*
Y59172D01*
X51118D01*
Y59106D01*
X51085D01*
Y59072D01*
X51019D01*
Y59039D01*
X50985D01*
Y59006D01*
X50952D01*
Y58973D01*
X50919D01*
Y58939D01*
X50852D01*
Y58906D01*
X50819D01*
Y58873D01*
X50753D01*
Y58840D01*
X50686D01*
Y58806D01*
X50620D01*
Y58773D01*
X50553D01*
Y58740D01*
X50453D01*
Y58707D01*
X50320D01*
Y58673D01*
X50054D01*
Y58640D01*
X49822D01*
Y58673D01*
X49556D01*
Y58707D01*
X49423D01*
Y58740D01*
X49323D01*
Y58773D01*
X49256D01*
Y58806D01*
X49190D01*
Y58840D01*
X49123D01*
Y58873D01*
X49057D01*
Y58906D01*
X49024D01*
Y58939D01*
X48957D01*
Y58973D01*
X48924D01*
Y59006D01*
X48891D01*
Y59039D01*
X48824D01*
Y59072D01*
X48791D01*
Y59106D01*
X48758D01*
Y59139D01*
X48724D01*
Y59205D01*
X48691D01*
Y59239D01*
X48658D01*
Y59272D01*
X48625D01*
Y59305D01*
X48591D01*
Y59372D01*
X48558D01*
Y59405D01*
X48525D01*
Y59471D01*
X48492D01*
Y59538D01*
X48458D01*
Y59604D01*
X48425D01*
Y59671D01*
X48392D01*
Y59771D01*
X48359D01*
Y59870D01*
X48325D01*
Y60003D01*
X48292D01*
Y60203D01*
X48259D01*
Y60934D01*
Y60968D01*
Y61001D01*
X48292D01*
Y61200D01*
X48325D01*
Y61333D01*
X48359D01*
Y61433D01*
X48392D01*
Y61533D01*
X48425D01*
Y61599D01*
X48458D01*
Y61666D01*
X48492D01*
Y61732D01*
X48525D01*
Y61799D01*
X48558D01*
Y61832D01*
X48591D01*
Y61899D01*
X48625D01*
Y61932D01*
X48658D01*
Y61965D01*
X48691D01*
Y62032D01*
X48724D01*
Y62065D01*
X48758D01*
Y62098D01*
X48791D01*
Y62131D01*
X48824D01*
Y62165D01*
X48857D01*
Y62198D01*
X48924D01*
Y62231D01*
X48957D01*
Y62264D01*
X48990D01*
Y62298D01*
X49057D01*
Y62331D01*
X49090D01*
Y62364D01*
X49157D01*
Y62397D01*
X49223D01*
Y62431D01*
X49323D01*
Y62464D01*
X49423D01*
Y62497D01*
X49522D01*
Y62530D01*
X49722D01*
Y62564D01*
X50154D01*
Y62530D01*
D02*
G37*
G36*
X44934Y61998D02*
X45000D01*
Y62065D01*
X45034D01*
Y62098D01*
X45067D01*
Y62131D01*
X45100D01*
Y62165D01*
X45133D01*
Y62198D01*
X45167D01*
Y62231D01*
X45200D01*
Y62264D01*
X45233D01*
Y62298D01*
X45300D01*
Y62331D01*
X45333D01*
Y62364D01*
X45399D01*
Y62397D01*
X45466D01*
Y62431D01*
X45532D01*
Y62464D01*
X45599D01*
Y62497D01*
X45732D01*
Y62530D01*
X45898D01*
Y62564D01*
X46330D01*
Y62530D01*
X46497D01*
Y62497D01*
X46596D01*
Y62464D01*
X46696D01*
Y62431D01*
X46763D01*
Y62397D01*
X46829D01*
Y62364D01*
X46862D01*
Y62331D01*
X46929D01*
Y62298D01*
X46962D01*
Y62264D01*
X46995D01*
Y62231D01*
X47029D01*
Y62198D01*
X47062D01*
Y62165D01*
X47095D01*
Y62131D01*
X47128D01*
Y62098D01*
X47162D01*
Y62032D01*
X47195D01*
Y61998D01*
X47228D01*
Y61965D01*
X47261D01*
Y61899D01*
X47295D01*
Y61832D01*
X47328D01*
Y61766D01*
X47361D01*
Y61699D01*
X47394D01*
Y61599D01*
X47428D01*
Y61500D01*
X47461D01*
Y61400D01*
X47494D01*
Y61234D01*
X47527D01*
Y61001D01*
X47561D01*
Y60203D01*
X47527D01*
Y59970D01*
X47494D01*
Y59804D01*
X47461D01*
Y59704D01*
X47428D01*
Y59671D01*
Y59638D01*
Y59604D01*
X47394D01*
Y59505D01*
X47361D01*
Y59438D01*
X47328D01*
Y59372D01*
X47295D01*
Y59338D01*
X47261D01*
Y59272D01*
X47228D01*
Y59205D01*
X47195D01*
Y59172D01*
X47162D01*
Y59139D01*
X47128D01*
Y59106D01*
X47095D01*
Y59039D01*
X47062D01*
Y59006D01*
X47029D01*
Y58973D01*
X46995D01*
Y58939D01*
X46929D01*
Y58906D01*
X46896D01*
Y58873D01*
X46862D01*
Y58840D01*
X46796D01*
Y58806D01*
X46729D01*
Y58773D01*
X46663D01*
Y58740D01*
X46563D01*
Y58707D01*
X46463D01*
Y58673D01*
X46231D01*
Y58640D01*
X45998D01*
Y58673D01*
X45765D01*
Y58707D01*
X45632D01*
Y58740D01*
X45532D01*
Y58773D01*
X45466D01*
Y58806D01*
X45399D01*
Y58840D01*
X45333D01*
Y58873D01*
X45266D01*
Y58906D01*
X45233D01*
Y58939D01*
X45200D01*
Y58973D01*
X45167D01*
Y59006D01*
X45100D01*
Y59039D01*
X45067D01*
Y59106D01*
X45034D01*
Y59139D01*
X45000D01*
Y59172D01*
X44967D01*
Y59205D01*
X44934D01*
Y58740D01*
X44535D01*
Y64060D01*
X44934D01*
Y61998D01*
D02*
G37*
G36*
X42207Y62530D02*
X42407D01*
Y62497D01*
X42540D01*
Y62464D01*
X42640D01*
Y62431D01*
X42706D01*
Y62397D01*
X42773D01*
Y62364D01*
X42839D01*
Y62331D01*
X42872D01*
Y62298D01*
X42939D01*
Y62264D01*
X42972D01*
Y62231D01*
X43005D01*
Y62198D01*
X43072D01*
Y62165D01*
X43105D01*
Y62131D01*
X43138D01*
Y62098D01*
X43172D01*
Y62065D01*
X43205D01*
Y62032D01*
X43238D01*
Y61965D01*
X43271D01*
Y61932D01*
X43305D01*
Y61899D01*
X43338D01*
Y61832D01*
X43371D01*
Y61799D01*
X43404D01*
Y61732D01*
X43437D01*
Y61666D01*
X43471D01*
Y61599D01*
X43504D01*
Y61533D01*
X43537D01*
Y61433D01*
X43571D01*
Y61333D01*
X43604D01*
Y61200D01*
X43637D01*
Y61101D01*
Y61067D01*
Y61001D01*
X43670D01*
Y60203D01*
X43637D01*
Y60003D01*
X43604D01*
Y59870D01*
X43571D01*
Y59771D01*
X43537D01*
Y59704D01*
X43504D01*
Y59604D01*
X43471D01*
Y59538D01*
X43437D01*
Y59471D01*
X43404D01*
Y59405D01*
X43371D01*
Y59372D01*
X43338D01*
Y59305D01*
X43305D01*
Y59272D01*
X43271D01*
Y59239D01*
X43238D01*
Y59172D01*
X43205D01*
Y59139D01*
X43172D01*
Y59106D01*
X43138D01*
Y59072D01*
X43105D01*
Y59039D01*
X43072D01*
Y59006D01*
X43005D01*
Y58973D01*
X42972D01*
Y58939D01*
X42939D01*
Y58906D01*
X42872D01*
Y58873D01*
X42806D01*
Y58840D01*
X42739D01*
Y58806D01*
X42673D01*
Y58773D01*
X42606D01*
Y58740D01*
X42507D01*
Y58707D01*
X42374D01*
Y58673D01*
X42107D01*
Y58640D01*
X41875D01*
Y58673D01*
X41609D01*
Y58707D01*
X41476D01*
Y58740D01*
X41376D01*
Y58773D01*
X41310D01*
Y58806D01*
X41243D01*
Y58840D01*
X41177D01*
Y58873D01*
X41110D01*
Y58906D01*
X41077D01*
Y58939D01*
X41010D01*
Y58973D01*
X40977D01*
Y59006D01*
X40944D01*
Y59039D01*
X40911D01*
Y59072D01*
X40877D01*
Y59106D01*
X40844D01*
Y59139D01*
X40811D01*
Y59172D01*
X40778D01*
Y59205D01*
X40744D01*
Y59239D01*
X40711D01*
Y59272D01*
X40678D01*
Y59338D01*
X40644D01*
Y59372D01*
X40611D01*
Y59438D01*
X40578D01*
Y59505D01*
X40545D01*
Y59538D01*
X40512D01*
Y59638D01*
X40478D01*
Y59704D01*
X40445D01*
Y59804D01*
X40412D01*
Y59904D01*
X40379D01*
Y60037D01*
X40345D01*
Y60269D01*
X40312D01*
Y60934D01*
X40345D01*
Y61167D01*
X40379D01*
Y61300D01*
X40412D01*
Y61400D01*
X40445D01*
Y61500D01*
X40478D01*
Y61566D01*
X40512D01*
Y61666D01*
X40545D01*
Y61699D01*
X40578D01*
Y61766D01*
X40611D01*
Y61832D01*
X40644D01*
Y61865D01*
X40678D01*
Y61932D01*
X40711D01*
Y61965D01*
X40744D01*
Y61998D01*
X40778D01*
Y62032D01*
X40811D01*
Y62065D01*
X40844D01*
Y62098D01*
X40877D01*
Y62131D01*
X40911D01*
Y62165D01*
X40944D01*
Y62198D01*
X40977D01*
Y62231D01*
X41010D01*
Y62264D01*
X41077D01*
Y62298D01*
X41110D01*
Y62331D01*
X41177D01*
Y62364D01*
X41243D01*
Y62397D01*
X41310D01*
Y62431D01*
X41376D01*
Y62464D01*
X41476D01*
Y62497D01*
X41576D01*
Y62530D01*
X41775D01*
Y62564D01*
X42207D01*
Y62530D01*
D02*
G37*
G36*
X51118Y55382D02*
Y55348D01*
Y52090D01*
X50753D01*
Y52356D01*
X50719D01*
Y52555D01*
X50686D01*
Y52522D01*
X50653D01*
Y52456D01*
X50620D01*
Y52422D01*
X50586D01*
Y52389D01*
X50553D01*
Y52356D01*
X50520D01*
Y52323D01*
X50453D01*
Y52289D01*
X50420D01*
Y52256D01*
X50387D01*
Y52223D01*
X50320D01*
Y52190D01*
X50254D01*
Y52156D01*
X50187D01*
Y52123D01*
X50088D01*
Y52090D01*
X49988D01*
Y52057D01*
X49822D01*
Y52023D01*
X49323D01*
Y52057D01*
X49157D01*
Y52090D01*
X49057D01*
Y52123D01*
X48990D01*
Y52156D01*
X48924D01*
Y52190D01*
X48857D01*
Y52223D01*
X48824D01*
Y52256D01*
X48758D01*
Y52289D01*
X48724D01*
Y52323D01*
X48691D01*
Y52356D01*
X48658D01*
Y52389D01*
X48625D01*
Y52422D01*
X48591D01*
Y52456D01*
X48558D01*
Y52489D01*
X48525D01*
Y52522D01*
X48492D01*
Y52589D01*
X48458D01*
Y52622D01*
X48425D01*
Y52688D01*
X48392D01*
Y52755D01*
X48359D01*
Y52788D01*
X48325D01*
Y52855D01*
X48292D01*
Y52954D01*
X48259D01*
Y53021D01*
X48226D01*
Y53154D01*
X48192D01*
Y53254D01*
X48159D01*
Y53453D01*
X48126D01*
Y53786D01*
X48093D01*
Y54151D01*
X48126D01*
Y54517D01*
X48159D01*
Y54683D01*
X48192D01*
Y54816D01*
X48226D01*
Y54916D01*
X48259D01*
Y55016D01*
X48292D01*
Y55082D01*
X48325D01*
Y55149D01*
X48359D01*
Y55215D01*
X48392D01*
Y55282D01*
X48425D01*
Y55315D01*
X48458D01*
Y55382D01*
X48492D01*
Y55415D01*
X48525D01*
Y55481D01*
X48558D01*
Y55515D01*
X48591D01*
Y55548D01*
X48625D01*
Y55581D01*
X48658D01*
Y55614D01*
X48691D01*
Y55648D01*
X48758D01*
Y55681D01*
X48791D01*
Y55714D01*
X48824D01*
Y55747D01*
X48891D01*
Y55781D01*
X48957D01*
Y55814D01*
X49024D01*
Y55847D01*
X49123D01*
Y55880D01*
X49256D01*
Y55914D01*
X49888D01*
Y55880D01*
X50021D01*
Y55847D01*
X50121D01*
Y55814D01*
X50187D01*
Y55781D01*
X50254D01*
Y55747D01*
X50320D01*
Y55714D01*
X50354D01*
Y55681D01*
X50420D01*
Y55648D01*
X50453D01*
Y55614D01*
X50487D01*
Y55581D01*
X50520D01*
Y55548D01*
X50553D01*
Y55515D01*
X50586D01*
Y55481D01*
X50620D01*
Y55448D01*
X50653D01*
Y55415D01*
X50686D01*
Y55348D01*
X50719D01*
Y57443D01*
X51118D01*
Y55382D01*
D02*
G37*
G36*
X63155Y55880D02*
X63188D01*
Y55681D01*
X63155D01*
Y55515D01*
X62623D01*
Y55481D01*
X62490D01*
Y55448D01*
X62423D01*
Y55415D01*
X62357D01*
Y55382D01*
X62290D01*
Y55348D01*
X62257D01*
Y55315D01*
X62224D01*
Y55282D01*
X62191D01*
Y55249D01*
X62124D01*
Y55182D01*
X62091D01*
Y55149D01*
X62058D01*
Y55116D01*
X62024D01*
Y55049D01*
X61991D01*
Y55016D01*
X61958D01*
Y54949D01*
X61925D01*
Y54883D01*
X61891D01*
Y54783D01*
X61858D01*
Y54683D01*
X61825D01*
Y52090D01*
X61426D01*
Y55847D01*
X61825D01*
Y55315D01*
X61858D01*
Y55348D01*
X61891D01*
Y55382D01*
X61925D01*
Y55448D01*
X61958D01*
Y55481D01*
X61991D01*
Y55515D01*
X62024D01*
Y55581D01*
X62058D01*
Y55614D01*
X62091D01*
Y55648D01*
X62124D01*
Y55681D01*
X62191D01*
Y55714D01*
X62224D01*
Y55747D01*
X62290D01*
Y55781D01*
X62324D01*
Y55814D01*
X62390D01*
Y55847D01*
X62490D01*
Y55880D01*
X62590D01*
Y55914D01*
X63155D01*
Y55880D01*
D02*
G37*
G36*
X47660D02*
X47694D01*
Y55515D01*
X47128D01*
Y55481D01*
X47029D01*
Y55448D01*
X46929D01*
Y55415D01*
X46862D01*
Y55382D01*
X46829D01*
Y55348D01*
X46763D01*
Y55315D01*
X46729D01*
Y55282D01*
X46696D01*
Y55249D01*
X46663D01*
Y55215D01*
X46630D01*
Y55182D01*
X46596D01*
Y55149D01*
X46563D01*
Y55082D01*
X46530D01*
Y55049D01*
X46497D01*
Y54983D01*
X46463D01*
Y54916D01*
X46430D01*
Y54850D01*
X46397D01*
Y54750D01*
X46364D01*
Y52090D01*
X45931D01*
Y53586D01*
Y53619D01*
Y55847D01*
X46364D01*
Y55315D01*
X46397D01*
Y55382D01*
X46430D01*
Y55415D01*
X46463D01*
Y55481D01*
X46497D01*
Y55515D01*
X46530D01*
Y55548D01*
X46563D01*
Y55581D01*
X46596D01*
Y55614D01*
X46630D01*
Y55648D01*
X46663D01*
Y55681D01*
X46696D01*
Y55714D01*
X46729D01*
Y55747D01*
X46796D01*
Y55781D01*
X46862D01*
Y55814D01*
X46929D01*
Y55847D01*
X46995D01*
Y55880D01*
X47128D01*
Y55914D01*
X47660D01*
Y55880D01*
D02*
G37*
G36*
X56804Y55747D02*
X56771D01*
Y55648D01*
X56738D01*
Y55548D01*
X56704D01*
Y55415D01*
X56671D01*
Y55315D01*
X56638D01*
Y55182D01*
X56605D01*
Y55082D01*
X56571D01*
Y54949D01*
X56538D01*
Y54850D01*
X56505D01*
Y54750D01*
X56472D01*
Y54617D01*
X56438D01*
Y54517D01*
X56405D01*
Y54384D01*
X56372D01*
Y54284D01*
X56339D01*
Y54151D01*
X56305D01*
Y54052D01*
X56272D01*
Y53919D01*
X56239D01*
Y53819D01*
X56206D01*
Y53686D01*
X56172D01*
Y53586D01*
X56139D01*
Y53486D01*
X56106D01*
Y53353D01*
X56073D01*
Y53254D01*
X56039D01*
Y53121D01*
X56006D01*
Y53021D01*
X55973D01*
Y52921D01*
X55940D01*
Y52788D01*
X55906D01*
Y52688D01*
X55873D01*
Y52555D01*
X55840D01*
Y52456D01*
X55807D01*
Y52323D01*
X55773D01*
Y52223D01*
X55740D01*
Y52123D01*
X55707D01*
Y52090D01*
X55374D01*
Y52123D01*
X55341D01*
Y52190D01*
X55308D01*
Y52323D01*
X55275D01*
Y52422D01*
X55241D01*
Y52522D01*
X55208D01*
Y52622D01*
X55175D01*
Y52722D01*
X55142D01*
Y52821D01*
X55108D01*
Y52921D01*
X55075D01*
Y53021D01*
X55042D01*
Y53121D01*
X55009D01*
Y53220D01*
X54975D01*
Y53320D01*
X54942D01*
Y53420D01*
X54909D01*
Y53553D01*
X54876D01*
Y53653D01*
X54842D01*
Y53752D01*
X54809D01*
Y53852D01*
X54776D01*
Y53952D01*
X54743D01*
Y54052D01*
X54709D01*
Y54151D01*
X54676D01*
Y54251D01*
X54643D01*
Y54351D01*
X54610D01*
Y54451D01*
X54576D01*
Y54550D01*
X54543D01*
Y54650D01*
X54510D01*
Y54783D01*
X54477D01*
Y54883D01*
X54443D01*
Y54983D01*
X54410D01*
Y55082D01*
X54377D01*
Y55215D01*
X54344D01*
Y55182D01*
X54310D01*
Y55016D01*
X54277D01*
Y54916D01*
X54244D01*
Y54816D01*
X54211D01*
Y54717D01*
X54177D01*
Y54617D01*
X54144D01*
Y54517D01*
X54111D01*
Y54417D01*
X54078D01*
Y54284D01*
X54044D01*
Y54185D01*
X54011D01*
Y54085D01*
X53978D01*
Y53985D01*
X53945D01*
Y53885D01*
X53911D01*
Y53786D01*
X53878D01*
Y53686D01*
X53845D01*
Y53586D01*
X53812D01*
Y53453D01*
X53778D01*
Y53353D01*
X53745D01*
Y53320D01*
Y53287D01*
Y53254D01*
X53712D01*
Y53154D01*
X53679D01*
Y53054D01*
X53645D01*
Y52954D01*
X53612D01*
Y52855D01*
X53579D01*
Y52722D01*
X53546D01*
Y52622D01*
X53512D01*
Y52522D01*
X53479D01*
Y52422D01*
X53446D01*
Y52323D01*
X53413D01*
Y52223D01*
X53379D01*
Y52123D01*
X53346D01*
Y52090D01*
X53014D01*
Y52123D01*
X52980D01*
Y52223D01*
X52947D01*
Y52323D01*
X52914D01*
Y52456D01*
X52881D01*
Y52555D01*
X52847D01*
Y52655D01*
X52814D01*
Y52788D01*
X52781D01*
Y52888D01*
X52748D01*
Y53021D01*
X52714D01*
Y53121D01*
X52681D01*
Y53254D01*
X52648D01*
Y53353D01*
X52615D01*
Y53486D01*
X52581D01*
Y53586D01*
X52548D01*
Y53686D01*
X52515D01*
Y53819D01*
X52482D01*
Y53919D01*
X52448D01*
Y54052D01*
X52415D01*
Y54151D01*
X52382D01*
Y54284D01*
X52349D01*
Y54384D01*
X52315D01*
Y54517D01*
X52282D01*
Y54617D01*
X52249D01*
Y54750D01*
X52216D01*
Y54850D01*
X52182D01*
Y54949D01*
X52149D01*
Y55082D01*
X52116D01*
Y55182D01*
X52083D01*
Y55315D01*
X52049D01*
Y55415D01*
X52016D01*
Y55548D01*
X51983D01*
Y55648D01*
X51950D01*
Y55781D01*
X51916D01*
Y55847D01*
X52349D01*
Y55747D01*
X52382D01*
Y55648D01*
X52415D01*
Y55515D01*
X52448D01*
Y55382D01*
X52482D01*
Y55282D01*
X52515D01*
Y55149D01*
X52548D01*
Y55049D01*
X52581D01*
Y54916D01*
X52615D01*
Y54783D01*
X52648D01*
Y54683D01*
X52681D01*
Y54550D01*
X52714D01*
Y54417D01*
X52748D01*
Y54318D01*
X52781D01*
Y54185D01*
X52814D01*
Y54052D01*
X52847D01*
Y53952D01*
X52881D01*
Y53819D01*
X52914D01*
Y53686D01*
X52947D01*
Y53586D01*
X52980D01*
Y53453D01*
X53014D01*
Y53353D01*
X53047D01*
Y53220D01*
X53080D01*
Y53087D01*
X53113D01*
Y52988D01*
X53147D01*
Y52788D01*
X53180D01*
Y52688D01*
X53213D01*
Y52788D01*
X53246D01*
Y52921D01*
X53280D01*
Y53021D01*
X53313D01*
Y53154D01*
X53346D01*
Y53254D01*
X53379D01*
Y53353D01*
X53413D01*
Y53453D01*
X53446D01*
Y53553D01*
X53479D01*
Y53653D01*
X53512D01*
Y53786D01*
X53546D01*
Y53885D01*
X53579D01*
Y53985D01*
X53612D01*
Y54085D01*
X53645D01*
Y54185D01*
X53679D01*
Y54318D01*
X53712D01*
Y54417D01*
X53745D01*
Y54517D01*
X53778D01*
Y54617D01*
X53812D01*
Y54717D01*
X53845D01*
Y54850D01*
X53878D01*
Y54949D01*
X53911D01*
Y55049D01*
X53945D01*
Y55149D01*
X53978D01*
Y55249D01*
X54011D01*
Y55382D01*
X54044D01*
Y55481D01*
X54078D01*
Y55581D01*
X54111D01*
Y55681D01*
X54144D01*
Y55781D01*
X54177D01*
Y55847D01*
X54543D01*
Y55781D01*
X54576D01*
Y55681D01*
X54610D01*
Y55581D01*
X54643D01*
Y55481D01*
X54676D01*
Y55382D01*
X54709D01*
Y55249D01*
X54743D01*
Y55149D01*
X54776D01*
Y55049D01*
X54809D01*
Y54949D01*
X54842D01*
Y54850D01*
X54876D01*
Y54717D01*
X54909D01*
Y54617D01*
X54942D01*
Y54517D01*
X54975D01*
Y54417D01*
X55009D01*
Y54318D01*
X55042D01*
Y54185D01*
X55075D01*
Y54085D01*
X55108D01*
Y53985D01*
X55142D01*
Y53885D01*
X55175D01*
Y53786D01*
X55208D01*
Y53653D01*
X55241D01*
Y53553D01*
X55275D01*
Y53453D01*
X55308D01*
Y53353D01*
X55341D01*
Y53254D01*
X55374D01*
Y53121D01*
X55408D01*
Y53021D01*
X55441D01*
Y52888D01*
X55474D01*
Y52755D01*
X55507D01*
Y52655D01*
X55541D01*
Y52722D01*
X55574D01*
Y52888D01*
X55607D01*
Y53021D01*
X55640D01*
Y53154D01*
X55674D01*
Y53287D01*
X55707D01*
Y53387D01*
X55740D01*
Y53520D01*
X55773D01*
Y53653D01*
X55807D01*
Y53786D01*
X55840D01*
Y53885D01*
X55873D01*
Y54018D01*
X55906D01*
Y54151D01*
X55940D01*
Y54284D01*
X55973D01*
Y54384D01*
X56006D01*
Y54517D01*
X56039D01*
Y54650D01*
X56073D01*
Y54783D01*
X56106D01*
Y54883D01*
X56139D01*
Y55016D01*
X56172D01*
Y55149D01*
X56206D01*
Y55249D01*
X56239D01*
Y55382D01*
X56272D01*
Y55515D01*
X56305D01*
Y55648D01*
X56339D01*
Y55781D01*
X56372D01*
Y55847D01*
X56804D01*
Y55747D01*
D02*
G37*
G36*
X59331Y55880D02*
X59464D01*
Y55847D01*
X59564D01*
Y55814D01*
X59664D01*
Y55781D01*
X59730D01*
Y55747D01*
X59763D01*
Y55714D01*
X59830D01*
Y55681D01*
X59863D01*
Y55648D01*
X59930D01*
Y55614D01*
X59963D01*
Y55581D01*
X59996D01*
Y55548D01*
X60029D01*
Y55515D01*
X60063D01*
Y55481D01*
X60096D01*
Y55415D01*
X60129D01*
Y55382D01*
X60162D01*
Y55315D01*
X60196D01*
Y55249D01*
X60229D01*
Y55149D01*
X60262D01*
Y55049D01*
X60295D01*
Y54783D01*
X60329D01*
Y52456D01*
X60362D01*
Y52289D01*
X60395D01*
Y52190D01*
X60428D01*
Y52090D01*
X59996D01*
Y52123D01*
X59963D01*
Y52223D01*
X59930D01*
Y52456D01*
X59896D01*
Y52589D01*
X59863D01*
Y52555D01*
X59830D01*
Y52522D01*
X59797D01*
Y52489D01*
X59763D01*
Y52456D01*
X59730D01*
Y52422D01*
X59697D01*
Y52389D01*
X59664D01*
Y52356D01*
X59630D01*
Y52323D01*
X59564D01*
Y52289D01*
X59531D01*
Y52256D01*
X59464D01*
Y52223D01*
X59398D01*
Y52190D01*
X59331D01*
Y52156D01*
X59265D01*
Y52123D01*
X59165D01*
Y52090D01*
X59065D01*
Y52057D01*
X58899D01*
Y52023D01*
X58367D01*
Y52057D01*
X58201D01*
Y52090D01*
X58101D01*
Y52123D01*
X58034D01*
Y52156D01*
X57968D01*
Y52190D01*
X57901D01*
Y52223D01*
X57835D01*
Y52256D01*
X57802D01*
Y52289D01*
X57768D01*
Y52323D01*
X57735D01*
Y52356D01*
X57702D01*
Y52389D01*
X57669D01*
Y52422D01*
X57635D01*
Y52456D01*
X57602D01*
Y52489D01*
X57569D01*
Y52555D01*
X57536D01*
Y52622D01*
X57502D01*
Y52688D01*
X57469D01*
Y52788D01*
X57436D01*
Y52921D01*
X57403D01*
Y53254D01*
X57436D01*
Y53420D01*
X57469D01*
Y53520D01*
X57502D01*
Y53586D01*
X57536D01*
Y53619D01*
X57569D01*
Y53686D01*
X57602D01*
Y53719D01*
X57635D01*
Y53786D01*
X57669D01*
Y53819D01*
X57702D01*
Y53852D01*
X57735D01*
Y53885D01*
X57802D01*
Y53919D01*
X57835D01*
Y53952D01*
X57868D01*
Y53985D01*
X57935D01*
Y54018D01*
X57968D01*
Y54052D01*
X58034D01*
Y54085D01*
X58134D01*
Y54118D01*
X58201D01*
Y54151D01*
X58300D01*
Y54185D01*
X58400D01*
Y54218D01*
X58566D01*
Y54251D01*
X58832D01*
Y54284D01*
X59896D01*
Y54916D01*
X59863D01*
Y55049D01*
X59830D01*
Y55116D01*
X59797D01*
Y55182D01*
X59763D01*
Y55215D01*
X59730D01*
Y55282D01*
X59697D01*
Y55315D01*
X59664D01*
Y55348D01*
X59630D01*
Y55382D01*
X59597D01*
Y55415D01*
X59531D01*
Y55448D01*
X59464D01*
Y55481D01*
X59398D01*
Y55515D01*
X59298D01*
Y55548D01*
X59132D01*
Y55581D01*
X58733D01*
Y55548D01*
X58566D01*
Y55515D01*
X58467D01*
Y55481D01*
X58400D01*
Y55448D01*
X58334D01*
Y55415D01*
X58267D01*
Y55382D01*
X58234D01*
Y55348D01*
X58167D01*
Y55315D01*
X58134D01*
Y55282D01*
X58101D01*
Y55249D01*
X58068D01*
Y55182D01*
X58034D01*
Y55149D01*
X58001D01*
Y55082D01*
X57968D01*
Y55016D01*
X57935D01*
Y54850D01*
X57901D01*
Y54816D01*
X57502D01*
Y55016D01*
X57536D01*
Y55116D01*
X57569D01*
Y55215D01*
X57602D01*
Y55282D01*
X57635D01*
Y55315D01*
X57669D01*
Y55382D01*
X57702D01*
Y55415D01*
X57735D01*
Y55448D01*
X57768D01*
Y55481D01*
X57802D01*
Y55515D01*
X57835D01*
Y55548D01*
X57868D01*
Y55581D01*
X57901D01*
Y55614D01*
X57968D01*
Y55648D01*
X58001D01*
Y55681D01*
X58068D01*
Y55714D01*
X58101D01*
Y55747D01*
X58167D01*
Y55781D01*
X58267D01*
Y55814D01*
X58334D01*
Y55847D01*
X58433D01*
Y55880D01*
X58600D01*
Y55914D01*
X59331D01*
Y55880D01*
D02*
G37*
G36*
X43837D02*
X43970D01*
Y55847D01*
X44069D01*
Y55814D01*
X44169D01*
Y55781D01*
X44236D01*
Y55747D01*
X44302D01*
Y55714D01*
X44335D01*
Y55681D01*
X44402D01*
Y55648D01*
X44435D01*
Y55614D01*
X44468D01*
Y55581D01*
X44502D01*
Y55548D01*
X44535D01*
Y55515D01*
X44568D01*
Y55481D01*
X44601D01*
Y55448D01*
X44635D01*
Y55382D01*
X44668D01*
Y55348D01*
X44701D01*
Y55282D01*
X44734D01*
Y55182D01*
X44768D01*
Y55082D01*
X44801D01*
Y54916D01*
X44834D01*
Y52589D01*
X44867D01*
Y52356D01*
X44901D01*
Y52223D01*
X44934D01*
Y52090D01*
X44502D01*
Y52156D01*
X44468D01*
Y52289D01*
X44435D01*
Y52589D01*
X44402D01*
Y52555D01*
X44369D01*
Y52522D01*
X44335D01*
Y52489D01*
X44302D01*
Y52456D01*
X44269D01*
Y52422D01*
X44236D01*
Y52389D01*
X44202D01*
Y52356D01*
X44136D01*
Y52323D01*
X44103D01*
Y52289D01*
X44036D01*
Y52256D01*
X44003D01*
Y52223D01*
X43936D01*
Y52190D01*
X43870D01*
Y52156D01*
X43770D01*
Y52123D01*
X43670D01*
Y52090D01*
X43571D01*
Y52057D01*
X43404D01*
Y52023D01*
X42872D01*
Y52057D01*
X42739D01*
Y52090D01*
X42640D01*
Y52123D01*
X42540D01*
Y52156D01*
X42473D01*
Y52190D01*
X42407D01*
Y52223D01*
X42374D01*
Y52256D01*
X42340D01*
Y52289D01*
X42274D01*
Y52323D01*
X42241D01*
Y52356D01*
X42207D01*
Y52389D01*
X42174D01*
Y52422D01*
X42141D01*
Y52489D01*
X42107D01*
Y52522D01*
X42074D01*
Y52589D01*
X42041D01*
Y52655D01*
X42008D01*
Y52722D01*
X41974D01*
Y52821D01*
X41941D01*
Y53353D01*
X41974D01*
Y53453D01*
X42008D01*
Y53553D01*
X42041D01*
Y53619D01*
X42074D01*
Y53653D01*
X42107D01*
Y53719D01*
X42141D01*
Y53752D01*
X42174D01*
Y53786D01*
X42207D01*
Y53819D01*
X42241D01*
Y53852D01*
X42274D01*
Y53885D01*
X42307D01*
Y53919D01*
X42340D01*
Y53952D01*
X42407D01*
Y53985D01*
X42440D01*
Y54018D01*
X42507D01*
Y54052D01*
X42573D01*
Y54085D01*
X42640D01*
Y54118D01*
X42706D01*
Y54151D01*
X42806D01*
Y54185D01*
X42939D01*
Y54218D01*
X43105D01*
Y54251D01*
X43338D01*
Y54284D01*
X44402D01*
Y54318D01*
X44435D01*
Y54351D01*
X44402D01*
Y54983D01*
X44369D01*
Y55082D01*
X44335D01*
Y55149D01*
X44302D01*
Y55215D01*
X44269D01*
Y55249D01*
X44236D01*
Y55282D01*
X44202D01*
Y55315D01*
X44169D01*
Y55348D01*
X44136D01*
Y55382D01*
X44103D01*
Y55415D01*
X44036D01*
Y55448D01*
X44003D01*
Y55481D01*
X43903D01*
Y55515D01*
X43803D01*
Y55548D01*
X43637D01*
Y55581D01*
X43271D01*
Y55548D01*
X43072D01*
Y55515D01*
X42972D01*
Y55481D01*
X42906D01*
Y55448D01*
X42839D01*
Y55415D01*
X42806D01*
Y55382D01*
X42739D01*
Y55348D01*
X42706D01*
Y55315D01*
X42673D01*
Y55282D01*
X42640D01*
Y55249D01*
X42606D01*
Y55215D01*
X42573D01*
Y55182D01*
X42540D01*
Y55116D01*
X42507D01*
Y55049D01*
X42473D01*
Y54949D01*
X42440D01*
Y54816D01*
X42041D01*
Y54850D01*
X42008D01*
Y54916D01*
X42041D01*
Y55082D01*
X42074D01*
Y55182D01*
X42107D01*
Y55249D01*
X42141D01*
Y55282D01*
X42174D01*
Y55348D01*
X42207D01*
Y55382D01*
X42241D01*
Y55415D01*
X42274D01*
Y55481D01*
X42307D01*
Y55515D01*
X42340D01*
Y55548D01*
X42407D01*
Y55581D01*
X42440D01*
Y55614D01*
X42473D01*
Y55648D01*
X42540D01*
Y55681D01*
X42573D01*
Y55714D01*
X42640D01*
Y55747D01*
X42706D01*
Y55781D01*
X42773D01*
Y55814D01*
X42872D01*
Y55847D01*
X42972D01*
Y55880D01*
X43105D01*
Y55914D01*
X43837D01*
Y55880D01*
D02*
G37*
G36*
X38616Y55282D02*
X38683D01*
Y55315D01*
X38716D01*
Y55382D01*
X38749D01*
Y55415D01*
X38783D01*
Y55448D01*
X38816D01*
Y55481D01*
X38849D01*
Y55515D01*
X38882D01*
Y55548D01*
X38916D01*
Y55581D01*
X38949D01*
Y55614D01*
X38982D01*
Y55648D01*
X39015D01*
Y55681D01*
X39082D01*
Y55714D01*
X39115D01*
Y55747D01*
X39182D01*
Y55781D01*
X39248D01*
Y55814D01*
X39348D01*
Y55847D01*
X39414D01*
Y55880D01*
X39547D01*
Y55914D01*
X40179D01*
Y55880D01*
X40312D01*
Y55847D01*
X40412D01*
Y55814D01*
X40478D01*
Y55781D01*
X40545D01*
Y55747D01*
X40611D01*
Y55714D01*
X40644D01*
Y55681D01*
X40678D01*
Y55648D01*
X40711D01*
Y55614D01*
X40744D01*
Y55581D01*
X40778D01*
Y55548D01*
X40811D01*
Y55481D01*
X40844D01*
Y55448D01*
X40877D01*
Y55382D01*
X40911D01*
Y55315D01*
X40944D01*
Y55215D01*
X40977D01*
Y55116D01*
X41010D01*
Y54949D01*
X41043D01*
Y53520D01*
Y53486D01*
Y52090D01*
X40644D01*
Y54783D01*
X40611D01*
Y54949D01*
X40578D01*
Y55082D01*
X40545D01*
Y55149D01*
X40512D01*
Y55215D01*
X40478D01*
Y55282D01*
X40445D01*
Y55315D01*
X40412D01*
Y55348D01*
X40379D01*
Y55382D01*
X40345D01*
Y55415D01*
X40279D01*
Y55448D01*
X40246D01*
Y55481D01*
X40179D01*
Y55515D01*
X40046D01*
Y55548D01*
X39813D01*
Y55581D01*
X39713D01*
Y55548D01*
X39481D01*
Y55515D01*
X39381D01*
Y55481D01*
X39281D01*
Y55448D01*
X39215D01*
Y55415D01*
X39182D01*
Y55382D01*
X39115D01*
Y55348D01*
X39082D01*
Y55315D01*
X39049D01*
Y55282D01*
X39015D01*
Y55249D01*
X38982D01*
Y55215D01*
X38949D01*
Y55182D01*
X38916D01*
Y55149D01*
X38882D01*
Y55116D01*
X38849D01*
Y55082D01*
X38816D01*
Y55016D01*
X38783D01*
Y54949D01*
X38749D01*
Y54916D01*
X38716D01*
Y54850D01*
X38683D01*
Y54750D01*
X38649D01*
Y54650D01*
X38616D01*
Y52090D01*
X38217D01*
Y57443D01*
X38616D01*
Y55282D01*
D02*
G37*
G36*
X65482Y55880D02*
X65615D01*
Y55847D01*
X65715D01*
Y55814D01*
X65782D01*
Y55781D01*
X65848D01*
Y55747D01*
X65915D01*
Y55714D01*
X65981D01*
Y55681D01*
X66014D01*
Y55648D01*
X66048D01*
Y55614D01*
X66081D01*
Y55581D01*
X66114D01*
Y55548D01*
X66181D01*
Y55481D01*
X66214D01*
Y55448D01*
X66247D01*
Y55415D01*
X66280D01*
Y55382D01*
X66314D01*
Y55315D01*
X66347D01*
Y55282D01*
X66380D01*
Y55215D01*
X66413D01*
Y55149D01*
X66447D01*
Y55082D01*
X66480D01*
Y55016D01*
X66513D01*
Y54916D01*
X66546D01*
Y54783D01*
X66580D01*
Y54617D01*
X66613D01*
Y54284D01*
X66646D01*
Y53985D01*
X66613D01*
Y53952D01*
X63953D01*
Y53520D01*
X63986D01*
Y53387D01*
X64019D01*
Y53287D01*
X64053D01*
Y53187D01*
X64086D01*
Y53121D01*
X64119D01*
Y53054D01*
X64152D01*
Y52988D01*
X64186D01*
Y52954D01*
X64219D01*
Y52888D01*
X64252D01*
Y52855D01*
X64285D01*
Y52821D01*
X64319D01*
Y52788D01*
X64352D01*
Y52722D01*
X64385D01*
Y52688D01*
X64452D01*
Y52655D01*
X64485D01*
Y52622D01*
X64518D01*
Y52589D01*
X64551D01*
Y52555D01*
X64618D01*
Y52522D01*
X64684D01*
Y52489D01*
X64751D01*
Y52456D01*
X64817D01*
Y52422D01*
X64950D01*
Y52389D01*
X65549D01*
Y52422D01*
X65682D01*
Y52456D01*
X65782D01*
Y52489D01*
X65848D01*
Y52522D01*
X65915D01*
Y52555D01*
X65948D01*
Y52589D01*
X66014D01*
Y52622D01*
X66048D01*
Y52655D01*
X66081D01*
Y52688D01*
X66114D01*
Y52722D01*
X66147D01*
Y52755D01*
X66181D01*
Y52788D01*
X66214D01*
Y52821D01*
X66247D01*
Y52855D01*
X66280D01*
Y52888D01*
X66314D01*
Y52855D01*
X66347D01*
Y52821D01*
X66413D01*
Y52788D01*
X66447D01*
Y52755D01*
X66480D01*
Y52722D01*
X66513D01*
Y52688D01*
X66546D01*
Y52655D01*
X66513D01*
Y52622D01*
X66480D01*
Y52555D01*
X66447D01*
Y52522D01*
X66413D01*
Y52489D01*
X66380D01*
Y52456D01*
X66347D01*
Y52422D01*
X66314D01*
Y52389D01*
X66280D01*
Y52356D01*
X66214D01*
Y52323D01*
X66181D01*
Y52289D01*
X66147D01*
Y52256D01*
X66081D01*
Y52223D01*
X66014D01*
Y52190D01*
X65948D01*
Y52156D01*
X65881D01*
Y52123D01*
X65782D01*
Y52090D01*
X65682D01*
Y52057D01*
X65516D01*
Y52023D01*
X64950D01*
Y52057D01*
X64784D01*
Y52090D01*
X64684D01*
Y52123D01*
X64585D01*
Y52156D01*
X64518D01*
Y52190D01*
X64452D01*
Y52223D01*
X64385D01*
Y52256D01*
X64319D01*
Y52289D01*
X64285D01*
Y52323D01*
X64219D01*
Y52356D01*
X64186D01*
Y52389D01*
X64152D01*
Y52422D01*
X64086D01*
Y52456D01*
X64053D01*
Y52489D01*
X64019D01*
Y52522D01*
X63986D01*
Y52589D01*
X63953D01*
Y52622D01*
X63920D01*
Y52655D01*
X63886D01*
Y52688D01*
X63853D01*
Y52755D01*
X63820D01*
Y52821D01*
X63787D01*
Y52855D01*
X63753D01*
Y52921D01*
X63720D01*
Y52988D01*
X63687D01*
Y53087D01*
X63654D01*
Y53154D01*
X63620D01*
Y53254D01*
X63587D01*
Y53420D01*
X63554D01*
Y53619D01*
X63521D01*
Y54251D01*
X63554D01*
Y54484D01*
X63587D01*
Y54650D01*
X63620D01*
Y54750D01*
X63654D01*
Y54850D01*
X63687D01*
Y54916D01*
X63720D01*
Y54983D01*
X63753D01*
Y55049D01*
X63787D01*
Y55116D01*
X63820D01*
Y55182D01*
X63853D01*
Y55215D01*
X63886D01*
Y55282D01*
X63920D01*
Y55315D01*
X63953D01*
Y55348D01*
X63986D01*
Y55415D01*
X64019D01*
Y55448D01*
X64053D01*
Y55481D01*
X64086D01*
Y55515D01*
X64119D01*
Y55548D01*
X64186D01*
Y55581D01*
X64219D01*
Y55614D01*
X64252D01*
Y55648D01*
X64285D01*
Y55681D01*
X64352D01*
Y55714D01*
X64418D01*
Y55747D01*
X64452D01*
Y55781D01*
X64551D01*
Y55814D01*
X64618D01*
Y55847D01*
X64718D01*
Y55880D01*
X64851D01*
Y55914D01*
X65482D01*
Y55880D01*
D02*
G37*
G36*
X54011Y51159D02*
X54078D01*
Y51126D01*
X54111D01*
Y51059D01*
X54144D01*
Y50993D01*
X54177D01*
Y50893D01*
X54144D01*
Y50793D01*
X54111D01*
Y50727D01*
X54078D01*
Y50693D01*
X54011D01*
Y50660D01*
X53745D01*
Y50693D01*
X53679D01*
Y50727D01*
X53645D01*
Y50760D01*
X53612D01*
Y50860D01*
X53579D01*
Y50993D01*
X53612D01*
Y51092D01*
X53645D01*
Y51126D01*
X53679D01*
Y51159D01*
X53745D01*
Y51192D01*
X54011D01*
Y51159D01*
D02*
G37*
G36*
X61160Y49862D02*
X61293D01*
Y49829D01*
X61393D01*
Y49796D01*
X61459D01*
Y49762D01*
X61526D01*
Y49729D01*
X61592D01*
Y49696D01*
X61625D01*
Y49663D01*
X61659D01*
Y49629D01*
X61692D01*
Y49596D01*
X61725D01*
Y49563D01*
X61758D01*
Y49530D01*
X61792D01*
Y49496D01*
X61825D01*
Y49430D01*
X61858D01*
Y49363D01*
X61891D01*
Y49297D01*
X61925D01*
Y49230D01*
X61958D01*
Y49131D01*
X61991D01*
Y48964D01*
X62024D01*
Y48632D01*
X62058D01*
Y46105D01*
X62024D01*
Y46072D01*
X61625D01*
Y48798D01*
X61592D01*
Y48964D01*
X61559D01*
Y49064D01*
X61526D01*
Y49164D01*
X61492D01*
Y49197D01*
X61459D01*
Y49264D01*
X61426D01*
Y49297D01*
X61393D01*
Y49330D01*
X61359D01*
Y49363D01*
X61326D01*
Y49397D01*
X61293D01*
Y49430D01*
X61226D01*
Y49463D01*
X61160D01*
Y49496D01*
X61027D01*
Y49530D01*
X60495D01*
Y49496D01*
X60362D01*
Y49463D01*
X60295D01*
Y49430D01*
X60229D01*
Y49397D01*
X60162D01*
Y49363D01*
X60129D01*
Y49330D01*
X60063D01*
Y49297D01*
X60029D01*
Y49264D01*
X59996D01*
Y49230D01*
X59963D01*
Y49197D01*
X59930D01*
Y49164D01*
X59896D01*
Y49131D01*
X59863D01*
Y49097D01*
X59830D01*
Y49031D01*
X59797D01*
Y48998D01*
X59763D01*
Y48931D01*
X59730D01*
Y48865D01*
X59697D01*
Y48798D01*
X59664D01*
Y48732D01*
X59630D01*
Y46870D01*
Y46836D01*
Y46105D01*
X59597D01*
Y46072D01*
X59198D01*
Y49829D01*
X59597D01*
Y49264D01*
X59664D01*
Y49297D01*
X59697D01*
Y49330D01*
X59730D01*
Y49397D01*
X59763D01*
Y49430D01*
X59797D01*
Y49463D01*
X59830D01*
Y49496D01*
X59863D01*
Y49530D01*
X59896D01*
Y49563D01*
X59930D01*
Y49596D01*
X59963D01*
Y49629D01*
X60029D01*
Y49663D01*
X60063D01*
Y49696D01*
X60129D01*
Y49729D01*
X60196D01*
Y49762D01*
X60229D01*
Y49796D01*
X60329D01*
Y49829D01*
X60428D01*
Y49862D01*
X60561D01*
Y49895D01*
X61160D01*
Y49862D01*
D02*
G37*
G36*
X64751D02*
X64884D01*
Y49829D01*
X65017D01*
Y49796D01*
X65083D01*
Y49762D01*
X65150D01*
Y49729D01*
X65216D01*
Y49696D01*
X65283D01*
Y49663D01*
X65316D01*
Y49629D01*
X65383D01*
Y49596D01*
X65416D01*
Y49563D01*
X65449D01*
Y49530D01*
X65482D01*
Y49496D01*
X65516D01*
Y49463D01*
X65549D01*
Y49430D01*
X65582D01*
Y49363D01*
X65615D01*
Y49330D01*
X65649D01*
Y49264D01*
X65682D01*
Y49197D01*
X65715D01*
Y49097D01*
X65748D01*
Y48931D01*
X65782D01*
Y48798D01*
X65748D01*
Y48765D01*
X65383D01*
Y48798D01*
X65349D01*
Y48964D01*
X65316D01*
Y49064D01*
X65283D01*
Y49131D01*
X65250D01*
Y49164D01*
X65216D01*
Y49197D01*
X65183D01*
Y49264D01*
X65150D01*
Y49297D01*
X65083D01*
Y49330D01*
X65050D01*
Y49363D01*
X65017D01*
Y49397D01*
X64950D01*
Y49430D01*
X64884D01*
Y49463D01*
X64817D01*
Y49496D01*
X64718D01*
Y49530D01*
X64518D01*
Y49563D01*
X64252D01*
Y49530D01*
X64053D01*
Y49496D01*
X63920D01*
Y49463D01*
X63853D01*
Y49430D01*
X63787D01*
Y49397D01*
X63753D01*
Y49363D01*
X63687D01*
Y49330D01*
X63654D01*
Y49297D01*
X63620D01*
Y49264D01*
X63587D01*
Y49230D01*
X63554D01*
Y49164D01*
X63521D01*
Y49097D01*
X63487D01*
Y48698D01*
X63521D01*
Y48632D01*
X63554D01*
Y48565D01*
X63587D01*
Y48532D01*
X63620D01*
Y48499D01*
X63654D01*
Y48466D01*
X63687D01*
Y48432D01*
X63753D01*
Y48399D01*
X63820D01*
Y48366D01*
X63886D01*
Y48333D01*
X63953D01*
Y48299D01*
X64053D01*
Y48266D01*
X64152D01*
Y48233D01*
X64285D01*
Y48200D01*
X64385D01*
Y48166D01*
X64551D01*
Y48133D01*
X64651D01*
Y48100D01*
X64784D01*
Y48067D01*
X64884D01*
Y48033D01*
X64984D01*
Y48000D01*
X65083D01*
Y47967D01*
X65150D01*
Y47934D01*
X65216D01*
Y47900D01*
X65283D01*
Y47867D01*
X65349D01*
Y47834D01*
X65383D01*
Y47801D01*
X65449D01*
Y47767D01*
X65482D01*
Y47734D01*
X65516D01*
Y47701D01*
X65549D01*
Y47668D01*
X65582D01*
Y47634D01*
X65615D01*
Y47601D01*
X65649D01*
Y47535D01*
X65682D01*
Y47501D01*
X65715D01*
Y47402D01*
X65748D01*
Y47302D01*
X65782D01*
Y46803D01*
X65748D01*
Y46703D01*
X65715D01*
Y46637D01*
X65682D01*
Y46570D01*
X65649D01*
Y46504D01*
X65615D01*
Y46471D01*
X65582D01*
Y46437D01*
X65549D01*
Y46404D01*
X65516D01*
Y46371D01*
X65482D01*
Y46338D01*
X65449D01*
Y46304D01*
X65416D01*
Y46271D01*
X65383D01*
Y46238D01*
X65316D01*
Y46205D01*
X65250D01*
Y46171D01*
X65183D01*
Y46138D01*
X65117D01*
Y46105D01*
X65017D01*
Y46072D01*
X64917D01*
Y46038D01*
X64718D01*
Y46005D01*
X64086D01*
Y46038D01*
X63886D01*
Y46072D01*
X63787D01*
Y46105D01*
X63687D01*
Y46138D01*
X63620D01*
Y46171D01*
X63554D01*
Y46205D01*
X63487D01*
Y46238D01*
X63421D01*
Y46271D01*
X63388D01*
Y46304D01*
X63321D01*
Y46338D01*
X63288D01*
Y46371D01*
X63255D01*
Y46404D01*
X63221D01*
Y46437D01*
X63188D01*
Y46471D01*
X63155D01*
Y46504D01*
X63122D01*
Y46570D01*
X63088D01*
Y46604D01*
X63055D01*
Y46670D01*
X63022D01*
Y46737D01*
X62989D01*
Y46836D01*
X62955D01*
Y46969D01*
X62922D01*
Y47102D01*
X62955D01*
Y47136D01*
X63321D01*
Y47102D01*
X63354D01*
Y46969D01*
X63388D01*
Y46870D01*
X63421D01*
Y46803D01*
X63454D01*
Y46737D01*
X63487D01*
Y46703D01*
X63521D01*
Y46670D01*
X63554D01*
Y46637D01*
X63587D01*
Y46604D01*
X63620D01*
Y46570D01*
X63654D01*
Y46537D01*
X63720D01*
Y46504D01*
X63787D01*
Y46471D01*
X63853D01*
Y46437D01*
X63920D01*
Y46404D01*
X64053D01*
Y46371D01*
X64319D01*
Y46338D01*
X64485D01*
Y46371D01*
X64751D01*
Y46404D01*
X64851D01*
Y46437D01*
X64950D01*
Y46471D01*
X65017D01*
Y46504D01*
X65083D01*
Y46537D01*
X65117D01*
Y46570D01*
X65150D01*
Y46604D01*
X65183D01*
Y46637D01*
X65216D01*
Y46670D01*
X65250D01*
Y46703D01*
X65283D01*
Y46737D01*
X65316D01*
Y46803D01*
X65349D01*
Y46936D01*
X65383D01*
Y47136D01*
X65349D01*
Y47269D01*
X65316D01*
Y47335D01*
X65283D01*
Y47368D01*
X65250D01*
Y47435D01*
X65216D01*
Y47468D01*
X65183D01*
Y47501D01*
X65150D01*
Y47535D01*
X65083D01*
Y47568D01*
X65050D01*
Y47601D01*
X64984D01*
Y47634D01*
X64917D01*
Y47668D01*
X64851D01*
Y47701D01*
X64751D01*
Y47734D01*
X64651D01*
Y47767D01*
X64518D01*
Y47801D01*
X64385D01*
Y47834D01*
X64252D01*
Y47867D01*
X64086D01*
Y47900D01*
X63986D01*
Y47934D01*
X63886D01*
Y47967D01*
X63787D01*
Y48000D01*
X63687D01*
Y48033D01*
X63620D01*
Y48067D01*
X63554D01*
Y48100D01*
X63487D01*
Y48133D01*
X63454D01*
Y48166D01*
X63388D01*
Y48200D01*
X63354D01*
Y48233D01*
X63321D01*
Y48266D01*
X63288D01*
Y48299D01*
X63255D01*
Y48333D01*
X63221D01*
Y48366D01*
X63188D01*
Y48432D01*
X63155D01*
Y48499D01*
X63122D01*
Y48565D01*
X63088D01*
Y48665D01*
X63055D01*
Y49064D01*
X63088D01*
Y49197D01*
X63122D01*
Y49264D01*
X63155D01*
Y49330D01*
X63188D01*
Y49397D01*
X63221D01*
Y49430D01*
X63255D01*
Y49463D01*
X63288D01*
Y49496D01*
X63321D01*
Y49530D01*
X63354D01*
Y49563D01*
X63388D01*
Y49596D01*
X63421D01*
Y49629D01*
X63454D01*
Y49663D01*
X63521D01*
Y49696D01*
X63554D01*
Y49729D01*
X63620D01*
Y49762D01*
X63687D01*
Y49796D01*
X63787D01*
Y49829D01*
X63886D01*
Y49862D01*
X64019D01*
Y49895D01*
X64751D01*
Y49862D01*
D02*
G37*
G36*
X39847D02*
X39980D01*
Y49829D01*
X40113D01*
Y49796D01*
X40179D01*
Y49762D01*
X40246D01*
Y49729D01*
X40312D01*
Y49696D01*
X40379D01*
Y49663D01*
X40412D01*
Y49629D01*
X40478D01*
Y49596D01*
X40512D01*
Y49563D01*
X40545D01*
Y49530D01*
X40578D01*
Y49496D01*
X40611D01*
Y49463D01*
X40644D01*
Y49430D01*
X40678D01*
Y49363D01*
X40711D01*
Y49330D01*
X40744D01*
Y49264D01*
X40778D01*
Y49197D01*
X40811D01*
Y49097D01*
X40844D01*
Y48931D01*
X40877D01*
Y48798D01*
X40844D01*
Y48765D01*
X40478D01*
Y48798D01*
X40445D01*
Y48964D01*
X40412D01*
Y49031D01*
X40379D01*
Y49131D01*
X40345D01*
Y49164D01*
X40312D01*
Y49197D01*
X40279D01*
Y49264D01*
X40246D01*
Y49297D01*
X40179D01*
Y49330D01*
X40146D01*
Y49363D01*
X40113D01*
Y49397D01*
X40046D01*
Y49430D01*
X39980D01*
Y49463D01*
X39913D01*
Y49496D01*
X39813D01*
Y49530D01*
X39581D01*
Y49563D01*
X39348D01*
Y49530D01*
X39148D01*
Y49496D01*
X39015D01*
Y49463D01*
X38949D01*
Y49430D01*
X38882D01*
Y49397D01*
X38849D01*
Y49363D01*
X38783D01*
Y49330D01*
X38749D01*
Y49297D01*
X38716D01*
Y49264D01*
X38683D01*
Y49230D01*
X38649D01*
Y49164D01*
X38616D01*
Y49097D01*
X38583D01*
Y48698D01*
X38616D01*
Y48632D01*
X38649D01*
Y48565D01*
X38683D01*
Y48532D01*
X38716D01*
Y48499D01*
X38749D01*
Y48466D01*
X38783D01*
Y48432D01*
X38849D01*
Y48399D01*
X38916D01*
Y48366D01*
X38982D01*
Y48333D01*
X39049D01*
Y48299D01*
X39148D01*
Y48266D01*
X39248D01*
Y48233D01*
X39348D01*
Y48200D01*
X39481D01*
Y48166D01*
X39647D01*
Y48133D01*
X39747D01*
Y48100D01*
X39880D01*
Y48067D01*
X39980D01*
Y48033D01*
X40079D01*
Y48000D01*
X40179D01*
Y47967D01*
X40246D01*
Y47934D01*
X40312D01*
Y47900D01*
X40379D01*
Y47867D01*
X40445D01*
Y47834D01*
X40478D01*
Y47801D01*
X40545D01*
Y47767D01*
X40578D01*
Y47734D01*
X40611D01*
Y47701D01*
X40644D01*
Y47668D01*
X40678D01*
Y47634D01*
X40711D01*
Y47601D01*
X40744D01*
Y47535D01*
X40778D01*
Y47501D01*
X40811D01*
Y47402D01*
X40844D01*
Y47302D01*
X40877D01*
Y46803D01*
X40844D01*
Y46703D01*
X40811D01*
Y46637D01*
X40778D01*
Y46570D01*
X40744D01*
Y46504D01*
X40711D01*
Y46471D01*
X40678D01*
Y46437D01*
X40644D01*
Y46404D01*
X40611D01*
Y46371D01*
X40578D01*
Y46338D01*
X40545D01*
Y46304D01*
X40512D01*
Y46271D01*
X40445D01*
Y46238D01*
X40412D01*
Y46205D01*
X40345D01*
Y46171D01*
X40279D01*
Y46138D01*
X40212D01*
Y46105D01*
X40113D01*
Y46072D01*
X40013D01*
Y46038D01*
X39813D01*
Y46005D01*
X39182D01*
Y46038D01*
X38982D01*
Y46072D01*
X38882D01*
Y46105D01*
X38783D01*
Y46138D01*
X38716D01*
Y46171D01*
X38649D01*
Y46205D01*
X38583D01*
Y46238D01*
X38517D01*
Y46271D01*
X38483D01*
Y46304D01*
X38417D01*
Y46338D01*
X38384D01*
Y46371D01*
X38350D01*
Y46404D01*
X38317D01*
Y46437D01*
X38284D01*
Y46471D01*
X38250D01*
Y46504D01*
X38217D01*
Y46570D01*
X38184D01*
Y46604D01*
X38151D01*
Y46670D01*
X38118D01*
Y46737D01*
X38084D01*
Y46803D01*
Y46836D01*
X38051D01*
Y46969D01*
X38018D01*
Y47102D01*
X38051D01*
Y47136D01*
X38417D01*
Y47102D01*
X38450D01*
Y46969D01*
X38483D01*
Y46870D01*
X38517D01*
Y46803D01*
X38550D01*
Y46737D01*
X38583D01*
Y46703D01*
X38616D01*
Y46670D01*
X38649D01*
Y46637D01*
X38683D01*
Y46604D01*
X38716D01*
Y46570D01*
X38749D01*
Y46537D01*
X38816D01*
Y46504D01*
X38849D01*
Y46471D01*
X38949D01*
Y46437D01*
X39015D01*
Y46404D01*
X39148D01*
Y46371D01*
X39414D01*
Y46338D01*
X39581D01*
Y46371D01*
X39847D01*
Y46404D01*
X39946D01*
Y46437D01*
X40046D01*
Y46471D01*
X40113D01*
Y46504D01*
X40179D01*
Y46537D01*
X40212D01*
Y46570D01*
X40246D01*
Y46604D01*
X40279D01*
Y46637D01*
X40312D01*
Y46670D01*
X40345D01*
Y46703D01*
X40379D01*
Y46737D01*
X40412D01*
Y46836D01*
X40445D01*
Y46936D01*
X40478D01*
Y47136D01*
X40445D01*
Y47269D01*
X40412D01*
Y47335D01*
X40379D01*
Y47368D01*
X40345D01*
Y47435D01*
X40312D01*
Y47468D01*
X40279D01*
Y47501D01*
X40212D01*
Y47535D01*
X40179D01*
Y47568D01*
X40146D01*
Y47601D01*
X40079D01*
Y47634D01*
X40013D01*
Y47668D01*
X39913D01*
Y47701D01*
X39847D01*
Y47734D01*
X39747D01*
Y47767D01*
X39614D01*
Y47801D01*
X39481D01*
Y47834D01*
X39315D01*
Y47867D01*
X39182D01*
Y47900D01*
X39082D01*
Y47934D01*
X38982D01*
Y47967D01*
X38882D01*
Y48000D01*
X38783D01*
Y48033D01*
X38716D01*
Y48067D01*
X38649D01*
Y48100D01*
X38583D01*
Y48133D01*
X38550D01*
Y48166D01*
X38483D01*
Y48200D01*
X38450D01*
Y48233D01*
X38417D01*
Y48266D01*
X38384D01*
Y48299D01*
X38350D01*
Y48333D01*
X38317D01*
Y48366D01*
X38284D01*
Y48432D01*
X38250D01*
Y48499D01*
X38217D01*
Y48565D01*
X38184D01*
Y48665D01*
X38151D01*
Y49064D01*
X38184D01*
Y49197D01*
X38217D01*
Y49264D01*
X38250D01*
Y49330D01*
X38284D01*
Y49397D01*
X38317D01*
Y49430D01*
X38350D01*
Y49463D01*
X38384D01*
Y49496D01*
X38417D01*
Y49530D01*
X38450D01*
Y49563D01*
X38483D01*
Y49596D01*
X38517D01*
Y49629D01*
X38550D01*
Y49663D01*
X38616D01*
Y49696D01*
X38649D01*
Y49729D01*
X38716D01*
Y49762D01*
X38783D01*
Y49796D01*
X38882D01*
Y49829D01*
X38982D01*
Y49862D01*
X39115D01*
Y49895D01*
X39847D01*
Y49862D01*
D02*
G37*
G36*
X50254Y49530D02*
Y49496D01*
Y46072D01*
X49855D01*
Y46105D01*
X49822D01*
Y46504D01*
X49788D01*
Y46471D01*
X49755D01*
Y46437D01*
X49722D01*
Y46404D01*
X49689D01*
Y46371D01*
X49655D01*
Y46338D01*
X49622D01*
Y46304D01*
X49589D01*
Y46271D01*
X49556D01*
Y46238D01*
X49489D01*
Y46205D01*
X49456D01*
Y46171D01*
X49389D01*
Y46138D01*
X49323D01*
Y46105D01*
X49223D01*
Y46072D01*
X49123D01*
Y46038D01*
X48957D01*
Y46005D01*
X48359D01*
Y46038D01*
X48192D01*
Y46072D01*
X48093D01*
Y46105D01*
X48026D01*
Y46138D01*
X47960D01*
Y46171D01*
X47893D01*
Y46205D01*
X47860D01*
Y46238D01*
X47827D01*
Y46271D01*
X47760D01*
Y46304D01*
X47727D01*
Y46371D01*
X47694D01*
Y46404D01*
X47660D01*
Y46437D01*
X47627D01*
Y46504D01*
X47594D01*
Y46537D01*
X47561D01*
Y46604D01*
X47527D01*
Y46703D01*
X47494D01*
Y46803D01*
X47461D01*
Y46903D01*
X47428D01*
Y47136D01*
X47394D01*
Y49829D01*
X47793D01*
Y49796D01*
X47827D01*
Y47069D01*
X47860D01*
Y46936D01*
X47893D01*
Y46836D01*
X47926D01*
Y46770D01*
X47960D01*
Y46703D01*
X47993D01*
Y46670D01*
X48026D01*
Y46604D01*
X48059D01*
Y46570D01*
X48093D01*
Y46537D01*
X48159D01*
Y46504D01*
X48192D01*
Y46471D01*
X48259D01*
Y46437D01*
X48325D01*
Y46404D01*
X48458D01*
Y46371D01*
X48990D01*
Y46404D01*
X49123D01*
Y46437D01*
X49223D01*
Y46471D01*
X49290D01*
Y46504D01*
X49356D01*
Y46537D01*
X49423D01*
Y46570D01*
X49456D01*
Y46604D01*
X49522D01*
Y46637D01*
X49556D01*
Y46670D01*
X49589D01*
Y46703D01*
X49622D01*
Y46770D01*
X49655D01*
Y46803D01*
X49689D01*
Y46836D01*
X49722D01*
Y46903D01*
X49755D01*
Y46969D01*
X49788D01*
Y47069D01*
X49822D01*
Y49829D01*
X50254D01*
Y49530D01*
D02*
G37*
G36*
X54078Y46072D02*
X53679D01*
Y46105D01*
X53645D01*
Y46371D01*
Y46404D01*
Y49829D01*
X54078D01*
Y46072D01*
D02*
G37*
G36*
X46264Y51392D02*
X46297D01*
Y46437D01*
Y46404D01*
Y46105D01*
X46264D01*
Y46072D01*
X45865D01*
Y51425D01*
X46264D01*
Y51392D01*
D02*
G37*
G36*
X57004Y49862D02*
X57137D01*
Y49829D01*
X57236D01*
Y49796D01*
X57336D01*
Y49762D01*
X57403D01*
Y49729D01*
X57469D01*
Y49696D01*
X57536D01*
Y49663D01*
X57569D01*
Y49629D01*
X57635D01*
Y49596D01*
X57669D01*
Y49563D01*
X57702D01*
Y49530D01*
X57735D01*
Y49496D01*
X57768D01*
Y49463D01*
X57802D01*
Y49430D01*
X57835D01*
Y49397D01*
X57868D01*
Y49363D01*
X57901D01*
Y49330D01*
X57935D01*
Y49297D01*
X57968D01*
Y49230D01*
X58001D01*
Y49197D01*
X58034D01*
Y49164D01*
X58068D01*
Y49097D01*
X58101D01*
Y49031D01*
X58134D01*
Y48964D01*
X58167D01*
Y48898D01*
X58201D01*
Y48798D01*
X58234D01*
Y48698D01*
X58267D01*
Y48565D01*
X58300D01*
Y48366D01*
X58334D01*
Y47535D01*
X58300D01*
Y47335D01*
X58267D01*
Y47202D01*
X58234D01*
Y47136D01*
X58201D01*
Y47036D01*
X58167D01*
Y46936D01*
X58134D01*
Y46870D01*
X58101D01*
Y46803D01*
X58068D01*
Y46770D01*
X58034D01*
Y46703D01*
X58001D01*
Y46670D01*
X57968D01*
Y46604D01*
X57935D01*
Y46570D01*
X57901D01*
Y46537D01*
X57868D01*
Y46504D01*
X57835D01*
Y46471D01*
X57802D01*
Y46437D01*
X57768D01*
Y46404D01*
X57735D01*
Y46371D01*
X57702D01*
Y46338D01*
X57669D01*
Y46304D01*
X57602D01*
Y46271D01*
X57569D01*
Y46238D01*
X57502D01*
Y46205D01*
X57469D01*
Y46171D01*
X57403D01*
Y46138D01*
X57303D01*
Y46105D01*
X57236D01*
Y46072D01*
X57103D01*
Y46038D01*
X56937D01*
Y46005D01*
X56372D01*
Y46038D01*
X56206D01*
Y46072D01*
X56106D01*
Y46105D01*
X56006D01*
Y46138D01*
X55940D01*
Y46171D01*
X55873D01*
Y46205D01*
X55807D01*
Y46238D01*
X55773D01*
Y46271D01*
X55707D01*
Y46304D01*
X55674D01*
Y46338D01*
X55640D01*
Y46371D01*
X55574D01*
Y46404D01*
X55541D01*
Y46437D01*
X55507D01*
Y46471D01*
X55474D01*
Y46504D01*
X55441D01*
Y46570D01*
X55408D01*
Y46604D01*
X55374D01*
Y46637D01*
X55341D01*
Y46670D01*
X55308D01*
Y46737D01*
X55275D01*
Y46770D01*
X55241D01*
Y46836D01*
X55208D01*
Y46903D01*
X55175D01*
Y46969D01*
X55142D01*
Y47069D01*
X55108D01*
Y47169D01*
X55075D01*
Y47269D01*
X55042D01*
Y47402D01*
X55009D01*
Y47634D01*
X54975D01*
Y48299D01*
X55009D01*
Y48499D01*
X55042D01*
Y48632D01*
X55075D01*
Y48765D01*
X55108D01*
Y48831D01*
X55142D01*
Y48931D01*
X55175D01*
Y48998D01*
X55208D01*
Y49064D01*
X55241D01*
Y49131D01*
X55275D01*
Y49164D01*
X55308D01*
Y49230D01*
X55341D01*
Y49264D01*
X55374D01*
Y49330D01*
X55408D01*
Y49363D01*
X55441D01*
Y49397D01*
X55474D01*
Y49430D01*
X55507D01*
Y49463D01*
X55541D01*
Y49496D01*
X55574D01*
Y49530D01*
X55607D01*
Y49563D01*
X55674D01*
Y49596D01*
X55707D01*
Y49629D01*
X55740D01*
Y49663D01*
X55807D01*
Y49696D01*
X55873D01*
Y49729D01*
X55940D01*
Y49762D01*
X56006D01*
Y49796D01*
X56073D01*
Y49829D01*
X56206D01*
Y49862D01*
X56339D01*
Y49895D01*
X57004D01*
Y49862D01*
D02*
G37*
G36*
X51983Y49829D02*
X52748D01*
Y49496D01*
X51983D01*
Y46703D01*
X52016D01*
Y46604D01*
X52049D01*
Y46537D01*
X52083D01*
Y46504D01*
X52116D01*
Y46471D01*
X52149D01*
Y46437D01*
X52216D01*
Y46404D01*
X52282D01*
Y46371D01*
X52714D01*
Y46404D01*
X52781D01*
Y46371D01*
X52814D01*
Y46038D01*
X52681D01*
Y46005D01*
X52149D01*
Y46038D01*
X52016D01*
Y46072D01*
X51950D01*
Y46105D01*
X51883D01*
Y46138D01*
X51850D01*
Y46171D01*
X51817D01*
Y46205D01*
X51783D01*
Y46238D01*
X51750D01*
Y46271D01*
X51717D01*
Y46304D01*
X51684D01*
Y46371D01*
X51650D01*
Y46437D01*
X51617D01*
Y46570D01*
X51584D01*
Y46737D01*
X51551D01*
Y49496D01*
X50852D01*
Y49829D01*
X51551D01*
Y50793D01*
X51983D01*
Y49829D01*
D02*
G37*
G36*
X43604Y49862D02*
X43770D01*
Y49829D01*
X43870D01*
Y49796D01*
X43936D01*
Y49762D01*
X44003D01*
Y49729D01*
X44069D01*
Y49696D01*
X44136D01*
Y49663D01*
X44202D01*
Y49629D01*
X44236D01*
Y49596D01*
X44269D01*
Y49563D01*
X44335D01*
Y49530D01*
X44369D01*
Y49496D01*
X44402D01*
Y49463D01*
X44435D01*
Y49430D01*
X44468D01*
Y49397D01*
X44502D01*
Y49363D01*
X44535D01*
Y49297D01*
X44568D01*
Y49264D01*
X44601D01*
Y49230D01*
X44635D01*
Y49164D01*
X44668D01*
Y49097D01*
X44701D01*
Y49064D01*
X44734D01*
Y48998D01*
X44768D01*
Y48898D01*
X44801D01*
Y48831D01*
X44834D01*
Y48732D01*
X44867D01*
Y48599D01*
X44901D01*
Y48466D01*
X44934D01*
Y48133D01*
X44967D01*
Y47734D01*
X44934D01*
Y47435D01*
X44901D01*
Y47302D01*
X44867D01*
Y47169D01*
X44834D01*
Y47069D01*
X44801D01*
Y47003D01*
X44768D01*
Y46936D01*
X44734D01*
Y46870D01*
X44701D01*
Y46803D01*
X44668D01*
Y46737D01*
X44635D01*
Y46703D01*
X44601D01*
Y46637D01*
X44568D01*
Y46604D01*
X44535D01*
Y46570D01*
X44502D01*
Y46504D01*
X44468D01*
Y46471D01*
X44435D01*
Y46437D01*
X44402D01*
Y46404D01*
X44369D01*
Y46371D01*
X44302D01*
Y46338D01*
X44269D01*
Y46304D01*
X44236D01*
Y46271D01*
X44169D01*
Y46238D01*
X44136D01*
Y46205D01*
X44069D01*
Y46171D01*
X44003D01*
Y46138D01*
X43936D01*
Y46105D01*
X43837D01*
Y46072D01*
X43737D01*
Y46038D01*
X43571D01*
Y46005D01*
X42972D01*
Y46038D01*
X42806D01*
Y46072D01*
X42706D01*
Y46105D01*
X42640D01*
Y46138D01*
X42540D01*
Y46171D01*
X42473D01*
Y46205D01*
X42440D01*
Y46238D01*
X42374D01*
Y46271D01*
X42307D01*
Y46304D01*
X42274D01*
Y46338D01*
X42241D01*
Y46371D01*
X42207D01*
Y46404D01*
X42174D01*
Y46437D01*
X42141D01*
Y46471D01*
X42107D01*
Y46504D01*
X42074D01*
Y46537D01*
X42041D01*
Y46570D01*
X42008D01*
Y46604D01*
X41974D01*
Y46670D01*
X41941D01*
Y46703D01*
X41908D01*
Y46737D01*
X41875D01*
Y46803D01*
X41842D01*
Y46870D01*
X41808D01*
Y46936D01*
X41775D01*
Y47003D01*
X41742D01*
Y47102D01*
X41709D01*
Y47202D01*
X41675D01*
Y47302D01*
X41642D01*
Y47468D01*
X41609D01*
Y47867D01*
X41576D01*
Y48067D01*
X41609D01*
Y48432D01*
X41642D01*
Y48599D01*
X41675D01*
Y48698D01*
X41709D01*
Y48798D01*
X41742D01*
Y48898D01*
X41775D01*
Y48964D01*
X41808D01*
Y49031D01*
X41842D01*
Y49097D01*
X41875D01*
Y49164D01*
X41908D01*
Y49197D01*
X41941D01*
Y49264D01*
X41974D01*
Y49297D01*
X42008D01*
Y49330D01*
X42041D01*
Y49363D01*
X42074D01*
Y49430D01*
X42107D01*
Y49463D01*
X42141D01*
Y49496D01*
X42207D01*
Y49530D01*
X42241D01*
Y49563D01*
X42274D01*
Y49596D01*
X42307D01*
Y49629D01*
X42374D01*
Y49663D01*
X42407D01*
Y49696D01*
X42473D01*
Y49729D01*
X42540D01*
Y49762D01*
X42606D01*
Y49796D01*
X42706D01*
Y49829D01*
X42806D01*
Y49862D01*
X42939D01*
Y49895D01*
X43604D01*
Y49862D01*
D02*
G37*
G36*
X57041Y40955D02*
X56981D01*
Y40985D01*
Y41015D01*
X57041D01*
Y40955D01*
D02*
G37*
G36*
X74434Y40036D02*
X74507Y39981D01*
X74586Y39932D01*
X74670Y39889D01*
X74761Y39853D01*
X74857Y39824D01*
X74960Y39801D01*
X75068Y39785D01*
X75182Y39775D01*
X75302Y39772D01*
Y38772D01*
X75182Y38768D01*
X75068Y38759D01*
X74960Y38742D01*
X74857Y38719D01*
X74761Y38690D01*
X74670Y38654D01*
X74586Y38612D01*
X74507Y38563D01*
X74434Y38507D01*
X74367Y38445D01*
Y40098D01*
X74434Y40036D01*
D02*
G37*
G36*
X76500Y38272D02*
X76490Y38367D01*
X76460Y38452D01*
X76409Y38527D01*
X76338Y38592D01*
X76247Y38647D01*
X76136Y38692D01*
X76004Y38727D01*
X75853Y38752D01*
X75681Y38767D01*
X75488Y38772D01*
Y39772D01*
X75681Y39777D01*
X75853Y39792D01*
X76004Y39817D01*
X76136Y39852D01*
X76247Y39897D01*
X76338Y39952D01*
X76409Y40017D01*
X76460Y40092D01*
X76490Y40177D01*
X76500Y40272D01*
Y38272D01*
D02*
G37*
G36*
X88192Y38173D02*
X88182Y38268D01*
X88152Y38353D01*
X88101Y38428D01*
X88030Y38493D01*
X87939Y38548D01*
X87828Y38593D01*
X87696Y38628D01*
X87544Y38653D01*
X87372Y38668D01*
X87180Y38673D01*
Y39673D01*
X87372Y39678D01*
X87544Y39693D01*
X87696Y39718D01*
X87828Y39753D01*
X87939Y39798D01*
X88030Y39853D01*
X88101Y39918D01*
X88152Y39993D01*
X88182Y40078D01*
X88192Y40173D01*
Y38173D01*
D02*
G37*
G36*
X84730Y40078D02*
X84761Y39993D01*
X84811Y39918D01*
X84882Y39853D01*
X84973Y39798D01*
X85084Y39753D01*
X85216Y39718D01*
X85368Y39693D01*
X85540Y39678D01*
X85732Y39673D01*
Y38673D01*
X85540Y38668D01*
X85368Y38653D01*
X85216Y38628D01*
X85084Y38593D01*
X84973Y38548D01*
X84882Y38493D01*
X84811Y38428D01*
X84761Y38353D01*
X84730Y38268D01*
X84720Y38173D01*
Y40173D01*
X84730Y40078D01*
D02*
G37*
G36*
X35260Y36992D02*
X35250Y37087D01*
X35220Y37172D01*
X35169Y37247D01*
X35098Y37312D01*
X35007Y37367D01*
X34896Y37412D01*
X34764Y37447D01*
X34613Y37472D01*
X34440Y37487D01*
X34248Y37492D01*
Y38492D01*
X34440Y38497D01*
X34613Y38512D01*
X34764Y38537D01*
X34896Y38572D01*
X35007Y38617D01*
X35098Y38672D01*
X35169Y38737D01*
X35220Y38812D01*
X35250Y38897D01*
X35260Y38992D01*
Y36992D01*
D02*
G37*
G36*
X96160Y37404D02*
X96075Y37374D01*
X96000Y37324D01*
X95935Y37254D01*
X95880Y37164D01*
X95835Y37054D01*
X95800Y36924D01*
X95775Y36774D01*
X95760Y36604D01*
X95755Y36414D01*
X94755D01*
X94750Y36604D01*
X94735Y36774D01*
X94710Y36924D01*
X94675Y37054D01*
X94630Y37164D01*
X94575Y37254D01*
X94510Y37324D01*
X94435Y37374D01*
X94350Y37404D01*
X94255Y37414D01*
X96255D01*
X96160Y37404D01*
D02*
G37*
G36*
X25353Y37372D02*
X26294Y37585D01*
X26113Y37519D01*
X25952Y37408D01*
X25810Y37251D01*
X25686Y37048D01*
X25582Y36800D01*
X25496Y36505D01*
X25490Y36472D01*
X25502Y36427D01*
X25591Y36209D01*
X25699Y36031D01*
X25827Y35892D01*
X25974Y35793D01*
X26142Y35733D01*
X26329Y35712D01*
X25378Y35716D01*
X25354Y35349D01*
X25344Y34873D01*
X23376Y34752D01*
X23366Y35162D01*
X23338Y35525D01*
X23290Y35840D01*
X23223Y36108D01*
X23136Y36327D01*
X23031Y36498D01*
X22906Y36622D01*
X22762Y36698D01*
X22599Y36727D01*
X22417Y36707D01*
X23372Y36923D01*
X23376Y37693D01*
X25344D01*
X25353Y37372D01*
D02*
G37*
G36*
X95760Y35048D02*
X95775Y34877D01*
X95800Y34726D01*
X95835Y34594D01*
X95880Y34483D01*
X95935Y34392D01*
X96000Y34321D01*
X96075Y34270D01*
X96160Y34239D01*
X96255Y34228D01*
X94894Y34240D01*
X94867Y34250D01*
X94844Y34280D01*
X94823Y34330D01*
X94805Y34400D01*
X94789Y34490D01*
X94777Y34600D01*
X94760Y34880D01*
X94755Y35240D01*
X95755D01*
X95760Y35048D01*
D02*
G37*
G36*
X43327Y37520D02*
X43386Y37185D01*
X43484Y36890D01*
X43622Y36634D01*
X43799Y36417D01*
X44016Y36240D01*
X44272Y36102D01*
X44567Y36004D01*
X44902Y35945D01*
X45276Y35925D01*
Y33957D01*
X44902Y33937D01*
X44567Y33878D01*
X44272Y33779D01*
X44016Y33642D01*
X43799Y33465D01*
X43622Y33248D01*
X43484Y32992D01*
X43386Y32697D01*
X43327Y32362D01*
X43307Y31988D01*
X42200Y33649D01*
X41154D01*
X41189Y33662D01*
X41220Y33701D01*
X41248Y33766D01*
X41272Y33856D01*
X41292Y33972D01*
X41309Y34114D01*
X41331Y34476D01*
X41339Y34941D01*
X41337Y35186D01*
X41292Y35910D01*
X41272Y36026D01*
X41248Y36116D01*
X41220Y36181D01*
X41189Y36220D01*
X41154Y36233D01*
X42200D01*
X43307Y37894D01*
X43327Y37520D01*
D02*
G37*
G36*
X96308Y31914D02*
X96231Y31969D01*
X96140Y31996D01*
X96035Y31995D01*
X95915Y31966D01*
X95781Y31908D01*
X95632Y31822D01*
X95469Y31707D01*
X95292Y31565D01*
X94894Y31195D01*
X94187Y31902D01*
X94386Y32108D01*
X94700Y32477D01*
X94814Y32640D01*
X94900Y32789D01*
X94958Y32923D01*
X94987Y33043D01*
X94988Y33148D01*
X94961Y33239D01*
X94906Y33316D01*
X96308Y31914D01*
D02*
G37*
G36*
X23319Y30236D02*
X23311Y30234D01*
X23286Y30232D01*
X23109Y30227D01*
X22479Y30224D01*
Y31799D01*
X22638Y31800D01*
X23311Y31842D01*
X23319Y31852D01*
Y30236D01*
D02*
G37*
G36*
X102688Y30269D02*
X102553Y30268D01*
X102019Y30232D01*
X101975Y30220D01*
X101944Y30207D01*
X101926Y30193D01*
X101715Y31833D01*
X102411Y31844D01*
X102688Y30269D01*
D02*
G37*
G36*
X36662Y30142D02*
X36586Y30198D01*
X36495Y30225D01*
X36389Y30223D01*
X36269Y30194D01*
X36135Y30136D01*
X35987Y30050D01*
X35824Y29936D01*
X35646Y29793D01*
X35259Y29433D01*
X35181Y29354D01*
X34579Y28677D01*
X34524Y28598D01*
X34481Y28529D01*
X34451Y28469D01*
X33864Y30008D01*
X33941Y29979D01*
X34018Y29963D01*
X34098Y29959D01*
X34179Y29967D01*
X34261Y29989D01*
X34344Y30022D01*
X34429Y30068D01*
X34516Y30127D01*
X34604Y30198D01*
X34639Y30231D01*
X34740Y30336D01*
X35054Y30705D01*
X35168Y30868D01*
X35254Y31017D01*
X35312Y31151D01*
X35342Y31271D01*
X35343Y31376D01*
X35316Y31468D01*
X35260Y31544D01*
X36662Y30142D01*
D02*
G37*
G36*
X109557Y29922D02*
X109445Y29988D01*
X109316Y30047D01*
X109172Y30099D01*
X109011Y30144D01*
X108833Y30182D01*
X108429Y30237D01*
X108203Y30255D01*
X107701Y30269D01*
X107680Y31844D01*
X107996Y31851D01*
X108278Y31875D01*
X108525Y31914D01*
X108736Y31969D01*
X108912Y32040D01*
X109053Y32127D01*
X109159Y32229D01*
X109230Y32348D01*
X109266Y32481D01*
X109267Y32631D01*
X109557Y29922D01*
D02*
G37*
G36*
X84566Y29541D02*
X84481Y29511D01*
X84406Y29460D01*
X84341Y29390D01*
X84286Y29299D01*
X84241Y29187D01*
X84206Y29056D01*
X84181Y28904D01*
X84166Y28732D01*
X84161Y28540D01*
X83161D01*
X83156Y28732D01*
X83141Y28904D01*
X83116Y29056D01*
X83081Y29187D01*
X83036Y29299D01*
X82981Y29390D01*
X82916Y29460D01*
X82841Y29511D01*
X82756Y29541D01*
X82661Y29552D01*
X84661D01*
X84566Y29541D01*
D02*
G37*
G36*
X78464D02*
X78379Y29511D01*
X78304Y29460D01*
X78239Y29390D01*
X78184Y29299D01*
X78139Y29187D01*
X78104Y29056D01*
X78079Y28904D01*
X78064Y28732D01*
X78059Y28540D01*
X77059D01*
X77054Y28732D01*
X77039Y28904D01*
X77014Y29056D01*
X76979Y29187D01*
X76934Y29299D01*
X76879Y29390D01*
X76814Y29460D01*
X76739Y29511D01*
X76654Y29541D01*
X76559Y29552D01*
X78559D01*
X78464Y29541D01*
D02*
G37*
G36*
X84165Y27938D02*
X84175Y27824D01*
X84191Y27716D01*
X84214Y27613D01*
X84243Y27517D01*
X84279Y27426D01*
X84321Y27342D01*
X84371Y27263D01*
X84426Y27190D01*
X84488Y27123D01*
X82835D01*
X82897Y27190D01*
X82952Y27263D01*
X83001Y27342D01*
X83044Y27426D01*
X83080Y27517D01*
X83109Y27613D01*
X83132Y27716D01*
X83148Y27824D01*
X83158Y27938D01*
X83161Y28058D01*
X84161D01*
X84165Y27938D01*
D02*
G37*
G36*
X49598Y27040D02*
X49449Y26890D01*
X48918Y26288D01*
X48890Y26238D01*
X48879Y26202D01*
X48885Y26180D01*
X48024Y27029D01*
X48046Y27023D01*
X48082Y27034D01*
X48133Y27062D01*
X48198Y27108D01*
X48278Y27172D01*
X48602Y27465D01*
X48891Y27747D01*
X49598Y27040D01*
D02*
G37*
G36*
X98423Y28070D02*
X98453Y27985D01*
X98503Y27910D01*
X98573Y27845D01*
X98663Y27790D01*
X98773Y27745D01*
X98903Y27710D01*
X99053Y27685D01*
X99223Y27670D01*
X99413Y27665D01*
Y26665D01*
X99223Y26660D01*
X99053Y26645D01*
X98903Y26620D01*
X98773Y26585D01*
X98663Y26540D01*
X98573Y26485D01*
X98503Y26420D01*
X98453Y26345D01*
X98423Y26260D01*
X98413Y26165D01*
Y28165D01*
X98423Y28070D01*
D02*
G37*
G36*
X29014Y27245D02*
X29044Y27231D01*
X29094Y27220D01*
X29164Y27209D01*
X29364Y27194D01*
X30004Y27181D01*
Y26181D01*
X29814Y26180D01*
X29044Y26131D01*
X29014Y26118D01*
X29004Y26103D01*
Y27260D01*
X29014Y27245D01*
D02*
G37*
G36*
X78064Y26781D02*
X78079Y26609D01*
X78104Y26458D01*
X78139Y26326D01*
X78184Y26215D01*
X78239Y26124D01*
X78304Y26053D01*
X78379Y26002D01*
X78464Y25971D01*
X78559Y25960D01*
X76981Y25972D01*
X76995Y25982D01*
X77009Y26012D01*
X77021Y26062D01*
X77031Y26132D01*
X77047Y26332D01*
X77059Y26972D01*
X78059D01*
X78064Y26781D01*
D02*
G37*
G36*
X107155Y26726D02*
X107243Y26652D01*
X107331Y26587D01*
X107420Y26531D01*
X107509Y26483D01*
X107598Y26445D01*
X107688Y26415D01*
X107779Y26394D01*
X107869Y26381D01*
X107961Y26378D01*
X106791Y25209D01*
X106788Y25300D01*
X106776Y25391D01*
X106755Y25481D01*
X106725Y25571D01*
X106686Y25660D01*
X106639Y25749D01*
X106582Y25838D01*
X106518Y25926D01*
X106444Y26014D01*
X106361Y26101D01*
X107068Y26808D01*
X107155Y26726D01*
D02*
G37*
G36*
X34310Y24893D02*
X34299Y24986D01*
X34268Y25070D01*
X34216Y25144D01*
X34143Y25208D01*
X34049Y25262D01*
X33934Y25307D01*
X33798Y25341D01*
X33641Y25366D01*
X33463Y25381D01*
X33265Y25386D01*
Y26386D01*
X33463Y26391D01*
X33641Y26406D01*
X33798Y26430D01*
X33934Y26465D01*
X34049Y26509D01*
X34143Y26563D01*
X34216Y26628D01*
X34268Y26702D01*
X34299Y26785D01*
X34310Y26879D01*
Y24893D01*
D02*
G37*
G36*
X59264Y24815D02*
X59254Y24805D01*
X59224Y24797D01*
X59174Y24789D01*
X59104Y24782D01*
X58774Y24768D01*
X58264Y24764D01*
Y25764D01*
X58454Y25766D01*
X58904Y25797D01*
X59014Y25816D01*
X59104Y25839D01*
X59174Y25866D01*
X59224Y25897D01*
X59254Y25933D01*
X59264Y25972D01*
Y24815D01*
D02*
G37*
G36*
X29014Y25276D02*
X29044Y25263D01*
X29094Y25251D01*
X29164Y25241D01*
X29364Y25225D01*
X30004Y25213D01*
Y24213D01*
X29814Y24212D01*
X29044Y24162D01*
X29014Y24149D01*
X29004Y24134D01*
Y25291D01*
X29014Y25276D01*
D02*
G37*
G36*
X80904Y23989D02*
X80933Y23976D01*
X80984Y23964D01*
X81054Y23954D01*
X81253Y23938D01*
X81893Y23925D01*
Y22925D01*
X81704Y22924D01*
X80933Y22875D01*
X80904Y22862D01*
X80893Y22847D01*
Y24004D01*
X80904Y23989D01*
D02*
G37*
G36*
X65101Y20630D02*
X65034Y20692D01*
X64961Y20748D01*
X64883Y20797D01*
X64798Y20839D01*
X64707Y20875D01*
X64611Y20904D01*
X64509Y20927D01*
X64400Y20944D01*
X64286Y20953D01*
X64168Y20957D01*
X63987Y20956D01*
X63217Y20906D01*
X63187Y20893D01*
X63177Y20878D01*
Y22035D01*
X63187Y22020D01*
X63217Y22007D01*
X63267Y21995D01*
X63337Y21985D01*
X63537Y21969D01*
X64171Y21957D01*
X64286Y21960D01*
X64400Y21970D01*
X64509Y21986D01*
X64611Y22009D01*
X64707Y22038D01*
X64798Y22074D01*
X64883Y22117D01*
X64961Y22166D01*
X65034Y22221D01*
X65101Y22284D01*
Y20630D01*
D02*
G37*
G36*
X109267Y21244D02*
X109256Y21339D01*
X109226Y21424D01*
X109176Y21499D01*
X109105Y21564D01*
X109014Y21619D01*
X108902Y21664D01*
X108771Y21699D01*
X108619Y21724D01*
X108447Y21739D01*
X108255Y21744D01*
Y22744D01*
X108447Y22749D01*
X108619Y22764D01*
X108771Y22789D01*
X108902Y22824D01*
X109014Y22869D01*
X109105Y22924D01*
X109176Y22989D01*
X109226Y23064D01*
X109256Y23149D01*
X109267Y23244D01*
Y21244D01*
D02*
G37*
G36*
X98411Y23149D02*
X98442Y23064D01*
X98492Y22989D01*
X98563Y22924D01*
X98654Y22869D01*
X98765Y22824D01*
X98897Y22789D01*
X99049Y22764D01*
X99221Y22749D01*
X99413Y22744D01*
Y21744D01*
X99221Y21739D01*
X99049Y21724D01*
X98897Y21699D01*
X98765Y21664D01*
X98654Y21619D01*
X98563Y21564D01*
X98492Y21499D01*
X98442Y21424D01*
X98411Y21339D01*
X98401Y21244D01*
Y23244D01*
X98411Y23149D01*
D02*
G37*
G36*
X48769Y23260D02*
X48851Y23243D01*
X48966Y23228D01*
X49301Y23204D01*
X50738Y23179D01*
Y21211D01*
X50409Y21209D01*
X49028Y21113D01*
X48898Y21084D01*
X48796Y21050D01*
X48722Y21012D01*
Y23279D01*
X48769Y23260D01*
D02*
G37*
G36*
X80904Y22020D02*
X80933Y22007D01*
X80984Y21995D01*
X81054Y21985D01*
X81253Y21969D01*
X81893Y21957D01*
Y20957D01*
X81704Y20956D01*
X80933Y20906D01*
X80904Y20893D01*
X80893Y20878D01*
Y22035D01*
X80904Y22020D01*
D02*
G37*
%LPC*%
G36*
X50154Y62198D02*
X49689D01*
Y62165D01*
X49556D01*
Y62131D01*
X49489D01*
Y62098D01*
X49389D01*
Y62065D01*
X49356D01*
Y62032D01*
X49290D01*
Y61998D01*
X49256D01*
Y61965D01*
X49190D01*
Y61932D01*
X49157D01*
Y61899D01*
X49123D01*
Y61865D01*
X49090D01*
Y61832D01*
X49057D01*
Y61799D01*
X49024D01*
Y61732D01*
X48990D01*
Y61699D01*
X48957D01*
Y61666D01*
X48924D01*
Y61599D01*
X48891D01*
Y61533D01*
X48857D01*
Y61466D01*
X48824D01*
Y61400D01*
X48791D01*
Y61300D01*
X48758D01*
Y61200D01*
X48724D01*
Y61034D01*
X48691D01*
Y60768D01*
X48658D01*
Y60402D01*
X48691D01*
Y60136D01*
X48724D01*
Y60003D01*
X48758D01*
Y59870D01*
X48791D01*
Y59804D01*
X48824D01*
Y59737D01*
X48857D01*
Y59671D01*
X48891D01*
Y59604D01*
X48924D01*
Y59538D01*
X48957D01*
Y59505D01*
X48990D01*
Y59471D01*
X49024D01*
Y59405D01*
X49057D01*
Y59372D01*
X49090D01*
Y59338D01*
X49123D01*
Y59305D01*
X49157D01*
Y59272D01*
X49190D01*
Y59239D01*
X49256D01*
Y59205D01*
X49290D01*
Y59172D01*
X49356D01*
Y59139D01*
X49423D01*
Y59106D01*
X49489D01*
Y59072D01*
X49589D01*
Y59039D01*
X49722D01*
Y59006D01*
X50154D01*
Y59039D01*
X50287D01*
Y59072D01*
X50387D01*
Y59106D01*
X50453D01*
Y59139D01*
X50520D01*
Y59172D01*
X50586D01*
Y59205D01*
X50620D01*
Y59239D01*
X50653D01*
Y59272D01*
X50719D01*
Y59305D01*
X50753D01*
Y59338D01*
X50786D01*
Y59372D01*
X50819D01*
Y59438D01*
X50852D01*
Y59471D01*
X50886D01*
Y59505D01*
X50919D01*
Y59571D01*
X50952D01*
Y59604D01*
X50985D01*
Y59671D01*
X51019D01*
Y59737D01*
X51052D01*
Y59837D01*
X51085D01*
Y59904D01*
X51118D01*
Y60037D01*
X51152D01*
Y60203D01*
X51185D01*
Y61001D01*
X51152D01*
Y61167D01*
X51118D01*
Y61267D01*
X51085D01*
Y61367D01*
X51052D01*
Y61466D01*
X51019D01*
Y61533D01*
X50985D01*
Y61599D01*
X50952D01*
Y61633D01*
X50919D01*
Y61699D01*
X50886D01*
Y61732D01*
X50852D01*
Y61766D01*
X50819D01*
Y61832D01*
X50786D01*
Y61865D01*
X50753D01*
Y61899D01*
X50719D01*
Y61932D01*
X50653D01*
Y61965D01*
X50620D01*
Y61998D01*
X50586D01*
Y62032D01*
X50520D01*
Y62065D01*
X50453D01*
Y62098D01*
X50387D01*
Y62131D01*
X50287D01*
Y62165D01*
X50154D01*
Y62198D01*
D02*
G37*
G36*
X46231D02*
X45832D01*
Y62165D01*
X45665D01*
Y62131D01*
X45599D01*
Y62098D01*
X45499D01*
Y62065D01*
X45433D01*
Y62032D01*
X45399D01*
Y61998D01*
X45333D01*
Y61965D01*
X45300D01*
Y61932D01*
X45266D01*
Y61899D01*
X45233D01*
Y61865D01*
X45200D01*
Y61832D01*
X45167D01*
Y61799D01*
X45133D01*
Y61732D01*
X45100D01*
Y61699D01*
X45067D01*
Y61633D01*
X45034D01*
Y61599D01*
X45000D01*
Y61500D01*
X44967D01*
Y61433D01*
X44934D01*
Y59704D01*
X44967D01*
Y59638D01*
X45000D01*
Y59571D01*
X45034D01*
Y59538D01*
X45067D01*
Y59471D01*
X45100D01*
Y59438D01*
X45133D01*
Y59405D01*
X45167D01*
Y59372D01*
X45200D01*
Y59338D01*
X45233D01*
Y59305D01*
X45266D01*
Y59272D01*
X45300D01*
Y59239D01*
X45333D01*
Y59205D01*
X45399D01*
Y59172D01*
X45433D01*
Y59139D01*
X45499D01*
Y59106D01*
X45599D01*
Y59072D01*
X45699D01*
Y59039D01*
X45931D01*
Y59006D01*
X46164D01*
Y59039D01*
X46330D01*
Y59072D01*
X46430D01*
Y59106D01*
X46530D01*
Y59139D01*
X46563D01*
Y59172D01*
X46630D01*
Y59205D01*
X46663D01*
Y59239D01*
X46696D01*
Y59272D01*
X46729D01*
Y59305D01*
X46763D01*
Y59338D01*
X46796D01*
Y59372D01*
X46829D01*
Y59405D01*
X46862D01*
Y59471D01*
X46896D01*
Y59505D01*
X46929D01*
Y59571D01*
X46962D01*
Y59638D01*
X46995D01*
Y59737D01*
X47029D01*
Y59837D01*
X47062D01*
Y59904D01*
Y59937D01*
Y59970D01*
X47095D01*
Y60136D01*
X47128D01*
Y60502D01*
X47162D01*
Y60735D01*
X47128D01*
Y61101D01*
X47095D01*
Y61267D01*
X47062D01*
Y61400D01*
X47029D01*
Y61500D01*
X46995D01*
Y61566D01*
X46962D01*
Y61633D01*
X46929D01*
Y61699D01*
X46896D01*
Y61766D01*
X46862D01*
Y61799D01*
X46829D01*
Y61832D01*
X46796D01*
Y61899D01*
X46763D01*
Y61932D01*
X46729D01*
Y61965D01*
X46663D01*
Y61998D01*
X46630D01*
Y62032D01*
X46596D01*
Y62065D01*
X46530D01*
Y62098D01*
X46463D01*
Y62131D01*
X46364D01*
Y62165D01*
X46231D01*
Y62198D01*
D02*
G37*
G36*
X42207D02*
X41742D01*
Y62165D01*
X41642D01*
Y62131D01*
X41542D01*
Y62098D01*
X41476D01*
Y62065D01*
X41409D01*
Y62032D01*
X41343D01*
Y61998D01*
X41310D01*
Y61965D01*
X41276D01*
Y61932D01*
X41210D01*
Y61899D01*
X41177D01*
Y61865D01*
X41143D01*
Y61832D01*
X41110D01*
Y61766D01*
X41077D01*
Y61732D01*
X41043D01*
Y61699D01*
X41010D01*
Y61633D01*
X40977D01*
Y61599D01*
X40944D01*
Y61533D01*
X40911D01*
Y61466D01*
X40877D01*
Y61367D01*
X40844D01*
Y61267D01*
X40811D01*
Y61200D01*
Y61167D01*
X40778D01*
Y61001D01*
X40744D01*
Y60170D01*
X40778D01*
Y60037D01*
X40811D01*
Y59904D01*
X40844D01*
Y59804D01*
X40877D01*
Y59737D01*
X40911D01*
Y59671D01*
X40944D01*
Y59604D01*
X40977D01*
Y59571D01*
X41010D01*
Y59505D01*
X41043D01*
Y59471D01*
X41077D01*
Y59438D01*
X41110D01*
Y59372D01*
X41143D01*
Y59338D01*
X41177D01*
Y59305D01*
X41210D01*
Y59272D01*
X41276D01*
Y59239D01*
X41310D01*
Y59205D01*
X41343D01*
Y59172D01*
X41409D01*
Y59139D01*
X41476D01*
Y59106D01*
X41542D01*
Y59072D01*
X41642D01*
Y59039D01*
X41775D01*
Y59006D01*
X42207D01*
Y59039D01*
X42340D01*
Y59072D01*
X42440D01*
Y59106D01*
X42507D01*
Y59139D01*
X42573D01*
Y59172D01*
X42640D01*
Y59205D01*
X42673D01*
Y59239D01*
X42739D01*
Y59272D01*
X42773D01*
Y59305D01*
X42806D01*
Y59338D01*
X42839D01*
Y59372D01*
X42872D01*
Y59405D01*
X42906D01*
Y59471D01*
X42939D01*
Y59505D01*
X42972D01*
Y59538D01*
X43005D01*
Y59604D01*
X43038D01*
Y59671D01*
X43072D01*
Y59737D01*
X43105D01*
Y59804D01*
X43138D01*
Y59904D01*
X43172D01*
Y60003D01*
X43205D01*
Y60136D01*
X43238D01*
Y60469D01*
X43271D01*
Y60768D01*
X43238D01*
Y61067D01*
X43205D01*
Y61200D01*
X43172D01*
Y61300D01*
X43138D01*
Y61400D01*
X43105D01*
Y61466D01*
X43072D01*
Y61533D01*
X43038D01*
Y61599D01*
X43005D01*
Y61666D01*
X42972D01*
Y61699D01*
X42939D01*
Y61732D01*
X42906D01*
Y61799D01*
X42872D01*
Y61832D01*
X42839D01*
Y61865D01*
X42806D01*
Y61899D01*
X42773D01*
Y61932D01*
X42739D01*
Y61965D01*
X42673D01*
Y61998D01*
X42640D01*
Y62032D01*
X42573D01*
Y62065D01*
X42507D01*
Y62098D01*
X42440D01*
Y62131D01*
X42340D01*
Y62165D01*
X42207D01*
Y62198D01*
D02*
G37*
G36*
X49722Y55581D02*
X49589D01*
Y55548D01*
X49356D01*
Y55515D01*
X49256D01*
Y55481D01*
X49190D01*
Y55448D01*
X49123D01*
Y55415D01*
X49057D01*
Y55382D01*
X49024D01*
Y55348D01*
X48990D01*
Y55315D01*
X48957D01*
Y55282D01*
X48924D01*
Y55249D01*
X48891D01*
Y55215D01*
X48857D01*
Y55182D01*
X48824D01*
Y55116D01*
X48791D01*
Y55082D01*
X48758D01*
Y55016D01*
X48724D01*
Y54949D01*
X48691D01*
Y54883D01*
X48658D01*
Y54783D01*
X48625D01*
Y54683D01*
X48591D01*
Y54517D01*
X48558D01*
Y54251D01*
X48525D01*
Y53653D01*
X48558D01*
Y53420D01*
X48591D01*
Y53254D01*
X48625D01*
Y53154D01*
X48658D01*
Y53054D01*
X48691D01*
Y52988D01*
X48724D01*
Y52921D01*
X48758D01*
Y52855D01*
X48791D01*
Y52821D01*
X48824D01*
Y52755D01*
X48857D01*
Y52722D01*
X48891D01*
Y52688D01*
X48924D01*
Y52655D01*
X48957D01*
Y52622D01*
X48990D01*
Y52589D01*
X49024D01*
Y52555D01*
X49090D01*
Y52522D01*
X49123D01*
Y52489D01*
X49190D01*
Y52456D01*
X49290D01*
Y52422D01*
X49423D01*
Y52389D01*
X49888D01*
Y52422D01*
X50021D01*
Y52456D01*
X50121D01*
Y52489D01*
X50187D01*
Y52522D01*
X50254D01*
Y52555D01*
X50320D01*
Y52589D01*
X50354D01*
Y52622D01*
X50387D01*
Y52655D01*
X50453D01*
Y52688D01*
X50487D01*
Y52722D01*
X50520D01*
Y52788D01*
X50553D01*
Y52821D01*
X50586D01*
Y52855D01*
X50620D01*
Y52921D01*
X50653D01*
Y52954D01*
X50686D01*
Y53021D01*
X50719D01*
Y54883D01*
X50686D01*
Y54949D01*
X50653D01*
Y54983D01*
X50620D01*
Y55049D01*
X50586D01*
Y55082D01*
X50553D01*
Y55149D01*
X50520D01*
Y55182D01*
X50487D01*
Y55215D01*
X50453D01*
Y55249D01*
X50420D01*
Y55282D01*
X50387D01*
Y55315D01*
X50354D01*
Y55348D01*
X50320D01*
Y55382D01*
X50254D01*
Y55415D01*
X50187D01*
Y55448D01*
X50121D01*
Y55481D01*
X50054D01*
Y55515D01*
X49955D01*
Y55548D01*
X49722D01*
Y55581D01*
D02*
G37*
G36*
X59896Y53952D02*
X58799D01*
Y53919D01*
X58600D01*
Y53885D01*
X58500D01*
Y53852D01*
X58400D01*
Y53819D01*
X58300D01*
Y53786D01*
X58234D01*
Y53752D01*
X58201D01*
Y53719D01*
X58134D01*
Y53686D01*
X58101D01*
Y53653D01*
X58068D01*
Y53619D01*
X58034D01*
Y53586D01*
X58001D01*
Y53553D01*
X57968D01*
Y53520D01*
X57935D01*
Y53486D01*
X57901D01*
Y53420D01*
X57868D01*
Y53320D01*
X57835D01*
Y52954D01*
X57868D01*
Y52855D01*
X57901D01*
Y52788D01*
X57935D01*
Y52722D01*
X57968D01*
Y52688D01*
X58001D01*
Y52655D01*
X58034D01*
Y52622D01*
X58068D01*
Y52589D01*
X58101D01*
Y52555D01*
X58134D01*
Y52522D01*
X58201D01*
Y52489D01*
X58267D01*
Y52456D01*
X58367D01*
Y52422D01*
X58500D01*
Y52389D01*
X58899D01*
Y52422D01*
X59065D01*
Y52456D01*
X59165D01*
Y52489D01*
X59265D01*
Y52522D01*
X59331D01*
Y52555D01*
X59398D01*
Y52589D01*
X59431D01*
Y52622D01*
X59497D01*
Y52655D01*
X59531D01*
Y52688D01*
X59564D01*
Y52722D01*
X59597D01*
Y52755D01*
X59664D01*
Y52788D01*
X59697D01*
Y52855D01*
X59730D01*
Y52888D01*
X59763D01*
Y52921D01*
X59797D01*
Y52988D01*
X59830D01*
Y53021D01*
X59863D01*
Y53087D01*
X59896D01*
Y53952D01*
D02*
G37*
G36*
X44402D02*
X43305D01*
Y53919D01*
X43138D01*
Y53885D01*
X43005D01*
Y53852D01*
X42906D01*
Y53819D01*
X42839D01*
Y53786D01*
X42773D01*
Y53752D01*
X42706D01*
Y53719D01*
X42673D01*
Y53686D01*
X42606D01*
Y53653D01*
X42573D01*
Y53619D01*
X42540D01*
Y53586D01*
X42507D01*
Y53553D01*
X42473D01*
Y53486D01*
X42440D01*
Y53453D01*
X42407D01*
Y53353D01*
X42374D01*
Y53254D01*
X42340D01*
Y53220D01*
Y53187D01*
Y53021D01*
X42374D01*
Y52888D01*
X42407D01*
Y52821D01*
X42440D01*
Y52755D01*
X42473D01*
Y52688D01*
X42507D01*
Y52655D01*
X42540D01*
Y52622D01*
X42573D01*
Y52589D01*
X42606D01*
Y52555D01*
X42673D01*
Y52522D01*
X42706D01*
Y52489D01*
X42773D01*
Y52456D01*
X42872D01*
Y52422D01*
X43005D01*
Y52389D01*
X43404D01*
Y52422D01*
X43571D01*
Y52456D01*
X43670D01*
Y52489D01*
X43770D01*
Y52522D01*
X43837D01*
Y52555D01*
X43903D01*
Y52589D01*
X43970D01*
Y52622D01*
X44003D01*
Y52655D01*
X44069D01*
Y52688D01*
X44103D01*
Y52722D01*
X44136D01*
Y52755D01*
X44169D01*
Y52788D01*
X44202D01*
Y52821D01*
X44236D01*
Y52855D01*
X44269D01*
Y52921D01*
X44302D01*
Y52954D01*
X44335D01*
Y53021D01*
X44369D01*
Y53054D01*
X44402D01*
Y53952D01*
D02*
G37*
G36*
X65283Y55581D02*
X65017D01*
Y55548D01*
X64851D01*
Y55515D01*
X64751D01*
Y55481D01*
X64651D01*
Y55448D01*
X64618D01*
Y55415D01*
X64551D01*
Y55382D01*
X64518D01*
Y55348D01*
X64452D01*
Y55315D01*
X64418D01*
Y55282D01*
X64385D01*
Y55249D01*
X64352D01*
Y55215D01*
X64319D01*
Y55182D01*
X64285D01*
Y55116D01*
X64252D01*
Y55082D01*
X64219D01*
Y55049D01*
X64186D01*
Y54983D01*
X64152D01*
Y54916D01*
X64119D01*
Y54850D01*
X64086D01*
Y54783D01*
X64053D01*
Y54683D01*
X64019D01*
Y54550D01*
X63986D01*
Y54384D01*
X63953D01*
Y54318D01*
X66214D01*
Y54550D01*
X66181D01*
Y54717D01*
X66147D01*
Y54816D01*
X66114D01*
Y54916D01*
X66081D01*
Y54983D01*
X66048D01*
Y55049D01*
X66014D01*
Y55116D01*
X65981D01*
Y55149D01*
X65948D01*
Y55182D01*
X65915D01*
Y55249D01*
X65881D01*
Y55282D01*
X65848D01*
Y55315D01*
X65815D01*
Y55348D01*
X65782D01*
Y55382D01*
X65715D01*
Y55415D01*
X65682D01*
Y55448D01*
X65615D01*
Y55481D01*
X65549D01*
Y55515D01*
X65449D01*
Y55548D01*
X65283D01*
Y55581D01*
D02*
G37*
G36*
X56771Y49563D02*
X56538D01*
Y49530D01*
X56339D01*
Y49496D01*
X56239D01*
Y49463D01*
X56172D01*
Y49430D01*
X56106D01*
Y49397D01*
X56039D01*
Y49363D01*
X56006D01*
Y49330D01*
X55940D01*
Y49297D01*
X55906D01*
Y49264D01*
X55873D01*
Y49230D01*
X55840D01*
Y49197D01*
X55807D01*
Y49164D01*
X55773D01*
Y49131D01*
X55740D01*
Y49064D01*
X55707D01*
Y49031D01*
X55674D01*
Y48998D01*
X55640D01*
Y48931D01*
X55607D01*
Y48865D01*
X55574D01*
Y48798D01*
X55541D01*
Y48732D01*
X55507D01*
Y48632D01*
X55474D01*
Y48499D01*
X55441D01*
Y48333D01*
X55408D01*
Y47535D01*
X55441D01*
Y47368D01*
X55474D01*
Y47269D01*
X55507D01*
Y47169D01*
X55541D01*
Y47102D01*
X55574D01*
Y47036D01*
X55607D01*
Y46969D01*
X55640D01*
Y46903D01*
X55674D01*
Y46870D01*
X55707D01*
Y46836D01*
X55740D01*
Y46770D01*
X55773D01*
Y46737D01*
X55807D01*
Y46703D01*
X55840D01*
Y46670D01*
X55873D01*
Y46637D01*
X55906D01*
Y46604D01*
X55940D01*
Y46570D01*
X56006D01*
Y46537D01*
X56039D01*
Y46504D01*
X56106D01*
Y46471D01*
X56172D01*
Y46437D01*
X56239D01*
Y46404D01*
X56372D01*
Y46371D01*
X56605D01*
Y46338D01*
X56738D01*
Y46371D01*
X56970D01*
Y46404D01*
X57070D01*
Y46437D01*
X57170D01*
Y46471D01*
X57236D01*
Y46504D01*
X57270D01*
Y46537D01*
X57336D01*
Y46570D01*
X57369D01*
Y46604D01*
X57403D01*
Y46637D01*
X57436D01*
Y46670D01*
X57469D01*
Y46703D01*
X57502D01*
Y46737D01*
X57536D01*
Y46770D01*
X57569D01*
Y46803D01*
X57602D01*
Y46836D01*
X57635D01*
Y46903D01*
X57669D01*
Y46936D01*
X57702D01*
Y47003D01*
X57735D01*
Y47069D01*
X57768D01*
Y47136D01*
X57802D01*
Y47202D01*
Y47235D01*
X57835D01*
Y47335D01*
X57868D01*
Y47468D01*
X57901D01*
Y47734D01*
X57935D01*
Y48200D01*
X57901D01*
Y48432D01*
X57868D01*
Y48565D01*
X57835D01*
Y48665D01*
X57802D01*
Y48765D01*
X57768D01*
Y48831D01*
X57735D01*
Y48898D01*
X57702D01*
Y48964D01*
X57669D01*
Y48998D01*
X57635D01*
Y49064D01*
X57602D01*
Y49097D01*
X57569D01*
Y49131D01*
X57536D01*
Y49197D01*
X57502D01*
Y49230D01*
X57469D01*
Y49264D01*
X57403D01*
Y49297D01*
X57369D01*
Y49330D01*
X57336D01*
Y49363D01*
X57270D01*
Y49397D01*
X57236D01*
Y49430D01*
X57170D01*
Y49463D01*
X57070D01*
Y49496D01*
X56970D01*
Y49530D01*
X56771D01*
Y49563D01*
D02*
G37*
G36*
X43371D02*
X43138D01*
Y49530D01*
X42972D01*
Y49496D01*
X42839D01*
Y49463D01*
X42773D01*
Y49430D01*
X42706D01*
Y49397D01*
X42640D01*
Y49363D01*
X42606D01*
Y49330D01*
X42573D01*
Y49297D01*
X42507D01*
Y49264D01*
X42473D01*
Y49230D01*
X42440D01*
Y49197D01*
X42407D01*
Y49131D01*
X42374D01*
Y49097D01*
X42340D01*
Y49064D01*
X42307D01*
Y48998D01*
X42274D01*
Y48964D01*
X42241D01*
Y48898D01*
X42207D01*
Y48831D01*
X42174D01*
Y48765D01*
X42141D01*
Y48698D01*
X42107D01*
Y48565D01*
X42074D01*
Y48432D01*
X42041D01*
Y48233D01*
X42008D01*
Y47668D01*
X42041D01*
Y47435D01*
X42074D01*
Y47302D01*
X42107D01*
Y47202D01*
X42141D01*
Y47169D01*
Y47136D01*
X42174D01*
Y47069D01*
X42207D01*
Y47003D01*
X42241D01*
Y46936D01*
X42274D01*
Y46870D01*
X42307D01*
Y46836D01*
X42340D01*
Y46803D01*
X42374D01*
Y46770D01*
X42407D01*
Y46703D01*
X42440D01*
Y46670D01*
X42473D01*
Y46637D01*
X42540D01*
Y46604D01*
X42573D01*
Y46570D01*
X42606D01*
Y46537D01*
X42673D01*
Y46504D01*
X42706D01*
Y46471D01*
X42773D01*
Y46437D01*
X42872D01*
Y46404D01*
X42972D01*
Y46371D01*
X43205D01*
Y46338D01*
X43338D01*
Y46371D01*
X43571D01*
Y46404D01*
X43670D01*
Y46437D01*
X43770D01*
Y46471D01*
X43837D01*
Y46504D01*
X43903D01*
Y46537D01*
X43936D01*
Y46570D01*
X44003D01*
Y46604D01*
X44036D01*
Y46637D01*
X44069D01*
Y46670D01*
X44103D01*
Y46703D01*
X44136D01*
Y46737D01*
X44169D01*
Y46770D01*
X44202D01*
Y46836D01*
X44236D01*
Y46870D01*
X44269D01*
Y46936D01*
X44302D01*
Y46969D01*
X44335D01*
Y47036D01*
X44369D01*
Y47102D01*
X44402D01*
Y47202D01*
X44435D01*
Y47302D01*
X44468D01*
Y47435D01*
X44502D01*
Y47601D01*
X44535D01*
Y48299D01*
X44502D01*
Y48499D01*
X44468D01*
Y48599D01*
X44435D01*
Y48698D01*
X44402D01*
Y48798D01*
X44369D01*
Y48865D01*
X44335D01*
Y48931D01*
X44302D01*
Y48964D01*
X44269D01*
Y49031D01*
X44236D01*
Y49064D01*
X44202D01*
Y49131D01*
X44169D01*
Y49164D01*
X44136D01*
Y49197D01*
X44103D01*
Y49230D01*
X44069D01*
Y49264D01*
X44036D01*
Y49297D01*
X44003D01*
Y49330D01*
X43936D01*
Y49363D01*
X43903D01*
Y49397D01*
X43837D01*
Y49430D01*
X43770D01*
Y49463D01*
X43704D01*
Y49496D01*
X43571D01*
Y49530D01*
X43371D01*
Y49563D01*
D02*
G37*
%LPD*%
D16*
X115157Y11850D02*
D03*
Y21850D02*
D03*
Y31850D02*
D03*
D17*
X42323Y37992D02*
D03*
X36417D02*
D03*
X42323Y31890D02*
D03*
X36417D02*
D03*
X95353Y10335D02*
D03*
X89447D02*
D03*
X77756D02*
D03*
X83661D02*
D03*
X77658Y39173D02*
D03*
X83563D02*
D03*
X95255D02*
D03*
X89349D02*
D03*
D18*
X36640Y18406D02*
D03*
Y22146D02*
D03*
Y25886D02*
D03*
X46522D02*
D03*
Y22146D02*
D03*
Y18406D02*
D03*
D19*
X96653Y22244D02*
D03*
Y16339D02*
D03*
Y27165D02*
D03*
Y33071D02*
D03*
D20*
X71752Y10335D02*
D03*
X65847D02*
D03*
X78051Y31102D02*
D03*
X83957D02*
D03*
D21*
X68504Y-9941D02*
D03*
Y-4035D02*
D03*
X96752Y-9941D02*
D03*
Y-4035D02*
D03*
D22*
X83957Y-7382D02*
D03*
D23*
X90857Y-2682D02*
D03*
Y-5782D02*
D03*
Y-8982D02*
D03*
Y-12082D02*
D03*
X77057D02*
D03*
Y-8982D02*
D03*
Y-5782D02*
D03*
Y-2682D02*
D03*
D24*
X26161Y34555D02*
D03*
Y31405D02*
D03*
Y12114D02*
D03*
Y8965D02*
D03*
D25*
Y22744D02*
D03*
Y24713D02*
D03*
Y26681D02*
D03*
Y28650D02*
D03*
Y20776D02*
D03*
Y18807D02*
D03*
Y16839D02*
D03*
Y14870D02*
D03*
D26*
X103839Y295D02*
D03*
X114469D02*
D03*
D42*
X57982Y25264D02*
G03*
X56482Y23764I0J-1500D01*
G01*
X53482Y17997D02*
G03*
X56482Y17997I1500J0D01*
G01*
X53482Y18235D02*
G03*
X50921Y19295I-1500J0D01*
G01*
X96653Y27165D02*
X106004D01*
X107972Y25197D01*
X114764Y22244D02*
X115157Y21850D01*
X96653Y22244D02*
X114764D01*
X77658Y14764D02*
X77707Y14715D01*
Y10384D02*
Y14715D01*
Y10384D02*
X77756Y10335D01*
X73524Y39272D02*
X77559D01*
X77658Y39173D01*
X83661Y26280D02*
Y30807D01*
X83957Y31102D01*
X103685Y295D02*
X103839D01*
X101772Y-1618D02*
X103685Y295D01*
X101772Y-5512D02*
Y-1618D01*
X96752Y-4035D02*
Y492D01*
X69579Y-2961D02*
X72528D01*
X72807Y-2682D01*
X68504Y-4035D02*
X69579Y-2961D01*
X72807Y-2682D02*
X77057D01*
X63779Y-3937D02*
X68405D01*
X68504Y-4035D01*
X65846Y10335D02*
X65847Y10335D01*
X61614Y10335D02*
X65846D01*
X61221Y21457D02*
X65945D01*
X49244Y27394D02*
X63558D01*
X64398Y26554D01*
X48404Y26553D02*
X49244Y27394D01*
X47743Y25886D02*
X48404Y26547D01*
Y26553D01*
X64398Y24303D02*
Y26554D01*
X46522Y25886D02*
X47743D01*
X34316Y29198D02*
X36417Y31299D01*
X33366Y28937D02*
X33627Y29198D01*
X36417Y31299D02*
Y31890D01*
X33627Y29198D02*
X34316D01*
X30709Y27267D02*
Y35138D01*
X33563Y37992D01*
X36417D01*
X26161Y26681D02*
X30123D01*
X30709Y27267D01*
X22885Y20866D02*
X26071D01*
X22098Y21653D02*
X22885Y20866D01*
X22098Y21653D02*
Y23835D01*
X22885Y24622D01*
X26071D01*
X26161Y24713D01*
X26071Y20866D02*
X26161Y20776D01*
Y24713D02*
X31005D01*
X32178Y25886D02*
X36640D01*
X31005Y24713D02*
X32178Y25886D01*
X36239Y18807D02*
X36640Y18406D01*
X30217Y18807D02*
X36239D01*
X26161D02*
X30217D01*
X30224Y18815D02*
Y21867D01*
X30217Y18807D02*
X30224Y18815D01*
X26161Y22744D02*
X26252Y22654D01*
X29438D01*
X30224Y21867D01*
X26161Y14988D02*
X32238D01*
X32801Y15551D02*
X33169D01*
X32238Y14988D02*
X32801Y15551D01*
X78986Y17569D02*
X90797D01*
X90847Y17618D01*
X78937Y17520D02*
X78986Y17569D01*
X77057Y-8982D02*
Y-5782D01*
Y-12082D02*
Y-8982D01*
X71752Y14603D02*
X76547Y19398D01*
X78847D02*
X78937Y19488D01*
X71752Y10335D02*
Y14603D01*
X76547Y19398D02*
X78847D01*
X83661Y10335D02*
X89447D01*
X95353Y10925D02*
X96653Y12226D01*
Y16339D01*
X95353Y10335D02*
Y10925D01*
X90945Y21457D02*
X96063Y16339D01*
X78937Y21457D02*
X90945D01*
X96063Y16339D02*
X96653D01*
X86417Y23425D02*
X96063Y33071D01*
X78937Y23425D02*
X86417D01*
X96063Y33071D02*
X96653D01*
X95255Y33879D02*
Y39173D01*
Y33879D02*
X96063Y33071D01*
X83563Y39173D02*
X89349D01*
X77559Y25484D02*
X77650Y25394D01*
X78937D01*
X77559Y25484D02*
Y31102D01*
X57982Y25264D02*
X60143D01*
X56482Y17997D02*
Y23764D01*
X53482Y17997D02*
Y18235D01*
X50237Y18611D02*
X50921Y19295D01*
X48482Y18611D02*
X50237D01*
X60143Y25264D02*
X61090D01*
X46727Y18611D02*
X48482D01*
X61090Y25264D02*
X61221Y25394D01*
X46522Y18406D02*
X46727Y18611D01*
X63611Y23516D02*
X64398Y24303D01*
X61311Y23516D02*
X63611D01*
X61221Y23425D02*
X61311Y23516D01*
D43*
X61221Y25394D02*
D03*
Y23425D02*
D03*
Y21457D02*
D03*
Y19488D02*
D03*
Y17520D02*
D03*
X78937D02*
D03*
Y19488D02*
D03*
Y21457D02*
D03*
Y23425D02*
D03*
Y25394D02*
D03*
D44*
X41339Y12114D02*
X48811D01*
X41339Y12114D02*
Y20762D01*
X41339Y12114D02*
X41339Y12114D01*
X26161Y12114D02*
X41339D01*
X71752Y3347D02*
X95079D01*
X71752D02*
Y10335D01*
X57579Y3347D02*
X71752D01*
X103839Y16043D02*
Y18701D01*
Y12106D02*
Y16043D01*
X95079Y3347D02*
X103839Y12106D01*
X48811Y12114D02*
X57579Y3347D01*
Y-4528D02*
X62992Y-9941D01*
X68504D01*
X57579Y-4528D02*
Y3347D01*
X36640Y22146D02*
X39955D01*
X41339Y20762D01*
D45*
X114363Y31056D02*
X115157Y31850D01*
X100984Y30906D02*
X101135Y31056D01*
X114363D01*
X68504Y-9941D02*
X72450Y-5994D01*
X20102Y28635D02*
X22479Y31012D01*
X25768D01*
X26161Y31405D01*
X20102Y15134D02*
Y28635D01*
Y15134D02*
X22728Y12508D01*
X25768D01*
X26161Y12114D01*
X72450Y-5994D02*
X76844D01*
X77057Y-5782D01*
X68504Y-9941D02*
X70768Y-12205D01*
X76934D01*
X77057Y-12082D01*
X83957Y-8519D02*
Y-7382D01*
Y-8519D02*
X87519Y-12082D01*
X90857D01*
X85557Y-8982D02*
X90857D01*
X83957Y-7382D02*
X85557Y-8982D01*
X83957Y-7382D02*
X85557Y-5782D01*
X90857D01*
Y-8982D02*
Y-5782D01*
Y-12082D02*
Y-8982D01*
X95793D02*
X96752Y-9941D01*
X90857Y-8982D02*
X95793D01*
X94611Y-12082D02*
X96752Y-9941D01*
X90857Y-12082D02*
X94611D01*
D46*
X50738Y22195D02*
X50787Y22244D01*
X46522Y22146D02*
X46571Y22195D01*
X50738D01*
X42323Y34941D02*
Y37992D01*
Y31890D02*
Y34941D01*
X46063D02*
X46063Y34941D01*
X42323Y34941D02*
X46063D01*
X24557Y8965D02*
X26161D01*
X24360Y8768D02*
X24557Y8965D01*
X24360Y5752D02*
Y8768D01*
X23360Y4752D02*
X24360Y5752D01*
X22559Y4752D02*
X23360D01*
X24360Y34752D02*
X24557Y34555D01*
X24360Y34752D02*
Y38449D01*
X24557Y34555D02*
X26161D01*
X24360Y38449D02*
X24481Y38570D01*
D47*
X114705Y295D02*
X115157Y748D01*
X114469Y295D02*
X114705D01*
X115157Y748D02*
Y11850D01*
D48*
X113524Y295D02*
X114469D01*
X103287Y-9941D02*
X113524Y295D01*
X96752Y-9941D02*
X103287D01*
D49*
X22559Y38768D02*
D03*
Y4752D02*
D03*
X6102Y38768D02*
D03*
Y4752D02*
D03*
D50*
X20472Y33138D02*
D03*
Y10382D02*
D03*
D51*
X40354Y-6890D02*
D03*
D52*
X100984Y30906D02*
D03*
X103839Y18701D02*
D03*
Y16043D02*
D03*
X107972Y25197D02*
D03*
X77658Y14764D02*
D03*
X73524Y39272D02*
D03*
X83661Y26280D02*
D03*
X101772Y-5512D02*
D03*
X96752Y492D02*
D03*
X63779Y-3937D02*
D03*
X61614Y10335D02*
D03*
X65945Y21457D02*
D03*
X50787Y22244D02*
D03*
X46063Y34941D02*
D03*
X33366Y28937D02*
D03*
X90847Y17618D02*
D03*
X33169Y15551D02*
D03*
D53*
X31496Y-6890D02*
D03*
X49213D02*
D03*
X40354Y1969D02*
D03*
Y-16732D02*
D03*
X47244Y0D02*
D03*
X33465D02*
D03*
Y-13780D02*
D03*
X47244Y-13780D02*
D03*
M02*
