G04*
G04 #@! TF.GenerationSoftware,Altium Limited,Altium Designer,24.4.1 (13)*
G04*
G04 Layer_Color=8421504*
%FSLAX25Y25*%
%MOIN*%
G70*
G04*
G04 #@! TF.SameCoordinates,70575355-2F91-4737-89AD-C6C8FBE0A886*
G04*
G04*
G04 #@! TF.FilePolarity,Positive*
G04*
G01*
G75*
G04:AMPARAMS|DCode=16|XSize=39.37mil|YSize=118.11mil|CornerRadius=4.92mil|HoleSize=0mil|Usage=FLASHONLY|Rotation=90.000|XOffset=0mil|YOffset=0mil|HoleType=Round|Shape=RoundedRectangle|*
%AMROUNDEDRECTD16*
21,1,0.03937,0.10827,0,0,90.0*
21,1,0.02953,0.11811,0,0,90.0*
1,1,0.00984,0.05413,0.01476*
1,1,0.00984,0.05413,-0.01476*
1,1,0.00984,-0.05413,-0.01476*
1,1,0.00984,-0.05413,0.01476*
%
%ADD16ROUNDEDRECTD16*%
%ADD17R,0.02362X0.03543*%
G04:AMPARAMS|DCode=18|XSize=47.64mil|YSize=23.23mil|CornerRadius=2.9mil|HoleSize=0mil|Usage=FLASHONLY|Rotation=180.000|XOffset=0mil|YOffset=0mil|HoleType=Round|Shape=RoundedRectangle|*
%AMROUNDEDRECTD18*
21,1,0.04764,0.01742,0,0,180.0*
21,1,0.04183,0.02323,0,0,180.0*
1,1,0.00581,-0.02092,0.00871*
1,1,0.00581,0.02092,0.00871*
1,1,0.00581,0.02092,-0.00871*
1,1,0.00581,-0.02092,-0.00871*
%
%ADD18ROUNDEDRECTD18*%
%ADD19R,0.03543X0.02362*%
%ADD20R,0.03150X0.03150*%
%ADD21R,0.03150X0.03150*%
%ADD22R,0.08700X0.11800*%
%ADD23R,0.03600X0.02000*%
%ADD24R,0.05709X0.02362*%
%ADD25R,0.05709X0.01181*%
G04:AMPARAMS|DCode=26|XSize=67.32mil|YSize=48.42mil|CornerRadius=6.05mil|HoleSize=0mil|Usage=FLASHONLY|Rotation=180.000|XOffset=0mil|YOffset=0mil|HoleType=Round|Shape=RoundedRectangle|*
%AMROUNDEDRECTD26*
21,1,0.06732,0.03632,0,0,180.0*
21,1,0.05522,0.04842,0,0,180.0*
1,1,0.01211,-0.02761,0.01816*
1,1,0.01211,0.02761,0.01816*
1,1,0.01211,0.02761,-0.01816*
1,1,0.01211,-0.02761,-0.01816*
%
%ADD26ROUNDEDRECTD26*%
G36*
X62894Y17028D02*
X59449D01*
Y18012D01*
X62894D01*
Y17028D01*
D02*
G37*
G36*
Y18996D02*
X59449D01*
Y19980D01*
X62894D01*
Y18996D01*
D02*
G37*
G36*
Y20965D02*
X59449D01*
Y21949D01*
X62894D01*
Y20965D01*
D02*
G37*
G36*
Y22933D02*
X59449D01*
Y23917D01*
X62894D01*
Y22933D01*
D02*
G37*
G36*
Y24902D02*
X59449D01*
Y25886D01*
X62894D01*
Y24902D01*
D02*
G37*
G36*
X80709Y17028D02*
X77264D01*
Y18012D01*
X80709D01*
Y17028D01*
D02*
G37*
G36*
Y18996D02*
X77264D01*
Y19980D01*
X80709D01*
Y18996D01*
D02*
G37*
G36*
Y20965D02*
X77264D01*
Y21949D01*
X80709D01*
Y20965D01*
D02*
G37*
G36*
Y22933D02*
X77264D01*
Y23917D01*
X80709D01*
Y22933D01*
D02*
G37*
G36*
Y24902D02*
X77264D01*
Y25886D01*
X80709D01*
Y24902D01*
D02*
G37*
D16*
X115157Y11850D02*
D03*
Y21850D02*
D03*
Y31850D02*
D03*
D17*
X42323Y37992D02*
D03*
X36417D02*
D03*
X42323Y31890D02*
D03*
X36417D02*
D03*
X95353Y10335D02*
D03*
X89447D02*
D03*
X77756D02*
D03*
X83661D02*
D03*
X77658Y39173D02*
D03*
X83563D02*
D03*
X95255D02*
D03*
X89349D02*
D03*
D18*
X36640Y18406D02*
D03*
Y22146D02*
D03*
Y25886D02*
D03*
X46522D02*
D03*
Y22146D02*
D03*
Y18406D02*
D03*
D19*
X96653Y22244D02*
D03*
Y16339D02*
D03*
Y27165D02*
D03*
Y33071D02*
D03*
D20*
X71752Y10335D02*
D03*
X65847D02*
D03*
X78051Y31102D02*
D03*
X83957D02*
D03*
D21*
X68504Y-9941D02*
D03*
Y-4035D02*
D03*
X96752Y-9941D02*
D03*
Y-4035D02*
D03*
D22*
X83957Y-7382D02*
D03*
D23*
X90857Y-2682D02*
D03*
Y-5782D02*
D03*
Y-8982D02*
D03*
Y-12082D02*
D03*
X77057D02*
D03*
Y-8982D02*
D03*
Y-5782D02*
D03*
Y-2682D02*
D03*
D24*
X26161Y34555D02*
D03*
Y31405D02*
D03*
Y12114D02*
D03*
Y8965D02*
D03*
D25*
Y22744D02*
D03*
Y24713D02*
D03*
Y26681D02*
D03*
Y28650D02*
D03*
Y20776D02*
D03*
Y18807D02*
D03*
Y16839D02*
D03*
Y14870D02*
D03*
D26*
X103839Y295D02*
D03*
X114469D02*
D03*
M02*
