G04*
G04 #@! TF.GenerationSoftware,Altium Limited,Altium Designer,24.4.1 (13)*
G04*
G04 Layer_Color=16711935*
%FSLAX25Y25*%
%MOIN*%
G70*
G04*
G04 #@! TF.SameCoordinates,8F4D0D87-6A9C-402C-AAC4-36E78E1324AD*
G04*
G04*
G04 #@! TF.FilePolarity,Positive*
G04*
G01*
G75*
%ADD42C,0.01000*%
D42*
X149730Y45981D02*
X151092Y46708D01*
X152285Y47687D01*
X153264Y48881D01*
X153992Y50242D01*
X154440Y51719D01*
X154591Y53255D01*
X486Y-2724D02*
X1079Y-3979D01*
X122Y-1383D02*
X486Y-2724D01*
X0Y0D02*
X122Y-1383D01*
X-0Y43518D02*
X0Y0D01*
X-0Y43518D02*
X122Y44901D01*
X486Y46242D01*
X1079Y47497D01*
X3091Y50669D01*
X5315Y53674D01*
X8018Y56800D01*
X10979Y59724D01*
X11979Y60500D01*
X14516Y62076D01*
X17103Y63521D01*
X21317Y65561D01*
X25766Y67341D01*
X30466Y68855D01*
X35437Y70098D01*
X40703Y71059D01*
X46288Y71727D01*
X52223Y72084D01*
X58542Y72111D01*
X65287Y71784D01*
X72514Y71074D01*
X80307Y69941D01*
X89182Y68252D01*
X99364Y65907D01*
X117264Y61240D01*
X129420Y58111D01*
X139045Y55907D01*
X146767Y54424D01*
X154591Y53255D01*
X148253Y45533D02*
X149730Y45981D01*
X146717Y45381D02*
X148253Y45533D01*
X123095Y45381D02*
X146717D01*
X123095Y-1863D02*
Y45381D01*
Y-1863D02*
X146717D01*
X148253Y-2014D01*
X149730Y-2462D01*
X151092Y-3190D01*
X152285Y-4169D01*
X153264Y-5362D01*
X153992Y-6724D01*
X154440Y-8201D01*
X154591Y-9737D01*
X148334Y-10643D02*
X154591Y-9737D01*
X142145Y-11759D02*
X148334Y-10643D01*
X133224Y-13683D02*
X142145Y-11759D01*
X121682Y-16557D02*
X133224Y-13683D01*
X102817Y-21523D02*
X121682Y-16557D01*
X92454Y-24021D02*
X102817Y-21523D01*
X83561Y-25849D02*
X92454Y-24021D01*
X75395Y-27179D02*
X83561Y-25849D01*
X67752Y-28063D02*
X75395Y-27179D01*
X60578Y-28531D02*
X67752Y-28063D01*
X53834Y-28605D02*
X60578Y-28531D01*
X47484Y-28308D02*
X53834Y-28605D01*
X41499Y-27657D02*
X47484Y-28308D01*
X35853Y-26668D02*
X41499Y-27657D01*
X30519Y-25352D02*
X35853Y-26668D01*
X25475Y-23717D02*
X30519Y-25352D01*
X20701Y-21767D02*
X25475Y-23717D01*
X16272Y-19555D02*
X20701Y-21767D01*
X11979Y-16981D02*
X16272Y-19555D01*
X10979Y-16206D02*
X11979Y-16981D01*
X8280Y-13560D02*
X10979Y-16206D01*
X5794Y-10748D02*
X8280Y-13560D01*
X3308Y-7464D02*
X5794Y-10748D01*
X1079Y-3979D02*
X3308Y-7464D01*
M02*
