G04*
G04 #@! TF.GenerationSoftware,Altium Limited,Altium Designer,24.4.1 (13)*
G04*
G04 Layer_Physical_Order=1*
G04 Layer_Color=255*
%FSLAX25Y25*%
%MOIN*%
G70*
G04*
G04 #@! TF.SameCoordinates,0F8D6463-ACD8-47F5-ACBE-39D5FABDFDD5*
G04*
G04*
G04 #@! TF.FilePolarity,Positive*
G04*
G01*
G75*
%ADD16R,0.03150X0.03150*%
%ADD17R,0.02362X0.03543*%
G04:AMPARAMS|DCode=18|XSize=39.37mil|YSize=118.11mil|CornerRadius=4.92mil|HoleSize=0mil|Usage=FLASHONLY|Rotation=90.000|XOffset=0mil|YOffset=0mil|HoleType=Round|Shape=RoundedRectangle|*
%AMROUNDEDRECTD18*
21,1,0.03937,0.10827,0,0,90.0*
21,1,0.02953,0.11811,0,0,90.0*
1,1,0.00984,0.05413,0.01476*
1,1,0.00984,0.05413,-0.01476*
1,1,0.00984,-0.05413,-0.01476*
1,1,0.00984,-0.05413,0.01476*
%
%ADD18ROUNDEDRECTD18*%
G04:AMPARAMS|DCode=19|XSize=47.64mil|YSize=23.23mil|CornerRadius=2.9mil|HoleSize=0mil|Usage=FLASHONLY|Rotation=180.000|XOffset=0mil|YOffset=0mil|HoleType=Round|Shape=RoundedRectangle|*
%AMROUNDEDRECTD19*
21,1,0.04764,0.01742,0,0,180.0*
21,1,0.04183,0.02323,0,0,180.0*
1,1,0.00581,-0.02092,0.00871*
1,1,0.00581,0.02092,0.00871*
1,1,0.00581,0.02092,-0.00871*
1,1,0.00581,-0.02092,-0.00871*
%
%ADD19ROUNDEDRECTD19*%
%ADD20R,0.03543X0.02362*%
%ADD21R,0.03150X0.03150*%
%ADD22R,0.05709X0.02362*%
%ADD23R,0.05709X0.01181*%
%ADD39C,0.01000*%
%ADD40R,0.06299X0.08268*%
%ADD41R,0.02362X0.01378*%
%ADD42R,0.03937X0.01181*%
%ADD43C,0.02362*%
%ADD44C,0.01181*%
%ADD45C,0.01575*%
%ADD46C,0.02756*%
%ADD47C,0.01968*%
%ADD48O,0.08268X0.04134*%
%ADD49C,0.02756*%
%ADD50C,0.25000*%
%ADD51C,0.02362*%
%ADD52C,0.03500*%
G36*
X55108Y63827D02*
X55208D01*
Y63794D01*
X55241D01*
Y63761D01*
X55275D01*
Y63694D01*
X55308D01*
Y63462D01*
X55275D01*
Y63395D01*
X55241D01*
Y63362D01*
X55208D01*
Y63328D01*
X55108D01*
Y63295D01*
X54909D01*
Y63328D01*
X54842D01*
Y63362D01*
X54809D01*
Y63395D01*
X54776D01*
Y63462D01*
X54743D01*
Y63694D01*
X54776D01*
Y63761D01*
X54809D01*
Y63794D01*
X54842D01*
Y63827D01*
X54942D01*
Y63860D01*
X55108D01*
Y63827D01*
D02*
G37*
G36*
X39847Y62530D02*
X39946D01*
Y62497D01*
X39980D01*
Y62364D01*
X39946D01*
Y62131D01*
X39847D01*
Y62165D01*
X39514D01*
Y62131D01*
X39348D01*
Y62098D01*
X39248D01*
Y62065D01*
X39182D01*
Y62032D01*
X39115D01*
Y61998D01*
X39082D01*
Y61965D01*
X39015D01*
Y61932D01*
X38982D01*
Y61899D01*
X38949D01*
Y61865D01*
X38916D01*
Y61832D01*
X38882D01*
Y61799D01*
X38849D01*
Y61732D01*
X38816D01*
Y61699D01*
X38783D01*
Y61633D01*
X38749D01*
Y61566D01*
X38716D01*
Y61500D01*
X38683D01*
Y61433D01*
X38649D01*
Y61300D01*
X38616D01*
Y58740D01*
X38217D01*
Y62497D01*
X38616D01*
Y61965D01*
X38683D01*
Y62032D01*
X38716D01*
Y62065D01*
X38749D01*
Y62131D01*
X38783D01*
Y62165D01*
X38816D01*
Y62198D01*
X38849D01*
Y62231D01*
X38882D01*
Y62264D01*
X38916D01*
Y62298D01*
X38949D01*
Y62331D01*
X38982D01*
Y62364D01*
X39049D01*
Y62397D01*
X39082D01*
Y62431D01*
X39148D01*
Y62464D01*
X39248D01*
Y62497D01*
X39348D01*
Y62530D01*
X39481D01*
Y62564D01*
X39847D01*
Y62530D01*
D02*
G37*
G36*
X61526D02*
X61758D01*
Y62497D01*
X61858D01*
Y62464D01*
X61958D01*
Y62431D01*
X62024D01*
Y62397D01*
X62091D01*
Y62364D01*
X62157D01*
Y62331D01*
X62224D01*
Y62298D01*
X62257D01*
Y62264D01*
X62290D01*
Y62231D01*
X62357D01*
Y62198D01*
X62390D01*
Y62165D01*
X62423D01*
Y62131D01*
X62457D01*
Y62065D01*
X62490D01*
Y62032D01*
X62523D01*
Y61998D01*
X62556D01*
Y61932D01*
X62590D01*
Y61865D01*
X62623D01*
Y61766D01*
X62656D01*
Y61599D01*
X62689D01*
Y61433D01*
X62257D01*
Y61633D01*
X62224D01*
Y61699D01*
X62191D01*
Y61766D01*
X62157D01*
Y61832D01*
X62124D01*
Y61865D01*
X62091D01*
Y61899D01*
X62058D01*
Y61932D01*
X62024D01*
Y61965D01*
X61991D01*
Y61998D01*
X61958D01*
Y62032D01*
X61891D01*
Y62065D01*
X61825D01*
Y62098D01*
X61758D01*
Y62131D01*
X61692D01*
Y62165D01*
X61526D01*
Y62198D01*
X61027D01*
Y62165D01*
X60894D01*
Y62131D01*
X60794D01*
Y62098D01*
X60728D01*
Y62065D01*
X60661D01*
Y62032D01*
X60628D01*
Y61998D01*
X60595D01*
Y61965D01*
X60561D01*
Y61932D01*
X60528D01*
Y61899D01*
X60495D01*
Y61865D01*
X60462D01*
Y61799D01*
X60428D01*
Y61732D01*
X60395D01*
Y61367D01*
X60428D01*
Y61267D01*
X60462D01*
Y61234D01*
X60495D01*
Y61200D01*
X60528D01*
Y61134D01*
X60595D01*
Y61101D01*
X60628D01*
Y61067D01*
X60694D01*
Y61034D01*
X60761D01*
Y61001D01*
X60827D01*
Y60968D01*
X60927D01*
Y60934D01*
X61027D01*
Y60901D01*
X61127D01*
Y60868D01*
X61260D01*
Y60835D01*
X61393D01*
Y60801D01*
X61526D01*
Y60768D01*
X61625D01*
Y60735D01*
X61758D01*
Y60702D01*
X61858D01*
Y60668D01*
X61958D01*
Y60635D01*
X62024D01*
Y60602D01*
X62091D01*
Y60569D01*
X62157D01*
Y60535D01*
X62224D01*
Y60502D01*
X62290D01*
Y60469D01*
X62324D01*
Y60436D01*
X62357D01*
Y60402D01*
X62423D01*
Y60369D01*
X62457D01*
Y60336D01*
X62490D01*
Y60303D01*
X62523D01*
Y60236D01*
X62556D01*
Y60203D01*
X62590D01*
Y60136D01*
X62623D01*
Y60070D01*
X62656D01*
Y59970D01*
X62689D01*
Y59438D01*
X62656D01*
Y59338D01*
X62623D01*
Y59272D01*
X62590D01*
Y59205D01*
X62556D01*
Y59139D01*
X62523D01*
Y59106D01*
X62490D01*
Y59072D01*
X62457D01*
Y59039D01*
X62423D01*
Y59006D01*
X62390D01*
Y58973D01*
X62357D01*
Y58939D01*
X62290D01*
Y58906D01*
X62257D01*
Y58873D01*
X62191D01*
Y58840D01*
X62124D01*
Y58806D01*
X62058D01*
Y58773D01*
X61991D01*
Y58740D01*
X61891D01*
Y58707D01*
X61725D01*
Y58673D01*
X61459D01*
Y58640D01*
X61193D01*
Y58673D01*
X60894D01*
Y58707D01*
X60761D01*
Y58740D01*
X60628D01*
Y58773D01*
X60561D01*
Y58806D01*
X60495D01*
Y58840D01*
X60428D01*
Y58873D01*
X60362D01*
Y58906D01*
X60329D01*
Y58939D01*
X60262D01*
Y58973D01*
X60229D01*
Y59006D01*
X60196D01*
Y59039D01*
X60162D01*
Y59072D01*
X60129D01*
Y59106D01*
X60096D01*
Y59139D01*
X60063D01*
Y59172D01*
X60029D01*
Y59205D01*
X59996D01*
Y59272D01*
X59963D01*
Y59305D01*
X59930D01*
Y59405D01*
X59896D01*
Y59471D01*
X59863D01*
Y59638D01*
X59830D01*
Y59771D01*
X60262D01*
Y59638D01*
X60295D01*
Y59538D01*
X60329D01*
Y59471D01*
X60362D01*
Y59405D01*
X60395D01*
Y59372D01*
X60428D01*
Y59305D01*
X60462D01*
Y59272D01*
X60495D01*
Y59239D01*
X60561D01*
Y59205D01*
X60595D01*
Y59172D01*
X60661D01*
Y59139D01*
X60728D01*
Y59106D01*
X60794D01*
Y59072D01*
X60894D01*
Y59039D01*
X61060D01*
Y59006D01*
X61559D01*
Y59039D01*
X61725D01*
Y59072D01*
X61825D01*
Y59106D01*
X61891D01*
Y59139D01*
X61958D01*
Y59172D01*
X61991D01*
Y59205D01*
X62058D01*
Y59239D01*
X62091D01*
Y59272D01*
X62124D01*
Y59305D01*
X62157D01*
Y59338D01*
X62191D01*
Y59405D01*
X62224D01*
Y59471D01*
X62257D01*
Y59571D01*
X62290D01*
Y59804D01*
X62257D01*
Y59904D01*
X62224D01*
Y60003D01*
X62191D01*
Y60037D01*
X62157D01*
Y60070D01*
X62124D01*
Y60103D01*
X62091D01*
Y60136D01*
X62058D01*
Y60170D01*
X62024D01*
Y60203D01*
X61991D01*
Y60236D01*
X61925D01*
Y60269D01*
X61858D01*
Y60303D01*
X61792D01*
Y60336D01*
X61692D01*
Y60369D01*
X61625D01*
Y60402D01*
X61492D01*
Y60436D01*
X61359D01*
Y60469D01*
X61226D01*
Y60502D01*
X61093D01*
Y60535D01*
X60960D01*
Y60569D01*
X60827D01*
Y60602D01*
X60728D01*
Y60635D01*
X60661D01*
Y60668D01*
X60561D01*
Y60702D01*
X60495D01*
Y60735D01*
X60428D01*
Y60768D01*
X60395D01*
Y60801D01*
X60329D01*
Y60835D01*
X60295D01*
Y60868D01*
X60262D01*
Y60901D01*
X60196D01*
Y60934D01*
X60162D01*
Y61001D01*
X60129D01*
Y61034D01*
X60096D01*
Y61067D01*
X60063D01*
Y61134D01*
X60029D01*
Y61234D01*
X59996D01*
Y61333D01*
X59963D01*
Y61699D01*
X59996D01*
Y61832D01*
X60029D01*
Y61932D01*
X60063D01*
Y61965D01*
X60096D01*
Y62032D01*
X60129D01*
Y62065D01*
X60162D01*
Y62131D01*
X60196D01*
Y62165D01*
X60229D01*
Y62198D01*
X60262D01*
Y62231D01*
X60295D01*
Y62264D01*
X60362D01*
Y62298D01*
X60395D01*
Y62331D01*
X60462D01*
Y62364D01*
X60495D01*
Y62397D01*
X60561D01*
Y62431D01*
X60661D01*
Y62464D01*
X60761D01*
Y62497D01*
X60861D01*
Y62530D01*
X61060D01*
Y62564D01*
X61526D01*
Y62530D01*
D02*
G37*
G36*
X57968D02*
X58167D01*
Y62497D01*
X58267D01*
Y62464D01*
X58367D01*
Y62431D01*
X58433D01*
Y62397D01*
X58500D01*
Y62364D01*
X58566D01*
Y62331D01*
X58600D01*
Y62298D01*
X58666D01*
Y62264D01*
X58699D01*
Y62231D01*
X58733D01*
Y62198D01*
X58766D01*
Y62165D01*
X58799D01*
Y62131D01*
X58832D01*
Y62098D01*
X58866D01*
Y62065D01*
X58899D01*
Y62032D01*
X58932D01*
Y61998D01*
X58965D01*
Y61932D01*
X58999D01*
Y61899D01*
X59032D01*
Y61832D01*
X59065D01*
Y61766D01*
X59098D01*
Y61666D01*
X59132D01*
Y61566D01*
X59165D01*
Y61400D01*
X59198D01*
Y61234D01*
X58799D01*
Y61333D01*
X58766D01*
Y61500D01*
X58733D01*
Y61599D01*
X58699D01*
Y61666D01*
X58666D01*
Y61732D01*
X58633D01*
Y61766D01*
X58600D01*
Y61832D01*
X58566D01*
Y61865D01*
X58533D01*
Y61899D01*
X58500D01*
Y61932D01*
X58467D01*
Y61965D01*
X58433D01*
Y61998D01*
X58367D01*
Y62032D01*
X58334D01*
Y62065D01*
X58267D01*
Y62098D01*
X58201D01*
Y62131D01*
X58101D01*
Y62165D01*
X57968D01*
Y62198D01*
X57502D01*
Y62165D01*
X57369D01*
Y62131D01*
X57270D01*
Y62098D01*
X57203D01*
Y62065D01*
X57137D01*
Y62032D01*
X57103D01*
Y61998D01*
X57070D01*
Y61965D01*
X57004D01*
Y61932D01*
X56970D01*
Y61899D01*
X56937D01*
Y61865D01*
X56904D01*
Y61799D01*
X56871D01*
Y61766D01*
X56837D01*
Y61732D01*
X56804D01*
Y61666D01*
X56771D01*
Y61599D01*
X56738D01*
Y61533D01*
X56704D01*
Y61466D01*
X56671D01*
Y61367D01*
X56638D01*
Y61234D01*
X56605D01*
Y61067D01*
X56571D01*
Y60136D01*
X56605D01*
Y59970D01*
X56638D01*
Y59837D01*
X56671D01*
Y59737D01*
X56704D01*
Y59671D01*
X56738D01*
Y59604D01*
X56771D01*
Y59538D01*
X56804D01*
Y59471D01*
X56837D01*
Y59438D01*
X56871D01*
Y59405D01*
X56904D01*
Y59338D01*
X56937D01*
Y59305D01*
X56970D01*
Y59272D01*
X57004D01*
Y59239D01*
X57070D01*
Y59205D01*
X57103D01*
Y59172D01*
X57170D01*
Y59139D01*
X57203D01*
Y59106D01*
X57303D01*
Y59072D01*
X57403D01*
Y59039D01*
X57536D01*
Y59006D01*
X57968D01*
Y59039D01*
X58101D01*
Y59072D01*
X58201D01*
Y59106D01*
X58267D01*
Y59139D01*
X58334D01*
Y59172D01*
X58400D01*
Y59205D01*
X58433D01*
Y59239D01*
X58500D01*
Y59272D01*
X58533D01*
Y59305D01*
X58566D01*
Y59338D01*
X58600D01*
Y59405D01*
X58633D01*
Y59438D01*
X58666D01*
Y59505D01*
X58699D01*
Y59538D01*
X58733D01*
Y59638D01*
X58766D01*
Y59771D01*
X58799D01*
Y59870D01*
X58832D01*
Y59904D01*
X59165D01*
Y59870D01*
X59198D01*
Y59704D01*
X59165D01*
Y59571D01*
X59132D01*
Y59505D01*
X59098D01*
Y59405D01*
X59065D01*
Y59372D01*
X59032D01*
Y59305D01*
X58999D01*
Y59239D01*
X58965D01*
Y59205D01*
X58932D01*
Y59172D01*
X58899D01*
Y59139D01*
X58866D01*
Y59106D01*
X58832D01*
Y59072D01*
X58799D01*
Y59039D01*
X58766D01*
Y59006D01*
X58733D01*
Y58973D01*
X58699D01*
Y58939D01*
X58633D01*
Y58906D01*
X58600D01*
Y58873D01*
X58533D01*
Y58840D01*
X58467D01*
Y58806D01*
X58400D01*
Y58773D01*
X58334D01*
Y58740D01*
X58234D01*
Y58707D01*
X58101D01*
Y58673D01*
X57868D01*
Y58640D01*
X57635D01*
Y58673D01*
X57369D01*
Y58707D01*
X57236D01*
Y58740D01*
X57137D01*
Y58773D01*
X57070D01*
Y58806D01*
X57004D01*
Y58840D01*
X56937D01*
Y58873D01*
X56871D01*
Y58906D01*
X56837D01*
Y58939D01*
X56804D01*
Y58973D01*
X56738D01*
Y59006D01*
X56704D01*
Y59039D01*
X56671D01*
Y59072D01*
X56638D01*
Y59106D01*
X56605D01*
Y59139D01*
X56571D01*
Y59205D01*
X56538D01*
Y59239D01*
X56505D01*
Y59272D01*
X56472D01*
Y59338D01*
X56438D01*
Y59372D01*
X56405D01*
Y59438D01*
X56372D01*
Y59505D01*
X56339D01*
Y59571D01*
X56305D01*
Y59671D01*
X56272D01*
Y59737D01*
X56239D01*
Y59870D01*
X56206D01*
Y60003D01*
X56172D01*
Y60236D01*
X56139D01*
Y60968D01*
X56172D01*
Y61200D01*
X56206D01*
Y61333D01*
X56239D01*
Y61466D01*
X56272D01*
Y61566D01*
X56305D01*
Y61633D01*
X56339D01*
Y61699D01*
X56372D01*
Y61766D01*
X56405D01*
Y61832D01*
X56438D01*
Y61899D01*
X56472D01*
Y61932D01*
X56505D01*
Y61965D01*
X56538D01*
Y62032D01*
X56571D01*
Y62065D01*
X56605D01*
Y62098D01*
X56638D01*
Y62131D01*
X56671D01*
Y62165D01*
X56704D01*
Y62198D01*
X56738D01*
Y62231D01*
X56771D01*
Y62264D01*
X56837D01*
Y62298D01*
X56871D01*
Y62331D01*
X56937D01*
Y62364D01*
X57004D01*
Y62397D01*
X57070D01*
Y62431D01*
X57137D01*
Y62464D01*
X57236D01*
Y62497D01*
X57336D01*
Y62530D01*
X57536D01*
Y62564D01*
X57968D01*
Y62530D01*
D02*
G37*
G36*
X55208Y62464D02*
X55241D01*
Y58740D01*
X54809D01*
Y62497D01*
X55208D01*
Y62464D01*
D02*
G37*
G36*
X53113Y62497D02*
X53878D01*
Y62464D01*
X53911D01*
Y62165D01*
X53147D01*
Y62131D01*
X53113D01*
Y59471D01*
X53147D01*
Y59305D01*
X53180D01*
Y59239D01*
X53213D01*
Y59172D01*
X53246D01*
Y59139D01*
X53280D01*
Y59106D01*
X53313D01*
Y59072D01*
X53379D01*
Y59039D01*
X53512D01*
Y59006D01*
X53712D01*
Y59039D01*
X53945D01*
Y58806D01*
X53978D01*
Y58707D01*
X53878D01*
Y58673D01*
X53645D01*
Y58640D01*
X53413D01*
Y58673D01*
X53213D01*
Y58707D01*
X53113D01*
Y58740D01*
X53080D01*
Y58773D01*
X53014D01*
Y58806D01*
X52980D01*
Y58840D01*
X52947D01*
Y58873D01*
X52914D01*
Y58906D01*
X52881D01*
Y58939D01*
X52847D01*
Y59006D01*
X52814D01*
Y59072D01*
X52781D01*
Y59139D01*
X52748D01*
Y59272D01*
X52714D01*
Y62098D01*
X52681D01*
Y62165D01*
X52016D01*
Y62497D01*
X52681D01*
Y62530D01*
X52714D01*
Y63462D01*
X53113D01*
Y62497D01*
D02*
G37*
G36*
X50154Y62530D02*
X50354D01*
Y62497D01*
X50453D01*
Y62464D01*
X50553D01*
Y62431D01*
X50653D01*
Y62397D01*
X50719D01*
Y62364D01*
X50753D01*
Y62331D01*
X50819D01*
Y62298D01*
X50886D01*
Y62264D01*
X50919D01*
Y62231D01*
X50952D01*
Y62198D01*
X50985D01*
Y62165D01*
X51052D01*
Y62131D01*
X51085D01*
Y62098D01*
X51118D01*
Y62032D01*
X51152D01*
Y61998D01*
X51185D01*
Y61965D01*
X51218D01*
Y61932D01*
X51251D01*
Y61865D01*
X51285D01*
Y61832D01*
X51318D01*
Y61766D01*
X51351D01*
Y61732D01*
X51384D01*
Y61666D01*
X51418D01*
Y61599D01*
X51451D01*
Y61500D01*
X51484D01*
Y61400D01*
X51517D01*
Y61300D01*
X51551D01*
Y61134D01*
X51584D01*
Y60901D01*
X51617D01*
Y60269D01*
X51584D01*
Y60070D01*
X51551D01*
Y59904D01*
X51517D01*
Y59804D01*
X51484D01*
Y59704D01*
X51451D01*
Y59638D01*
X51418D01*
Y59571D01*
X51384D01*
Y59505D01*
X51351D01*
Y59438D01*
X51318D01*
Y59372D01*
X51285D01*
Y59338D01*
X51251D01*
Y59272D01*
X51218D01*
Y59239D01*
X51185D01*
Y59205D01*
X51152D01*
Y59172D01*
X51118D01*
Y59106D01*
X51085D01*
Y59072D01*
X51019D01*
Y59039D01*
X50985D01*
Y59006D01*
X50952D01*
Y58973D01*
X50919D01*
Y58939D01*
X50852D01*
Y58906D01*
X50819D01*
Y58873D01*
X50753D01*
Y58840D01*
X50686D01*
Y58806D01*
X50620D01*
Y58773D01*
X50553D01*
Y58740D01*
X50453D01*
Y58707D01*
X50320D01*
Y58673D01*
X50054D01*
Y58640D01*
X49822D01*
Y58673D01*
X49556D01*
Y58707D01*
X49423D01*
Y58740D01*
X49323D01*
Y58773D01*
X49256D01*
Y58806D01*
X49190D01*
Y58840D01*
X49123D01*
Y58873D01*
X49057D01*
Y58906D01*
X49024D01*
Y58939D01*
X48957D01*
Y58973D01*
X48924D01*
Y59006D01*
X48891D01*
Y59039D01*
X48824D01*
Y59072D01*
X48791D01*
Y59106D01*
X48758D01*
Y59139D01*
X48724D01*
Y59205D01*
X48691D01*
Y59239D01*
X48658D01*
Y59272D01*
X48625D01*
Y59305D01*
X48591D01*
Y59372D01*
X48558D01*
Y59405D01*
X48525D01*
Y59471D01*
X48492D01*
Y59538D01*
X48458D01*
Y59604D01*
X48425D01*
Y59671D01*
X48392D01*
Y59771D01*
X48359D01*
Y59870D01*
X48325D01*
Y60003D01*
X48292D01*
Y60203D01*
X48259D01*
Y60934D01*
Y60968D01*
Y61001D01*
X48292D01*
Y61200D01*
X48325D01*
Y61333D01*
X48359D01*
Y61433D01*
X48392D01*
Y61533D01*
X48425D01*
Y61599D01*
X48458D01*
Y61666D01*
X48492D01*
Y61732D01*
X48525D01*
Y61799D01*
X48558D01*
Y61832D01*
X48591D01*
Y61899D01*
X48625D01*
Y61932D01*
X48658D01*
Y61965D01*
X48691D01*
Y62032D01*
X48724D01*
Y62065D01*
X48758D01*
Y62098D01*
X48791D01*
Y62131D01*
X48824D01*
Y62165D01*
X48857D01*
Y62198D01*
X48924D01*
Y62231D01*
X48957D01*
Y62264D01*
X48990D01*
Y62298D01*
X49057D01*
Y62331D01*
X49090D01*
Y62364D01*
X49157D01*
Y62397D01*
X49223D01*
Y62431D01*
X49323D01*
Y62464D01*
X49423D01*
Y62497D01*
X49522D01*
Y62530D01*
X49722D01*
Y62564D01*
X50154D01*
Y62530D01*
D02*
G37*
G36*
X44934Y61998D02*
X45000D01*
Y62065D01*
X45034D01*
Y62098D01*
X45067D01*
Y62131D01*
X45100D01*
Y62165D01*
X45133D01*
Y62198D01*
X45167D01*
Y62231D01*
X45200D01*
Y62264D01*
X45233D01*
Y62298D01*
X45300D01*
Y62331D01*
X45333D01*
Y62364D01*
X45399D01*
Y62397D01*
X45466D01*
Y62431D01*
X45532D01*
Y62464D01*
X45599D01*
Y62497D01*
X45732D01*
Y62530D01*
X45898D01*
Y62564D01*
X46330D01*
Y62530D01*
X46497D01*
Y62497D01*
X46596D01*
Y62464D01*
X46696D01*
Y62431D01*
X46763D01*
Y62397D01*
X46829D01*
Y62364D01*
X46862D01*
Y62331D01*
X46929D01*
Y62298D01*
X46962D01*
Y62264D01*
X46995D01*
Y62231D01*
X47029D01*
Y62198D01*
X47062D01*
Y62165D01*
X47095D01*
Y62131D01*
X47128D01*
Y62098D01*
X47162D01*
Y62032D01*
X47195D01*
Y61998D01*
X47228D01*
Y61965D01*
X47261D01*
Y61899D01*
X47295D01*
Y61832D01*
X47328D01*
Y61766D01*
X47361D01*
Y61699D01*
X47394D01*
Y61599D01*
X47428D01*
Y61500D01*
X47461D01*
Y61400D01*
X47494D01*
Y61234D01*
X47527D01*
Y61001D01*
X47561D01*
Y60203D01*
X47527D01*
Y59970D01*
X47494D01*
Y59804D01*
X47461D01*
Y59704D01*
X47428D01*
Y59671D01*
Y59638D01*
Y59604D01*
X47394D01*
Y59505D01*
X47361D01*
Y59438D01*
X47328D01*
Y59372D01*
X47295D01*
Y59338D01*
X47261D01*
Y59272D01*
X47228D01*
Y59205D01*
X47195D01*
Y59172D01*
X47162D01*
Y59139D01*
X47128D01*
Y59106D01*
X47095D01*
Y59039D01*
X47062D01*
Y59006D01*
X47029D01*
Y58973D01*
X46995D01*
Y58939D01*
X46929D01*
Y58906D01*
X46896D01*
Y58873D01*
X46862D01*
Y58840D01*
X46796D01*
Y58806D01*
X46729D01*
Y58773D01*
X46663D01*
Y58740D01*
X46563D01*
Y58707D01*
X46463D01*
Y58673D01*
X46231D01*
Y58640D01*
X45998D01*
Y58673D01*
X45765D01*
Y58707D01*
X45632D01*
Y58740D01*
X45532D01*
Y58773D01*
X45466D01*
Y58806D01*
X45399D01*
Y58840D01*
X45333D01*
Y58873D01*
X45266D01*
Y58906D01*
X45233D01*
Y58939D01*
X45200D01*
Y58973D01*
X45167D01*
Y59006D01*
X45100D01*
Y59039D01*
X45067D01*
Y59106D01*
X45034D01*
Y59139D01*
X45000D01*
Y59172D01*
X44967D01*
Y59205D01*
X44934D01*
Y58740D01*
X44535D01*
Y64060D01*
X44934D01*
Y61998D01*
D02*
G37*
G36*
X42207Y62530D02*
X42407D01*
Y62497D01*
X42540D01*
Y62464D01*
X42640D01*
Y62431D01*
X42706D01*
Y62397D01*
X42773D01*
Y62364D01*
X42839D01*
Y62331D01*
X42872D01*
Y62298D01*
X42939D01*
Y62264D01*
X42972D01*
Y62231D01*
X43005D01*
Y62198D01*
X43072D01*
Y62165D01*
X43105D01*
Y62131D01*
X43138D01*
Y62098D01*
X43172D01*
Y62065D01*
X43205D01*
Y62032D01*
X43238D01*
Y61965D01*
X43271D01*
Y61932D01*
X43305D01*
Y61899D01*
X43338D01*
Y61832D01*
X43371D01*
Y61799D01*
X43404D01*
Y61732D01*
X43437D01*
Y61666D01*
X43471D01*
Y61599D01*
X43504D01*
Y61533D01*
X43537D01*
Y61433D01*
X43571D01*
Y61333D01*
X43604D01*
Y61200D01*
X43637D01*
Y61101D01*
Y61067D01*
Y61001D01*
X43670D01*
Y60203D01*
X43637D01*
Y60003D01*
X43604D01*
Y59870D01*
X43571D01*
Y59771D01*
X43537D01*
Y59704D01*
X43504D01*
Y59604D01*
X43471D01*
Y59538D01*
X43437D01*
Y59471D01*
X43404D01*
Y59405D01*
X43371D01*
Y59372D01*
X43338D01*
Y59305D01*
X43305D01*
Y59272D01*
X43271D01*
Y59239D01*
X43238D01*
Y59172D01*
X43205D01*
Y59139D01*
X43172D01*
Y59106D01*
X43138D01*
Y59072D01*
X43105D01*
Y59039D01*
X43072D01*
Y59006D01*
X43005D01*
Y58973D01*
X42972D01*
Y58939D01*
X42939D01*
Y58906D01*
X42872D01*
Y58873D01*
X42806D01*
Y58840D01*
X42739D01*
Y58806D01*
X42673D01*
Y58773D01*
X42606D01*
Y58740D01*
X42507D01*
Y58707D01*
X42374D01*
Y58673D01*
X42107D01*
Y58640D01*
X41875D01*
Y58673D01*
X41609D01*
Y58707D01*
X41476D01*
Y58740D01*
X41376D01*
Y58773D01*
X41310D01*
Y58806D01*
X41243D01*
Y58840D01*
X41177D01*
Y58873D01*
X41110D01*
Y58906D01*
X41077D01*
Y58939D01*
X41010D01*
Y58973D01*
X40977D01*
Y59006D01*
X40944D01*
Y59039D01*
X40911D01*
Y59072D01*
X40877D01*
Y59106D01*
X40844D01*
Y59139D01*
X40811D01*
Y59172D01*
X40778D01*
Y59205D01*
X40744D01*
Y59239D01*
X40711D01*
Y59272D01*
X40678D01*
Y59338D01*
X40644D01*
Y59372D01*
X40611D01*
Y59438D01*
X40578D01*
Y59505D01*
X40545D01*
Y59538D01*
X40512D01*
Y59638D01*
X40478D01*
Y59704D01*
X40445D01*
Y59804D01*
X40412D01*
Y59904D01*
X40379D01*
Y60037D01*
X40345D01*
Y60269D01*
X40312D01*
Y60934D01*
X40345D01*
Y61167D01*
X40379D01*
Y61300D01*
X40412D01*
Y61400D01*
X40445D01*
Y61500D01*
X40478D01*
Y61566D01*
X40512D01*
Y61666D01*
X40545D01*
Y61699D01*
X40578D01*
Y61766D01*
X40611D01*
Y61832D01*
X40644D01*
Y61865D01*
X40678D01*
Y61932D01*
X40711D01*
Y61965D01*
X40744D01*
Y61998D01*
X40778D01*
Y62032D01*
X40811D01*
Y62065D01*
X40844D01*
Y62098D01*
X40877D01*
Y62131D01*
X40911D01*
Y62165D01*
X40944D01*
Y62198D01*
X40977D01*
Y62231D01*
X41010D01*
Y62264D01*
X41077D01*
Y62298D01*
X41110D01*
Y62331D01*
X41177D01*
Y62364D01*
X41243D01*
Y62397D01*
X41310D01*
Y62431D01*
X41376D01*
Y62464D01*
X41476D01*
Y62497D01*
X41576D01*
Y62530D01*
X41775D01*
Y62564D01*
X42207D01*
Y62530D01*
D02*
G37*
G36*
X51118Y55382D02*
Y55348D01*
Y52090D01*
X50753D01*
Y52356D01*
X50719D01*
Y52555D01*
X50686D01*
Y52522D01*
X50653D01*
Y52456D01*
X50620D01*
Y52422D01*
X50586D01*
Y52389D01*
X50553D01*
Y52356D01*
X50520D01*
Y52323D01*
X50453D01*
Y52289D01*
X50420D01*
Y52256D01*
X50387D01*
Y52223D01*
X50320D01*
Y52190D01*
X50254D01*
Y52156D01*
X50187D01*
Y52123D01*
X50088D01*
Y52090D01*
X49988D01*
Y52057D01*
X49822D01*
Y52023D01*
X49323D01*
Y52057D01*
X49157D01*
Y52090D01*
X49057D01*
Y52123D01*
X48990D01*
Y52156D01*
X48924D01*
Y52190D01*
X48857D01*
Y52223D01*
X48824D01*
Y52256D01*
X48758D01*
Y52289D01*
X48724D01*
Y52323D01*
X48691D01*
Y52356D01*
X48658D01*
Y52389D01*
X48625D01*
Y52422D01*
X48591D01*
Y52456D01*
X48558D01*
Y52489D01*
X48525D01*
Y52522D01*
X48492D01*
Y52589D01*
X48458D01*
Y52622D01*
X48425D01*
Y52688D01*
X48392D01*
Y52755D01*
X48359D01*
Y52788D01*
X48325D01*
Y52855D01*
X48292D01*
Y52954D01*
X48259D01*
Y53021D01*
X48226D01*
Y53154D01*
X48192D01*
Y53254D01*
X48159D01*
Y53453D01*
X48126D01*
Y53786D01*
X48093D01*
Y54151D01*
X48126D01*
Y54517D01*
X48159D01*
Y54683D01*
X48192D01*
Y54816D01*
X48226D01*
Y54916D01*
X48259D01*
Y55016D01*
X48292D01*
Y55082D01*
X48325D01*
Y55149D01*
X48359D01*
Y55215D01*
X48392D01*
Y55282D01*
X48425D01*
Y55315D01*
X48458D01*
Y55382D01*
X48492D01*
Y55415D01*
X48525D01*
Y55481D01*
X48558D01*
Y55515D01*
X48591D01*
Y55548D01*
X48625D01*
Y55581D01*
X48658D01*
Y55614D01*
X48691D01*
Y55648D01*
X48758D01*
Y55681D01*
X48791D01*
Y55714D01*
X48824D01*
Y55747D01*
X48891D01*
Y55781D01*
X48957D01*
Y55814D01*
X49024D01*
Y55847D01*
X49123D01*
Y55880D01*
X49256D01*
Y55914D01*
X49888D01*
Y55880D01*
X50021D01*
Y55847D01*
X50121D01*
Y55814D01*
X50187D01*
Y55781D01*
X50254D01*
Y55747D01*
X50320D01*
Y55714D01*
X50354D01*
Y55681D01*
X50420D01*
Y55648D01*
X50453D01*
Y55614D01*
X50487D01*
Y55581D01*
X50520D01*
Y55548D01*
X50553D01*
Y55515D01*
X50586D01*
Y55481D01*
X50620D01*
Y55448D01*
X50653D01*
Y55415D01*
X50686D01*
Y55348D01*
X50719D01*
Y57443D01*
X51118D01*
Y55382D01*
D02*
G37*
G36*
X63155Y55880D02*
X63188D01*
Y55681D01*
X63155D01*
Y55515D01*
X62623D01*
Y55481D01*
X62490D01*
Y55448D01*
X62423D01*
Y55415D01*
X62357D01*
Y55382D01*
X62290D01*
Y55348D01*
X62257D01*
Y55315D01*
X62224D01*
Y55282D01*
X62191D01*
Y55249D01*
X62124D01*
Y55182D01*
X62091D01*
Y55149D01*
X62058D01*
Y55116D01*
X62024D01*
Y55049D01*
X61991D01*
Y55016D01*
X61958D01*
Y54949D01*
X61925D01*
Y54883D01*
X61891D01*
Y54783D01*
X61858D01*
Y54683D01*
X61825D01*
Y52090D01*
X61426D01*
Y55847D01*
X61825D01*
Y55315D01*
X61858D01*
Y55348D01*
X61891D01*
Y55382D01*
X61925D01*
Y55448D01*
X61958D01*
Y55481D01*
X61991D01*
Y55515D01*
X62024D01*
Y55581D01*
X62058D01*
Y55614D01*
X62091D01*
Y55648D01*
X62124D01*
Y55681D01*
X62191D01*
Y55714D01*
X62224D01*
Y55747D01*
X62290D01*
Y55781D01*
X62324D01*
Y55814D01*
X62390D01*
Y55847D01*
X62490D01*
Y55880D01*
X62590D01*
Y55914D01*
X63155D01*
Y55880D01*
D02*
G37*
G36*
X47660D02*
X47694D01*
Y55515D01*
X47128D01*
Y55481D01*
X47029D01*
Y55448D01*
X46929D01*
Y55415D01*
X46862D01*
Y55382D01*
X46829D01*
Y55348D01*
X46763D01*
Y55315D01*
X46729D01*
Y55282D01*
X46696D01*
Y55249D01*
X46663D01*
Y55215D01*
X46630D01*
Y55182D01*
X46596D01*
Y55149D01*
X46563D01*
Y55082D01*
X46530D01*
Y55049D01*
X46497D01*
Y54983D01*
X46463D01*
Y54916D01*
X46430D01*
Y54850D01*
X46397D01*
Y54750D01*
X46364D01*
Y52090D01*
X45931D01*
Y53586D01*
Y53619D01*
Y55847D01*
X46364D01*
Y55315D01*
X46397D01*
Y55382D01*
X46430D01*
Y55415D01*
X46463D01*
Y55481D01*
X46497D01*
Y55515D01*
X46530D01*
Y55548D01*
X46563D01*
Y55581D01*
X46596D01*
Y55614D01*
X46630D01*
Y55648D01*
X46663D01*
Y55681D01*
X46696D01*
Y55714D01*
X46729D01*
Y55747D01*
X46796D01*
Y55781D01*
X46862D01*
Y55814D01*
X46929D01*
Y55847D01*
X46995D01*
Y55880D01*
X47128D01*
Y55914D01*
X47660D01*
Y55880D01*
D02*
G37*
G36*
X56804Y55747D02*
X56771D01*
Y55648D01*
X56738D01*
Y55548D01*
X56704D01*
Y55415D01*
X56671D01*
Y55315D01*
X56638D01*
Y55182D01*
X56605D01*
Y55082D01*
X56571D01*
Y54949D01*
X56538D01*
Y54850D01*
X56505D01*
Y54750D01*
X56472D01*
Y54617D01*
X56438D01*
Y54517D01*
X56405D01*
Y54384D01*
X56372D01*
Y54284D01*
X56339D01*
Y54151D01*
X56305D01*
Y54052D01*
X56272D01*
Y53919D01*
X56239D01*
Y53819D01*
X56206D01*
Y53686D01*
X56172D01*
Y53586D01*
X56139D01*
Y53486D01*
X56106D01*
Y53353D01*
X56073D01*
Y53254D01*
X56039D01*
Y53121D01*
X56006D01*
Y53021D01*
X55973D01*
Y52921D01*
X55940D01*
Y52788D01*
X55906D01*
Y52688D01*
X55873D01*
Y52555D01*
X55840D01*
Y52456D01*
X55807D01*
Y52323D01*
X55773D01*
Y52223D01*
X55740D01*
Y52123D01*
X55707D01*
Y52090D01*
X55374D01*
Y52123D01*
X55341D01*
Y52190D01*
X55308D01*
Y52323D01*
X55275D01*
Y52422D01*
X55241D01*
Y52522D01*
X55208D01*
Y52622D01*
X55175D01*
Y52722D01*
X55142D01*
Y52821D01*
X55108D01*
Y52921D01*
X55075D01*
Y53021D01*
X55042D01*
Y53121D01*
X55009D01*
Y53220D01*
X54975D01*
Y53320D01*
X54942D01*
Y53420D01*
X54909D01*
Y53553D01*
X54876D01*
Y53653D01*
X54842D01*
Y53752D01*
X54809D01*
Y53852D01*
X54776D01*
Y53952D01*
X54743D01*
Y54052D01*
X54709D01*
Y54151D01*
X54676D01*
Y54251D01*
X54643D01*
Y54351D01*
X54610D01*
Y54451D01*
X54576D01*
Y54550D01*
X54543D01*
Y54650D01*
X54510D01*
Y54783D01*
X54477D01*
Y54883D01*
X54443D01*
Y54983D01*
X54410D01*
Y55082D01*
X54377D01*
Y55215D01*
X54344D01*
Y55182D01*
X54310D01*
Y55016D01*
X54277D01*
Y54916D01*
X54244D01*
Y54816D01*
X54211D01*
Y54717D01*
X54177D01*
Y54617D01*
X54144D01*
Y54517D01*
X54111D01*
Y54417D01*
X54078D01*
Y54284D01*
X54044D01*
Y54185D01*
X54011D01*
Y54085D01*
X53978D01*
Y53985D01*
X53945D01*
Y53885D01*
X53911D01*
Y53786D01*
X53878D01*
Y53686D01*
X53845D01*
Y53586D01*
X53812D01*
Y53453D01*
X53778D01*
Y53353D01*
X53745D01*
Y53320D01*
Y53287D01*
Y53254D01*
X53712D01*
Y53154D01*
X53679D01*
Y53054D01*
X53645D01*
Y52954D01*
X53612D01*
Y52855D01*
X53579D01*
Y52722D01*
X53546D01*
Y52622D01*
X53512D01*
Y52522D01*
X53479D01*
Y52422D01*
X53446D01*
Y52323D01*
X53413D01*
Y52223D01*
X53379D01*
Y52123D01*
X53346D01*
Y52090D01*
X53014D01*
Y52123D01*
X52980D01*
Y52223D01*
X52947D01*
Y52323D01*
X52914D01*
Y52456D01*
X52881D01*
Y52555D01*
X52847D01*
Y52655D01*
X52814D01*
Y52788D01*
X52781D01*
Y52888D01*
X52748D01*
Y53021D01*
X52714D01*
Y53121D01*
X52681D01*
Y53254D01*
X52648D01*
Y53353D01*
X52615D01*
Y53486D01*
X52581D01*
Y53586D01*
X52548D01*
Y53686D01*
X52515D01*
Y53819D01*
X52482D01*
Y53919D01*
X52448D01*
Y54052D01*
X52415D01*
Y54151D01*
X52382D01*
Y54284D01*
X52349D01*
Y54384D01*
X52315D01*
Y54517D01*
X52282D01*
Y54617D01*
X52249D01*
Y54750D01*
X52216D01*
Y54850D01*
X52182D01*
Y54949D01*
X52149D01*
Y55082D01*
X52116D01*
Y55182D01*
X52083D01*
Y55315D01*
X52049D01*
Y55415D01*
X52016D01*
Y55548D01*
X51983D01*
Y55648D01*
X51950D01*
Y55781D01*
X51916D01*
Y55847D01*
X52349D01*
Y55747D01*
X52382D01*
Y55648D01*
X52415D01*
Y55515D01*
X52448D01*
Y55382D01*
X52482D01*
Y55282D01*
X52515D01*
Y55149D01*
X52548D01*
Y55049D01*
X52581D01*
Y54916D01*
X52615D01*
Y54783D01*
X52648D01*
Y54683D01*
X52681D01*
Y54550D01*
X52714D01*
Y54417D01*
X52748D01*
Y54318D01*
X52781D01*
Y54185D01*
X52814D01*
Y54052D01*
X52847D01*
Y53952D01*
X52881D01*
Y53819D01*
X52914D01*
Y53686D01*
X52947D01*
Y53586D01*
X52980D01*
Y53453D01*
X53014D01*
Y53353D01*
X53047D01*
Y53220D01*
X53080D01*
Y53087D01*
X53113D01*
Y52988D01*
X53147D01*
Y52788D01*
X53180D01*
Y52688D01*
X53213D01*
Y52788D01*
X53246D01*
Y52921D01*
X53280D01*
Y53021D01*
X53313D01*
Y53154D01*
X53346D01*
Y53254D01*
X53379D01*
Y53353D01*
X53413D01*
Y53453D01*
X53446D01*
Y53553D01*
X53479D01*
Y53653D01*
X53512D01*
Y53786D01*
X53546D01*
Y53885D01*
X53579D01*
Y53985D01*
X53612D01*
Y54085D01*
X53645D01*
Y54185D01*
X53679D01*
Y54318D01*
X53712D01*
Y54417D01*
X53745D01*
Y54517D01*
X53778D01*
Y54617D01*
X53812D01*
Y54717D01*
X53845D01*
Y54850D01*
X53878D01*
Y54949D01*
X53911D01*
Y55049D01*
X53945D01*
Y55149D01*
X53978D01*
Y55249D01*
X54011D01*
Y55382D01*
X54044D01*
Y55481D01*
X54078D01*
Y55581D01*
X54111D01*
Y55681D01*
X54144D01*
Y55781D01*
X54177D01*
Y55847D01*
X54543D01*
Y55781D01*
X54576D01*
Y55681D01*
X54610D01*
Y55581D01*
X54643D01*
Y55481D01*
X54676D01*
Y55382D01*
X54709D01*
Y55249D01*
X54743D01*
Y55149D01*
X54776D01*
Y55049D01*
X54809D01*
Y54949D01*
X54842D01*
Y54850D01*
X54876D01*
Y54717D01*
X54909D01*
Y54617D01*
X54942D01*
Y54517D01*
X54975D01*
Y54417D01*
X55009D01*
Y54318D01*
X55042D01*
Y54185D01*
X55075D01*
Y54085D01*
X55108D01*
Y53985D01*
X55142D01*
Y53885D01*
X55175D01*
Y53786D01*
X55208D01*
Y53653D01*
X55241D01*
Y53553D01*
X55275D01*
Y53453D01*
X55308D01*
Y53353D01*
X55341D01*
Y53254D01*
X55374D01*
Y53121D01*
X55408D01*
Y53021D01*
X55441D01*
Y52888D01*
X55474D01*
Y52755D01*
X55507D01*
Y52655D01*
X55541D01*
Y52722D01*
X55574D01*
Y52888D01*
X55607D01*
Y53021D01*
X55640D01*
Y53154D01*
X55674D01*
Y53287D01*
X55707D01*
Y53387D01*
X55740D01*
Y53520D01*
X55773D01*
Y53653D01*
X55807D01*
Y53786D01*
X55840D01*
Y53885D01*
X55873D01*
Y54018D01*
X55906D01*
Y54151D01*
X55940D01*
Y54284D01*
X55973D01*
Y54384D01*
X56006D01*
Y54517D01*
X56039D01*
Y54650D01*
X56073D01*
Y54783D01*
X56106D01*
Y54883D01*
X56139D01*
Y55016D01*
X56172D01*
Y55149D01*
X56206D01*
Y55249D01*
X56239D01*
Y55382D01*
X56272D01*
Y55515D01*
X56305D01*
Y55648D01*
X56339D01*
Y55781D01*
X56372D01*
Y55847D01*
X56804D01*
Y55747D01*
D02*
G37*
G36*
X59331Y55880D02*
X59464D01*
Y55847D01*
X59564D01*
Y55814D01*
X59664D01*
Y55781D01*
X59730D01*
Y55747D01*
X59763D01*
Y55714D01*
X59830D01*
Y55681D01*
X59863D01*
Y55648D01*
X59930D01*
Y55614D01*
X59963D01*
Y55581D01*
X59996D01*
Y55548D01*
X60029D01*
Y55515D01*
X60063D01*
Y55481D01*
X60096D01*
Y55415D01*
X60129D01*
Y55382D01*
X60162D01*
Y55315D01*
X60196D01*
Y55249D01*
X60229D01*
Y55149D01*
X60262D01*
Y55049D01*
X60295D01*
Y54783D01*
X60329D01*
Y52456D01*
X60362D01*
Y52289D01*
X60395D01*
Y52190D01*
X60428D01*
Y52090D01*
X59996D01*
Y52123D01*
X59963D01*
Y52223D01*
X59930D01*
Y52456D01*
X59896D01*
Y52589D01*
X59863D01*
Y52555D01*
X59830D01*
Y52522D01*
X59797D01*
Y52489D01*
X59763D01*
Y52456D01*
X59730D01*
Y52422D01*
X59697D01*
Y52389D01*
X59664D01*
Y52356D01*
X59630D01*
Y52323D01*
X59564D01*
Y52289D01*
X59531D01*
Y52256D01*
X59464D01*
Y52223D01*
X59398D01*
Y52190D01*
X59331D01*
Y52156D01*
X59265D01*
Y52123D01*
X59165D01*
Y52090D01*
X59065D01*
Y52057D01*
X58899D01*
Y52023D01*
X58367D01*
Y52057D01*
X58201D01*
Y52090D01*
X58101D01*
Y52123D01*
X58034D01*
Y52156D01*
X57968D01*
Y52190D01*
X57901D01*
Y52223D01*
X57835D01*
Y52256D01*
X57802D01*
Y52289D01*
X57768D01*
Y52323D01*
X57735D01*
Y52356D01*
X57702D01*
Y52389D01*
X57669D01*
Y52422D01*
X57635D01*
Y52456D01*
X57602D01*
Y52489D01*
X57569D01*
Y52555D01*
X57536D01*
Y52622D01*
X57502D01*
Y52688D01*
X57469D01*
Y52788D01*
X57436D01*
Y52921D01*
X57403D01*
Y53254D01*
X57436D01*
Y53420D01*
X57469D01*
Y53520D01*
X57502D01*
Y53586D01*
X57536D01*
Y53619D01*
X57569D01*
Y53686D01*
X57602D01*
Y53719D01*
X57635D01*
Y53786D01*
X57669D01*
Y53819D01*
X57702D01*
Y53852D01*
X57735D01*
Y53885D01*
X57802D01*
Y53919D01*
X57835D01*
Y53952D01*
X57868D01*
Y53985D01*
X57935D01*
Y54018D01*
X57968D01*
Y54052D01*
X58034D01*
Y54085D01*
X58134D01*
Y54118D01*
X58201D01*
Y54151D01*
X58300D01*
Y54185D01*
X58400D01*
Y54218D01*
X58566D01*
Y54251D01*
X58832D01*
Y54284D01*
X59896D01*
Y54916D01*
X59863D01*
Y55049D01*
X59830D01*
Y55116D01*
X59797D01*
Y55182D01*
X59763D01*
Y55215D01*
X59730D01*
Y55282D01*
X59697D01*
Y55315D01*
X59664D01*
Y55348D01*
X59630D01*
Y55382D01*
X59597D01*
Y55415D01*
X59531D01*
Y55448D01*
X59464D01*
Y55481D01*
X59398D01*
Y55515D01*
X59298D01*
Y55548D01*
X59132D01*
Y55581D01*
X58733D01*
Y55548D01*
X58566D01*
Y55515D01*
X58467D01*
Y55481D01*
X58400D01*
Y55448D01*
X58334D01*
Y55415D01*
X58267D01*
Y55382D01*
X58234D01*
Y55348D01*
X58167D01*
Y55315D01*
X58134D01*
Y55282D01*
X58101D01*
Y55249D01*
X58068D01*
Y55182D01*
X58034D01*
Y55149D01*
X58001D01*
Y55082D01*
X57968D01*
Y55016D01*
X57935D01*
Y54850D01*
X57901D01*
Y54816D01*
X57502D01*
Y55016D01*
X57536D01*
Y55116D01*
X57569D01*
Y55215D01*
X57602D01*
Y55282D01*
X57635D01*
Y55315D01*
X57669D01*
Y55382D01*
X57702D01*
Y55415D01*
X57735D01*
Y55448D01*
X57768D01*
Y55481D01*
X57802D01*
Y55515D01*
X57835D01*
Y55548D01*
X57868D01*
Y55581D01*
X57901D01*
Y55614D01*
X57968D01*
Y55648D01*
X58001D01*
Y55681D01*
X58068D01*
Y55714D01*
X58101D01*
Y55747D01*
X58167D01*
Y55781D01*
X58267D01*
Y55814D01*
X58334D01*
Y55847D01*
X58433D01*
Y55880D01*
X58600D01*
Y55914D01*
X59331D01*
Y55880D01*
D02*
G37*
G36*
X43837D02*
X43970D01*
Y55847D01*
X44069D01*
Y55814D01*
X44169D01*
Y55781D01*
X44236D01*
Y55747D01*
X44302D01*
Y55714D01*
X44335D01*
Y55681D01*
X44402D01*
Y55648D01*
X44435D01*
Y55614D01*
X44468D01*
Y55581D01*
X44502D01*
Y55548D01*
X44535D01*
Y55515D01*
X44568D01*
Y55481D01*
X44601D01*
Y55448D01*
X44635D01*
Y55382D01*
X44668D01*
Y55348D01*
X44701D01*
Y55282D01*
X44734D01*
Y55182D01*
X44768D01*
Y55082D01*
X44801D01*
Y54916D01*
X44834D01*
Y52589D01*
X44867D01*
Y52356D01*
X44901D01*
Y52223D01*
X44934D01*
Y52090D01*
X44502D01*
Y52156D01*
X44468D01*
Y52289D01*
X44435D01*
Y52589D01*
X44402D01*
Y52555D01*
X44369D01*
Y52522D01*
X44335D01*
Y52489D01*
X44302D01*
Y52456D01*
X44269D01*
Y52422D01*
X44236D01*
Y52389D01*
X44202D01*
Y52356D01*
X44136D01*
Y52323D01*
X44103D01*
Y52289D01*
X44036D01*
Y52256D01*
X44003D01*
Y52223D01*
X43936D01*
Y52190D01*
X43870D01*
Y52156D01*
X43770D01*
Y52123D01*
X43670D01*
Y52090D01*
X43571D01*
Y52057D01*
X43404D01*
Y52023D01*
X42872D01*
Y52057D01*
X42739D01*
Y52090D01*
X42640D01*
Y52123D01*
X42540D01*
Y52156D01*
X42473D01*
Y52190D01*
X42407D01*
Y52223D01*
X42374D01*
Y52256D01*
X42340D01*
Y52289D01*
X42274D01*
Y52323D01*
X42241D01*
Y52356D01*
X42207D01*
Y52389D01*
X42174D01*
Y52422D01*
X42141D01*
Y52489D01*
X42107D01*
Y52522D01*
X42074D01*
Y52589D01*
X42041D01*
Y52655D01*
X42008D01*
Y52722D01*
X41974D01*
Y52821D01*
X41941D01*
Y53353D01*
X41974D01*
Y53453D01*
X42008D01*
Y53553D01*
X42041D01*
Y53619D01*
X42074D01*
Y53653D01*
X42107D01*
Y53719D01*
X42141D01*
Y53752D01*
X42174D01*
Y53786D01*
X42207D01*
Y53819D01*
X42241D01*
Y53852D01*
X42274D01*
Y53885D01*
X42307D01*
Y53919D01*
X42340D01*
Y53952D01*
X42407D01*
Y53985D01*
X42440D01*
Y54018D01*
X42507D01*
Y54052D01*
X42573D01*
Y54085D01*
X42640D01*
Y54118D01*
X42706D01*
Y54151D01*
X42806D01*
Y54185D01*
X42939D01*
Y54218D01*
X43105D01*
Y54251D01*
X43338D01*
Y54284D01*
X44402D01*
Y54318D01*
X44435D01*
Y54351D01*
X44402D01*
Y54983D01*
X44369D01*
Y55082D01*
X44335D01*
Y55149D01*
X44302D01*
Y55215D01*
X44269D01*
Y55249D01*
X44236D01*
Y55282D01*
X44202D01*
Y55315D01*
X44169D01*
Y55348D01*
X44136D01*
Y55382D01*
X44103D01*
Y55415D01*
X44036D01*
Y55448D01*
X44003D01*
Y55481D01*
X43903D01*
Y55515D01*
X43803D01*
Y55548D01*
X43637D01*
Y55581D01*
X43271D01*
Y55548D01*
X43072D01*
Y55515D01*
X42972D01*
Y55481D01*
X42906D01*
Y55448D01*
X42839D01*
Y55415D01*
X42806D01*
Y55382D01*
X42739D01*
Y55348D01*
X42706D01*
Y55315D01*
X42673D01*
Y55282D01*
X42640D01*
Y55249D01*
X42606D01*
Y55215D01*
X42573D01*
Y55182D01*
X42540D01*
Y55116D01*
X42507D01*
Y55049D01*
X42473D01*
Y54949D01*
X42440D01*
Y54816D01*
X42041D01*
Y54850D01*
X42008D01*
Y54916D01*
X42041D01*
Y55082D01*
X42074D01*
Y55182D01*
X42107D01*
Y55249D01*
X42141D01*
Y55282D01*
X42174D01*
Y55348D01*
X42207D01*
Y55382D01*
X42241D01*
Y55415D01*
X42274D01*
Y55481D01*
X42307D01*
Y55515D01*
X42340D01*
Y55548D01*
X42407D01*
Y55581D01*
X42440D01*
Y55614D01*
X42473D01*
Y55648D01*
X42540D01*
Y55681D01*
X42573D01*
Y55714D01*
X42640D01*
Y55747D01*
X42706D01*
Y55781D01*
X42773D01*
Y55814D01*
X42872D01*
Y55847D01*
X42972D01*
Y55880D01*
X43105D01*
Y55914D01*
X43837D01*
Y55880D01*
D02*
G37*
G36*
X38616Y55282D02*
X38683D01*
Y55315D01*
X38716D01*
Y55382D01*
X38749D01*
Y55415D01*
X38783D01*
Y55448D01*
X38816D01*
Y55481D01*
X38849D01*
Y55515D01*
X38882D01*
Y55548D01*
X38916D01*
Y55581D01*
X38949D01*
Y55614D01*
X38982D01*
Y55648D01*
X39015D01*
Y55681D01*
X39082D01*
Y55714D01*
X39115D01*
Y55747D01*
X39182D01*
Y55781D01*
X39248D01*
Y55814D01*
X39348D01*
Y55847D01*
X39414D01*
Y55880D01*
X39547D01*
Y55914D01*
X40179D01*
Y55880D01*
X40312D01*
Y55847D01*
X40412D01*
Y55814D01*
X40478D01*
Y55781D01*
X40545D01*
Y55747D01*
X40611D01*
Y55714D01*
X40644D01*
Y55681D01*
X40678D01*
Y55648D01*
X40711D01*
Y55614D01*
X40744D01*
Y55581D01*
X40778D01*
Y55548D01*
X40811D01*
Y55481D01*
X40844D01*
Y55448D01*
X40877D01*
Y55382D01*
X40911D01*
Y55315D01*
X40944D01*
Y55215D01*
X40977D01*
Y55116D01*
X41010D01*
Y54949D01*
X41043D01*
Y53520D01*
Y53486D01*
Y52090D01*
X40644D01*
Y54783D01*
X40611D01*
Y54949D01*
X40578D01*
Y55082D01*
X40545D01*
Y55149D01*
X40512D01*
Y55215D01*
X40478D01*
Y55282D01*
X40445D01*
Y55315D01*
X40412D01*
Y55348D01*
X40379D01*
Y55382D01*
X40345D01*
Y55415D01*
X40279D01*
Y55448D01*
X40246D01*
Y55481D01*
X40179D01*
Y55515D01*
X40046D01*
Y55548D01*
X39813D01*
Y55581D01*
X39713D01*
Y55548D01*
X39481D01*
Y55515D01*
X39381D01*
Y55481D01*
X39281D01*
Y55448D01*
X39215D01*
Y55415D01*
X39182D01*
Y55382D01*
X39115D01*
Y55348D01*
X39082D01*
Y55315D01*
X39049D01*
Y55282D01*
X39015D01*
Y55249D01*
X38982D01*
Y55215D01*
X38949D01*
Y55182D01*
X38916D01*
Y55149D01*
X38882D01*
Y55116D01*
X38849D01*
Y55082D01*
X38816D01*
Y55016D01*
X38783D01*
Y54949D01*
X38749D01*
Y54916D01*
X38716D01*
Y54850D01*
X38683D01*
Y54750D01*
X38649D01*
Y54650D01*
X38616D01*
Y52090D01*
X38217D01*
Y57443D01*
X38616D01*
Y55282D01*
D02*
G37*
G36*
X65482Y55880D02*
X65615D01*
Y55847D01*
X65715D01*
Y55814D01*
X65782D01*
Y55781D01*
X65848D01*
Y55747D01*
X65915D01*
Y55714D01*
X65981D01*
Y55681D01*
X66014D01*
Y55648D01*
X66048D01*
Y55614D01*
X66081D01*
Y55581D01*
X66114D01*
Y55548D01*
X66181D01*
Y55481D01*
X66214D01*
Y55448D01*
X66247D01*
Y55415D01*
X66280D01*
Y55382D01*
X66314D01*
Y55315D01*
X66347D01*
Y55282D01*
X66380D01*
Y55215D01*
X66413D01*
Y55149D01*
X66447D01*
Y55082D01*
X66480D01*
Y55016D01*
X66513D01*
Y54916D01*
X66546D01*
Y54783D01*
X66580D01*
Y54617D01*
X66613D01*
Y54284D01*
X66646D01*
Y53985D01*
X66613D01*
Y53952D01*
X63953D01*
Y53520D01*
X63986D01*
Y53387D01*
X64019D01*
Y53287D01*
X64053D01*
Y53187D01*
X64086D01*
Y53121D01*
X64119D01*
Y53054D01*
X64152D01*
Y52988D01*
X64186D01*
Y52954D01*
X64219D01*
Y52888D01*
X64252D01*
Y52855D01*
X64285D01*
Y52821D01*
X64319D01*
Y52788D01*
X64352D01*
Y52722D01*
X64385D01*
Y52688D01*
X64452D01*
Y52655D01*
X64485D01*
Y52622D01*
X64518D01*
Y52589D01*
X64551D01*
Y52555D01*
X64618D01*
Y52522D01*
X64684D01*
Y52489D01*
X64751D01*
Y52456D01*
X64817D01*
Y52422D01*
X64950D01*
Y52389D01*
X65549D01*
Y52422D01*
X65682D01*
Y52456D01*
X65782D01*
Y52489D01*
X65848D01*
Y52522D01*
X65915D01*
Y52555D01*
X65948D01*
Y52589D01*
X66014D01*
Y52622D01*
X66048D01*
Y52655D01*
X66081D01*
Y52688D01*
X66114D01*
Y52722D01*
X66147D01*
Y52755D01*
X66181D01*
Y52788D01*
X66214D01*
Y52821D01*
X66247D01*
Y52855D01*
X66280D01*
Y52888D01*
X66314D01*
Y52855D01*
X66347D01*
Y52821D01*
X66413D01*
Y52788D01*
X66447D01*
Y52755D01*
X66480D01*
Y52722D01*
X66513D01*
Y52688D01*
X66546D01*
Y52655D01*
X66513D01*
Y52622D01*
X66480D01*
Y52555D01*
X66447D01*
Y52522D01*
X66413D01*
Y52489D01*
X66380D01*
Y52456D01*
X66347D01*
Y52422D01*
X66314D01*
Y52389D01*
X66280D01*
Y52356D01*
X66214D01*
Y52323D01*
X66181D01*
Y52289D01*
X66147D01*
Y52256D01*
X66081D01*
Y52223D01*
X66014D01*
Y52190D01*
X65948D01*
Y52156D01*
X65881D01*
Y52123D01*
X65782D01*
Y52090D01*
X65682D01*
Y52057D01*
X65516D01*
Y52023D01*
X64950D01*
Y52057D01*
X64784D01*
Y52090D01*
X64684D01*
Y52123D01*
X64585D01*
Y52156D01*
X64518D01*
Y52190D01*
X64452D01*
Y52223D01*
X64385D01*
Y52256D01*
X64319D01*
Y52289D01*
X64285D01*
Y52323D01*
X64219D01*
Y52356D01*
X64186D01*
Y52389D01*
X64152D01*
Y52422D01*
X64086D01*
Y52456D01*
X64053D01*
Y52489D01*
X64019D01*
Y52522D01*
X63986D01*
Y52589D01*
X63953D01*
Y52622D01*
X63920D01*
Y52655D01*
X63886D01*
Y52688D01*
X63853D01*
Y52755D01*
X63820D01*
Y52821D01*
X63787D01*
Y52855D01*
X63753D01*
Y52921D01*
X63720D01*
Y52988D01*
X63687D01*
Y53087D01*
X63654D01*
Y53154D01*
X63620D01*
Y53254D01*
X63587D01*
Y53420D01*
X63554D01*
Y53619D01*
X63521D01*
Y54251D01*
X63554D01*
Y54484D01*
X63587D01*
Y54650D01*
X63620D01*
Y54750D01*
X63654D01*
Y54850D01*
X63687D01*
Y54916D01*
X63720D01*
Y54983D01*
X63753D01*
Y55049D01*
X63787D01*
Y55116D01*
X63820D01*
Y55182D01*
X63853D01*
Y55215D01*
X63886D01*
Y55282D01*
X63920D01*
Y55315D01*
X63953D01*
Y55348D01*
X63986D01*
Y55415D01*
X64019D01*
Y55448D01*
X64053D01*
Y55481D01*
X64086D01*
Y55515D01*
X64119D01*
Y55548D01*
X64186D01*
Y55581D01*
X64219D01*
Y55614D01*
X64252D01*
Y55648D01*
X64285D01*
Y55681D01*
X64352D01*
Y55714D01*
X64418D01*
Y55747D01*
X64452D01*
Y55781D01*
X64551D01*
Y55814D01*
X64618D01*
Y55847D01*
X64718D01*
Y55880D01*
X64851D01*
Y55914D01*
X65482D01*
Y55880D01*
D02*
G37*
G36*
X54011Y51159D02*
X54078D01*
Y51126D01*
X54111D01*
Y51059D01*
X54144D01*
Y50993D01*
X54177D01*
Y50893D01*
X54144D01*
Y50793D01*
X54111D01*
Y50727D01*
X54078D01*
Y50693D01*
X54011D01*
Y50660D01*
X53745D01*
Y50693D01*
X53679D01*
Y50727D01*
X53645D01*
Y50760D01*
X53612D01*
Y50860D01*
X53579D01*
Y50993D01*
X53612D01*
Y51092D01*
X53645D01*
Y51126D01*
X53679D01*
Y51159D01*
X53745D01*
Y51192D01*
X54011D01*
Y51159D01*
D02*
G37*
G36*
X61160Y49862D02*
X61293D01*
Y49829D01*
X61393D01*
Y49796D01*
X61459D01*
Y49762D01*
X61526D01*
Y49729D01*
X61592D01*
Y49696D01*
X61625D01*
Y49663D01*
X61659D01*
Y49629D01*
X61692D01*
Y49596D01*
X61725D01*
Y49563D01*
X61758D01*
Y49530D01*
X61792D01*
Y49496D01*
X61825D01*
Y49430D01*
X61858D01*
Y49363D01*
X61891D01*
Y49297D01*
X61925D01*
Y49230D01*
X61958D01*
Y49131D01*
X61991D01*
Y48964D01*
X62024D01*
Y48632D01*
X62058D01*
Y46105D01*
X62024D01*
Y46072D01*
X61625D01*
Y48798D01*
X61592D01*
Y48964D01*
X61559D01*
Y49064D01*
X61526D01*
Y49164D01*
X61492D01*
Y49197D01*
X61459D01*
Y49264D01*
X61426D01*
Y49297D01*
X61393D01*
Y49330D01*
X61359D01*
Y49363D01*
X61326D01*
Y49397D01*
X61293D01*
Y49430D01*
X61226D01*
Y49463D01*
X61160D01*
Y49496D01*
X61027D01*
Y49530D01*
X60495D01*
Y49496D01*
X60362D01*
Y49463D01*
X60295D01*
Y49430D01*
X60229D01*
Y49397D01*
X60162D01*
Y49363D01*
X60129D01*
Y49330D01*
X60063D01*
Y49297D01*
X60029D01*
Y49264D01*
X59996D01*
Y49230D01*
X59963D01*
Y49197D01*
X59930D01*
Y49164D01*
X59896D01*
Y49131D01*
X59863D01*
Y49097D01*
X59830D01*
Y49031D01*
X59797D01*
Y48998D01*
X59763D01*
Y48931D01*
X59730D01*
Y48865D01*
X59697D01*
Y48798D01*
X59664D01*
Y48732D01*
X59630D01*
Y46870D01*
Y46836D01*
Y46105D01*
X59597D01*
Y46072D01*
X59198D01*
Y49829D01*
X59597D01*
Y49264D01*
X59664D01*
Y49297D01*
X59697D01*
Y49330D01*
X59730D01*
Y49397D01*
X59763D01*
Y49430D01*
X59797D01*
Y49463D01*
X59830D01*
Y49496D01*
X59863D01*
Y49530D01*
X59896D01*
Y49563D01*
X59930D01*
Y49596D01*
X59963D01*
Y49629D01*
X60029D01*
Y49663D01*
X60063D01*
Y49696D01*
X60129D01*
Y49729D01*
X60196D01*
Y49762D01*
X60229D01*
Y49796D01*
X60329D01*
Y49829D01*
X60428D01*
Y49862D01*
X60561D01*
Y49895D01*
X61160D01*
Y49862D01*
D02*
G37*
G36*
X64751D02*
X64884D01*
Y49829D01*
X65017D01*
Y49796D01*
X65083D01*
Y49762D01*
X65150D01*
Y49729D01*
X65216D01*
Y49696D01*
X65283D01*
Y49663D01*
X65316D01*
Y49629D01*
X65383D01*
Y49596D01*
X65416D01*
Y49563D01*
X65449D01*
Y49530D01*
X65482D01*
Y49496D01*
X65516D01*
Y49463D01*
X65549D01*
Y49430D01*
X65582D01*
Y49363D01*
X65615D01*
Y49330D01*
X65649D01*
Y49264D01*
X65682D01*
Y49197D01*
X65715D01*
Y49097D01*
X65748D01*
Y48931D01*
X65782D01*
Y48798D01*
X65748D01*
Y48765D01*
X65383D01*
Y48798D01*
X65349D01*
Y48964D01*
X65316D01*
Y49064D01*
X65283D01*
Y49131D01*
X65250D01*
Y49164D01*
X65216D01*
Y49197D01*
X65183D01*
Y49264D01*
X65150D01*
Y49297D01*
X65083D01*
Y49330D01*
X65050D01*
Y49363D01*
X65017D01*
Y49397D01*
X64950D01*
Y49430D01*
X64884D01*
Y49463D01*
X64817D01*
Y49496D01*
X64718D01*
Y49530D01*
X64518D01*
Y49563D01*
X64252D01*
Y49530D01*
X64053D01*
Y49496D01*
X63920D01*
Y49463D01*
X63853D01*
Y49430D01*
X63787D01*
Y49397D01*
X63753D01*
Y49363D01*
X63687D01*
Y49330D01*
X63654D01*
Y49297D01*
X63620D01*
Y49264D01*
X63587D01*
Y49230D01*
X63554D01*
Y49164D01*
X63521D01*
Y49097D01*
X63487D01*
Y48698D01*
X63521D01*
Y48632D01*
X63554D01*
Y48565D01*
X63587D01*
Y48532D01*
X63620D01*
Y48499D01*
X63654D01*
Y48466D01*
X63687D01*
Y48432D01*
X63753D01*
Y48399D01*
X63820D01*
Y48366D01*
X63886D01*
Y48333D01*
X63953D01*
Y48299D01*
X64053D01*
Y48266D01*
X64152D01*
Y48233D01*
X64285D01*
Y48200D01*
X64385D01*
Y48166D01*
X64551D01*
Y48133D01*
X64651D01*
Y48100D01*
X64784D01*
Y48067D01*
X64884D01*
Y48033D01*
X64984D01*
Y48000D01*
X65083D01*
Y47967D01*
X65150D01*
Y47934D01*
X65216D01*
Y47900D01*
X65283D01*
Y47867D01*
X65349D01*
Y47834D01*
X65383D01*
Y47801D01*
X65449D01*
Y47767D01*
X65482D01*
Y47734D01*
X65516D01*
Y47701D01*
X65549D01*
Y47668D01*
X65582D01*
Y47634D01*
X65615D01*
Y47601D01*
X65649D01*
Y47535D01*
X65682D01*
Y47501D01*
X65715D01*
Y47402D01*
X65748D01*
Y47302D01*
X65782D01*
Y46803D01*
X65748D01*
Y46703D01*
X65715D01*
Y46637D01*
X65682D01*
Y46570D01*
X65649D01*
Y46504D01*
X65615D01*
Y46471D01*
X65582D01*
Y46437D01*
X65549D01*
Y46404D01*
X65516D01*
Y46371D01*
X65482D01*
Y46338D01*
X65449D01*
Y46304D01*
X65416D01*
Y46271D01*
X65383D01*
Y46238D01*
X65316D01*
Y46205D01*
X65250D01*
Y46171D01*
X65183D01*
Y46138D01*
X65117D01*
Y46105D01*
X65017D01*
Y46072D01*
X64917D01*
Y46038D01*
X64718D01*
Y46005D01*
X64086D01*
Y46038D01*
X63886D01*
Y46072D01*
X63787D01*
Y46105D01*
X63687D01*
Y46138D01*
X63620D01*
Y46171D01*
X63554D01*
Y46205D01*
X63487D01*
Y46238D01*
X63421D01*
Y46271D01*
X63388D01*
Y46304D01*
X63321D01*
Y46338D01*
X63288D01*
Y46371D01*
X63255D01*
Y46404D01*
X63221D01*
Y46437D01*
X63188D01*
Y46471D01*
X63155D01*
Y46504D01*
X63122D01*
Y46570D01*
X63088D01*
Y46604D01*
X63055D01*
Y46670D01*
X63022D01*
Y46737D01*
X62989D01*
Y46836D01*
X62955D01*
Y46969D01*
X62922D01*
Y47102D01*
X62955D01*
Y47136D01*
X63321D01*
Y47102D01*
X63354D01*
Y46969D01*
X63388D01*
Y46870D01*
X63421D01*
Y46803D01*
X63454D01*
Y46737D01*
X63487D01*
Y46703D01*
X63521D01*
Y46670D01*
X63554D01*
Y46637D01*
X63587D01*
Y46604D01*
X63620D01*
Y46570D01*
X63654D01*
Y46537D01*
X63720D01*
Y46504D01*
X63787D01*
Y46471D01*
X63853D01*
Y46437D01*
X63920D01*
Y46404D01*
X64053D01*
Y46371D01*
X64319D01*
Y46338D01*
X64485D01*
Y46371D01*
X64751D01*
Y46404D01*
X64851D01*
Y46437D01*
X64950D01*
Y46471D01*
X65017D01*
Y46504D01*
X65083D01*
Y46537D01*
X65117D01*
Y46570D01*
X65150D01*
Y46604D01*
X65183D01*
Y46637D01*
X65216D01*
Y46670D01*
X65250D01*
Y46703D01*
X65283D01*
Y46737D01*
X65316D01*
Y46803D01*
X65349D01*
Y46936D01*
X65383D01*
Y47136D01*
X65349D01*
Y47269D01*
X65316D01*
Y47335D01*
X65283D01*
Y47368D01*
X65250D01*
Y47435D01*
X65216D01*
Y47468D01*
X65183D01*
Y47501D01*
X65150D01*
Y47535D01*
X65083D01*
Y47568D01*
X65050D01*
Y47601D01*
X64984D01*
Y47634D01*
X64917D01*
Y47668D01*
X64851D01*
Y47701D01*
X64751D01*
Y47734D01*
X64651D01*
Y47767D01*
X64518D01*
Y47801D01*
X64385D01*
Y47834D01*
X64252D01*
Y47867D01*
X64086D01*
Y47900D01*
X63986D01*
Y47934D01*
X63886D01*
Y47967D01*
X63787D01*
Y48000D01*
X63687D01*
Y48033D01*
X63620D01*
Y48067D01*
X63554D01*
Y48100D01*
X63487D01*
Y48133D01*
X63454D01*
Y48166D01*
X63388D01*
Y48200D01*
X63354D01*
Y48233D01*
X63321D01*
Y48266D01*
X63288D01*
Y48299D01*
X63255D01*
Y48333D01*
X63221D01*
Y48366D01*
X63188D01*
Y48432D01*
X63155D01*
Y48499D01*
X63122D01*
Y48565D01*
X63088D01*
Y48665D01*
X63055D01*
Y49064D01*
X63088D01*
Y49197D01*
X63122D01*
Y49264D01*
X63155D01*
Y49330D01*
X63188D01*
Y49397D01*
X63221D01*
Y49430D01*
X63255D01*
Y49463D01*
X63288D01*
Y49496D01*
X63321D01*
Y49530D01*
X63354D01*
Y49563D01*
X63388D01*
Y49596D01*
X63421D01*
Y49629D01*
X63454D01*
Y49663D01*
X63521D01*
Y49696D01*
X63554D01*
Y49729D01*
X63620D01*
Y49762D01*
X63687D01*
Y49796D01*
X63787D01*
Y49829D01*
X63886D01*
Y49862D01*
X64019D01*
Y49895D01*
X64751D01*
Y49862D01*
D02*
G37*
G36*
X39847D02*
X39980D01*
Y49829D01*
X40113D01*
Y49796D01*
X40179D01*
Y49762D01*
X40246D01*
Y49729D01*
X40312D01*
Y49696D01*
X40379D01*
Y49663D01*
X40412D01*
Y49629D01*
X40478D01*
Y49596D01*
X40512D01*
Y49563D01*
X40545D01*
Y49530D01*
X40578D01*
Y49496D01*
X40611D01*
Y49463D01*
X40644D01*
Y49430D01*
X40678D01*
Y49363D01*
X40711D01*
Y49330D01*
X40744D01*
Y49264D01*
X40778D01*
Y49197D01*
X40811D01*
Y49097D01*
X40844D01*
Y48931D01*
X40877D01*
Y48798D01*
X40844D01*
Y48765D01*
X40478D01*
Y48798D01*
X40445D01*
Y48964D01*
X40412D01*
Y49031D01*
X40379D01*
Y49131D01*
X40345D01*
Y49164D01*
X40312D01*
Y49197D01*
X40279D01*
Y49264D01*
X40246D01*
Y49297D01*
X40179D01*
Y49330D01*
X40146D01*
Y49363D01*
X40113D01*
Y49397D01*
X40046D01*
Y49430D01*
X39980D01*
Y49463D01*
X39913D01*
Y49496D01*
X39813D01*
Y49530D01*
X39581D01*
Y49563D01*
X39348D01*
Y49530D01*
X39148D01*
Y49496D01*
X39015D01*
Y49463D01*
X38949D01*
Y49430D01*
X38882D01*
Y49397D01*
X38849D01*
Y49363D01*
X38783D01*
Y49330D01*
X38749D01*
Y49297D01*
X38716D01*
Y49264D01*
X38683D01*
Y49230D01*
X38649D01*
Y49164D01*
X38616D01*
Y49097D01*
X38583D01*
Y48698D01*
X38616D01*
Y48632D01*
X38649D01*
Y48565D01*
X38683D01*
Y48532D01*
X38716D01*
Y48499D01*
X38749D01*
Y48466D01*
X38783D01*
Y48432D01*
X38849D01*
Y48399D01*
X38916D01*
Y48366D01*
X38982D01*
Y48333D01*
X39049D01*
Y48299D01*
X39148D01*
Y48266D01*
X39248D01*
Y48233D01*
X39348D01*
Y48200D01*
X39481D01*
Y48166D01*
X39647D01*
Y48133D01*
X39747D01*
Y48100D01*
X39880D01*
Y48067D01*
X39980D01*
Y48033D01*
X40079D01*
Y48000D01*
X40179D01*
Y47967D01*
X40246D01*
Y47934D01*
X40312D01*
Y47900D01*
X40379D01*
Y47867D01*
X40445D01*
Y47834D01*
X40478D01*
Y47801D01*
X40545D01*
Y47767D01*
X40578D01*
Y47734D01*
X40611D01*
Y47701D01*
X40644D01*
Y47668D01*
X40678D01*
Y47634D01*
X40711D01*
Y47601D01*
X40744D01*
Y47535D01*
X40778D01*
Y47501D01*
X40811D01*
Y47402D01*
X40844D01*
Y47302D01*
X40877D01*
Y46803D01*
X40844D01*
Y46703D01*
X40811D01*
Y46637D01*
X40778D01*
Y46570D01*
X40744D01*
Y46504D01*
X40711D01*
Y46471D01*
X40678D01*
Y46437D01*
X40644D01*
Y46404D01*
X40611D01*
Y46371D01*
X40578D01*
Y46338D01*
X40545D01*
Y46304D01*
X40512D01*
Y46271D01*
X40445D01*
Y46238D01*
X40412D01*
Y46205D01*
X40345D01*
Y46171D01*
X40279D01*
Y46138D01*
X40212D01*
Y46105D01*
X40113D01*
Y46072D01*
X40013D01*
Y46038D01*
X39813D01*
Y46005D01*
X39182D01*
Y46038D01*
X38982D01*
Y46072D01*
X38882D01*
Y46105D01*
X38783D01*
Y46138D01*
X38716D01*
Y46171D01*
X38649D01*
Y46205D01*
X38583D01*
Y46238D01*
X38517D01*
Y46271D01*
X38483D01*
Y46304D01*
X38417D01*
Y46338D01*
X38384D01*
Y46371D01*
X38350D01*
Y46404D01*
X38317D01*
Y46437D01*
X38284D01*
Y46471D01*
X38250D01*
Y46504D01*
X38217D01*
Y46570D01*
X38184D01*
Y46604D01*
X38151D01*
Y46670D01*
X38118D01*
Y46737D01*
X38084D01*
Y46803D01*
Y46836D01*
X38051D01*
Y46969D01*
X38018D01*
Y47102D01*
X38051D01*
Y47136D01*
X38417D01*
Y47102D01*
X38450D01*
Y46969D01*
X38483D01*
Y46870D01*
X38517D01*
Y46803D01*
X38550D01*
Y46737D01*
X38583D01*
Y46703D01*
X38616D01*
Y46670D01*
X38649D01*
Y46637D01*
X38683D01*
Y46604D01*
X38716D01*
Y46570D01*
X38749D01*
Y46537D01*
X38816D01*
Y46504D01*
X38849D01*
Y46471D01*
X38949D01*
Y46437D01*
X39015D01*
Y46404D01*
X39148D01*
Y46371D01*
X39414D01*
Y46338D01*
X39581D01*
Y46371D01*
X39847D01*
Y46404D01*
X39946D01*
Y46437D01*
X40046D01*
Y46471D01*
X40113D01*
Y46504D01*
X40179D01*
Y46537D01*
X40212D01*
Y46570D01*
X40246D01*
Y46604D01*
X40279D01*
Y46637D01*
X40312D01*
Y46670D01*
X40345D01*
Y46703D01*
X40379D01*
Y46737D01*
X40412D01*
Y46836D01*
X40445D01*
Y46936D01*
X40478D01*
Y47136D01*
X40445D01*
Y47269D01*
X40412D01*
Y47335D01*
X40379D01*
Y47368D01*
X40345D01*
Y47435D01*
X40312D01*
Y47468D01*
X40279D01*
Y47501D01*
X40212D01*
Y47535D01*
X40179D01*
Y47568D01*
X40146D01*
Y47601D01*
X40079D01*
Y47634D01*
X40013D01*
Y47668D01*
X39913D01*
Y47701D01*
X39847D01*
Y47734D01*
X39747D01*
Y47767D01*
X39614D01*
Y47801D01*
X39481D01*
Y47834D01*
X39315D01*
Y47867D01*
X39182D01*
Y47900D01*
X39082D01*
Y47934D01*
X38982D01*
Y47967D01*
X38882D01*
Y48000D01*
X38783D01*
Y48033D01*
X38716D01*
Y48067D01*
X38649D01*
Y48100D01*
X38583D01*
Y48133D01*
X38550D01*
Y48166D01*
X38483D01*
Y48200D01*
X38450D01*
Y48233D01*
X38417D01*
Y48266D01*
X38384D01*
Y48299D01*
X38350D01*
Y48333D01*
X38317D01*
Y48366D01*
X38284D01*
Y48432D01*
X38250D01*
Y48499D01*
X38217D01*
Y48565D01*
X38184D01*
Y48665D01*
X38151D01*
Y49064D01*
X38184D01*
Y49197D01*
X38217D01*
Y49264D01*
X38250D01*
Y49330D01*
X38284D01*
Y49397D01*
X38317D01*
Y49430D01*
X38350D01*
Y49463D01*
X38384D01*
Y49496D01*
X38417D01*
Y49530D01*
X38450D01*
Y49563D01*
X38483D01*
Y49596D01*
X38517D01*
Y49629D01*
X38550D01*
Y49663D01*
X38616D01*
Y49696D01*
X38649D01*
Y49729D01*
X38716D01*
Y49762D01*
X38783D01*
Y49796D01*
X38882D01*
Y49829D01*
X38982D01*
Y49862D01*
X39115D01*
Y49895D01*
X39847D01*
Y49862D01*
D02*
G37*
G36*
X50254Y49530D02*
Y49496D01*
Y46072D01*
X49855D01*
Y46105D01*
X49822D01*
Y46504D01*
X49788D01*
Y46471D01*
X49755D01*
Y46437D01*
X49722D01*
Y46404D01*
X49689D01*
Y46371D01*
X49655D01*
Y46338D01*
X49622D01*
Y46304D01*
X49589D01*
Y46271D01*
X49556D01*
Y46238D01*
X49489D01*
Y46205D01*
X49456D01*
Y46171D01*
X49389D01*
Y46138D01*
X49323D01*
Y46105D01*
X49223D01*
Y46072D01*
X49123D01*
Y46038D01*
X48957D01*
Y46005D01*
X48359D01*
Y46038D01*
X48192D01*
Y46072D01*
X48093D01*
Y46105D01*
X48026D01*
Y46138D01*
X47960D01*
Y46171D01*
X47893D01*
Y46205D01*
X47860D01*
Y46238D01*
X47827D01*
Y46271D01*
X47760D01*
Y46304D01*
X47727D01*
Y46371D01*
X47694D01*
Y46404D01*
X47660D01*
Y46437D01*
X47627D01*
Y46504D01*
X47594D01*
Y46537D01*
X47561D01*
Y46604D01*
X47527D01*
Y46703D01*
X47494D01*
Y46803D01*
X47461D01*
Y46903D01*
X47428D01*
Y47136D01*
X47394D01*
Y49829D01*
X47793D01*
Y49796D01*
X47827D01*
Y47069D01*
X47860D01*
Y46936D01*
X47893D01*
Y46836D01*
X47926D01*
Y46770D01*
X47960D01*
Y46703D01*
X47993D01*
Y46670D01*
X48026D01*
Y46604D01*
X48059D01*
Y46570D01*
X48093D01*
Y46537D01*
X48159D01*
Y46504D01*
X48192D01*
Y46471D01*
X48259D01*
Y46437D01*
X48325D01*
Y46404D01*
X48458D01*
Y46371D01*
X48990D01*
Y46404D01*
X49123D01*
Y46437D01*
X49223D01*
Y46471D01*
X49290D01*
Y46504D01*
X49356D01*
Y46537D01*
X49423D01*
Y46570D01*
X49456D01*
Y46604D01*
X49522D01*
Y46637D01*
X49556D01*
Y46670D01*
X49589D01*
Y46703D01*
X49622D01*
Y46770D01*
X49655D01*
Y46803D01*
X49689D01*
Y46836D01*
X49722D01*
Y46903D01*
X49755D01*
Y46969D01*
X49788D01*
Y47069D01*
X49822D01*
Y49829D01*
X50254D01*
Y49530D01*
D02*
G37*
G36*
X54078Y46072D02*
X53679D01*
Y46105D01*
X53645D01*
Y46371D01*
Y46404D01*
Y49829D01*
X54078D01*
Y46072D01*
D02*
G37*
G36*
X46264Y51392D02*
X46297D01*
Y46437D01*
Y46404D01*
Y46105D01*
X46264D01*
Y46072D01*
X45865D01*
Y51425D01*
X46264D01*
Y51392D01*
D02*
G37*
G36*
X57004Y49862D02*
X57137D01*
Y49829D01*
X57236D01*
Y49796D01*
X57336D01*
Y49762D01*
X57403D01*
Y49729D01*
X57469D01*
Y49696D01*
X57536D01*
Y49663D01*
X57569D01*
Y49629D01*
X57635D01*
Y49596D01*
X57669D01*
Y49563D01*
X57702D01*
Y49530D01*
X57735D01*
Y49496D01*
X57768D01*
Y49463D01*
X57802D01*
Y49430D01*
X57835D01*
Y49397D01*
X57868D01*
Y49363D01*
X57901D01*
Y49330D01*
X57935D01*
Y49297D01*
X57968D01*
Y49230D01*
X58001D01*
Y49197D01*
X58034D01*
Y49164D01*
X58068D01*
Y49097D01*
X58101D01*
Y49031D01*
X58134D01*
Y48964D01*
X58167D01*
Y48898D01*
X58201D01*
Y48798D01*
X58234D01*
Y48698D01*
X58267D01*
Y48565D01*
X58300D01*
Y48366D01*
X58334D01*
Y47535D01*
X58300D01*
Y47335D01*
X58267D01*
Y47202D01*
X58234D01*
Y47136D01*
X58201D01*
Y47036D01*
X58167D01*
Y46936D01*
X58134D01*
Y46870D01*
X58101D01*
Y46803D01*
X58068D01*
Y46770D01*
X58034D01*
Y46703D01*
X58001D01*
Y46670D01*
X57968D01*
Y46604D01*
X57935D01*
Y46570D01*
X57901D01*
Y46537D01*
X57868D01*
Y46504D01*
X57835D01*
Y46471D01*
X57802D01*
Y46437D01*
X57768D01*
Y46404D01*
X57735D01*
Y46371D01*
X57702D01*
Y46338D01*
X57669D01*
Y46304D01*
X57602D01*
Y46271D01*
X57569D01*
Y46238D01*
X57502D01*
Y46205D01*
X57469D01*
Y46171D01*
X57403D01*
Y46138D01*
X57303D01*
Y46105D01*
X57236D01*
Y46072D01*
X57103D01*
Y46038D01*
X56937D01*
Y46005D01*
X56372D01*
Y46038D01*
X56206D01*
Y46072D01*
X56106D01*
Y46105D01*
X56006D01*
Y46138D01*
X55940D01*
Y46171D01*
X55873D01*
Y46205D01*
X55807D01*
Y46238D01*
X55773D01*
Y46271D01*
X55707D01*
Y46304D01*
X55674D01*
Y46338D01*
X55640D01*
Y46371D01*
X55574D01*
Y46404D01*
X55541D01*
Y46437D01*
X55507D01*
Y46471D01*
X55474D01*
Y46504D01*
X55441D01*
Y46570D01*
X55408D01*
Y46604D01*
X55374D01*
Y46637D01*
X55341D01*
Y46670D01*
X55308D01*
Y46737D01*
X55275D01*
Y46770D01*
X55241D01*
Y46836D01*
X55208D01*
Y46903D01*
X55175D01*
Y46969D01*
X55142D01*
Y47069D01*
X55108D01*
Y47169D01*
X55075D01*
Y47269D01*
X55042D01*
Y47402D01*
X55009D01*
Y47634D01*
X54975D01*
Y48299D01*
X55009D01*
Y48499D01*
X55042D01*
Y48632D01*
X55075D01*
Y48765D01*
X55108D01*
Y48831D01*
X55142D01*
Y48931D01*
X55175D01*
Y48998D01*
X55208D01*
Y49064D01*
X55241D01*
Y49131D01*
X55275D01*
Y49164D01*
X55308D01*
Y49230D01*
X55341D01*
Y49264D01*
X55374D01*
Y49330D01*
X55408D01*
Y49363D01*
X55441D01*
Y49397D01*
X55474D01*
Y49430D01*
X55507D01*
Y49463D01*
X55541D01*
Y49496D01*
X55574D01*
Y49530D01*
X55607D01*
Y49563D01*
X55674D01*
Y49596D01*
X55707D01*
Y49629D01*
X55740D01*
Y49663D01*
X55807D01*
Y49696D01*
X55873D01*
Y49729D01*
X55940D01*
Y49762D01*
X56006D01*
Y49796D01*
X56073D01*
Y49829D01*
X56206D01*
Y49862D01*
X56339D01*
Y49895D01*
X57004D01*
Y49862D01*
D02*
G37*
G36*
X51983Y49829D02*
X52748D01*
Y49496D01*
X51983D01*
Y46703D01*
X52016D01*
Y46604D01*
X52049D01*
Y46537D01*
X52083D01*
Y46504D01*
X52116D01*
Y46471D01*
X52149D01*
Y46437D01*
X52216D01*
Y46404D01*
X52282D01*
Y46371D01*
X52714D01*
Y46404D01*
X52781D01*
Y46371D01*
X52814D01*
Y46038D01*
X52681D01*
Y46005D01*
X52149D01*
Y46038D01*
X52016D01*
Y46072D01*
X51950D01*
Y46105D01*
X51883D01*
Y46138D01*
X51850D01*
Y46171D01*
X51817D01*
Y46205D01*
X51783D01*
Y46238D01*
X51750D01*
Y46271D01*
X51717D01*
Y46304D01*
X51684D01*
Y46371D01*
X51650D01*
Y46437D01*
X51617D01*
Y46570D01*
X51584D01*
Y46737D01*
X51551D01*
Y49496D01*
X50852D01*
Y49829D01*
X51551D01*
Y50793D01*
X51983D01*
Y49829D01*
D02*
G37*
G36*
X43604Y49862D02*
X43770D01*
Y49829D01*
X43870D01*
Y49796D01*
X43936D01*
Y49762D01*
X44003D01*
Y49729D01*
X44069D01*
Y49696D01*
X44136D01*
Y49663D01*
X44202D01*
Y49629D01*
X44236D01*
Y49596D01*
X44269D01*
Y49563D01*
X44335D01*
Y49530D01*
X44369D01*
Y49496D01*
X44402D01*
Y49463D01*
X44435D01*
Y49430D01*
X44468D01*
Y49397D01*
X44502D01*
Y49363D01*
X44535D01*
Y49297D01*
X44568D01*
Y49264D01*
X44601D01*
Y49230D01*
X44635D01*
Y49164D01*
X44668D01*
Y49097D01*
X44701D01*
Y49064D01*
X44734D01*
Y48998D01*
X44768D01*
Y48898D01*
X44801D01*
Y48831D01*
X44834D01*
Y48732D01*
X44867D01*
Y48599D01*
X44901D01*
Y48466D01*
X44934D01*
Y48133D01*
X44967D01*
Y47734D01*
X44934D01*
Y47435D01*
X44901D01*
Y47302D01*
X44867D01*
Y47169D01*
X44834D01*
Y47069D01*
X44801D01*
Y47003D01*
X44768D01*
Y46936D01*
X44734D01*
Y46870D01*
X44701D01*
Y46803D01*
X44668D01*
Y46737D01*
X44635D01*
Y46703D01*
X44601D01*
Y46637D01*
X44568D01*
Y46604D01*
X44535D01*
Y46570D01*
X44502D01*
Y46504D01*
X44468D01*
Y46471D01*
X44435D01*
Y46437D01*
X44402D01*
Y46404D01*
X44369D01*
Y46371D01*
X44302D01*
Y46338D01*
X44269D01*
Y46304D01*
X44236D01*
Y46271D01*
X44169D01*
Y46238D01*
X44136D01*
Y46205D01*
X44069D01*
Y46171D01*
X44003D01*
Y46138D01*
X43936D01*
Y46105D01*
X43837D01*
Y46072D01*
X43737D01*
Y46038D01*
X43571D01*
Y46005D01*
X42972D01*
Y46038D01*
X42806D01*
Y46072D01*
X42706D01*
Y46105D01*
X42640D01*
Y46138D01*
X42540D01*
Y46171D01*
X42473D01*
Y46205D01*
X42440D01*
Y46238D01*
X42374D01*
Y46271D01*
X42307D01*
Y46304D01*
X42274D01*
Y46338D01*
X42241D01*
Y46371D01*
X42207D01*
Y46404D01*
X42174D01*
Y46437D01*
X42141D01*
Y46471D01*
X42107D01*
Y46504D01*
X42074D01*
Y46537D01*
X42041D01*
Y46570D01*
X42008D01*
Y46604D01*
X41974D01*
Y46670D01*
X41941D01*
Y46703D01*
X41908D01*
Y46737D01*
X41875D01*
Y46803D01*
X41842D01*
Y46870D01*
X41808D01*
Y46936D01*
X41775D01*
Y47003D01*
X41742D01*
Y47102D01*
X41709D01*
Y47202D01*
X41675D01*
Y47302D01*
X41642D01*
Y47468D01*
X41609D01*
Y47867D01*
X41576D01*
Y48067D01*
X41609D01*
Y48432D01*
X41642D01*
Y48599D01*
X41675D01*
Y48698D01*
X41709D01*
Y48798D01*
X41742D01*
Y48898D01*
X41775D01*
Y48964D01*
X41808D01*
Y49031D01*
X41842D01*
Y49097D01*
X41875D01*
Y49164D01*
X41908D01*
Y49197D01*
X41941D01*
Y49264D01*
X41974D01*
Y49297D01*
X42008D01*
Y49330D01*
X42041D01*
Y49363D01*
X42074D01*
Y49430D01*
X42107D01*
Y49463D01*
X42141D01*
Y49496D01*
X42207D01*
Y49530D01*
X42241D01*
Y49563D01*
X42274D01*
Y49596D01*
X42307D01*
Y49629D01*
X42374D01*
Y49663D01*
X42407D01*
Y49696D01*
X42473D01*
Y49729D01*
X42540D01*
Y49762D01*
X42606D01*
Y49796D01*
X42706D01*
Y49829D01*
X42806D01*
Y49862D01*
X42939D01*
Y49895D01*
X43604D01*
Y49862D01*
D02*
G37*
G36*
X35260Y36992D02*
X35250Y37087D01*
X35220Y37172D01*
X35169Y37247D01*
X35098Y37312D01*
X35007Y37367D01*
X34896Y37412D01*
X34764Y37447D01*
X34613Y37472D01*
X34440Y37487D01*
X34248Y37492D01*
Y38492D01*
X34440Y38497D01*
X34613Y38512D01*
X34764Y38537D01*
X34896Y38572D01*
X35007Y38617D01*
X35098Y38672D01*
X35169Y38737D01*
X35220Y38812D01*
X35250Y38897D01*
X35260Y38992D01*
Y36992D01*
D02*
G37*
G36*
X25353Y37372D02*
X26294Y37585D01*
X26113Y37519D01*
X25952Y37408D01*
X25810Y37251D01*
X25686Y37048D01*
X25582Y36800D01*
X25496Y36505D01*
X25490Y36472D01*
X25502Y36427D01*
X25591Y36209D01*
X25699Y36031D01*
X25827Y35892D01*
X25974Y35793D01*
X26142Y35733D01*
X26329Y35712D01*
X25378Y35716D01*
X25354Y35349D01*
X25344Y34873D01*
X23376Y34752D01*
X23366Y35162D01*
X23338Y35525D01*
X23290Y35840D01*
X23223Y36108D01*
X23136Y36327D01*
X23031Y36498D01*
X22906Y36622D01*
X22762Y36698D01*
X22599Y36727D01*
X22417Y36707D01*
X23372Y36923D01*
X23376Y37693D01*
X25344D01*
X25353Y37372D01*
D02*
G37*
G36*
X43327Y37520D02*
X43386Y37185D01*
X43484Y36890D01*
X43622Y36634D01*
X43799Y36417D01*
X44016Y36240D01*
X44272Y36102D01*
X44567Y36004D01*
X44902Y35945D01*
X45276Y35925D01*
Y33957D01*
X44902Y33937D01*
X44567Y33878D01*
X44272Y33779D01*
X44016Y33642D01*
X43799Y33465D01*
X43622Y33248D01*
X43484Y32992D01*
X43386Y32697D01*
X43327Y32362D01*
X43307Y31988D01*
X42200Y33649D01*
X41154D01*
X41189Y33662D01*
X41220Y33701D01*
X41248Y33766D01*
X41272Y33856D01*
X41292Y33972D01*
X41309Y34114D01*
X41331Y34476D01*
X41339Y34941D01*
X41337Y35186D01*
X41292Y35910D01*
X41272Y36026D01*
X41248Y36116D01*
X41220Y36181D01*
X41189Y36220D01*
X41154Y36233D01*
X42200D01*
X43307Y37894D01*
X43327Y37520D01*
D02*
G37*
G36*
X96308Y31914D02*
X96231Y31969D01*
X96140Y31996D01*
X96035Y31995D01*
X95915Y31966D01*
X95781Y31908D01*
X95632Y31822D01*
X95469Y31707D01*
X95292Y31565D01*
X94894Y31195D01*
X94187Y31902D01*
X94386Y32108D01*
X94700Y32477D01*
X94814Y32640D01*
X94900Y32789D01*
X94958Y32923D01*
X94987Y33043D01*
X94988Y33148D01*
X94961Y33239D01*
X94906Y33316D01*
X96308Y31914D01*
D02*
G37*
G36*
X23319Y30236D02*
X23311Y30234D01*
X23286Y30232D01*
X23109Y30227D01*
X22479Y30224D01*
Y31799D01*
X22638Y31800D01*
X23311Y31842D01*
X23319Y31852D01*
Y30236D01*
D02*
G37*
G36*
X102688Y30269D02*
X102553Y30268D01*
X102019Y30232D01*
X101975Y30220D01*
X101944Y30207D01*
X101926Y30193D01*
X101715Y31833D01*
X102411Y31844D01*
X102688Y30269D01*
D02*
G37*
G36*
X36662Y30142D02*
X36586Y30198D01*
X36495Y30225D01*
X36389Y30223D01*
X36269Y30194D01*
X36135Y30136D01*
X35987Y30050D01*
X35824Y29936D01*
X35646Y29793D01*
X35259Y29433D01*
X35181Y29354D01*
X34579Y28677D01*
X34524Y28598D01*
X34481Y28529D01*
X34451Y28469D01*
X33864Y30008D01*
X33941Y29979D01*
X34018Y29963D01*
X34098Y29959D01*
X34179Y29967D01*
X34261Y29989D01*
X34344Y30022D01*
X34429Y30068D01*
X34516Y30127D01*
X34604Y30198D01*
X34639Y30231D01*
X34740Y30336D01*
X35054Y30705D01*
X35168Y30868D01*
X35254Y31017D01*
X35312Y31151D01*
X35342Y31271D01*
X35343Y31376D01*
X35316Y31468D01*
X35260Y31544D01*
X36662Y30142D01*
D02*
G37*
G36*
X109557Y29922D02*
X109445Y29988D01*
X109316Y30047D01*
X109172Y30099D01*
X109011Y30144D01*
X108833Y30182D01*
X108429Y30237D01*
X108203Y30255D01*
X107701Y30269D01*
X107680Y31844D01*
X107996Y31851D01*
X108278Y31875D01*
X108525Y31914D01*
X108736Y31969D01*
X108912Y32040D01*
X109053Y32127D01*
X109159Y32229D01*
X109230Y32348D01*
X109266Y32481D01*
X109267Y32631D01*
X109557Y29922D01*
D02*
G37*
G36*
X84566Y29541D02*
X84481Y29511D01*
X84406Y29460D01*
X84341Y29390D01*
X84286Y29299D01*
X84241Y29187D01*
X84206Y29056D01*
X84181Y28904D01*
X84166Y28732D01*
X84161Y28540D01*
X83161D01*
X83156Y28732D01*
X83141Y28904D01*
X83116Y29056D01*
X83081Y29187D01*
X83036Y29299D01*
X82981Y29390D01*
X82916Y29460D01*
X82841Y29511D01*
X82756Y29541D01*
X82661Y29552D01*
X84661D01*
X84566Y29541D01*
D02*
G37*
G36*
X78464D02*
X78379Y29511D01*
X78304Y29460D01*
X78239Y29390D01*
X78184Y29299D01*
X78139Y29187D01*
X78104Y29056D01*
X78079Y28904D01*
X78064Y28732D01*
X78059Y28540D01*
X77059D01*
X77054Y28732D01*
X77039Y28904D01*
X77014Y29056D01*
X76979Y29187D01*
X76934Y29299D01*
X76879Y29390D01*
X76814Y29460D01*
X76739Y29511D01*
X76654Y29541D01*
X76559Y29552D01*
X78559D01*
X78464Y29541D01*
D02*
G37*
G36*
X84165Y27938D02*
X84175Y27824D01*
X84191Y27716D01*
X84214Y27613D01*
X84243Y27517D01*
X84279Y27426D01*
X84321Y27342D01*
X84371Y27263D01*
X84426Y27190D01*
X84488Y27123D01*
X82835D01*
X82897Y27190D01*
X82952Y27263D01*
X83001Y27342D01*
X83044Y27426D01*
X83080Y27517D01*
X83109Y27613D01*
X83132Y27716D01*
X83148Y27824D01*
X83158Y27938D01*
X83161Y28058D01*
X84161D01*
X84165Y27938D01*
D02*
G37*
G36*
X49598Y27040D02*
X49449Y26890D01*
X48918Y26288D01*
X48890Y26238D01*
X48879Y26202D01*
X48885Y26180D01*
X48024Y27029D01*
X48046Y27023D01*
X48082Y27034D01*
X48133Y27062D01*
X48198Y27108D01*
X48278Y27172D01*
X48602Y27465D01*
X48891Y27747D01*
X49598Y27040D01*
D02*
G37*
G36*
X98423Y28070D02*
X98453Y27985D01*
X98503Y27910D01*
X98573Y27845D01*
X98663Y27790D01*
X98773Y27745D01*
X98903Y27710D01*
X99053Y27685D01*
X99223Y27670D01*
X99413Y27665D01*
Y26665D01*
X99223Y26660D01*
X99053Y26645D01*
X98903Y26620D01*
X98773Y26585D01*
X98663Y26540D01*
X98573Y26485D01*
X98503Y26420D01*
X98453Y26345D01*
X98423Y26260D01*
X98413Y26165D01*
Y28165D01*
X98423Y28070D01*
D02*
G37*
G36*
X29014Y27245D02*
X29044Y27231D01*
X29094Y27220D01*
X29164Y27209D01*
X29364Y27194D01*
X30004Y27181D01*
Y26181D01*
X29814Y26180D01*
X29044Y26131D01*
X29014Y26118D01*
X29004Y26103D01*
Y27260D01*
X29014Y27245D01*
D02*
G37*
G36*
X78064Y26781D02*
X78079Y26609D01*
X78104Y26458D01*
X78139Y26326D01*
X78184Y26215D01*
X78239Y26124D01*
X78304Y26053D01*
X78379Y26002D01*
X78464Y25971D01*
X78559Y25960D01*
X76981Y25972D01*
X76995Y25982D01*
X77009Y26012D01*
X77021Y26062D01*
X77031Y26132D01*
X77047Y26332D01*
X77059Y26972D01*
X78059D01*
X78064Y26781D01*
D02*
G37*
G36*
X107155Y26726D02*
X107243Y26652D01*
X107331Y26587D01*
X107420Y26531D01*
X107509Y26483D01*
X107598Y26445D01*
X107688Y26415D01*
X107779Y26394D01*
X107869Y26381D01*
X107961Y26378D01*
X106791Y25209D01*
X106788Y25300D01*
X106776Y25391D01*
X106755Y25481D01*
X106725Y25571D01*
X106686Y25660D01*
X106639Y25749D01*
X106582Y25838D01*
X106518Y25926D01*
X106444Y26014D01*
X106361Y26101D01*
X107068Y26808D01*
X107155Y26726D01*
D02*
G37*
G36*
X34310Y24893D02*
X34299Y24986D01*
X34268Y25070D01*
X34216Y25144D01*
X34143Y25208D01*
X34049Y25262D01*
X33934Y25307D01*
X33798Y25341D01*
X33641Y25366D01*
X33463Y25381D01*
X33265Y25386D01*
Y26386D01*
X33463Y26391D01*
X33641Y26406D01*
X33798Y26430D01*
X33934Y26465D01*
X34049Y26509D01*
X34143Y26563D01*
X34216Y26628D01*
X34268Y26702D01*
X34299Y26785D01*
X34310Y26879D01*
Y24893D01*
D02*
G37*
G36*
X59264Y24815D02*
X59254Y24805D01*
X59224Y24797D01*
X59174Y24789D01*
X59104Y24782D01*
X58774Y24768D01*
X58264Y24764D01*
Y25764D01*
X58454Y25766D01*
X58904Y25797D01*
X59014Y25816D01*
X59104Y25839D01*
X59174Y25866D01*
X59224Y25897D01*
X59254Y25933D01*
X59264Y25972D01*
Y24815D01*
D02*
G37*
G36*
X29014Y25276D02*
X29044Y25263D01*
X29094Y25251D01*
X29164Y25241D01*
X29364Y25225D01*
X30004Y25213D01*
Y24213D01*
X29814Y24212D01*
X29044Y24162D01*
X29014Y24149D01*
X29004Y24134D01*
Y25291D01*
X29014Y25276D01*
D02*
G37*
G36*
X80904Y23989D02*
X80933Y23976D01*
X80984Y23964D01*
X81054Y23954D01*
X81253Y23938D01*
X81893Y23925D01*
Y22925D01*
X81704Y22924D01*
X80933Y22875D01*
X80904Y22862D01*
X80893Y22847D01*
Y24004D01*
X80904Y23989D01*
D02*
G37*
G36*
X65101Y20630D02*
X65034Y20692D01*
X64961Y20748D01*
X64883Y20797D01*
X64798Y20839D01*
X64707Y20875D01*
X64611Y20904D01*
X64509Y20927D01*
X64400Y20944D01*
X64286Y20953D01*
X64168Y20957D01*
X63987Y20956D01*
X63217Y20906D01*
X63187Y20893D01*
X63177Y20878D01*
Y22035D01*
X63187Y22020D01*
X63217Y22007D01*
X63267Y21995D01*
X63337Y21985D01*
X63537Y21969D01*
X64171Y21957D01*
X64286Y21960D01*
X64400Y21970D01*
X64509Y21986D01*
X64611Y22009D01*
X64707Y22038D01*
X64798Y22074D01*
X64883Y22117D01*
X64961Y22166D01*
X65034Y22221D01*
X65101Y22284D01*
Y20630D01*
D02*
G37*
G36*
X109267Y21244D02*
X109256Y21339D01*
X109226Y21424D01*
X109176Y21499D01*
X109105Y21564D01*
X109014Y21619D01*
X108902Y21664D01*
X108771Y21699D01*
X108619Y21724D01*
X108447Y21739D01*
X108255Y21744D01*
Y22744D01*
X108447Y22749D01*
X108619Y22764D01*
X108771Y22789D01*
X108902Y22824D01*
X109014Y22869D01*
X109105Y22924D01*
X109176Y22989D01*
X109226Y23064D01*
X109256Y23149D01*
X109267Y23244D01*
Y21244D01*
D02*
G37*
G36*
X98411Y23149D02*
X98442Y23064D01*
X98492Y22989D01*
X98563Y22924D01*
X98654Y22869D01*
X98765Y22824D01*
X98897Y22789D01*
X99049Y22764D01*
X99221Y22749D01*
X99413Y22744D01*
Y21744D01*
X99221Y21739D01*
X99049Y21724D01*
X98897Y21699D01*
X98765Y21664D01*
X98654Y21619D01*
X98563Y21564D01*
X98492Y21499D01*
X98442Y21424D01*
X98411Y21339D01*
X98401Y21244D01*
Y23244D01*
X98411Y23149D01*
D02*
G37*
G36*
X48769Y23260D02*
X48851Y23243D01*
X48966Y23228D01*
X49301Y23204D01*
X50738Y23179D01*
Y21211D01*
X50409Y21209D01*
X49028Y21113D01*
X48898Y21084D01*
X48796Y21050D01*
X48722Y21012D01*
Y23279D01*
X48769Y23260D01*
D02*
G37*
G36*
X80904Y22020D02*
X80933Y22007D01*
X80984Y21995D01*
X81054Y21985D01*
X81253Y21969D01*
X81893Y21957D01*
Y20957D01*
X81704Y20956D01*
X80933Y20906D01*
X80904Y20893D01*
X80893Y20878D01*
Y22035D01*
X80904Y22020D01*
D02*
G37*
G36*
X29014Y19371D02*
X29044Y19357D01*
X29094Y19346D01*
X29164Y19335D01*
X29364Y19320D01*
X30004Y19307D01*
Y18307D01*
X29814Y18306D01*
X29044Y18257D01*
X29014Y18244D01*
X29004Y18228D01*
Y19386D01*
X29014Y19371D01*
D02*
G37*
G36*
X34277Y17807D02*
X34275Y17902D01*
X34251Y17987D01*
X34205Y18062D01*
X34137Y18127D01*
X34047Y18182D01*
X33935Y18227D01*
X33801Y18262D01*
X33644Y18287D01*
X33466Y18302D01*
X33265Y18307D01*
X33271Y19307D01*
X33431Y19309D01*
X33853Y19344D01*
X33974Y19365D01*
X34086Y19390D01*
X34189Y19421D01*
X34282Y19455D01*
X34366Y19495D01*
X34440Y19539D01*
X34277Y17807D01*
D02*
G37*
G36*
X48869Y19408D02*
X48936Y19345D01*
X49015Y19290D01*
X49105Y19243D01*
X49207Y19202D01*
X49322Y19169D01*
X49448Y19144D01*
X49586Y19125D01*
X49736Y19114D01*
X49897Y19111D01*
Y18111D01*
X49702Y18106D01*
X49527Y18091D01*
X49373Y18066D01*
X49241Y18031D01*
X49129Y17986D01*
X49038Y17931D01*
X48968Y17866D01*
X48920Y17791D01*
X48892Y17706D01*
X48885Y17611D01*
X48814Y19477D01*
X48869Y19408D01*
D02*
G37*
G36*
X80904Y18093D02*
X80933Y18088D01*
X80984Y18083D01*
X81384Y18071D01*
X81893Y18069D01*
Y17069D01*
X81704Y17068D01*
X81054Y17023D01*
X80984Y17006D01*
X80933Y16987D01*
X80904Y16965D01*
X80893Y16941D01*
Y18098D01*
X80904Y18093D01*
D02*
G37*
G36*
X90038Y16757D02*
X89969Y16816D01*
X89894Y16869D01*
X89813Y16916D01*
X89727Y16957D01*
X89635Y16991D01*
X89538Y17019D01*
X89435Y17041D01*
X89326Y17056D01*
X89212Y17066D01*
X89092Y17069D01*
X89046Y18069D01*
X89166Y18072D01*
X89280Y18082D01*
X89388Y18100D01*
X89490Y18123D01*
X89585Y18154D01*
X89674Y18191D01*
X89757Y18236D01*
X89834Y18287D01*
X89905Y18344D01*
X89969Y18409D01*
X90038Y16757D01*
D02*
G37*
G36*
X95099Y18017D02*
X95467Y17706D01*
X95629Y17593D01*
X95778Y17508D01*
X95912Y17451D01*
X96032Y17423D01*
X96138D01*
X96230Y17451D01*
X96308Y17508D01*
X94894Y16093D01*
X94950Y16171D01*
X94979Y16263D01*
Y16369D01*
X94950Y16489D01*
X94894Y16624D01*
X94809Y16772D01*
X94696Y16935D01*
X94555Y17112D01*
X94187Y17508D01*
X94894Y18215D01*
X95099Y18017D01*
D02*
G37*
G36*
X32783Y14435D02*
X32741Y14445D01*
X32679Y14454D01*
X32491Y14469D01*
X31653Y14488D01*
X31422Y14488D01*
X31281Y15488D01*
X31404Y15492D01*
X31517Y15504D01*
X31618Y15523D01*
X31710Y15550D01*
X31790Y15585D01*
X31860Y15628D01*
X31919Y15678D01*
X31968Y15736D01*
X32006Y15802D01*
X32034Y15876D01*
X32783Y14435D01*
D02*
G37*
G36*
X30004Y14488D02*
X29814Y14486D01*
X29364Y14457D01*
X29254Y14439D01*
X29164Y14417D01*
X29094Y14392D01*
X29044Y14362D01*
X29014Y14329D01*
X29004Y14291D01*
Y15449D01*
X29014Y15456D01*
X29044Y15463D01*
X29094Y15469D01*
X29254Y15478D01*
X30004Y15488D01*
Y14488D01*
D02*
G37*
G36*
X73850Y14928D02*
X73893Y14344D01*
X73926Y14218D01*
X73971Y14107D01*
X74026Y14016D01*
X74091Y13945D01*
X74166Y13894D01*
X74251Y13864D01*
X74347Y13854D01*
X73929D01*
X73967Y13341D01*
X74011Y13139D01*
X74061Y12975D01*
X74118Y12850D01*
X74182Y12764D01*
X72511D01*
X72575Y12850D01*
X72632Y12975D01*
X72682Y13139D01*
X72726Y13341D01*
X72763Y13581D01*
X72787Y13854D01*
X72347D01*
X72441Y13864D01*
X72526Y13894D01*
X72601Y13945D01*
X72666Y14016D01*
X72721Y14107D01*
X72766Y14218D01*
X72801Y14350D01*
X72826Y14502D01*
X72829Y14528D01*
X72843Y14928D01*
X72847Y15361D01*
X73847D01*
X73850Y14928D01*
D02*
G37*
G36*
X65477Y11205D02*
X65467Y11300D01*
X65436Y11385D01*
X65386Y11460D01*
X65315Y11525D01*
X65224Y11580D01*
X65112Y11625D01*
X64981Y11660D01*
X64829Y11685D01*
X64657Y11700D01*
X64571Y11702D01*
X64552Y11701D01*
X64438Y11692D01*
X64330Y11675D01*
X64228Y11652D01*
X64131Y11623D01*
X64040Y11587D01*
X63956Y11545D01*
X63877Y11496D01*
X63804Y11440D01*
X63737Y11378D01*
Y13032D01*
X63804Y12969D01*
X63877Y12914D01*
X63956Y12865D01*
X64040Y12822D01*
X64131Y12786D01*
X64228Y12757D01*
X64330Y12734D01*
X64438Y12718D01*
X64552Y12708D01*
X64571Y12708D01*
X64657Y12710D01*
X64829Y12725D01*
X64981Y12750D01*
X65112Y12785D01*
X65224Y12830D01*
X65315Y12885D01*
X65386Y12950D01*
X65436Y13025D01*
X65467Y13110D01*
X65477Y13205D01*
Y11205D01*
D02*
G37*
G36*
X42543Y15209D02*
X42614Y14807D01*
X42732Y14453D01*
X42898Y14146D01*
X43110Y13886D01*
X43370Y13673D01*
X43677Y13508D01*
X44032Y13390D01*
X44433Y13319D01*
X44882Y13295D01*
X44882Y13295D01*
X44882D01*
X41339Y10933D01*
X37795Y13295D01*
X37795D01*
X37795Y13295D01*
X38244Y13319D01*
X38646Y13390D01*
X39000Y13508D01*
X39307Y13673D01*
X39567Y13886D01*
X39779Y14146D01*
X39945Y14453D01*
X40024Y14689D01*
X40063Y14807D01*
X40075Y14878D01*
X40134Y15209D01*
X40157Y15657D01*
X40157D01*
Y15657D01*
X42520D01*
X42543Y15209D01*
D02*
G37*
G36*
X114208Y10852D02*
X114138Y10892D01*
X114019Y10928D01*
X113850Y10960D01*
X113631Y10987D01*
X113044Y11029D01*
X111271Y11063D01*
Y12638D01*
X111789Y12640D01*
X114019Y12773D01*
X114138Y12809D01*
X114208Y12849D01*
Y10852D01*
D02*
G37*
G36*
X74519Y13722D02*
X74590Y13594D01*
X74708Y13480D01*
X74874Y13382D01*
X75086Y13299D01*
X75346Y13231D01*
X75653Y13178D01*
X76008Y13140D01*
X76858Y13110D01*
Y10748D01*
X74496Y10740D01*
Y13866D01*
X74519Y13722D01*
D02*
G37*
G36*
X56715Y10233D02*
X56739Y10211D01*
X57093Y9927D01*
X57462Y9677D01*
X57845Y9460D01*
X58241Y9276D01*
X58651Y9126D01*
X59075Y9009D01*
X59513Y8925D01*
X59965Y8875D01*
X60430Y8858D01*
X61122Y6496D01*
X60673Y6472D01*
X60272Y6402D01*
X59917Y6284D01*
X59610Y6118D01*
X59350Y5906D01*
X59138Y5646D01*
X58972Y5339D01*
X58854Y4984D01*
X58784Y4583D01*
X58760Y4134D01*
X58760D01*
D01*
X56398Y4826D01*
X56381Y5291D01*
X56331Y5743D01*
X56247Y6181D01*
X56130Y6605D01*
X55980Y7015D01*
X55796Y7411D01*
X55579Y7794D01*
X55329Y8162D01*
X55171Y8360D01*
X55045Y8517D01*
X54892Y8682D01*
X54727Y8858D01*
X56398Y10529D01*
X56398D01*
D01*
X56715Y10233D01*
D02*
G37*
G36*
X111619Y9896D02*
X111492Y9978D01*
X111343Y10017D01*
X111173Y10012D01*
X110982Y9964D01*
X110770Y9873D01*
X110537Y9739D01*
X110283Y9562D01*
X110007Y9341D01*
X109392Y8771D01*
X108141Y9747D01*
X108460Y10077D01*
X108961Y10666D01*
X109142Y10924D01*
X109278Y11159D01*
X109367Y11370D01*
X109411Y11556D01*
X109409Y11719D01*
X109361Y11858D01*
X109267Y11974D01*
X111619Y9896D01*
D02*
G37*
G36*
X74496Y10740D02*
X74203Y10724D01*
X73905Y10673D01*
X73603Y10590D01*
X73297Y10473D01*
X72987Y10323D01*
X72672Y10139D01*
X72353Y9922D01*
X72030Y9671D01*
X71702Y9387D01*
X71370Y9070D01*
X69700Y10740D01*
X70017Y11072D01*
X70552Y11723D01*
X70769Y12042D01*
X70953Y12357D01*
X71103Y12667D01*
X71220Y12973D01*
X71303Y13275D01*
X71354Y13573D01*
X71370Y13866D01*
X74496Y10740D01*
D02*
G37*
G36*
X117652Y9869D02*
X117417Y9786D01*
X117211Y9647D01*
X117032Y9454D01*
X116880Y9205D01*
X116756Y8900D01*
X116659Y8540D01*
X116591Y8125D01*
X116549Y7655D01*
X116535Y7129D01*
X113779D01*
X113766Y7655D01*
X113724Y8125D01*
X113655Y8540D01*
X113559Y8900D01*
X113435Y9205D01*
X113284Y9454D01*
X113104Y9647D01*
X112898Y9786D01*
X112663Y9869D01*
X112402Y9896D01*
X117913D01*
X117652Y9869D01*
D02*
G37*
G36*
X25344Y8647D02*
X25354Y8170D01*
X25388Y7804D01*
X26329Y7807D01*
X26142Y7787D01*
X25974Y7727D01*
X25827Y7628D01*
X25699Y7489D01*
X25591Y7310D01*
X25502Y7093D01*
X25490Y7047D01*
X25496Y7014D01*
X25582Y6720D01*
X25686Y6472D01*
X25810Y6269D01*
X25952Y6112D01*
X26113Y6000D01*
X26294Y5934D01*
X25353Y6148D01*
X25344Y5827D01*
X23376D01*
X23354Y6600D01*
X22417Y6813D01*
X22599Y6793D01*
X22762Y6821D01*
X22906Y6897D01*
X23031Y7021D01*
X23136Y7193D01*
X23223Y7412D01*
X23290Y7679D01*
X23338Y7994D01*
X23366Y8357D01*
X23376Y8768D01*
X25344Y8647D01*
D02*
G37*
G36*
X74434Y6572D02*
X74507Y6516D01*
X74586Y6467D01*
X74670Y6425D01*
X74761Y6389D01*
X74857Y6359D01*
X74960Y6336D01*
X75068Y6320D01*
X75182Y6310D01*
X75302Y6307D01*
Y5307D01*
X75182Y5304D01*
X75068Y5294D01*
X74960Y5278D01*
X74857Y5255D01*
X74761Y5225D01*
X74670Y5189D01*
X74586Y5147D01*
X74507Y5098D01*
X74434Y5042D01*
X74367Y4980D01*
Y6634D01*
X74434Y6572D01*
D02*
G37*
G36*
X76500Y4807D02*
X76490Y4902D01*
X76460Y4987D01*
X76409Y5062D01*
X76338Y5127D01*
X76247Y5182D01*
X76136Y5227D01*
X76004Y5262D01*
X75853Y5287D01*
X75681Y5302D01*
X75488Y5307D01*
Y6307D01*
X75681Y6312D01*
X75853Y6327D01*
X76004Y6352D01*
X76136Y6387D01*
X76247Y6432D01*
X76338Y6487D01*
X76409Y6552D01*
X76460Y6627D01*
X76490Y6712D01*
X76500Y6807D01*
Y4807D01*
D02*
G37*
G36*
X88192Y4709D02*
X88182Y4804D01*
X88152Y4889D01*
X88101Y4964D01*
X88030Y5029D01*
X87939Y5084D01*
X87828Y5129D01*
X87696Y5164D01*
X87544Y5189D01*
X87372Y5204D01*
X87180Y5209D01*
Y6209D01*
X87372Y6214D01*
X87544Y6229D01*
X87696Y6254D01*
X87828Y6289D01*
X87939Y6334D01*
X88030Y6389D01*
X88101Y6454D01*
X88152Y6529D01*
X88182Y6614D01*
X88192Y6709D01*
Y4709D01*
D02*
G37*
G36*
X84730Y6614D02*
X84761Y6529D01*
X84811Y6454D01*
X84882Y6389D01*
X84973Y6334D01*
X85084Y6289D01*
X85216Y6254D01*
X85368Y6229D01*
X85540Y6214D01*
X85732Y6209D01*
Y5209D01*
X85540Y5204D01*
X85368Y5189D01*
X85216Y5164D01*
X85084Y5129D01*
X84973Y5084D01*
X84882Y5029D01*
X84811Y4964D01*
X84761Y4889D01*
X84730Y4804D01*
X84720Y4709D01*
Y6709D01*
X84730Y6614D01*
D02*
G37*
G36*
X96428Y7134D02*
X96475Y7000D01*
X96554Y6882D01*
X96666Y6780D01*
X96808Y6693D01*
X96983Y6622D01*
X97189Y6567D01*
X97427Y6528D01*
X97697Y6504D01*
X97998Y6496D01*
Y4921D01*
X97697Y4913D01*
X97427Y4890D01*
X97189Y4850D01*
X96983Y4795D01*
X96808Y4724D01*
X96666Y4638D01*
X96554Y4535D01*
X96475Y4417D01*
X96428Y4284D01*
X96412Y4134D01*
Y7283D01*
X96428Y7134D01*
D02*
G37*
G36*
X93678Y-1501D02*
X93622Y-1574D01*
X93573Y-1653D01*
X93531Y-1737D01*
X93495Y-1828D01*
X93466Y-1924D01*
X93443Y-2027D01*
X93427Y-2135D01*
X93417Y-2249D01*
X93413Y-2369D01*
X92413D01*
X92410Y-2249D01*
X92400Y-2135D01*
X92384Y-2027D01*
X92361Y-1924D01*
X92332Y-1828D01*
X92296Y-1737D01*
X92253Y-1653D01*
X92204Y-1574D01*
X92149Y-1501D01*
X92087Y-1434D01*
X93740D01*
X93678Y-1501D01*
D02*
G37*
G36*
X71139Y-1599D02*
X71083Y-1672D01*
X71034Y-1751D01*
X70992Y-1836D01*
X70956Y-1926D01*
X70926Y-2023D01*
X70903Y-2125D01*
X70887Y-2234D01*
X70877Y-2348D01*
X70874Y-2468D01*
X69874D01*
X69871Y-2348D01*
X69861Y-2234D01*
X69845Y-2125D01*
X69822Y-2023D01*
X69792Y-1926D01*
X69756Y-1836D01*
X69714Y-1751D01*
X69665Y-1672D01*
X69609Y-1599D01*
X69547Y-1532D01*
X71201D01*
X71139Y-1599D01*
D02*
G37*
G36*
X93418Y-2738D02*
X93433Y-2910D01*
X93458Y-3062D01*
X93493Y-3193D01*
X93538Y-3305D01*
X93593Y-3396D01*
X93658Y-3467D01*
X93733Y-3517D01*
X93818Y-3548D01*
X93913Y-3558D01*
X91913D01*
X92008Y-3548D01*
X92093Y-3517D01*
X92168Y-3467D01*
X92233Y-3396D01*
X92288Y-3305D01*
X92333Y-3193D01*
X92368Y-3062D01*
X92393Y-2910D01*
X92408Y-2738D01*
X92413Y-2546D01*
X93413D01*
X93418Y-2738D01*
D02*
G37*
G36*
X70879D02*
X70894Y-2910D01*
X70919Y-3062D01*
X70954Y-3193D01*
X70999Y-3305D01*
X71054Y-3396D01*
X71119Y-3467D01*
X71194Y-3517D01*
X71279Y-3548D01*
X71374Y-3558D01*
X69374D01*
X69469Y-3548D01*
X69554Y-3517D01*
X69629Y-3467D01*
X69694Y-3396D01*
X69749Y-3305D01*
X69794Y-3193D01*
X69829Y-3062D01*
X69854Y-2910D01*
X69869Y-2738D01*
X69874Y-2546D01*
X70874D01*
X70879Y-2738D01*
D02*
G37*
G36*
X76584Y-4909D02*
X76484Y-4850D01*
X76370Y-4823D01*
X76240Y-4827D01*
X76095Y-4863D01*
X75936Y-4931D01*
X75761Y-5030D01*
X75572Y-5161D01*
X75367Y-5324D01*
X75148Y-5518D01*
X74914Y-5744D01*
X74078Y-4909D01*
X74237Y-4745D01*
X74504Y-4437D01*
X74613Y-4292D01*
X74705Y-4153D01*
X74780Y-4021D01*
X74838Y-3895D01*
X74880Y-3776D01*
X74905Y-3662D01*
X74914Y-3555D01*
X76584Y-4909D01*
D02*
G37*
G36*
X78457Y-8972D02*
X78447Y-8877D01*
X78417Y-8792D01*
X78367Y-8717D01*
X78297Y-8652D01*
X78207Y-8597D01*
X78097Y-8552D01*
X77967Y-8517D01*
X77818Y-8493D01*
X77502Y-8517D01*
X77412Y-8536D01*
X77342Y-8559D01*
X77292Y-8586D01*
X77262Y-8616D01*
X77252Y-8649D01*
Y-7295D01*
X77262Y-7329D01*
X77292Y-7359D01*
X77342Y-7386D01*
X77412Y-7409D01*
X77502Y-7428D01*
X77612Y-7444D01*
X77773Y-7456D01*
X77817Y-7452D01*
X77967Y-7427D01*
X78097Y-7392D01*
X78207Y-7347D01*
X78297Y-7292D01*
X78367Y-7227D01*
X78417Y-7152D01*
X78447Y-7067D01*
X78457Y-6972D01*
Y-8972D01*
D02*
G37*
G36*
X73087Y-9038D02*
X72777Y-9351D01*
X71964Y-10279D01*
X71934Y-10323D01*
X71833Y-10497D01*
X71839Y-10545D01*
X71875Y-10646D01*
X71935Y-10734D01*
X72019Y-10811D01*
X72126Y-10876D01*
X72258Y-10929D01*
X72412Y-10971D01*
X72591Y-11000D01*
X72793Y-11018D01*
X73019Y-11024D01*
Y-12205D01*
X72795Y-12208D01*
X72417Y-12238D01*
X72264Y-12264D01*
X72134Y-12298D01*
X72027Y-12339D01*
X71945Y-12387D01*
X71886Y-12443D01*
X71850Y-12506D01*
X71838Y-12577D01*
X71827Y-10511D01*
X71764Y-10657D01*
X71730Y-10798D01*
X71729Y-10923D01*
X71761Y-11031D01*
X71826Y-11122D01*
X71525Y-10820D01*
X71522Y-10825D01*
X71473Y-10933D01*
X71457Y-11015D01*
X70275Y-9833D01*
X70357Y-9817D01*
X70465Y-9768D01*
X70470Y-9765D01*
X70168Y-9463D01*
X70259Y-9529D01*
X70367Y-9561D01*
X70491Y-9560D01*
X70633Y-9525D01*
X70791Y-9457D01*
X70967Y-9356D01*
X71159Y-9221D01*
X71305Y-9104D01*
X71939Y-8513D01*
X72252Y-8203D01*
X73087Y-9038D01*
D02*
G37*
G36*
X88287Y-7312D02*
X88323Y-7327D01*
X88382Y-7339D01*
X88464Y-7351D01*
X88701Y-7368D01*
X89456Y-7382D01*
Y-8563D01*
X89232Y-8564D01*
X88323Y-8618D01*
X88287Y-8633D01*
X88275Y-8649D01*
X88165Y-8661D01*
X88067Y-8697D01*
X87980Y-8756D01*
X87905Y-8838D01*
X87841Y-8945D01*
X87789Y-9075D01*
X87749Y-9228D01*
X87720Y-9405D01*
X87703Y-9606D01*
X87697Y-9831D01*
X86516D01*
X86510Y-9606D01*
X86493Y-9405D01*
X86464Y-9228D01*
X86423Y-9075D01*
X86371Y-8945D01*
X86308Y-8838D01*
X86232Y-8756D01*
X86146Y-8697D01*
X86047Y-8661D01*
X85937Y-8649D01*
X88275D01*
Y-7295D01*
X88287Y-7312D01*
D02*
G37*
G36*
X90862Y-8123D02*
X92267Y-9337D01*
X92469Y-9468D01*
X92570Y-9522D01*
X92695Y-9552D01*
X92821D01*
X92929Y-9518D01*
X93021Y-9451D01*
X92847Y-9626D01*
X92914Y-9636D01*
X91535Y-11015D01*
X91525Y-10947D01*
X91351Y-11122D01*
X91417Y-11030D01*
X91451Y-10921D01*
Y-10796D01*
X91421Y-10671D01*
X91367Y-10570D01*
X91351Y-10544D01*
Y-12577D01*
X91339Y-12506D01*
X91303Y-12443D01*
X91244Y-12387D01*
X91162Y-12339D01*
X91055Y-12298D01*
X90925Y-12264D01*
X90772Y-12238D01*
X90595Y-12220D01*
X90170Y-12205D01*
Y-11024D01*
X90394Y-11018D01*
X90595Y-11000D01*
X90772Y-10971D01*
X90925Y-10929D01*
X91055Y-10876D01*
X91162Y-10811D01*
X91244Y-10734D01*
X91303Y-10646D01*
X91339Y-10545D01*
X91341Y-10528D01*
X91236Y-10368D01*
X91068Y-10140D01*
X90620Y-9605D01*
X90022Y-8963D01*
X89667Y-8603D01*
X90502Y-7767D01*
X90862Y-8123D01*
D02*
G37*
G36*
X87703Y-10079D02*
X87720Y-10280D01*
X87749Y-10457D01*
X87789Y-10610D01*
X87841Y-10740D01*
X87905Y-10847D01*
X87980Y-10929D01*
X88067Y-10988D01*
X88165Y-11024D01*
X88275Y-11036D01*
X85937D01*
X86047Y-11024D01*
X86146Y-10988D01*
X86232Y-10929D01*
X86308Y-10847D01*
X86371Y-10740D01*
X86423Y-10610D01*
X86464Y-10457D01*
X86493Y-10280D01*
X86510Y-10079D01*
X86516Y-9854D01*
X87697D01*
X87703Y-10079D01*
D02*
G37*
G36*
X89456Y-12205D02*
X89232Y-12207D01*
X88571Y-12251D01*
X88464Y-12271D01*
X88382Y-12295D01*
X88323Y-12323D01*
X88287Y-12354D01*
X88275Y-12390D01*
Y-11036D01*
X88287Y-11033D01*
X88323Y-11031D01*
X89456Y-11024D01*
Y-12205D01*
D02*
G37*
G36*
X74914Y-11036D02*
Y-12390D01*
X74902Y-12354D01*
X74866Y-12323D01*
X74807Y-12295D01*
X74725Y-12271D01*
X74618Y-12251D01*
X74488Y-12234D01*
X74158Y-12212D01*
X73733Y-12205D01*
Y-11024D01*
X74914Y-11036D01*
D02*
G37*
G36*
X94504Y-9487D02*
X94586Y-9518D01*
X94724Y-9546D01*
X94917Y-9570D01*
X95468Y-9607D01*
X97232Y-9636D01*
Y-12392D01*
X96709Y-12394D01*
X94504Y-12542D01*
X94476Y-12577D01*
Y-9451D01*
X94504Y-9487D01*
D02*
G37*
G36*
X68713Y-12577D02*
X68689Y-12505D01*
X68618Y-12440D01*
X68500Y-12382D01*
X68335Y-12333D01*
X68122Y-12291D01*
X67862Y-12256D01*
X67201Y-12211D01*
X66351Y-12195D01*
Y-9833D01*
X66799Y-9829D01*
X68122Y-9738D01*
X68335Y-9696D01*
X68500Y-9646D01*
X68618Y-9589D01*
X68689Y-9524D01*
X68713Y-9451D01*
Y-12577D01*
D02*
G37*
%LPC*%
G36*
X50154Y62198D02*
X49689D01*
Y62165D01*
X49556D01*
Y62131D01*
X49489D01*
Y62098D01*
X49389D01*
Y62065D01*
X49356D01*
Y62032D01*
X49290D01*
Y61998D01*
X49256D01*
Y61965D01*
X49190D01*
Y61932D01*
X49157D01*
Y61899D01*
X49123D01*
Y61865D01*
X49090D01*
Y61832D01*
X49057D01*
Y61799D01*
X49024D01*
Y61732D01*
X48990D01*
Y61699D01*
X48957D01*
Y61666D01*
X48924D01*
Y61599D01*
X48891D01*
Y61533D01*
X48857D01*
Y61466D01*
X48824D01*
Y61400D01*
X48791D01*
Y61300D01*
X48758D01*
Y61200D01*
X48724D01*
Y61034D01*
X48691D01*
Y60768D01*
X48658D01*
Y60402D01*
X48691D01*
Y60136D01*
X48724D01*
Y60003D01*
X48758D01*
Y59870D01*
X48791D01*
Y59804D01*
X48824D01*
Y59737D01*
X48857D01*
Y59671D01*
X48891D01*
Y59604D01*
X48924D01*
Y59538D01*
X48957D01*
Y59505D01*
X48990D01*
Y59471D01*
X49024D01*
Y59405D01*
X49057D01*
Y59372D01*
X49090D01*
Y59338D01*
X49123D01*
Y59305D01*
X49157D01*
Y59272D01*
X49190D01*
Y59239D01*
X49256D01*
Y59205D01*
X49290D01*
Y59172D01*
X49356D01*
Y59139D01*
X49423D01*
Y59106D01*
X49489D01*
Y59072D01*
X49589D01*
Y59039D01*
X49722D01*
Y59006D01*
X50154D01*
Y59039D01*
X50287D01*
Y59072D01*
X50387D01*
Y59106D01*
X50453D01*
Y59139D01*
X50520D01*
Y59172D01*
X50586D01*
Y59205D01*
X50620D01*
Y59239D01*
X50653D01*
Y59272D01*
X50719D01*
Y59305D01*
X50753D01*
Y59338D01*
X50786D01*
Y59372D01*
X50819D01*
Y59438D01*
X50852D01*
Y59471D01*
X50886D01*
Y59505D01*
X50919D01*
Y59571D01*
X50952D01*
Y59604D01*
X50985D01*
Y59671D01*
X51019D01*
Y59737D01*
X51052D01*
Y59837D01*
X51085D01*
Y59904D01*
X51118D01*
Y60037D01*
X51152D01*
Y60203D01*
X51185D01*
Y61001D01*
X51152D01*
Y61167D01*
X51118D01*
Y61267D01*
X51085D01*
Y61367D01*
X51052D01*
Y61466D01*
X51019D01*
Y61533D01*
X50985D01*
Y61599D01*
X50952D01*
Y61633D01*
X50919D01*
Y61699D01*
X50886D01*
Y61732D01*
X50852D01*
Y61766D01*
X50819D01*
Y61832D01*
X50786D01*
Y61865D01*
X50753D01*
Y61899D01*
X50719D01*
Y61932D01*
X50653D01*
Y61965D01*
X50620D01*
Y61998D01*
X50586D01*
Y62032D01*
X50520D01*
Y62065D01*
X50453D01*
Y62098D01*
X50387D01*
Y62131D01*
X50287D01*
Y62165D01*
X50154D01*
Y62198D01*
D02*
G37*
G36*
X46231D02*
X45832D01*
Y62165D01*
X45665D01*
Y62131D01*
X45599D01*
Y62098D01*
X45499D01*
Y62065D01*
X45433D01*
Y62032D01*
X45399D01*
Y61998D01*
X45333D01*
Y61965D01*
X45300D01*
Y61932D01*
X45266D01*
Y61899D01*
X45233D01*
Y61865D01*
X45200D01*
Y61832D01*
X45167D01*
Y61799D01*
X45133D01*
Y61732D01*
X45100D01*
Y61699D01*
X45067D01*
Y61633D01*
X45034D01*
Y61599D01*
X45000D01*
Y61500D01*
X44967D01*
Y61433D01*
X44934D01*
Y59704D01*
X44967D01*
Y59638D01*
X45000D01*
Y59571D01*
X45034D01*
Y59538D01*
X45067D01*
Y59471D01*
X45100D01*
Y59438D01*
X45133D01*
Y59405D01*
X45167D01*
Y59372D01*
X45200D01*
Y59338D01*
X45233D01*
Y59305D01*
X45266D01*
Y59272D01*
X45300D01*
Y59239D01*
X45333D01*
Y59205D01*
X45399D01*
Y59172D01*
X45433D01*
Y59139D01*
X45499D01*
Y59106D01*
X45599D01*
Y59072D01*
X45699D01*
Y59039D01*
X45931D01*
Y59006D01*
X46164D01*
Y59039D01*
X46330D01*
Y59072D01*
X46430D01*
Y59106D01*
X46530D01*
Y59139D01*
X46563D01*
Y59172D01*
X46630D01*
Y59205D01*
X46663D01*
Y59239D01*
X46696D01*
Y59272D01*
X46729D01*
Y59305D01*
X46763D01*
Y59338D01*
X46796D01*
Y59372D01*
X46829D01*
Y59405D01*
X46862D01*
Y59471D01*
X46896D01*
Y59505D01*
X46929D01*
Y59571D01*
X46962D01*
Y59638D01*
X46995D01*
Y59737D01*
X47029D01*
Y59837D01*
X47062D01*
Y59904D01*
Y59937D01*
Y59970D01*
X47095D01*
Y60136D01*
X47128D01*
Y60502D01*
X47162D01*
Y60735D01*
X47128D01*
Y61101D01*
X47095D01*
Y61267D01*
X47062D01*
Y61400D01*
X47029D01*
Y61500D01*
X46995D01*
Y61566D01*
X46962D01*
Y61633D01*
X46929D01*
Y61699D01*
X46896D01*
Y61766D01*
X46862D01*
Y61799D01*
X46829D01*
Y61832D01*
X46796D01*
Y61899D01*
X46763D01*
Y61932D01*
X46729D01*
Y61965D01*
X46663D01*
Y61998D01*
X46630D01*
Y62032D01*
X46596D01*
Y62065D01*
X46530D01*
Y62098D01*
X46463D01*
Y62131D01*
X46364D01*
Y62165D01*
X46231D01*
Y62198D01*
D02*
G37*
G36*
X42207D02*
X41742D01*
Y62165D01*
X41642D01*
Y62131D01*
X41542D01*
Y62098D01*
X41476D01*
Y62065D01*
X41409D01*
Y62032D01*
X41343D01*
Y61998D01*
X41310D01*
Y61965D01*
X41276D01*
Y61932D01*
X41210D01*
Y61899D01*
X41177D01*
Y61865D01*
X41143D01*
Y61832D01*
X41110D01*
Y61766D01*
X41077D01*
Y61732D01*
X41043D01*
Y61699D01*
X41010D01*
Y61633D01*
X40977D01*
Y61599D01*
X40944D01*
Y61533D01*
X40911D01*
Y61466D01*
X40877D01*
Y61367D01*
X40844D01*
Y61267D01*
X40811D01*
Y61200D01*
Y61167D01*
X40778D01*
Y61001D01*
X40744D01*
Y60170D01*
X40778D01*
Y60037D01*
X40811D01*
Y59904D01*
X40844D01*
Y59804D01*
X40877D01*
Y59737D01*
X40911D01*
Y59671D01*
X40944D01*
Y59604D01*
X40977D01*
Y59571D01*
X41010D01*
Y59505D01*
X41043D01*
Y59471D01*
X41077D01*
Y59438D01*
X41110D01*
Y59372D01*
X41143D01*
Y59338D01*
X41177D01*
Y59305D01*
X41210D01*
Y59272D01*
X41276D01*
Y59239D01*
X41310D01*
Y59205D01*
X41343D01*
Y59172D01*
X41409D01*
Y59139D01*
X41476D01*
Y59106D01*
X41542D01*
Y59072D01*
X41642D01*
Y59039D01*
X41775D01*
Y59006D01*
X42207D01*
Y59039D01*
X42340D01*
Y59072D01*
X42440D01*
Y59106D01*
X42507D01*
Y59139D01*
X42573D01*
Y59172D01*
X42640D01*
Y59205D01*
X42673D01*
Y59239D01*
X42739D01*
Y59272D01*
X42773D01*
Y59305D01*
X42806D01*
Y59338D01*
X42839D01*
Y59372D01*
X42872D01*
Y59405D01*
X42906D01*
Y59471D01*
X42939D01*
Y59505D01*
X42972D01*
Y59538D01*
X43005D01*
Y59604D01*
X43038D01*
Y59671D01*
X43072D01*
Y59737D01*
X43105D01*
Y59804D01*
X43138D01*
Y59904D01*
X43172D01*
Y60003D01*
X43205D01*
Y60136D01*
X43238D01*
Y60469D01*
X43271D01*
Y60768D01*
X43238D01*
Y61067D01*
X43205D01*
Y61200D01*
X43172D01*
Y61300D01*
X43138D01*
Y61400D01*
X43105D01*
Y61466D01*
X43072D01*
Y61533D01*
X43038D01*
Y61599D01*
X43005D01*
Y61666D01*
X42972D01*
Y61699D01*
X42939D01*
Y61732D01*
X42906D01*
Y61799D01*
X42872D01*
Y61832D01*
X42839D01*
Y61865D01*
X42806D01*
Y61899D01*
X42773D01*
Y61932D01*
X42739D01*
Y61965D01*
X42673D01*
Y61998D01*
X42640D01*
Y62032D01*
X42573D01*
Y62065D01*
X42507D01*
Y62098D01*
X42440D01*
Y62131D01*
X42340D01*
Y62165D01*
X42207D01*
Y62198D01*
D02*
G37*
G36*
X49722Y55581D02*
X49589D01*
Y55548D01*
X49356D01*
Y55515D01*
X49256D01*
Y55481D01*
X49190D01*
Y55448D01*
X49123D01*
Y55415D01*
X49057D01*
Y55382D01*
X49024D01*
Y55348D01*
X48990D01*
Y55315D01*
X48957D01*
Y55282D01*
X48924D01*
Y55249D01*
X48891D01*
Y55215D01*
X48857D01*
Y55182D01*
X48824D01*
Y55116D01*
X48791D01*
Y55082D01*
X48758D01*
Y55016D01*
X48724D01*
Y54949D01*
X48691D01*
Y54883D01*
X48658D01*
Y54783D01*
X48625D01*
Y54683D01*
X48591D01*
Y54517D01*
X48558D01*
Y54251D01*
X48525D01*
Y53653D01*
X48558D01*
Y53420D01*
X48591D01*
Y53254D01*
X48625D01*
Y53154D01*
X48658D01*
Y53054D01*
X48691D01*
Y52988D01*
X48724D01*
Y52921D01*
X48758D01*
Y52855D01*
X48791D01*
Y52821D01*
X48824D01*
Y52755D01*
X48857D01*
Y52722D01*
X48891D01*
Y52688D01*
X48924D01*
Y52655D01*
X48957D01*
Y52622D01*
X48990D01*
Y52589D01*
X49024D01*
Y52555D01*
X49090D01*
Y52522D01*
X49123D01*
Y52489D01*
X49190D01*
Y52456D01*
X49290D01*
Y52422D01*
X49423D01*
Y52389D01*
X49888D01*
Y52422D01*
X50021D01*
Y52456D01*
X50121D01*
Y52489D01*
X50187D01*
Y52522D01*
X50254D01*
Y52555D01*
X50320D01*
Y52589D01*
X50354D01*
Y52622D01*
X50387D01*
Y52655D01*
X50453D01*
Y52688D01*
X50487D01*
Y52722D01*
X50520D01*
Y52788D01*
X50553D01*
Y52821D01*
X50586D01*
Y52855D01*
X50620D01*
Y52921D01*
X50653D01*
Y52954D01*
X50686D01*
Y53021D01*
X50719D01*
Y54883D01*
X50686D01*
Y54949D01*
X50653D01*
Y54983D01*
X50620D01*
Y55049D01*
X50586D01*
Y55082D01*
X50553D01*
Y55149D01*
X50520D01*
Y55182D01*
X50487D01*
Y55215D01*
X50453D01*
Y55249D01*
X50420D01*
Y55282D01*
X50387D01*
Y55315D01*
X50354D01*
Y55348D01*
X50320D01*
Y55382D01*
X50254D01*
Y55415D01*
X50187D01*
Y55448D01*
X50121D01*
Y55481D01*
X50054D01*
Y55515D01*
X49955D01*
Y55548D01*
X49722D01*
Y55581D01*
D02*
G37*
G36*
X59896Y53952D02*
X58799D01*
Y53919D01*
X58600D01*
Y53885D01*
X58500D01*
Y53852D01*
X58400D01*
Y53819D01*
X58300D01*
Y53786D01*
X58234D01*
Y53752D01*
X58201D01*
Y53719D01*
X58134D01*
Y53686D01*
X58101D01*
Y53653D01*
X58068D01*
Y53619D01*
X58034D01*
Y53586D01*
X58001D01*
Y53553D01*
X57968D01*
Y53520D01*
X57935D01*
Y53486D01*
X57901D01*
Y53420D01*
X57868D01*
Y53320D01*
X57835D01*
Y52954D01*
X57868D01*
Y52855D01*
X57901D01*
Y52788D01*
X57935D01*
Y52722D01*
X57968D01*
Y52688D01*
X58001D01*
Y52655D01*
X58034D01*
Y52622D01*
X58068D01*
Y52589D01*
X58101D01*
Y52555D01*
X58134D01*
Y52522D01*
X58201D01*
Y52489D01*
X58267D01*
Y52456D01*
X58367D01*
Y52422D01*
X58500D01*
Y52389D01*
X58899D01*
Y52422D01*
X59065D01*
Y52456D01*
X59165D01*
Y52489D01*
X59265D01*
Y52522D01*
X59331D01*
Y52555D01*
X59398D01*
Y52589D01*
X59431D01*
Y52622D01*
X59497D01*
Y52655D01*
X59531D01*
Y52688D01*
X59564D01*
Y52722D01*
X59597D01*
Y52755D01*
X59664D01*
Y52788D01*
X59697D01*
Y52855D01*
X59730D01*
Y52888D01*
X59763D01*
Y52921D01*
X59797D01*
Y52988D01*
X59830D01*
Y53021D01*
X59863D01*
Y53087D01*
X59896D01*
Y53952D01*
D02*
G37*
G36*
X44402D02*
X43305D01*
Y53919D01*
X43138D01*
Y53885D01*
X43005D01*
Y53852D01*
X42906D01*
Y53819D01*
X42839D01*
Y53786D01*
X42773D01*
Y53752D01*
X42706D01*
Y53719D01*
X42673D01*
Y53686D01*
X42606D01*
Y53653D01*
X42573D01*
Y53619D01*
X42540D01*
Y53586D01*
X42507D01*
Y53553D01*
X42473D01*
Y53486D01*
X42440D01*
Y53453D01*
X42407D01*
Y53353D01*
X42374D01*
Y53254D01*
X42340D01*
Y53220D01*
Y53187D01*
Y53021D01*
X42374D01*
Y52888D01*
X42407D01*
Y52821D01*
X42440D01*
Y52755D01*
X42473D01*
Y52688D01*
X42507D01*
Y52655D01*
X42540D01*
Y52622D01*
X42573D01*
Y52589D01*
X42606D01*
Y52555D01*
X42673D01*
Y52522D01*
X42706D01*
Y52489D01*
X42773D01*
Y52456D01*
X42872D01*
Y52422D01*
X43005D01*
Y52389D01*
X43404D01*
Y52422D01*
X43571D01*
Y52456D01*
X43670D01*
Y52489D01*
X43770D01*
Y52522D01*
X43837D01*
Y52555D01*
X43903D01*
Y52589D01*
X43970D01*
Y52622D01*
X44003D01*
Y52655D01*
X44069D01*
Y52688D01*
X44103D01*
Y52722D01*
X44136D01*
Y52755D01*
X44169D01*
Y52788D01*
X44202D01*
Y52821D01*
X44236D01*
Y52855D01*
X44269D01*
Y52921D01*
X44302D01*
Y52954D01*
X44335D01*
Y53021D01*
X44369D01*
Y53054D01*
X44402D01*
Y53952D01*
D02*
G37*
G36*
X65283Y55581D02*
X65017D01*
Y55548D01*
X64851D01*
Y55515D01*
X64751D01*
Y55481D01*
X64651D01*
Y55448D01*
X64618D01*
Y55415D01*
X64551D01*
Y55382D01*
X64518D01*
Y55348D01*
X64452D01*
Y55315D01*
X64418D01*
Y55282D01*
X64385D01*
Y55249D01*
X64352D01*
Y55215D01*
X64319D01*
Y55182D01*
X64285D01*
Y55116D01*
X64252D01*
Y55082D01*
X64219D01*
Y55049D01*
X64186D01*
Y54983D01*
X64152D01*
Y54916D01*
X64119D01*
Y54850D01*
X64086D01*
Y54783D01*
X64053D01*
Y54683D01*
X64019D01*
Y54550D01*
X63986D01*
Y54384D01*
X63953D01*
Y54318D01*
X66214D01*
Y54550D01*
X66181D01*
Y54717D01*
X66147D01*
Y54816D01*
X66114D01*
Y54916D01*
X66081D01*
Y54983D01*
X66048D01*
Y55049D01*
X66014D01*
Y55116D01*
X65981D01*
Y55149D01*
X65948D01*
Y55182D01*
X65915D01*
Y55249D01*
X65881D01*
Y55282D01*
X65848D01*
Y55315D01*
X65815D01*
Y55348D01*
X65782D01*
Y55382D01*
X65715D01*
Y55415D01*
X65682D01*
Y55448D01*
X65615D01*
Y55481D01*
X65549D01*
Y55515D01*
X65449D01*
Y55548D01*
X65283D01*
Y55581D01*
D02*
G37*
G36*
X56771Y49563D02*
X56538D01*
Y49530D01*
X56339D01*
Y49496D01*
X56239D01*
Y49463D01*
X56172D01*
Y49430D01*
X56106D01*
Y49397D01*
X56039D01*
Y49363D01*
X56006D01*
Y49330D01*
X55940D01*
Y49297D01*
X55906D01*
Y49264D01*
X55873D01*
Y49230D01*
X55840D01*
Y49197D01*
X55807D01*
Y49164D01*
X55773D01*
Y49131D01*
X55740D01*
Y49064D01*
X55707D01*
Y49031D01*
X55674D01*
Y48998D01*
X55640D01*
Y48931D01*
X55607D01*
Y48865D01*
X55574D01*
Y48798D01*
X55541D01*
Y48732D01*
X55507D01*
Y48632D01*
X55474D01*
Y48499D01*
X55441D01*
Y48333D01*
X55408D01*
Y47535D01*
X55441D01*
Y47368D01*
X55474D01*
Y47269D01*
X55507D01*
Y47169D01*
X55541D01*
Y47102D01*
X55574D01*
Y47036D01*
X55607D01*
Y46969D01*
X55640D01*
Y46903D01*
X55674D01*
Y46870D01*
X55707D01*
Y46836D01*
X55740D01*
Y46770D01*
X55773D01*
Y46737D01*
X55807D01*
Y46703D01*
X55840D01*
Y46670D01*
X55873D01*
Y46637D01*
X55906D01*
Y46604D01*
X55940D01*
Y46570D01*
X56006D01*
Y46537D01*
X56039D01*
Y46504D01*
X56106D01*
Y46471D01*
X56172D01*
Y46437D01*
X56239D01*
Y46404D01*
X56372D01*
Y46371D01*
X56605D01*
Y46338D01*
X56738D01*
Y46371D01*
X56970D01*
Y46404D01*
X57070D01*
Y46437D01*
X57170D01*
Y46471D01*
X57236D01*
Y46504D01*
X57270D01*
Y46537D01*
X57336D01*
Y46570D01*
X57369D01*
Y46604D01*
X57403D01*
Y46637D01*
X57436D01*
Y46670D01*
X57469D01*
Y46703D01*
X57502D01*
Y46737D01*
X57536D01*
Y46770D01*
X57569D01*
Y46803D01*
X57602D01*
Y46836D01*
X57635D01*
Y46903D01*
X57669D01*
Y46936D01*
X57702D01*
Y47003D01*
X57735D01*
Y47069D01*
X57768D01*
Y47136D01*
X57802D01*
Y47202D01*
Y47235D01*
X57835D01*
Y47335D01*
X57868D01*
Y47468D01*
X57901D01*
Y47734D01*
X57935D01*
Y48200D01*
X57901D01*
Y48432D01*
X57868D01*
Y48565D01*
X57835D01*
Y48665D01*
X57802D01*
Y48765D01*
X57768D01*
Y48831D01*
X57735D01*
Y48898D01*
X57702D01*
Y48964D01*
X57669D01*
Y48998D01*
X57635D01*
Y49064D01*
X57602D01*
Y49097D01*
X57569D01*
Y49131D01*
X57536D01*
Y49197D01*
X57502D01*
Y49230D01*
X57469D01*
Y49264D01*
X57403D01*
Y49297D01*
X57369D01*
Y49330D01*
X57336D01*
Y49363D01*
X57270D01*
Y49397D01*
X57236D01*
Y49430D01*
X57170D01*
Y49463D01*
X57070D01*
Y49496D01*
X56970D01*
Y49530D01*
X56771D01*
Y49563D01*
D02*
G37*
G36*
X43371D02*
X43138D01*
Y49530D01*
X42972D01*
Y49496D01*
X42839D01*
Y49463D01*
X42773D01*
Y49430D01*
X42706D01*
Y49397D01*
X42640D01*
Y49363D01*
X42606D01*
Y49330D01*
X42573D01*
Y49297D01*
X42507D01*
Y49264D01*
X42473D01*
Y49230D01*
X42440D01*
Y49197D01*
X42407D01*
Y49131D01*
X42374D01*
Y49097D01*
X42340D01*
Y49064D01*
X42307D01*
Y48998D01*
X42274D01*
Y48964D01*
X42241D01*
Y48898D01*
X42207D01*
Y48831D01*
X42174D01*
Y48765D01*
X42141D01*
Y48698D01*
X42107D01*
Y48565D01*
X42074D01*
Y48432D01*
X42041D01*
Y48233D01*
X42008D01*
Y47668D01*
X42041D01*
Y47435D01*
X42074D01*
Y47302D01*
X42107D01*
Y47202D01*
X42141D01*
Y47169D01*
Y47136D01*
X42174D01*
Y47069D01*
X42207D01*
Y47003D01*
X42241D01*
Y46936D01*
X42274D01*
Y46870D01*
X42307D01*
Y46836D01*
X42340D01*
Y46803D01*
X42374D01*
Y46770D01*
X42407D01*
Y46703D01*
X42440D01*
Y46670D01*
X42473D01*
Y46637D01*
X42540D01*
Y46604D01*
X42573D01*
Y46570D01*
X42606D01*
Y46537D01*
X42673D01*
Y46504D01*
X42706D01*
Y46471D01*
X42773D01*
Y46437D01*
X42872D01*
Y46404D01*
X42972D01*
Y46371D01*
X43205D01*
Y46338D01*
X43338D01*
Y46371D01*
X43571D01*
Y46404D01*
X43670D01*
Y46437D01*
X43770D01*
Y46471D01*
X43837D01*
Y46504D01*
X43903D01*
Y46537D01*
X43936D01*
Y46570D01*
X44003D01*
Y46604D01*
X44036D01*
Y46637D01*
X44069D01*
Y46670D01*
X44103D01*
Y46703D01*
X44136D01*
Y46737D01*
X44169D01*
Y46770D01*
X44202D01*
Y46836D01*
X44236D01*
Y46870D01*
X44269D01*
Y46936D01*
X44302D01*
Y46969D01*
X44335D01*
Y47036D01*
X44369D01*
Y47102D01*
X44402D01*
Y47202D01*
X44435D01*
Y47302D01*
X44468D01*
Y47435D01*
X44502D01*
Y47601D01*
X44535D01*
Y48299D01*
X44502D01*
Y48499D01*
X44468D01*
Y48599D01*
X44435D01*
Y48698D01*
X44402D01*
Y48798D01*
X44369D01*
Y48865D01*
X44335D01*
Y48931D01*
X44302D01*
Y48964D01*
X44269D01*
Y49031D01*
X44236D01*
Y49064D01*
X44202D01*
Y49131D01*
X44169D01*
Y49164D01*
X44136D01*
Y49197D01*
X44103D01*
Y49230D01*
X44069D01*
Y49264D01*
X44036D01*
Y49297D01*
X44003D01*
Y49330D01*
X43936D01*
Y49363D01*
X43903D01*
Y49397D01*
X43837D01*
Y49430D01*
X43770D01*
Y49463D01*
X43704D01*
Y49496D01*
X43571D01*
Y49530D01*
X43371D01*
Y49563D01*
D02*
G37*
%LPD*%
D16*
X70276Y-11014D02*
D03*
Y-5109D02*
D03*
X92913Y-11014D02*
D03*
Y-5109D02*
D03*
D17*
X83563Y5709D02*
D03*
X77658D02*
D03*
X95255D02*
D03*
X89349D02*
D03*
X42323Y37992D02*
D03*
X36417D02*
D03*
X42323Y31890D02*
D03*
X36417D02*
D03*
D18*
X115157Y11850D02*
D03*
Y21850D02*
D03*
Y31850D02*
D03*
D19*
X36640Y18406D02*
D03*
Y22146D02*
D03*
Y25886D02*
D03*
X46522D02*
D03*
Y22146D02*
D03*
Y18406D02*
D03*
D20*
X96653Y22244D02*
D03*
Y16339D02*
D03*
Y27165D02*
D03*
Y33071D02*
D03*
D21*
X72933Y12303D02*
D03*
X67027D02*
D03*
X78051Y31102D02*
D03*
X83957D02*
D03*
D22*
X26161Y34555D02*
D03*
Y31405D02*
D03*
Y12114D02*
D03*
Y8965D02*
D03*
D23*
Y22744D02*
D03*
Y24713D02*
D03*
Y26681D02*
D03*
Y28650D02*
D03*
Y20776D02*
D03*
Y18807D02*
D03*
Y16839D02*
D03*
Y14870D02*
D03*
D39*
X57982Y25264D02*
G03*
X56482Y23764I0J-1500D01*
G01*
X53482Y17997D02*
G03*
X56482Y17997I1500J0D01*
G01*
X53482Y18235D02*
G03*
X50921Y19295I-1500J0D01*
G01*
X76083Y-7972D02*
X81595D01*
X70276Y-5109D02*
X70374Y-5010D01*
Y-689D01*
X92913Y-5109D02*
Y-591D01*
X65953Y12205D02*
X66001Y12156D01*
X62894Y12205D02*
X65953D01*
X66001Y12106D02*
Y12156D01*
X73347Y11929D02*
Y16197D01*
X76547Y19398D01*
X77559Y5807D02*
X77658Y5709D01*
X73524Y5807D02*
X77559D01*
X83563Y5709D02*
X89349D01*
X96653Y27165D02*
X106004D01*
X107972Y25197D01*
X114764Y22244D02*
X115157Y21850D01*
X96653Y22244D02*
X114764D01*
X83661Y26280D02*
Y30807D01*
X83957Y31102D01*
X61221Y21457D02*
X65945D01*
X49244Y27394D02*
X63558D01*
X64398Y26554D01*
X48404Y26553D02*
X49244Y27394D01*
X47743Y25886D02*
X48404Y26547D01*
Y26553D01*
X64398Y24303D02*
Y26554D01*
X46522Y25886D02*
X47743D01*
X34316Y29198D02*
X36417Y31299D01*
X33366Y28937D02*
X33627Y29198D01*
X36417Y31299D02*
Y31890D01*
X33627Y29198D02*
X34316D01*
X30709Y27267D02*
Y35138D01*
X33563Y37992D01*
X36417D01*
X26161Y26681D02*
X30123D01*
X30709Y27267D01*
X22885Y20866D02*
X26071D01*
X22098Y21653D02*
X22885Y20866D01*
X22098Y21653D02*
Y23835D01*
X22885Y24622D01*
X26071D01*
X26161Y24713D01*
X26071Y20866D02*
X26161Y20776D01*
Y24713D02*
X31005D01*
X32178Y25886D02*
X36640D01*
X31005Y24713D02*
X32178Y25886D01*
X36239Y18807D02*
X36640Y18406D01*
X30217Y18807D02*
X36239D01*
X26161D02*
X30217D01*
X30224Y18815D02*
Y21867D01*
X30217Y18807D02*
X30224Y18815D01*
X26161Y22744D02*
X26252Y22654D01*
X29438D01*
X30224Y21867D01*
X26161Y14988D02*
X32238D01*
X32801Y15551D02*
X33169D01*
X32238Y14988D02*
X32801Y15551D01*
X78986Y17569D02*
X90797D01*
X90847Y17618D01*
X78937Y17520D02*
X78986Y17569D01*
X78847Y19398D02*
X78937Y19488D01*
X76547Y19398D02*
X78847D01*
X90945Y21457D02*
X96063Y16339D01*
X78937Y21457D02*
X90945D01*
X96063Y16339D02*
X96653D01*
X86417Y23425D02*
X96063Y33071D01*
X78937Y23425D02*
X86417D01*
X96063Y33071D02*
X96653D01*
X95255Y33879D02*
X96063Y33071D01*
X77559Y25484D02*
X77650Y25394D01*
X78937D01*
X77559Y25484D02*
Y31102D01*
X57982Y25264D02*
X60143D01*
X56482Y17997D02*
Y23764D01*
X53482Y17997D02*
Y18235D01*
X50237Y18611D02*
X50921Y19295D01*
X48482Y18611D02*
X50237D01*
X60143Y25264D02*
X61090D01*
X46727Y18611D02*
X48482D01*
X61090Y25264D02*
X61221Y25394D01*
X46522Y18406D02*
X46727Y18611D01*
X63611Y23516D02*
X64398Y24303D01*
X61311Y23516D02*
X63611D01*
X61221Y23425D02*
X61311Y23516D01*
D40*
X81595Y-7972D02*
D03*
D41*
X76083Y-4232D02*
D03*
Y-7972D02*
D03*
Y-11713D02*
D03*
X87106D02*
D03*
Y-7972D02*
D03*
Y-4232D02*
D03*
D42*
X61221Y25394D02*
D03*
Y23425D02*
D03*
Y21457D02*
D03*
Y19488D02*
D03*
Y17520D02*
D03*
X78937D02*
D03*
Y19488D02*
D03*
Y21457D02*
D03*
Y23425D02*
D03*
Y25394D02*
D03*
D43*
X64065Y-11014D02*
X70276D01*
X57579Y-4528D02*
X64065Y-11014D01*
X99724Y11929D02*
X103839Y16043D01*
X73347Y11929D02*
X99724D01*
X53142Y12114D02*
X57579Y7677D01*
X57579Y-4528D02*
Y7677D01*
X68307D01*
X72539Y11909D01*
X103839Y16043D02*
Y18701D01*
X26161Y12114D02*
X53142D01*
X41339Y12114D02*
Y20762D01*
X41339Y12114D02*
X41339Y12114D01*
X36640Y22146D02*
X39955D01*
X41339Y20762D01*
D44*
X85706Y-2539D02*
X86516Y-3349D01*
Y-4134D02*
Y-3349D01*
X76083Y-4232D02*
X76575D01*
X76673Y-3349D02*
X77483Y-2539D01*
X85706D01*
X76575Y-4232D02*
X76673Y-4134D01*
Y-3349D01*
X75984Y-4331D02*
X76083Y-4232D01*
X75492Y-4331D02*
X75984D01*
X86516Y-4134D02*
X86614Y-4232D01*
X73376Y-7914D02*
Y-6447D01*
X75492Y-4331D01*
X86614Y-4232D02*
X87106D01*
X70276Y-11014D02*
X73376Y-7914D01*
X70876Y-11614D02*
X75984D01*
X70276Y-11014D02*
X70876Y-11614D01*
X75984D02*
X76083Y-11713D01*
X89872Y-7972D02*
X92913Y-11014D01*
X87106Y-7972D02*
X89872D01*
X87205Y-11614D02*
X92313D01*
X92913Y-11014D01*
X87106Y-11713D02*
X87205Y-11614D01*
X87106Y-11713D02*
Y-7972D01*
D45*
X110039Y10531D02*
Y10669D01*
X95255Y5709D02*
X105217D01*
X110039Y10669D02*
X111221Y11850D01*
X105217Y5709D02*
X110039Y10531D01*
X111221Y11850D02*
X115157D01*
X114363Y31056D02*
X115157Y31850D01*
X100984Y30906D02*
X101135Y31056D01*
X114363D01*
X20102Y28635D02*
X22479Y31012D01*
X25768D01*
X26161Y31405D01*
X20102Y15134D02*
Y28635D01*
Y15134D02*
X22728Y12508D01*
X25768D01*
X26161Y12114D01*
D46*
X102214Y-11014D02*
X115157Y1929D01*
Y11850D01*
X92913Y-11014D02*
X102214D01*
D47*
X50738Y22195D02*
X50787Y22244D01*
X46522Y22146D02*
X46571Y22195D01*
X50738D01*
X42323Y34941D02*
Y37992D01*
Y31890D02*
Y34941D01*
X46063D02*
X46063Y34941D01*
X42323Y34941D02*
X46063D01*
X24557Y8965D02*
X26161D01*
X24360Y8768D02*
X24557Y8965D01*
X24360Y5752D02*
Y8768D01*
X23360Y4752D02*
X24360Y5752D01*
X22559Y4752D02*
X23360D01*
X24360Y34752D02*
X24557Y34555D01*
X24360Y34752D02*
Y38449D01*
X24557Y34555D02*
X26161D01*
X24360Y38449D02*
X24481Y38570D01*
D48*
X22559Y38768D02*
D03*
Y4752D02*
D03*
X6102Y38768D02*
D03*
Y4752D02*
D03*
D49*
X20472Y33138D02*
D03*
Y10382D02*
D03*
D50*
X40354Y-6890D02*
D03*
D51*
X83366Y-6201D02*
D03*
X79823D02*
D03*
X83366Y-9843D02*
D03*
X79823D02*
D03*
X70374Y-689D02*
D03*
X92913Y-591D02*
D03*
X62894Y12205D02*
D03*
X73524Y5807D02*
D03*
X100984Y30906D02*
D03*
X103839Y18701D02*
D03*
Y16043D02*
D03*
X107972Y25197D02*
D03*
X83661Y26280D02*
D03*
X65945Y21457D02*
D03*
X50787Y22244D02*
D03*
X46063Y34941D02*
D03*
X33366Y28937D02*
D03*
X90847Y17618D02*
D03*
X33169Y15551D02*
D03*
D52*
X31496Y-6890D02*
D03*
X49213D02*
D03*
X40354Y1969D02*
D03*
Y-16732D02*
D03*
X47244Y0D02*
D03*
X33465D02*
D03*
Y-13780D02*
D03*
X47244Y-13780D02*
D03*
M02*
