G04*
G04 #@! TF.GenerationSoftware,Altium Limited,Altium Designer,24.4.1 (13)*
G04*
G04 Layer_Color=8388736*
%FSLAX25Y25*%
%MOIN*%
G70*
G04*
G04 #@! TF.SameCoordinates,E41166F6-3636-470B-8936-F2971D322FF1*
G04*
G04*
G04 #@! TF.FilePolarity,Negative*
G04*
G01*
G75*
G04:AMPARAMS|DCode=27|XSize=47.37mil|YSize=126.11mil|CornerRadius=8.92mil|HoleSize=0mil|Usage=FLASHONLY|Rotation=90.000|XOffset=0mil|YOffset=0mil|HoleType=Round|Shape=RoundedRectangle|*
%AMROUNDEDRECTD27*
21,1,0.04737,0.10827,0,0,90.0*
21,1,0.02953,0.12611,0,0,90.0*
1,1,0.01784,0.05413,0.01476*
1,1,0.01784,0.05413,-0.01476*
1,1,0.01784,-0.05413,-0.01476*
1,1,0.01784,-0.05413,0.01476*
%
%ADD27ROUNDEDRECTD27*%
%ADD28R,0.03162X0.04343*%
G04:AMPARAMS|DCode=29|XSize=55.64mil|YSize=31.23mil|CornerRadius=6.9mil|HoleSize=0mil|Usage=FLASHONLY|Rotation=180.000|XOffset=0mil|YOffset=0mil|HoleType=Round|Shape=RoundedRectangle|*
%AMROUNDEDRECTD29*
21,1,0.05564,0.01742,0,0,180.0*
21,1,0.04183,0.03123,0,0,180.0*
1,1,0.01381,-0.02092,0.00871*
1,1,0.01381,0.02092,0.00871*
1,1,0.01381,0.02092,-0.00871*
1,1,0.01381,-0.02092,-0.00871*
%
%ADD29ROUNDEDRECTD29*%
%ADD30R,0.04343X0.03162*%
%ADD31R,0.03950X0.03950*%
%ADD32R,0.03950X0.03950*%
%ADD33R,0.09500X0.12600*%
%ADD34R,0.04400X0.02800*%
%ADD35R,0.04331X0.01575*%
%ADD36R,0.06509X0.03162*%
%ADD37R,0.06509X0.01981*%
G04:AMPARAMS|DCode=38|XSize=75.32mil|YSize=56.42mil|CornerRadius=10.05mil|HoleSize=0mil|Usage=FLASHONLY|Rotation=180.000|XOffset=0mil|YOffset=0mil|HoleType=Round|Shape=RoundedRectangle|*
%AMROUNDEDRECTD38*
21,1,0.07532,0.03632,0,0,180.0*
21,1,0.05522,0.05642,0,0,180.0*
1,1,0.02011,-0.02761,0.01816*
1,1,0.02011,0.02761,0.01816*
1,1,0.02011,0.02761,-0.01816*
1,1,0.02011,-0.02761,-0.01816*
%
%ADD38ROUNDEDRECTD38*%
%ADD39O,0.09068X0.04934*%
%ADD40C,0.03556*%
%ADD41C,0.25800*%
%ADD42C,0.03162*%
G36*
X55107Y63827D02*
X55207D01*
Y63793D01*
X55240D01*
Y63760D01*
X55274D01*
Y63694D01*
X55307D01*
Y63461D01*
X55274D01*
Y63394D01*
X55240D01*
Y63361D01*
X55207D01*
Y63328D01*
X55107D01*
Y63295D01*
X54908D01*
Y63328D01*
X54841D01*
Y63361D01*
X54808D01*
Y63394D01*
X54775D01*
Y63461D01*
X54742D01*
Y63694D01*
X54775D01*
Y63760D01*
X54808D01*
Y63793D01*
X54841D01*
Y63827D01*
X54941D01*
Y63860D01*
X55107D01*
Y63827D01*
D02*
G37*
G36*
X39845Y62530D02*
X39945D01*
Y62497D01*
X39979D01*
Y62364D01*
X39945D01*
Y62131D01*
X39845D01*
Y62164D01*
X39513D01*
Y62131D01*
X39347D01*
Y62098D01*
X39247D01*
Y62064D01*
X39180D01*
Y62031D01*
X39114D01*
Y61998D01*
X39081D01*
Y61965D01*
X39014D01*
Y61932D01*
X38981D01*
Y61898D01*
X38948D01*
Y61865D01*
X38915D01*
Y61832D01*
X38881D01*
Y61799D01*
X38848D01*
Y61732D01*
X38815D01*
Y61699D01*
X38781D01*
Y61632D01*
X38748D01*
Y61566D01*
X38715D01*
Y61499D01*
X38682D01*
Y61433D01*
X38649D01*
Y61300D01*
X38615D01*
Y58740D01*
X38216D01*
Y62497D01*
X38615D01*
Y61965D01*
X38682D01*
Y62031D01*
X38715D01*
Y62064D01*
X38748D01*
Y62131D01*
X38781D01*
Y62164D01*
X38815D01*
Y62198D01*
X38848D01*
Y62231D01*
X38881D01*
Y62264D01*
X38915D01*
Y62297D01*
X38948D01*
Y62331D01*
X38981D01*
Y62364D01*
X39048D01*
Y62397D01*
X39081D01*
Y62430D01*
X39147D01*
Y62463D01*
X39247D01*
Y62497D01*
X39347D01*
Y62530D01*
X39480D01*
Y62563D01*
X39845D01*
Y62530D01*
D02*
G37*
G36*
X61525D02*
X61757D01*
Y62497D01*
X61857D01*
Y62463D01*
X61957D01*
Y62430D01*
X62023D01*
Y62397D01*
X62090D01*
Y62364D01*
X62156D01*
Y62331D01*
X62223D01*
Y62297D01*
X62256D01*
Y62264D01*
X62289D01*
Y62231D01*
X62356D01*
Y62198D01*
X62389D01*
Y62164D01*
X62422D01*
Y62131D01*
X62456D01*
Y62064D01*
X62489D01*
Y62031D01*
X62522D01*
Y61998D01*
X62555D01*
Y61932D01*
X62589D01*
Y61865D01*
X62622D01*
Y61765D01*
X62655D01*
Y61599D01*
X62688D01*
Y61433D01*
X62256D01*
Y61632D01*
X62223D01*
Y61699D01*
X62190D01*
Y61765D01*
X62156D01*
Y61832D01*
X62123D01*
Y61865D01*
X62090D01*
Y61898D01*
X62057D01*
Y61932D01*
X62023D01*
Y61965D01*
X61990D01*
Y61998D01*
X61957D01*
Y62031D01*
X61890D01*
Y62064D01*
X61824D01*
Y62098D01*
X61757D01*
Y62131D01*
X61691D01*
Y62164D01*
X61525D01*
Y62198D01*
X61026D01*
Y62164D01*
X60893D01*
Y62131D01*
X60793D01*
Y62098D01*
X60727D01*
Y62064D01*
X60660D01*
Y62031D01*
X60627D01*
Y61998D01*
X60594D01*
Y61965D01*
X60560D01*
Y61932D01*
X60527D01*
Y61898D01*
X60494D01*
Y61865D01*
X60461D01*
Y61799D01*
X60427D01*
Y61732D01*
X60394D01*
Y61366D01*
X60427D01*
Y61266D01*
X60461D01*
Y61233D01*
X60494D01*
Y61200D01*
X60527D01*
Y61133D01*
X60594D01*
Y61100D01*
X60627D01*
Y61067D01*
X60693D01*
Y61034D01*
X60760D01*
Y61001D01*
X60826D01*
Y60967D01*
X60926D01*
Y60934D01*
X61026D01*
Y60901D01*
X61126D01*
Y60868D01*
X61259D01*
Y60834D01*
X61392D01*
Y60801D01*
X61525D01*
Y60768D01*
X61624D01*
Y60734D01*
X61757D01*
Y60701D01*
X61857D01*
Y60668D01*
X61957D01*
Y60635D01*
X62023D01*
Y60602D01*
X62090D01*
Y60568D01*
X62156D01*
Y60535D01*
X62223D01*
Y60502D01*
X62289D01*
Y60469D01*
X62323D01*
Y60435D01*
X62356D01*
Y60402D01*
X62422D01*
Y60369D01*
X62456D01*
Y60335D01*
X62489D01*
Y60302D01*
X62522D01*
Y60236D01*
X62555D01*
Y60202D01*
X62589D01*
Y60136D01*
X62622D01*
Y60070D01*
X62655D01*
Y59970D01*
X62688D01*
Y59438D01*
X62655D01*
Y59338D01*
X62622D01*
Y59272D01*
X62589D01*
Y59205D01*
X62555D01*
Y59139D01*
X62522D01*
Y59105D01*
X62489D01*
Y59072D01*
X62456D01*
Y59039D01*
X62422D01*
Y59005D01*
X62389D01*
Y58972D01*
X62356D01*
Y58939D01*
X62289D01*
Y58906D01*
X62256D01*
Y58872D01*
X62190D01*
Y58839D01*
X62123D01*
Y58806D01*
X62057D01*
Y58773D01*
X61990D01*
Y58740D01*
X61890D01*
Y58706D01*
X61724D01*
Y58673D01*
X61458D01*
Y58640D01*
X61192D01*
Y58673D01*
X60893D01*
Y58706D01*
X60760D01*
Y58740D01*
X60627D01*
Y58773D01*
X60560D01*
Y58806D01*
X60494D01*
Y58839D01*
X60427D01*
Y58872D01*
X60361D01*
Y58906D01*
X60328D01*
Y58939D01*
X60261D01*
Y58972D01*
X60228D01*
Y59005D01*
X60195D01*
Y59039D01*
X60161D01*
Y59072D01*
X60128D01*
Y59105D01*
X60095D01*
Y59139D01*
X60062D01*
Y59172D01*
X60028D01*
Y59205D01*
X59995D01*
Y59272D01*
X59962D01*
Y59305D01*
X59929D01*
Y59404D01*
X59895D01*
Y59471D01*
X59862D01*
Y59637D01*
X59829D01*
Y59770D01*
X60261D01*
Y59637D01*
X60294D01*
Y59538D01*
X60328D01*
Y59471D01*
X60361D01*
Y59404D01*
X60394D01*
Y59371D01*
X60427D01*
Y59305D01*
X60461D01*
Y59272D01*
X60494D01*
Y59238D01*
X60560D01*
Y59205D01*
X60594D01*
Y59172D01*
X60660D01*
Y59139D01*
X60727D01*
Y59105D01*
X60793D01*
Y59072D01*
X60893D01*
Y59039D01*
X61059D01*
Y59005D01*
X61558D01*
Y59039D01*
X61724D01*
Y59072D01*
X61824D01*
Y59105D01*
X61890D01*
Y59139D01*
X61957D01*
Y59172D01*
X61990D01*
Y59205D01*
X62057D01*
Y59238D01*
X62090D01*
Y59272D01*
X62123D01*
Y59305D01*
X62156D01*
Y59338D01*
X62190D01*
Y59404D01*
X62223D01*
Y59471D01*
X62256D01*
Y59571D01*
X62289D01*
Y59803D01*
X62256D01*
Y59903D01*
X62223D01*
Y60003D01*
X62190D01*
Y60036D01*
X62156D01*
Y60070D01*
X62123D01*
Y60103D01*
X62090D01*
Y60136D01*
X62057D01*
Y60169D01*
X62023D01*
Y60202D01*
X61990D01*
Y60236D01*
X61924D01*
Y60269D01*
X61857D01*
Y60302D01*
X61791D01*
Y60335D01*
X61691D01*
Y60369D01*
X61624D01*
Y60402D01*
X61491D01*
Y60435D01*
X61358D01*
Y60469D01*
X61225D01*
Y60502D01*
X61092D01*
Y60535D01*
X60959D01*
Y60568D01*
X60826D01*
Y60602D01*
X60727D01*
Y60635D01*
X60660D01*
Y60668D01*
X60560D01*
Y60701D01*
X60494D01*
Y60734D01*
X60427D01*
Y60768D01*
X60394D01*
Y60801D01*
X60328D01*
Y60834D01*
X60294D01*
Y60868D01*
X60261D01*
Y60901D01*
X60195D01*
Y60934D01*
X60161D01*
Y61001D01*
X60128D01*
Y61034D01*
X60095D01*
Y61067D01*
X60062D01*
Y61133D01*
X60028D01*
Y61233D01*
X59995D01*
Y61333D01*
X59962D01*
Y61699D01*
X59995D01*
Y61832D01*
X60028D01*
Y61932D01*
X60062D01*
Y61965D01*
X60095D01*
Y62031D01*
X60128D01*
Y62064D01*
X60161D01*
Y62131D01*
X60195D01*
Y62164D01*
X60228D01*
Y62198D01*
X60261D01*
Y62231D01*
X60294D01*
Y62264D01*
X60361D01*
Y62297D01*
X60394D01*
Y62331D01*
X60461D01*
Y62364D01*
X60494D01*
Y62397D01*
X60560D01*
Y62430D01*
X60660D01*
Y62463D01*
X60760D01*
Y62497D01*
X60860D01*
Y62530D01*
X61059D01*
Y62563D01*
X61525D01*
Y62530D01*
D02*
G37*
G36*
X57967D02*
X58166D01*
Y62497D01*
X58266D01*
Y62463D01*
X58366D01*
Y62430D01*
X58432D01*
Y62397D01*
X58499D01*
Y62364D01*
X58565D01*
Y62331D01*
X58599D01*
Y62297D01*
X58665D01*
Y62264D01*
X58698D01*
Y62231D01*
X58732D01*
Y62198D01*
X58765D01*
Y62164D01*
X58798D01*
Y62131D01*
X58831D01*
Y62098D01*
X58865D01*
Y62064D01*
X58898D01*
Y62031D01*
X58931D01*
Y61998D01*
X58964D01*
Y61932D01*
X58998D01*
Y61898D01*
X59031D01*
Y61832D01*
X59064D01*
Y61765D01*
X59097D01*
Y61665D01*
X59131D01*
Y61566D01*
X59164D01*
Y61400D01*
X59197D01*
Y61233D01*
X58798D01*
Y61333D01*
X58765D01*
Y61499D01*
X58732D01*
Y61599D01*
X58698D01*
Y61665D01*
X58665D01*
Y61732D01*
X58632D01*
Y61765D01*
X58599D01*
Y61832D01*
X58565D01*
Y61865D01*
X58532D01*
Y61898D01*
X58499D01*
Y61932D01*
X58466D01*
Y61965D01*
X58432D01*
Y61998D01*
X58366D01*
Y62031D01*
X58333D01*
Y62064D01*
X58266D01*
Y62098D01*
X58200D01*
Y62131D01*
X58100D01*
Y62164D01*
X57967D01*
Y62198D01*
X57501D01*
Y62164D01*
X57368D01*
Y62131D01*
X57269D01*
Y62098D01*
X57202D01*
Y62064D01*
X57136D01*
Y62031D01*
X57102D01*
Y61998D01*
X57069D01*
Y61965D01*
X57003D01*
Y61932D01*
X56969D01*
Y61898D01*
X56936D01*
Y61865D01*
X56903D01*
Y61799D01*
X56870D01*
Y61765D01*
X56836D01*
Y61732D01*
X56803D01*
Y61665D01*
X56770D01*
Y61599D01*
X56737D01*
Y61532D01*
X56703D01*
Y61466D01*
X56670D01*
Y61366D01*
X56637D01*
Y61233D01*
X56604D01*
Y61067D01*
X56570D01*
Y60136D01*
X56604D01*
Y59970D01*
X56637D01*
Y59837D01*
X56670D01*
Y59737D01*
X56703D01*
Y59671D01*
X56737D01*
Y59604D01*
X56770D01*
Y59538D01*
X56803D01*
Y59471D01*
X56836D01*
Y59438D01*
X56870D01*
Y59404D01*
X56903D01*
Y59338D01*
X56936D01*
Y59305D01*
X56969D01*
Y59272D01*
X57003D01*
Y59238D01*
X57069D01*
Y59205D01*
X57102D01*
Y59172D01*
X57169D01*
Y59139D01*
X57202D01*
Y59105D01*
X57302D01*
Y59072D01*
X57402D01*
Y59039D01*
X57535D01*
Y59005D01*
X57967D01*
Y59039D01*
X58100D01*
Y59072D01*
X58200D01*
Y59105D01*
X58266D01*
Y59139D01*
X58333D01*
Y59172D01*
X58399D01*
Y59205D01*
X58432D01*
Y59238D01*
X58499D01*
Y59272D01*
X58532D01*
Y59305D01*
X58565D01*
Y59338D01*
X58599D01*
Y59404D01*
X58632D01*
Y59438D01*
X58665D01*
Y59504D01*
X58698D01*
Y59538D01*
X58732D01*
Y59637D01*
X58765D01*
Y59770D01*
X58798D01*
Y59870D01*
X58831D01*
Y59903D01*
X59164D01*
Y59870D01*
X59197D01*
Y59704D01*
X59164D01*
Y59571D01*
X59131D01*
Y59504D01*
X59097D01*
Y59404D01*
X59064D01*
Y59371D01*
X59031D01*
Y59305D01*
X58998D01*
Y59238D01*
X58964D01*
Y59205D01*
X58931D01*
Y59172D01*
X58898D01*
Y59139D01*
X58865D01*
Y59105D01*
X58831D01*
Y59072D01*
X58798D01*
Y59039D01*
X58765D01*
Y59005D01*
X58732D01*
Y58972D01*
X58698D01*
Y58939D01*
X58632D01*
Y58906D01*
X58599D01*
Y58872D01*
X58532D01*
Y58839D01*
X58466D01*
Y58806D01*
X58399D01*
Y58773D01*
X58333D01*
Y58740D01*
X58233D01*
Y58706D01*
X58100D01*
Y58673D01*
X57867D01*
Y58640D01*
X57634D01*
Y58673D01*
X57368D01*
Y58706D01*
X57235D01*
Y58740D01*
X57136D01*
Y58773D01*
X57069D01*
Y58806D01*
X57003D01*
Y58839D01*
X56936D01*
Y58872D01*
X56870D01*
Y58906D01*
X56836D01*
Y58939D01*
X56803D01*
Y58972D01*
X56737D01*
Y59005D01*
X56703D01*
Y59039D01*
X56670D01*
Y59072D01*
X56637D01*
Y59105D01*
X56604D01*
Y59139D01*
X56570D01*
Y59205D01*
X56537D01*
Y59238D01*
X56504D01*
Y59272D01*
X56471D01*
Y59338D01*
X56437D01*
Y59371D01*
X56404D01*
Y59438D01*
X56371D01*
Y59504D01*
X56338D01*
Y59571D01*
X56304D01*
Y59671D01*
X56271D01*
Y59737D01*
X56238D01*
Y59870D01*
X56205D01*
Y60003D01*
X56171D01*
Y60236D01*
X56138D01*
Y60967D01*
X56171D01*
Y61200D01*
X56205D01*
Y61333D01*
X56238D01*
Y61466D01*
X56271D01*
Y61566D01*
X56304D01*
Y61632D01*
X56338D01*
Y61699D01*
X56371D01*
Y61765D01*
X56404D01*
Y61832D01*
X56437D01*
Y61898D01*
X56471D01*
Y61932D01*
X56504D01*
Y61965D01*
X56537D01*
Y62031D01*
X56570D01*
Y62064D01*
X56604D01*
Y62098D01*
X56637D01*
Y62131D01*
X56670D01*
Y62164D01*
X56703D01*
Y62198D01*
X56737D01*
Y62231D01*
X56770D01*
Y62264D01*
X56836D01*
Y62297D01*
X56870D01*
Y62331D01*
X56936D01*
Y62364D01*
X57003D01*
Y62397D01*
X57069D01*
Y62430D01*
X57136D01*
Y62463D01*
X57235D01*
Y62497D01*
X57335D01*
Y62530D01*
X57535D01*
Y62563D01*
X57967D01*
Y62530D01*
D02*
G37*
G36*
X55207Y62463D02*
X55240D01*
Y58740D01*
X54808D01*
Y62497D01*
X55207D01*
Y62463D01*
D02*
G37*
G36*
X53112Y62497D02*
X53877D01*
Y62463D01*
X53910D01*
Y62164D01*
X53146D01*
Y62131D01*
X53112D01*
Y59471D01*
X53146D01*
Y59305D01*
X53179D01*
Y59238D01*
X53212D01*
Y59172D01*
X53245D01*
Y59139D01*
X53279D01*
Y59105D01*
X53312D01*
Y59072D01*
X53378D01*
Y59039D01*
X53511D01*
Y59005D01*
X53711D01*
Y59039D01*
X53944D01*
Y58806D01*
X53977D01*
Y58706D01*
X53877D01*
Y58673D01*
X53644D01*
Y58640D01*
X53412D01*
Y58673D01*
X53212D01*
Y58706D01*
X53112D01*
Y58740D01*
X53079D01*
Y58773D01*
X53013D01*
Y58806D01*
X52979D01*
Y58839D01*
X52946D01*
Y58872D01*
X52913D01*
Y58906D01*
X52880D01*
Y58939D01*
X52846D01*
Y59005D01*
X52813D01*
Y59072D01*
X52780D01*
Y59139D01*
X52747D01*
Y59272D01*
X52713D01*
Y62098D01*
X52680D01*
Y62164D01*
X52015D01*
Y62497D01*
X52680D01*
Y62530D01*
X52713D01*
Y63461D01*
X53112D01*
Y62497D01*
D02*
G37*
G36*
X50153Y62530D02*
X50353D01*
Y62497D01*
X50452D01*
Y62463D01*
X50552D01*
Y62430D01*
X50652D01*
Y62397D01*
X50718D01*
Y62364D01*
X50752D01*
Y62331D01*
X50818D01*
Y62297D01*
X50885D01*
Y62264D01*
X50918D01*
Y62231D01*
X50951D01*
Y62198D01*
X50984D01*
Y62164D01*
X51051D01*
Y62131D01*
X51084D01*
Y62098D01*
X51117D01*
Y62031D01*
X51151D01*
Y61998D01*
X51184D01*
Y61965D01*
X51217D01*
Y61932D01*
X51250D01*
Y61865D01*
X51284D01*
Y61832D01*
X51317D01*
Y61765D01*
X51350D01*
Y61732D01*
X51383D01*
Y61665D01*
X51417D01*
Y61599D01*
X51450D01*
Y61499D01*
X51483D01*
Y61400D01*
X51516D01*
Y61300D01*
X51550D01*
Y61133D01*
X51583D01*
Y60901D01*
X51616D01*
Y60269D01*
X51583D01*
Y60070D01*
X51550D01*
Y59903D01*
X51516D01*
Y59803D01*
X51483D01*
Y59704D01*
X51450D01*
Y59637D01*
X51417D01*
Y59571D01*
X51383D01*
Y59504D01*
X51350D01*
Y59438D01*
X51317D01*
Y59371D01*
X51284D01*
Y59338D01*
X51250D01*
Y59272D01*
X51217D01*
Y59238D01*
X51184D01*
Y59205D01*
X51151D01*
Y59172D01*
X51117D01*
Y59105D01*
X51084D01*
Y59072D01*
X51018D01*
Y59039D01*
X50984D01*
Y59005D01*
X50951D01*
Y58972D01*
X50918D01*
Y58939D01*
X50851D01*
Y58906D01*
X50818D01*
Y58872D01*
X50752D01*
Y58839D01*
X50685D01*
Y58806D01*
X50619D01*
Y58773D01*
X50552D01*
Y58740D01*
X50452D01*
Y58706D01*
X50319D01*
Y58673D01*
X50053D01*
Y58640D01*
X49821D01*
Y58673D01*
X49555D01*
Y58706D01*
X49422D01*
Y58740D01*
X49322D01*
Y58773D01*
X49255D01*
Y58806D01*
X49189D01*
Y58839D01*
X49122D01*
Y58872D01*
X49056D01*
Y58906D01*
X49023D01*
Y58939D01*
X48956D01*
Y58972D01*
X48923D01*
Y59005D01*
X48890D01*
Y59039D01*
X48823D01*
Y59072D01*
X48790D01*
Y59105D01*
X48757D01*
Y59139D01*
X48723D01*
Y59205D01*
X48690D01*
Y59238D01*
X48657D01*
Y59272D01*
X48624D01*
Y59305D01*
X48590D01*
Y59371D01*
X48557D01*
Y59404D01*
X48524D01*
Y59471D01*
X48491D01*
Y59538D01*
X48457D01*
Y59604D01*
X48424D01*
Y59671D01*
X48391D01*
Y59770D01*
X48358D01*
Y59870D01*
X48324D01*
Y60003D01*
X48291D01*
Y60202D01*
X48258D01*
Y60934D01*
Y60967D01*
Y61001D01*
X48291D01*
Y61200D01*
X48324D01*
Y61333D01*
X48358D01*
Y61433D01*
X48391D01*
Y61532D01*
X48424D01*
Y61599D01*
X48457D01*
Y61665D01*
X48491D01*
Y61732D01*
X48524D01*
Y61799D01*
X48557D01*
Y61832D01*
X48590D01*
Y61898D01*
X48624D01*
Y61932D01*
X48657D01*
Y61965D01*
X48690D01*
Y62031D01*
X48723D01*
Y62064D01*
X48757D01*
Y62098D01*
X48790D01*
Y62131D01*
X48823D01*
Y62164D01*
X48856D01*
Y62198D01*
X48923D01*
Y62231D01*
X48956D01*
Y62264D01*
X48989D01*
Y62297D01*
X49056D01*
Y62331D01*
X49089D01*
Y62364D01*
X49156D01*
Y62397D01*
X49222D01*
Y62430D01*
X49322D01*
Y62463D01*
X49422D01*
Y62497D01*
X49521D01*
Y62530D01*
X49721D01*
Y62563D01*
X50153D01*
Y62530D01*
D02*
G37*
G36*
X44933Y61998D02*
X44999D01*
Y62064D01*
X45033D01*
Y62098D01*
X45066D01*
Y62131D01*
X45099D01*
Y62164D01*
X45132D01*
Y62198D01*
X45166D01*
Y62231D01*
X45199D01*
Y62264D01*
X45232D01*
Y62297D01*
X45299D01*
Y62331D01*
X45332D01*
Y62364D01*
X45398D01*
Y62397D01*
X45465D01*
Y62430D01*
X45531D01*
Y62463D01*
X45598D01*
Y62497D01*
X45731D01*
Y62530D01*
X45897D01*
Y62563D01*
X46329D01*
Y62530D01*
X46496D01*
Y62497D01*
X46595D01*
Y62463D01*
X46695D01*
Y62430D01*
X46762D01*
Y62397D01*
X46828D01*
Y62364D01*
X46861D01*
Y62331D01*
X46928D01*
Y62297D01*
X46961D01*
Y62264D01*
X46994D01*
Y62231D01*
X47028D01*
Y62198D01*
X47061D01*
Y62164D01*
X47094D01*
Y62131D01*
X47127D01*
Y62098D01*
X47161D01*
Y62031D01*
X47194D01*
Y61998D01*
X47227D01*
Y61965D01*
X47260D01*
Y61898D01*
X47294D01*
Y61832D01*
X47327D01*
Y61765D01*
X47360D01*
Y61699D01*
X47393D01*
Y61599D01*
X47427D01*
Y61499D01*
X47460D01*
Y61400D01*
X47493D01*
Y61233D01*
X47526D01*
Y61001D01*
X47560D01*
Y60202D01*
X47526D01*
Y59970D01*
X47493D01*
Y59803D01*
X47460D01*
Y59704D01*
X47427D01*
Y59671D01*
Y59637D01*
Y59604D01*
X47393D01*
Y59504D01*
X47360D01*
Y59438D01*
X47327D01*
Y59371D01*
X47294D01*
Y59338D01*
X47260D01*
Y59272D01*
X47227D01*
Y59205D01*
X47194D01*
Y59172D01*
X47161D01*
Y59139D01*
X47127D01*
Y59105D01*
X47094D01*
Y59039D01*
X47061D01*
Y59005D01*
X47028D01*
Y58972D01*
X46994D01*
Y58939D01*
X46928D01*
Y58906D01*
X46895D01*
Y58872D01*
X46861D01*
Y58839D01*
X46795D01*
Y58806D01*
X46728D01*
Y58773D01*
X46662D01*
Y58740D01*
X46562D01*
Y58706D01*
X46462D01*
Y58673D01*
X46230D01*
Y58640D01*
X45997D01*
Y58673D01*
X45764D01*
Y58706D01*
X45631D01*
Y58740D01*
X45531D01*
Y58773D01*
X45465D01*
Y58806D01*
X45398D01*
Y58839D01*
X45332D01*
Y58872D01*
X45265D01*
Y58906D01*
X45232D01*
Y58939D01*
X45199D01*
Y58972D01*
X45166D01*
Y59005D01*
X45099D01*
Y59039D01*
X45066D01*
Y59105D01*
X45033D01*
Y59139D01*
X44999D01*
Y59172D01*
X44966D01*
Y59205D01*
X44933D01*
Y58740D01*
X44534D01*
Y64060D01*
X44933D01*
Y61998D01*
D02*
G37*
G36*
X42206Y62530D02*
X42406D01*
Y62497D01*
X42539D01*
Y62463D01*
X42638D01*
Y62430D01*
X42705D01*
Y62397D01*
X42772D01*
Y62364D01*
X42838D01*
Y62331D01*
X42871D01*
Y62297D01*
X42938D01*
Y62264D01*
X42971D01*
Y62231D01*
X43004D01*
Y62198D01*
X43071D01*
Y62164D01*
X43104D01*
Y62131D01*
X43137D01*
Y62098D01*
X43170D01*
Y62064D01*
X43204D01*
Y62031D01*
X43237D01*
Y61965D01*
X43270D01*
Y61932D01*
X43304D01*
Y61898D01*
X43337D01*
Y61832D01*
X43370D01*
Y61799D01*
X43403D01*
Y61732D01*
X43437D01*
Y61665D01*
X43470D01*
Y61599D01*
X43503D01*
Y61532D01*
X43536D01*
Y61433D01*
X43569D01*
Y61333D01*
X43603D01*
Y61200D01*
X43636D01*
Y61100D01*
Y61067D01*
Y61001D01*
X43669D01*
Y60202D01*
X43636D01*
Y60003D01*
X43603D01*
Y59870D01*
X43569D01*
Y59770D01*
X43536D01*
Y59704D01*
X43503D01*
Y59604D01*
X43470D01*
Y59538D01*
X43437D01*
Y59471D01*
X43403D01*
Y59404D01*
X43370D01*
Y59371D01*
X43337D01*
Y59305D01*
X43304D01*
Y59272D01*
X43270D01*
Y59238D01*
X43237D01*
Y59172D01*
X43204D01*
Y59139D01*
X43170D01*
Y59105D01*
X43137D01*
Y59072D01*
X43104D01*
Y59039D01*
X43071D01*
Y59005D01*
X43004D01*
Y58972D01*
X42971D01*
Y58939D01*
X42938D01*
Y58906D01*
X42871D01*
Y58872D01*
X42805D01*
Y58839D01*
X42738D01*
Y58806D01*
X42672D01*
Y58773D01*
X42605D01*
Y58740D01*
X42505D01*
Y58706D01*
X42373D01*
Y58673D01*
X42107D01*
Y58640D01*
X41874D01*
Y58673D01*
X41608D01*
Y58706D01*
X41475D01*
Y58740D01*
X41375D01*
Y58773D01*
X41309D01*
Y58806D01*
X41242D01*
Y58839D01*
X41175D01*
Y58872D01*
X41109D01*
Y58906D01*
X41076D01*
Y58939D01*
X41009D01*
Y58972D01*
X40976D01*
Y59005D01*
X40943D01*
Y59039D01*
X40910D01*
Y59072D01*
X40876D01*
Y59105D01*
X40843D01*
Y59139D01*
X40810D01*
Y59172D01*
X40777D01*
Y59205D01*
X40743D01*
Y59238D01*
X40710D01*
Y59272D01*
X40677D01*
Y59338D01*
X40644D01*
Y59371D01*
X40610D01*
Y59438D01*
X40577D01*
Y59504D01*
X40544D01*
Y59538D01*
X40511D01*
Y59637D01*
X40477D01*
Y59704D01*
X40444D01*
Y59803D01*
X40411D01*
Y59903D01*
X40378D01*
Y60036D01*
X40344D01*
Y60269D01*
X40311D01*
Y60934D01*
X40344D01*
Y61167D01*
X40378D01*
Y61300D01*
X40411D01*
Y61400D01*
X40444D01*
Y61499D01*
X40477D01*
Y61566D01*
X40511D01*
Y61665D01*
X40544D01*
Y61699D01*
X40577D01*
Y61765D01*
X40610D01*
Y61832D01*
X40644D01*
Y61865D01*
X40677D01*
Y61932D01*
X40710D01*
Y61965D01*
X40743D01*
Y61998D01*
X40777D01*
Y62031D01*
X40810D01*
Y62064D01*
X40843D01*
Y62098D01*
X40876D01*
Y62131D01*
X40910D01*
Y62164D01*
X40943D01*
Y62198D01*
X40976D01*
Y62231D01*
X41009D01*
Y62264D01*
X41076D01*
Y62297D01*
X41109D01*
Y62331D01*
X41175D01*
Y62364D01*
X41242D01*
Y62397D01*
X41309D01*
Y62430D01*
X41375D01*
Y62463D01*
X41475D01*
Y62497D01*
X41574D01*
Y62530D01*
X41774D01*
Y62563D01*
X42206D01*
Y62530D01*
D02*
G37*
G36*
X51117Y55381D02*
Y55348D01*
Y52089D01*
X50752D01*
Y52355D01*
X50718D01*
Y52555D01*
X50685D01*
Y52522D01*
X50652D01*
Y52455D01*
X50619D01*
Y52422D01*
X50585D01*
Y52389D01*
X50552D01*
Y52355D01*
X50519D01*
Y52322D01*
X50452D01*
Y52289D01*
X50419D01*
Y52256D01*
X50386D01*
Y52223D01*
X50319D01*
Y52189D01*
X50253D01*
Y52156D01*
X50186D01*
Y52123D01*
X50087D01*
Y52089D01*
X49987D01*
Y52056D01*
X49821D01*
Y52023D01*
X49322D01*
Y52056D01*
X49156D01*
Y52089D01*
X49056D01*
Y52123D01*
X48989D01*
Y52156D01*
X48923D01*
Y52189D01*
X48856D01*
Y52223D01*
X48823D01*
Y52256D01*
X48757D01*
Y52289D01*
X48723D01*
Y52322D01*
X48690D01*
Y52355D01*
X48657D01*
Y52389D01*
X48624D01*
Y52422D01*
X48590D01*
Y52455D01*
X48557D01*
Y52488D01*
X48524D01*
Y52522D01*
X48491D01*
Y52588D01*
X48457D01*
Y52622D01*
X48424D01*
Y52688D01*
X48391D01*
Y52754D01*
X48358D01*
Y52788D01*
X48324D01*
Y52854D01*
X48291D01*
Y52954D01*
X48258D01*
Y53021D01*
X48225D01*
Y53153D01*
X48191D01*
Y53253D01*
X48158D01*
Y53453D01*
X48125D01*
Y53785D01*
X48092D01*
Y54151D01*
X48125D01*
Y54517D01*
X48158D01*
Y54683D01*
X48191D01*
Y54816D01*
X48225D01*
Y54916D01*
X48258D01*
Y55015D01*
X48291D01*
Y55082D01*
X48324D01*
Y55149D01*
X48358D01*
Y55215D01*
X48391D01*
Y55282D01*
X48424D01*
Y55315D01*
X48457D01*
Y55381D01*
X48491D01*
Y55414D01*
X48524D01*
Y55481D01*
X48557D01*
Y55514D01*
X48590D01*
Y55547D01*
X48624D01*
Y55581D01*
X48657D01*
Y55614D01*
X48690D01*
Y55647D01*
X48757D01*
Y55681D01*
X48790D01*
Y55714D01*
X48823D01*
Y55747D01*
X48890D01*
Y55780D01*
X48956D01*
Y55813D01*
X49023D01*
Y55847D01*
X49122D01*
Y55880D01*
X49255D01*
Y55913D01*
X49887D01*
Y55880D01*
X50020D01*
Y55847D01*
X50120D01*
Y55813D01*
X50186D01*
Y55780D01*
X50253D01*
Y55747D01*
X50319D01*
Y55714D01*
X50353D01*
Y55681D01*
X50419D01*
Y55647D01*
X50452D01*
Y55614D01*
X50486D01*
Y55581D01*
X50519D01*
Y55547D01*
X50552D01*
Y55514D01*
X50585D01*
Y55481D01*
X50619D01*
Y55448D01*
X50652D01*
Y55414D01*
X50685D01*
Y55348D01*
X50718D01*
Y57443D01*
X51117D01*
Y55381D01*
D02*
G37*
G36*
X63154Y55880D02*
X63187D01*
Y55681D01*
X63154D01*
Y55514D01*
X62622D01*
Y55481D01*
X62489D01*
Y55448D01*
X62422D01*
Y55414D01*
X62356D01*
Y55381D01*
X62289D01*
Y55348D01*
X62256D01*
Y55315D01*
X62223D01*
Y55282D01*
X62190D01*
Y55248D01*
X62123D01*
Y55182D01*
X62090D01*
Y55149D01*
X62057D01*
Y55115D01*
X62023D01*
Y55049D01*
X61990D01*
Y55015D01*
X61957D01*
Y54949D01*
X61924D01*
Y54882D01*
X61890D01*
Y54783D01*
X61857D01*
Y54683D01*
X61824D01*
Y52089D01*
X61425D01*
Y55847D01*
X61824D01*
Y55315D01*
X61857D01*
Y55348D01*
X61890D01*
Y55381D01*
X61924D01*
Y55448D01*
X61957D01*
Y55481D01*
X61990D01*
Y55514D01*
X62023D01*
Y55581D01*
X62057D01*
Y55614D01*
X62090D01*
Y55647D01*
X62123D01*
Y55681D01*
X62190D01*
Y55714D01*
X62223D01*
Y55747D01*
X62289D01*
Y55780D01*
X62323D01*
Y55813D01*
X62389D01*
Y55847D01*
X62489D01*
Y55880D01*
X62589D01*
Y55913D01*
X63154D01*
Y55880D01*
D02*
G37*
G36*
X47659D02*
X47693D01*
Y55514D01*
X47127D01*
Y55481D01*
X47028D01*
Y55448D01*
X46928D01*
Y55414D01*
X46861D01*
Y55381D01*
X46828D01*
Y55348D01*
X46762D01*
Y55315D01*
X46728D01*
Y55282D01*
X46695D01*
Y55248D01*
X46662D01*
Y55215D01*
X46629D01*
Y55182D01*
X46595D01*
Y55149D01*
X46562D01*
Y55082D01*
X46529D01*
Y55049D01*
X46496D01*
Y54982D01*
X46462D01*
Y54916D01*
X46429D01*
Y54849D01*
X46396D01*
Y54750D01*
X46363D01*
Y52089D01*
X45930D01*
Y53586D01*
Y53619D01*
Y55847D01*
X46363D01*
Y55315D01*
X46396D01*
Y55381D01*
X46429D01*
Y55414D01*
X46462D01*
Y55481D01*
X46496D01*
Y55514D01*
X46529D01*
Y55547D01*
X46562D01*
Y55581D01*
X46595D01*
Y55614D01*
X46629D01*
Y55647D01*
X46662D01*
Y55681D01*
X46695D01*
Y55714D01*
X46728D01*
Y55747D01*
X46795D01*
Y55780D01*
X46861D01*
Y55813D01*
X46928D01*
Y55847D01*
X46994D01*
Y55880D01*
X47127D01*
Y55913D01*
X47659D01*
Y55880D01*
D02*
G37*
G36*
X56803Y55747D02*
X56770D01*
Y55647D01*
X56737D01*
Y55547D01*
X56703D01*
Y55414D01*
X56670D01*
Y55315D01*
X56637D01*
Y55182D01*
X56604D01*
Y55082D01*
X56570D01*
Y54949D01*
X56537D01*
Y54849D01*
X56504D01*
Y54750D01*
X56471D01*
Y54616D01*
X56437D01*
Y54517D01*
X56404D01*
Y54384D01*
X56371D01*
Y54284D01*
X56338D01*
Y54151D01*
X56304D01*
Y54051D01*
X56271D01*
Y53918D01*
X56238D01*
Y53818D01*
X56205D01*
Y53685D01*
X56171D01*
Y53586D01*
X56138D01*
Y53486D01*
X56105D01*
Y53353D01*
X56072D01*
Y53253D01*
X56038D01*
Y53120D01*
X56005D01*
Y53021D01*
X55972D01*
Y52921D01*
X55939D01*
Y52788D01*
X55905D01*
Y52688D01*
X55872D01*
Y52555D01*
X55839D01*
Y52455D01*
X55806D01*
Y52322D01*
X55772D01*
Y52223D01*
X55739D01*
Y52123D01*
X55706D01*
Y52089D01*
X55373D01*
Y52123D01*
X55340D01*
Y52189D01*
X55307D01*
Y52322D01*
X55274D01*
Y52422D01*
X55240D01*
Y52522D01*
X55207D01*
Y52622D01*
X55174D01*
Y52721D01*
X55141D01*
Y52821D01*
X55107D01*
Y52921D01*
X55074D01*
Y53021D01*
X55041D01*
Y53120D01*
X55008D01*
Y53220D01*
X54974D01*
Y53320D01*
X54941D01*
Y53419D01*
X54908D01*
Y53552D01*
X54875D01*
Y53652D01*
X54841D01*
Y53752D01*
X54808D01*
Y53852D01*
X54775D01*
Y53951D01*
X54742D01*
Y54051D01*
X54708D01*
Y54151D01*
X54675D01*
Y54251D01*
X54642D01*
Y54351D01*
X54609D01*
Y54450D01*
X54575D01*
Y54550D01*
X54542D01*
Y54650D01*
X54509D01*
Y54783D01*
X54476D01*
Y54882D01*
X54442D01*
Y54982D01*
X54409D01*
Y55082D01*
X54376D01*
Y55215D01*
X54343D01*
Y55182D01*
X54309D01*
Y55015D01*
X54276D01*
Y54916D01*
X54243D01*
Y54816D01*
X54210D01*
Y54716D01*
X54176D01*
Y54616D01*
X54143D01*
Y54517D01*
X54110D01*
Y54417D01*
X54077D01*
Y54284D01*
X54043D01*
Y54184D01*
X54010D01*
Y54084D01*
X53977D01*
Y53985D01*
X53944D01*
Y53885D01*
X53910D01*
Y53785D01*
X53877D01*
Y53685D01*
X53844D01*
Y53586D01*
X53811D01*
Y53453D01*
X53777D01*
Y53353D01*
X53744D01*
Y53320D01*
Y53286D01*
Y53253D01*
X53711D01*
Y53153D01*
X53678D01*
Y53054D01*
X53644D01*
Y52954D01*
X53611D01*
Y52854D01*
X53578D01*
Y52721D01*
X53545D01*
Y52622D01*
X53511D01*
Y52522D01*
X53478D01*
Y52422D01*
X53445D01*
Y52322D01*
X53412D01*
Y52223D01*
X53378D01*
Y52123D01*
X53345D01*
Y52089D01*
X53013D01*
Y52123D01*
X52979D01*
Y52223D01*
X52946D01*
Y52322D01*
X52913D01*
Y52455D01*
X52880D01*
Y52555D01*
X52846D01*
Y52655D01*
X52813D01*
Y52788D01*
X52780D01*
Y52887D01*
X52747D01*
Y53021D01*
X52713D01*
Y53120D01*
X52680D01*
Y53253D01*
X52647D01*
Y53353D01*
X52614D01*
Y53486D01*
X52580D01*
Y53586D01*
X52547D01*
Y53685D01*
X52514D01*
Y53818D01*
X52481D01*
Y53918D01*
X52447D01*
Y54051D01*
X52414D01*
Y54151D01*
X52381D01*
Y54284D01*
X52348D01*
Y54384D01*
X52314D01*
Y54517D01*
X52281D01*
Y54616D01*
X52248D01*
Y54750D01*
X52215D01*
Y54849D01*
X52181D01*
Y54949D01*
X52148D01*
Y55082D01*
X52115D01*
Y55182D01*
X52082D01*
Y55315D01*
X52048D01*
Y55414D01*
X52015D01*
Y55547D01*
X51982D01*
Y55647D01*
X51949D01*
Y55780D01*
X51915D01*
Y55847D01*
X52348D01*
Y55747D01*
X52381D01*
Y55647D01*
X52414D01*
Y55514D01*
X52447D01*
Y55381D01*
X52481D01*
Y55282D01*
X52514D01*
Y55149D01*
X52547D01*
Y55049D01*
X52580D01*
Y54916D01*
X52614D01*
Y54783D01*
X52647D01*
Y54683D01*
X52680D01*
Y54550D01*
X52713D01*
Y54417D01*
X52747D01*
Y54317D01*
X52780D01*
Y54184D01*
X52813D01*
Y54051D01*
X52846D01*
Y53951D01*
X52880D01*
Y53818D01*
X52913D01*
Y53685D01*
X52946D01*
Y53586D01*
X52979D01*
Y53453D01*
X53013D01*
Y53353D01*
X53046D01*
Y53220D01*
X53079D01*
Y53087D01*
X53112D01*
Y52987D01*
X53146D01*
Y52788D01*
X53179D01*
Y52688D01*
X53212D01*
Y52788D01*
X53245D01*
Y52921D01*
X53279D01*
Y53021D01*
X53312D01*
Y53153D01*
X53345D01*
Y53253D01*
X53378D01*
Y53353D01*
X53412D01*
Y53453D01*
X53445D01*
Y53552D01*
X53478D01*
Y53652D01*
X53511D01*
Y53785D01*
X53545D01*
Y53885D01*
X53578D01*
Y53985D01*
X53611D01*
Y54084D01*
X53644D01*
Y54184D01*
X53678D01*
Y54317D01*
X53711D01*
Y54417D01*
X53744D01*
Y54517D01*
X53777D01*
Y54616D01*
X53811D01*
Y54716D01*
X53844D01*
Y54849D01*
X53877D01*
Y54949D01*
X53910D01*
Y55049D01*
X53944D01*
Y55149D01*
X53977D01*
Y55248D01*
X54010D01*
Y55381D01*
X54043D01*
Y55481D01*
X54077D01*
Y55581D01*
X54110D01*
Y55681D01*
X54143D01*
Y55780D01*
X54176D01*
Y55847D01*
X54542D01*
Y55780D01*
X54575D01*
Y55681D01*
X54609D01*
Y55581D01*
X54642D01*
Y55481D01*
X54675D01*
Y55381D01*
X54708D01*
Y55248D01*
X54742D01*
Y55149D01*
X54775D01*
Y55049D01*
X54808D01*
Y54949D01*
X54841D01*
Y54849D01*
X54875D01*
Y54716D01*
X54908D01*
Y54616D01*
X54941D01*
Y54517D01*
X54974D01*
Y54417D01*
X55008D01*
Y54317D01*
X55041D01*
Y54184D01*
X55074D01*
Y54084D01*
X55107D01*
Y53985D01*
X55141D01*
Y53885D01*
X55174D01*
Y53785D01*
X55207D01*
Y53652D01*
X55240D01*
Y53552D01*
X55274D01*
Y53453D01*
X55307D01*
Y53353D01*
X55340D01*
Y53253D01*
X55373D01*
Y53120D01*
X55407D01*
Y53021D01*
X55440D01*
Y52887D01*
X55473D01*
Y52754D01*
X55506D01*
Y52655D01*
X55540D01*
Y52721D01*
X55573D01*
Y52887D01*
X55606D01*
Y53021D01*
X55639D01*
Y53153D01*
X55673D01*
Y53286D01*
X55706D01*
Y53386D01*
X55739D01*
Y53519D01*
X55772D01*
Y53652D01*
X55806D01*
Y53785D01*
X55839D01*
Y53885D01*
X55872D01*
Y54018D01*
X55905D01*
Y54151D01*
X55939D01*
Y54284D01*
X55972D01*
Y54384D01*
X56005D01*
Y54517D01*
X56038D01*
Y54650D01*
X56072D01*
Y54783D01*
X56105D01*
Y54882D01*
X56138D01*
Y55015D01*
X56171D01*
Y55149D01*
X56205D01*
Y55248D01*
X56238D01*
Y55381D01*
X56271D01*
Y55514D01*
X56304D01*
Y55647D01*
X56338D01*
Y55780D01*
X56371D01*
Y55847D01*
X56803D01*
Y55747D01*
D02*
G37*
G36*
X59330Y55880D02*
X59463D01*
Y55847D01*
X59563D01*
Y55813D01*
X59663D01*
Y55780D01*
X59729D01*
Y55747D01*
X59762D01*
Y55714D01*
X59829D01*
Y55681D01*
X59862D01*
Y55647D01*
X59929D01*
Y55614D01*
X59962D01*
Y55581D01*
X59995D01*
Y55547D01*
X60028D01*
Y55514D01*
X60062D01*
Y55481D01*
X60095D01*
Y55414D01*
X60128D01*
Y55381D01*
X60161D01*
Y55315D01*
X60195D01*
Y55248D01*
X60228D01*
Y55149D01*
X60261D01*
Y55049D01*
X60294D01*
Y54783D01*
X60328D01*
Y52455D01*
X60361D01*
Y52289D01*
X60394D01*
Y52189D01*
X60427D01*
Y52089D01*
X59995D01*
Y52123D01*
X59962D01*
Y52223D01*
X59929D01*
Y52455D01*
X59895D01*
Y52588D01*
X59862D01*
Y52555D01*
X59829D01*
Y52522D01*
X59796D01*
Y52488D01*
X59762D01*
Y52455D01*
X59729D01*
Y52422D01*
X59696D01*
Y52389D01*
X59663D01*
Y52355D01*
X59629D01*
Y52322D01*
X59563D01*
Y52289D01*
X59530D01*
Y52256D01*
X59463D01*
Y52223D01*
X59397D01*
Y52189D01*
X59330D01*
Y52156D01*
X59264D01*
Y52123D01*
X59164D01*
Y52089D01*
X59064D01*
Y52056D01*
X58898D01*
Y52023D01*
X58366D01*
Y52056D01*
X58200D01*
Y52089D01*
X58100D01*
Y52123D01*
X58033D01*
Y52156D01*
X57967D01*
Y52189D01*
X57900D01*
Y52223D01*
X57834D01*
Y52256D01*
X57801D01*
Y52289D01*
X57767D01*
Y52322D01*
X57734D01*
Y52355D01*
X57701D01*
Y52389D01*
X57668D01*
Y52422D01*
X57634D01*
Y52455D01*
X57601D01*
Y52488D01*
X57568D01*
Y52555D01*
X57535D01*
Y52622D01*
X57501D01*
Y52688D01*
X57468D01*
Y52788D01*
X57435D01*
Y52921D01*
X57402D01*
Y53253D01*
X57435D01*
Y53419D01*
X57468D01*
Y53519D01*
X57501D01*
Y53586D01*
X57535D01*
Y53619D01*
X57568D01*
Y53685D01*
X57601D01*
Y53719D01*
X57634D01*
Y53785D01*
X57668D01*
Y53818D01*
X57701D01*
Y53852D01*
X57734D01*
Y53885D01*
X57801D01*
Y53918D01*
X57834D01*
Y53951D01*
X57867D01*
Y53985D01*
X57934D01*
Y54018D01*
X57967D01*
Y54051D01*
X58033D01*
Y54084D01*
X58133D01*
Y54118D01*
X58200D01*
Y54151D01*
X58299D01*
Y54184D01*
X58399D01*
Y54217D01*
X58565D01*
Y54251D01*
X58831D01*
Y54284D01*
X59895D01*
Y54916D01*
X59862D01*
Y55049D01*
X59829D01*
Y55115D01*
X59796D01*
Y55182D01*
X59762D01*
Y55215D01*
X59729D01*
Y55282D01*
X59696D01*
Y55315D01*
X59663D01*
Y55348D01*
X59629D01*
Y55381D01*
X59596D01*
Y55414D01*
X59530D01*
Y55448D01*
X59463D01*
Y55481D01*
X59397D01*
Y55514D01*
X59297D01*
Y55547D01*
X59131D01*
Y55581D01*
X58732D01*
Y55547D01*
X58565D01*
Y55514D01*
X58466D01*
Y55481D01*
X58399D01*
Y55448D01*
X58333D01*
Y55414D01*
X58266D01*
Y55381D01*
X58233D01*
Y55348D01*
X58166D01*
Y55315D01*
X58133D01*
Y55282D01*
X58100D01*
Y55248D01*
X58067D01*
Y55182D01*
X58033D01*
Y55149D01*
X58000D01*
Y55082D01*
X57967D01*
Y55015D01*
X57934D01*
Y54849D01*
X57900D01*
Y54816D01*
X57501D01*
Y55015D01*
X57535D01*
Y55115D01*
X57568D01*
Y55215D01*
X57601D01*
Y55282D01*
X57634D01*
Y55315D01*
X57668D01*
Y55381D01*
X57701D01*
Y55414D01*
X57734D01*
Y55448D01*
X57767D01*
Y55481D01*
X57801D01*
Y55514D01*
X57834D01*
Y55547D01*
X57867D01*
Y55581D01*
X57900D01*
Y55614D01*
X57967D01*
Y55647D01*
X58000D01*
Y55681D01*
X58067D01*
Y55714D01*
X58100D01*
Y55747D01*
X58166D01*
Y55780D01*
X58266D01*
Y55813D01*
X58333D01*
Y55847D01*
X58432D01*
Y55880D01*
X58599D01*
Y55913D01*
X59330D01*
Y55880D01*
D02*
G37*
G36*
X43836D02*
X43969D01*
Y55847D01*
X44068D01*
Y55813D01*
X44168D01*
Y55780D01*
X44235D01*
Y55747D01*
X44301D01*
Y55714D01*
X44334D01*
Y55681D01*
X44401D01*
Y55647D01*
X44434D01*
Y55614D01*
X44467D01*
Y55581D01*
X44501D01*
Y55547D01*
X44534D01*
Y55514D01*
X44567D01*
Y55481D01*
X44600D01*
Y55448D01*
X44634D01*
Y55381D01*
X44667D01*
Y55348D01*
X44700D01*
Y55282D01*
X44733D01*
Y55182D01*
X44767D01*
Y55082D01*
X44800D01*
Y54916D01*
X44833D01*
Y52588D01*
X44866D01*
Y52355D01*
X44900D01*
Y52223D01*
X44933D01*
Y52089D01*
X44501D01*
Y52156D01*
X44467D01*
Y52289D01*
X44434D01*
Y52588D01*
X44401D01*
Y52555D01*
X44368D01*
Y52522D01*
X44334D01*
Y52488D01*
X44301D01*
Y52455D01*
X44268D01*
Y52422D01*
X44235D01*
Y52389D01*
X44201D01*
Y52355D01*
X44135D01*
Y52322D01*
X44102D01*
Y52289D01*
X44035D01*
Y52256D01*
X44002D01*
Y52223D01*
X43935D01*
Y52189D01*
X43869D01*
Y52156D01*
X43769D01*
Y52123D01*
X43669D01*
Y52089D01*
X43569D01*
Y52056D01*
X43403D01*
Y52023D01*
X42871D01*
Y52056D01*
X42738D01*
Y52089D01*
X42638D01*
Y52123D01*
X42539D01*
Y52156D01*
X42472D01*
Y52189D01*
X42406D01*
Y52223D01*
X42373D01*
Y52256D01*
X42339D01*
Y52289D01*
X42273D01*
Y52322D01*
X42240D01*
Y52355D01*
X42206D01*
Y52389D01*
X42173D01*
Y52422D01*
X42140D01*
Y52488D01*
X42107D01*
Y52522D01*
X42073D01*
Y52588D01*
X42040D01*
Y52655D01*
X42007D01*
Y52721D01*
X41974D01*
Y52821D01*
X41940D01*
Y53353D01*
X41974D01*
Y53453D01*
X42007D01*
Y53552D01*
X42040D01*
Y53619D01*
X42073D01*
Y53652D01*
X42107D01*
Y53719D01*
X42140D01*
Y53752D01*
X42173D01*
Y53785D01*
X42206D01*
Y53818D01*
X42240D01*
Y53852D01*
X42273D01*
Y53885D01*
X42306D01*
Y53918D01*
X42339D01*
Y53951D01*
X42406D01*
Y53985D01*
X42439D01*
Y54018D01*
X42505D01*
Y54051D01*
X42572D01*
Y54084D01*
X42638D01*
Y54118D01*
X42705D01*
Y54151D01*
X42805D01*
Y54184D01*
X42938D01*
Y54217D01*
X43104D01*
Y54251D01*
X43337D01*
Y54284D01*
X44401D01*
Y54317D01*
X44434D01*
Y54351D01*
X44401D01*
Y54982D01*
X44368D01*
Y55082D01*
X44334D01*
Y55149D01*
X44301D01*
Y55215D01*
X44268D01*
Y55248D01*
X44235D01*
Y55282D01*
X44201D01*
Y55315D01*
X44168D01*
Y55348D01*
X44135D01*
Y55381D01*
X44102D01*
Y55414D01*
X44035D01*
Y55448D01*
X44002D01*
Y55481D01*
X43902D01*
Y55514D01*
X43802D01*
Y55547D01*
X43636D01*
Y55581D01*
X43270D01*
Y55547D01*
X43071D01*
Y55514D01*
X42971D01*
Y55481D01*
X42905D01*
Y55448D01*
X42838D01*
Y55414D01*
X42805D01*
Y55381D01*
X42738D01*
Y55348D01*
X42705D01*
Y55315D01*
X42672D01*
Y55282D01*
X42638D01*
Y55248D01*
X42605D01*
Y55215D01*
X42572D01*
Y55182D01*
X42539D01*
Y55115D01*
X42505D01*
Y55049D01*
X42472D01*
Y54949D01*
X42439D01*
Y54816D01*
X42040D01*
Y54849D01*
X42007D01*
Y54916D01*
X42040D01*
Y55082D01*
X42073D01*
Y55182D01*
X42107D01*
Y55248D01*
X42140D01*
Y55282D01*
X42173D01*
Y55348D01*
X42206D01*
Y55381D01*
X42240D01*
Y55414D01*
X42273D01*
Y55481D01*
X42306D01*
Y55514D01*
X42339D01*
Y55547D01*
X42406D01*
Y55581D01*
X42439D01*
Y55614D01*
X42472D01*
Y55647D01*
X42539D01*
Y55681D01*
X42572D01*
Y55714D01*
X42638D01*
Y55747D01*
X42705D01*
Y55780D01*
X42772D01*
Y55813D01*
X42871D01*
Y55847D01*
X42971D01*
Y55880D01*
X43104D01*
Y55913D01*
X43836D01*
Y55880D01*
D02*
G37*
G36*
X38615Y55282D02*
X38682D01*
Y55315D01*
X38715D01*
Y55381D01*
X38748D01*
Y55414D01*
X38781D01*
Y55448D01*
X38815D01*
Y55481D01*
X38848D01*
Y55514D01*
X38881D01*
Y55547D01*
X38915D01*
Y55581D01*
X38948D01*
Y55614D01*
X38981D01*
Y55647D01*
X39014D01*
Y55681D01*
X39081D01*
Y55714D01*
X39114D01*
Y55747D01*
X39180D01*
Y55780D01*
X39247D01*
Y55813D01*
X39347D01*
Y55847D01*
X39413D01*
Y55880D01*
X39546D01*
Y55913D01*
X40178D01*
Y55880D01*
X40311D01*
Y55847D01*
X40411D01*
Y55813D01*
X40477D01*
Y55780D01*
X40544D01*
Y55747D01*
X40610D01*
Y55714D01*
X40644D01*
Y55681D01*
X40677D01*
Y55647D01*
X40710D01*
Y55614D01*
X40743D01*
Y55581D01*
X40777D01*
Y55547D01*
X40810D01*
Y55481D01*
X40843D01*
Y55448D01*
X40876D01*
Y55381D01*
X40910D01*
Y55315D01*
X40943D01*
Y55215D01*
X40976D01*
Y55115D01*
X41009D01*
Y54949D01*
X41043D01*
Y53519D01*
Y53486D01*
Y52089D01*
X40644D01*
Y54783D01*
X40610D01*
Y54949D01*
X40577D01*
Y55082D01*
X40544D01*
Y55149D01*
X40511D01*
Y55215D01*
X40477D01*
Y55282D01*
X40444D01*
Y55315D01*
X40411D01*
Y55348D01*
X40378D01*
Y55381D01*
X40344D01*
Y55414D01*
X40278D01*
Y55448D01*
X40244D01*
Y55481D01*
X40178D01*
Y55514D01*
X40045D01*
Y55547D01*
X39812D01*
Y55581D01*
X39713D01*
Y55547D01*
X39480D01*
Y55514D01*
X39380D01*
Y55481D01*
X39280D01*
Y55448D01*
X39214D01*
Y55414D01*
X39180D01*
Y55381D01*
X39114D01*
Y55348D01*
X39081D01*
Y55315D01*
X39048D01*
Y55282D01*
X39014D01*
Y55248D01*
X38981D01*
Y55215D01*
X38948D01*
Y55182D01*
X38915D01*
Y55149D01*
X38881D01*
Y55115D01*
X38848D01*
Y55082D01*
X38815D01*
Y55015D01*
X38781D01*
Y54949D01*
X38748D01*
Y54916D01*
X38715D01*
Y54849D01*
X38682D01*
Y54750D01*
X38649D01*
Y54650D01*
X38615D01*
Y52089D01*
X38216D01*
Y57443D01*
X38615D01*
Y55282D01*
D02*
G37*
G36*
X65481Y55880D02*
X65614D01*
Y55847D01*
X65714D01*
Y55813D01*
X65781D01*
Y55780D01*
X65847D01*
Y55747D01*
X65914D01*
Y55714D01*
X65980D01*
Y55681D01*
X66013D01*
Y55647D01*
X66047D01*
Y55614D01*
X66080D01*
Y55581D01*
X66113D01*
Y55547D01*
X66180D01*
Y55481D01*
X66213D01*
Y55448D01*
X66246D01*
Y55414D01*
X66279D01*
Y55381D01*
X66313D01*
Y55315D01*
X66346D01*
Y55282D01*
X66379D01*
Y55215D01*
X66412D01*
Y55149D01*
X66446D01*
Y55082D01*
X66479D01*
Y55015D01*
X66512D01*
Y54916D01*
X66545D01*
Y54783D01*
X66579D01*
Y54616D01*
X66612D01*
Y54284D01*
X66645D01*
Y53985D01*
X66612D01*
Y53951D01*
X63952D01*
Y53519D01*
X63985D01*
Y53386D01*
X64018D01*
Y53286D01*
X64052D01*
Y53187D01*
X64085D01*
Y53120D01*
X64118D01*
Y53054D01*
X64151D01*
Y52987D01*
X64185D01*
Y52954D01*
X64218D01*
Y52887D01*
X64251D01*
Y52854D01*
X64284D01*
Y52821D01*
X64318D01*
Y52788D01*
X64351D01*
Y52721D01*
X64384D01*
Y52688D01*
X64451D01*
Y52655D01*
X64484D01*
Y52622D01*
X64517D01*
Y52588D01*
X64550D01*
Y52555D01*
X64617D01*
Y52522D01*
X64683D01*
Y52488D01*
X64750D01*
Y52455D01*
X64816D01*
Y52422D01*
X64949D01*
Y52389D01*
X65548D01*
Y52422D01*
X65681D01*
Y52455D01*
X65781D01*
Y52488D01*
X65847D01*
Y52522D01*
X65914D01*
Y52555D01*
X65947D01*
Y52588D01*
X66013D01*
Y52622D01*
X66047D01*
Y52655D01*
X66080D01*
Y52688D01*
X66113D01*
Y52721D01*
X66146D01*
Y52754D01*
X66180D01*
Y52788D01*
X66213D01*
Y52821D01*
X66246D01*
Y52854D01*
X66279D01*
Y52887D01*
X66313D01*
Y52854D01*
X66346D01*
Y52821D01*
X66412D01*
Y52788D01*
X66446D01*
Y52754D01*
X66479D01*
Y52721D01*
X66512D01*
Y52688D01*
X66545D01*
Y52655D01*
X66512D01*
Y52622D01*
X66479D01*
Y52555D01*
X66446D01*
Y52522D01*
X66412D01*
Y52488D01*
X66379D01*
Y52455D01*
X66346D01*
Y52422D01*
X66313D01*
Y52389D01*
X66279D01*
Y52355D01*
X66213D01*
Y52322D01*
X66180D01*
Y52289D01*
X66146D01*
Y52256D01*
X66080D01*
Y52223D01*
X66013D01*
Y52189D01*
X65947D01*
Y52156D01*
X65880D01*
Y52123D01*
X65781D01*
Y52089D01*
X65681D01*
Y52056D01*
X65515D01*
Y52023D01*
X64949D01*
Y52056D01*
X64783D01*
Y52089D01*
X64683D01*
Y52123D01*
X64584D01*
Y52156D01*
X64517D01*
Y52189D01*
X64451D01*
Y52223D01*
X64384D01*
Y52256D01*
X64318D01*
Y52289D01*
X64284D01*
Y52322D01*
X64218D01*
Y52355D01*
X64185D01*
Y52389D01*
X64151D01*
Y52422D01*
X64085D01*
Y52455D01*
X64052D01*
Y52488D01*
X64018D01*
Y52522D01*
X63985D01*
Y52588D01*
X63952D01*
Y52622D01*
X63919D01*
Y52655D01*
X63885D01*
Y52688D01*
X63852D01*
Y52754D01*
X63819D01*
Y52821D01*
X63786D01*
Y52854D01*
X63752D01*
Y52921D01*
X63719D01*
Y52987D01*
X63686D01*
Y53087D01*
X63653D01*
Y53153D01*
X63619D01*
Y53253D01*
X63586D01*
Y53419D01*
X63553D01*
Y53619D01*
X63520D01*
Y54251D01*
X63553D01*
Y54483D01*
X63586D01*
Y54650D01*
X63619D01*
Y54750D01*
X63653D01*
Y54849D01*
X63686D01*
Y54916D01*
X63719D01*
Y54982D01*
X63752D01*
Y55049D01*
X63786D01*
Y55115D01*
X63819D01*
Y55182D01*
X63852D01*
Y55215D01*
X63885D01*
Y55282D01*
X63919D01*
Y55315D01*
X63952D01*
Y55348D01*
X63985D01*
Y55414D01*
X64018D01*
Y55448D01*
X64052D01*
Y55481D01*
X64085D01*
Y55514D01*
X64118D01*
Y55547D01*
X64185D01*
Y55581D01*
X64218D01*
Y55614D01*
X64251D01*
Y55647D01*
X64284D01*
Y55681D01*
X64351D01*
Y55714D01*
X64417D01*
Y55747D01*
X64451D01*
Y55780D01*
X64550D01*
Y55813D01*
X64617D01*
Y55847D01*
X64717D01*
Y55880D01*
X64850D01*
Y55913D01*
X65481D01*
Y55880D01*
D02*
G37*
G36*
X54010Y51158D02*
X54077D01*
Y51125D01*
X54110D01*
Y51059D01*
X54143D01*
Y50992D01*
X54176D01*
Y50893D01*
X54143D01*
Y50793D01*
X54110D01*
Y50726D01*
X54077D01*
Y50693D01*
X54010D01*
Y50660D01*
X53744D01*
Y50693D01*
X53678D01*
Y50726D01*
X53644D01*
Y50759D01*
X53611D01*
Y50859D01*
X53578D01*
Y50992D01*
X53611D01*
Y51092D01*
X53644D01*
Y51125D01*
X53678D01*
Y51158D01*
X53744D01*
Y51192D01*
X54010D01*
Y51158D01*
D02*
G37*
G36*
X61159Y49862D02*
X61292D01*
Y49828D01*
X61392D01*
Y49795D01*
X61458D01*
Y49762D01*
X61525D01*
Y49729D01*
X61591D01*
Y49695D01*
X61624D01*
Y49662D01*
X61658D01*
Y49629D01*
X61691D01*
Y49596D01*
X61724D01*
Y49562D01*
X61757D01*
Y49529D01*
X61791D01*
Y49496D01*
X61824D01*
Y49430D01*
X61857D01*
Y49363D01*
X61890D01*
Y49296D01*
X61924D01*
Y49230D01*
X61957D01*
Y49130D01*
X61990D01*
Y48964D01*
X62023D01*
Y48632D01*
X62057D01*
Y46104D01*
X62023D01*
Y46071D01*
X61624D01*
Y48798D01*
X61591D01*
Y48964D01*
X61558D01*
Y49064D01*
X61525D01*
Y49163D01*
X61491D01*
Y49197D01*
X61458D01*
Y49263D01*
X61425D01*
Y49296D01*
X61392D01*
Y49330D01*
X61358D01*
Y49363D01*
X61325D01*
Y49396D01*
X61292D01*
Y49430D01*
X61225D01*
Y49463D01*
X61159D01*
Y49496D01*
X61026D01*
Y49529D01*
X60494D01*
Y49496D01*
X60361D01*
Y49463D01*
X60294D01*
Y49430D01*
X60228D01*
Y49396D01*
X60161D01*
Y49363D01*
X60128D01*
Y49330D01*
X60062D01*
Y49296D01*
X60028D01*
Y49263D01*
X59995D01*
Y49230D01*
X59962D01*
Y49197D01*
X59929D01*
Y49163D01*
X59895D01*
Y49130D01*
X59862D01*
Y49097D01*
X59829D01*
Y49031D01*
X59796D01*
Y48997D01*
X59762D01*
Y48931D01*
X59729D01*
Y48864D01*
X59696D01*
Y48798D01*
X59663D01*
Y48731D01*
X59629D01*
Y46869D01*
Y46836D01*
Y46104D01*
X59596D01*
Y46071D01*
X59197D01*
Y49828D01*
X59596D01*
Y49263D01*
X59663D01*
Y49296D01*
X59696D01*
Y49330D01*
X59729D01*
Y49396D01*
X59762D01*
Y49430D01*
X59796D01*
Y49463D01*
X59829D01*
Y49496D01*
X59862D01*
Y49529D01*
X59895D01*
Y49562D01*
X59929D01*
Y49596D01*
X59962D01*
Y49629D01*
X60028D01*
Y49662D01*
X60062D01*
Y49695D01*
X60128D01*
Y49729D01*
X60195D01*
Y49762D01*
X60228D01*
Y49795D01*
X60328D01*
Y49828D01*
X60427D01*
Y49862D01*
X60560D01*
Y49895D01*
X61159D01*
Y49862D01*
D02*
G37*
G36*
X64750D02*
X64883D01*
Y49828D01*
X65016D01*
Y49795D01*
X65082D01*
Y49762D01*
X65149D01*
Y49729D01*
X65215D01*
Y49695D01*
X65282D01*
Y49662D01*
X65315D01*
Y49629D01*
X65382D01*
Y49596D01*
X65415D01*
Y49562D01*
X65448D01*
Y49529D01*
X65481D01*
Y49496D01*
X65515D01*
Y49463D01*
X65548D01*
Y49430D01*
X65581D01*
Y49363D01*
X65614D01*
Y49330D01*
X65648D01*
Y49263D01*
X65681D01*
Y49197D01*
X65714D01*
Y49097D01*
X65747D01*
Y48931D01*
X65781D01*
Y48798D01*
X65747D01*
Y48764D01*
X65382D01*
Y48798D01*
X65348D01*
Y48964D01*
X65315D01*
Y49064D01*
X65282D01*
Y49130D01*
X65249D01*
Y49163D01*
X65215D01*
Y49197D01*
X65182D01*
Y49263D01*
X65149D01*
Y49296D01*
X65082D01*
Y49330D01*
X65049D01*
Y49363D01*
X65016D01*
Y49396D01*
X64949D01*
Y49430D01*
X64883D01*
Y49463D01*
X64816D01*
Y49496D01*
X64717D01*
Y49529D01*
X64517D01*
Y49562D01*
X64251D01*
Y49529D01*
X64052D01*
Y49496D01*
X63919D01*
Y49463D01*
X63852D01*
Y49430D01*
X63786D01*
Y49396D01*
X63752D01*
Y49363D01*
X63686D01*
Y49330D01*
X63653D01*
Y49296D01*
X63619D01*
Y49263D01*
X63586D01*
Y49230D01*
X63553D01*
Y49163D01*
X63520D01*
Y49097D01*
X63486D01*
Y48698D01*
X63520D01*
Y48632D01*
X63553D01*
Y48565D01*
X63586D01*
Y48532D01*
X63619D01*
Y48498D01*
X63653D01*
Y48465D01*
X63686D01*
Y48432D01*
X63752D01*
Y48399D01*
X63819D01*
Y48365D01*
X63885D01*
Y48332D01*
X63952D01*
Y48299D01*
X64052D01*
Y48266D01*
X64151D01*
Y48232D01*
X64284D01*
Y48199D01*
X64384D01*
Y48166D01*
X64550D01*
Y48133D01*
X64650D01*
Y48099D01*
X64783D01*
Y48066D01*
X64883D01*
Y48033D01*
X64983D01*
Y48000D01*
X65082D01*
Y47966D01*
X65149D01*
Y47933D01*
X65215D01*
Y47900D01*
X65282D01*
Y47867D01*
X65348D01*
Y47833D01*
X65382D01*
Y47800D01*
X65448D01*
Y47767D01*
X65481D01*
Y47734D01*
X65515D01*
Y47701D01*
X65548D01*
Y47667D01*
X65581D01*
Y47634D01*
X65614D01*
Y47601D01*
X65648D01*
Y47534D01*
X65681D01*
Y47501D01*
X65714D01*
Y47401D01*
X65747D01*
Y47301D01*
X65781D01*
Y46803D01*
X65747D01*
Y46703D01*
X65714D01*
Y46636D01*
X65681D01*
Y46570D01*
X65648D01*
Y46503D01*
X65614D01*
Y46470D01*
X65581D01*
Y46437D01*
X65548D01*
Y46404D01*
X65515D01*
Y46370D01*
X65481D01*
Y46337D01*
X65448D01*
Y46304D01*
X65415D01*
Y46271D01*
X65382D01*
Y46237D01*
X65315D01*
Y46204D01*
X65249D01*
Y46171D01*
X65182D01*
Y46138D01*
X65116D01*
Y46104D01*
X65016D01*
Y46071D01*
X64916D01*
Y46038D01*
X64717D01*
Y46005D01*
X64085D01*
Y46038D01*
X63885D01*
Y46071D01*
X63786D01*
Y46104D01*
X63686D01*
Y46138D01*
X63619D01*
Y46171D01*
X63553D01*
Y46204D01*
X63486D01*
Y46237D01*
X63420D01*
Y46271D01*
X63387D01*
Y46304D01*
X63320D01*
Y46337D01*
X63287D01*
Y46370D01*
X63254D01*
Y46404D01*
X63220D01*
Y46437D01*
X63187D01*
Y46470D01*
X63154D01*
Y46503D01*
X63121D01*
Y46570D01*
X63087D01*
Y46603D01*
X63054D01*
Y46670D01*
X63021D01*
Y46736D01*
X62988D01*
Y46836D01*
X62954D01*
Y46969D01*
X62921D01*
Y47102D01*
X62954D01*
Y47135D01*
X63320D01*
Y47102D01*
X63353D01*
Y46969D01*
X63387D01*
Y46869D01*
X63420D01*
Y46803D01*
X63453D01*
Y46736D01*
X63486D01*
Y46703D01*
X63520D01*
Y46670D01*
X63553D01*
Y46636D01*
X63586D01*
Y46603D01*
X63619D01*
Y46570D01*
X63653D01*
Y46537D01*
X63719D01*
Y46503D01*
X63786D01*
Y46470D01*
X63852D01*
Y46437D01*
X63919D01*
Y46404D01*
X64052D01*
Y46370D01*
X64318D01*
Y46337D01*
X64484D01*
Y46370D01*
X64750D01*
Y46404D01*
X64850D01*
Y46437D01*
X64949D01*
Y46470D01*
X65016D01*
Y46503D01*
X65082D01*
Y46537D01*
X65116D01*
Y46570D01*
X65149D01*
Y46603D01*
X65182D01*
Y46636D01*
X65215D01*
Y46670D01*
X65249D01*
Y46703D01*
X65282D01*
Y46736D01*
X65315D01*
Y46803D01*
X65348D01*
Y46936D01*
X65382D01*
Y47135D01*
X65348D01*
Y47268D01*
X65315D01*
Y47335D01*
X65282D01*
Y47368D01*
X65249D01*
Y47434D01*
X65215D01*
Y47468D01*
X65182D01*
Y47501D01*
X65149D01*
Y47534D01*
X65082D01*
Y47567D01*
X65049D01*
Y47601D01*
X64983D01*
Y47634D01*
X64916D01*
Y47667D01*
X64850D01*
Y47701D01*
X64750D01*
Y47734D01*
X64650D01*
Y47767D01*
X64517D01*
Y47800D01*
X64384D01*
Y47833D01*
X64251D01*
Y47867D01*
X64085D01*
Y47900D01*
X63985D01*
Y47933D01*
X63885D01*
Y47966D01*
X63786D01*
Y48000D01*
X63686D01*
Y48033D01*
X63619D01*
Y48066D01*
X63553D01*
Y48099D01*
X63486D01*
Y48133D01*
X63453D01*
Y48166D01*
X63387D01*
Y48199D01*
X63353D01*
Y48232D01*
X63320D01*
Y48266D01*
X63287D01*
Y48299D01*
X63254D01*
Y48332D01*
X63220D01*
Y48365D01*
X63187D01*
Y48432D01*
X63154D01*
Y48498D01*
X63121D01*
Y48565D01*
X63087D01*
Y48665D01*
X63054D01*
Y49064D01*
X63087D01*
Y49197D01*
X63121D01*
Y49263D01*
X63154D01*
Y49330D01*
X63187D01*
Y49396D01*
X63220D01*
Y49430D01*
X63254D01*
Y49463D01*
X63287D01*
Y49496D01*
X63320D01*
Y49529D01*
X63353D01*
Y49562D01*
X63387D01*
Y49596D01*
X63420D01*
Y49629D01*
X63453D01*
Y49662D01*
X63520D01*
Y49695D01*
X63553D01*
Y49729D01*
X63619D01*
Y49762D01*
X63686D01*
Y49795D01*
X63786D01*
Y49828D01*
X63885D01*
Y49862D01*
X64018D01*
Y49895D01*
X64750D01*
Y49862D01*
D02*
G37*
G36*
X39845D02*
X39979D01*
Y49828D01*
X40112D01*
Y49795D01*
X40178D01*
Y49762D01*
X40244D01*
Y49729D01*
X40311D01*
Y49695D01*
X40378D01*
Y49662D01*
X40411D01*
Y49629D01*
X40477D01*
Y49596D01*
X40511D01*
Y49562D01*
X40544D01*
Y49529D01*
X40577D01*
Y49496D01*
X40610D01*
Y49463D01*
X40644D01*
Y49430D01*
X40677D01*
Y49363D01*
X40710D01*
Y49330D01*
X40743D01*
Y49263D01*
X40777D01*
Y49197D01*
X40810D01*
Y49097D01*
X40843D01*
Y48931D01*
X40876D01*
Y48798D01*
X40843D01*
Y48764D01*
X40477D01*
Y48798D01*
X40444D01*
Y48964D01*
X40411D01*
Y49031D01*
X40378D01*
Y49130D01*
X40344D01*
Y49163D01*
X40311D01*
Y49197D01*
X40278D01*
Y49263D01*
X40244D01*
Y49296D01*
X40178D01*
Y49330D01*
X40145D01*
Y49363D01*
X40112D01*
Y49396D01*
X40045D01*
Y49430D01*
X39979D01*
Y49463D01*
X39912D01*
Y49496D01*
X39812D01*
Y49529D01*
X39580D01*
Y49562D01*
X39347D01*
Y49529D01*
X39147D01*
Y49496D01*
X39014D01*
Y49463D01*
X38948D01*
Y49430D01*
X38881D01*
Y49396D01*
X38848D01*
Y49363D01*
X38781D01*
Y49330D01*
X38748D01*
Y49296D01*
X38715D01*
Y49263D01*
X38682D01*
Y49230D01*
X38649D01*
Y49163D01*
X38615D01*
Y49097D01*
X38582D01*
Y48698D01*
X38615D01*
Y48632D01*
X38649D01*
Y48565D01*
X38682D01*
Y48532D01*
X38715D01*
Y48498D01*
X38748D01*
Y48465D01*
X38781D01*
Y48432D01*
X38848D01*
Y48399D01*
X38915D01*
Y48365D01*
X38981D01*
Y48332D01*
X39048D01*
Y48299D01*
X39147D01*
Y48266D01*
X39247D01*
Y48232D01*
X39347D01*
Y48199D01*
X39480D01*
Y48166D01*
X39646D01*
Y48133D01*
X39746D01*
Y48099D01*
X39879D01*
Y48066D01*
X39979D01*
Y48033D01*
X40078D01*
Y48000D01*
X40178D01*
Y47966D01*
X40244D01*
Y47933D01*
X40311D01*
Y47900D01*
X40378D01*
Y47867D01*
X40444D01*
Y47833D01*
X40477D01*
Y47800D01*
X40544D01*
Y47767D01*
X40577D01*
Y47734D01*
X40610D01*
Y47701D01*
X40644D01*
Y47667D01*
X40677D01*
Y47634D01*
X40710D01*
Y47601D01*
X40743D01*
Y47534D01*
X40777D01*
Y47501D01*
X40810D01*
Y47401D01*
X40843D01*
Y47301D01*
X40876D01*
Y46803D01*
X40843D01*
Y46703D01*
X40810D01*
Y46636D01*
X40777D01*
Y46570D01*
X40743D01*
Y46503D01*
X40710D01*
Y46470D01*
X40677D01*
Y46437D01*
X40644D01*
Y46404D01*
X40610D01*
Y46370D01*
X40577D01*
Y46337D01*
X40544D01*
Y46304D01*
X40511D01*
Y46271D01*
X40444D01*
Y46237D01*
X40411D01*
Y46204D01*
X40344D01*
Y46171D01*
X40278D01*
Y46138D01*
X40211D01*
Y46104D01*
X40112D01*
Y46071D01*
X40012D01*
Y46038D01*
X39812D01*
Y46005D01*
X39180D01*
Y46038D01*
X38981D01*
Y46071D01*
X38881D01*
Y46104D01*
X38781D01*
Y46138D01*
X38715D01*
Y46171D01*
X38649D01*
Y46204D01*
X38582D01*
Y46237D01*
X38516D01*
Y46271D01*
X38482D01*
Y46304D01*
X38416D01*
Y46337D01*
X38383D01*
Y46370D01*
X38349D01*
Y46404D01*
X38316D01*
Y46437D01*
X38283D01*
Y46470D01*
X38249D01*
Y46503D01*
X38216D01*
Y46570D01*
X38183D01*
Y46603D01*
X38150D01*
Y46670D01*
X38117D01*
Y46736D01*
X38083D01*
Y46803D01*
Y46836D01*
X38050D01*
Y46969D01*
X38017D01*
Y47102D01*
X38050D01*
Y47135D01*
X38416D01*
Y47102D01*
X38449D01*
Y46969D01*
X38482D01*
Y46869D01*
X38516D01*
Y46803D01*
X38549D01*
Y46736D01*
X38582D01*
Y46703D01*
X38615D01*
Y46670D01*
X38649D01*
Y46636D01*
X38682D01*
Y46603D01*
X38715D01*
Y46570D01*
X38748D01*
Y46537D01*
X38815D01*
Y46503D01*
X38848D01*
Y46470D01*
X38948D01*
Y46437D01*
X39014D01*
Y46404D01*
X39147D01*
Y46370D01*
X39413D01*
Y46337D01*
X39580D01*
Y46370D01*
X39845D01*
Y46404D01*
X39945D01*
Y46437D01*
X40045D01*
Y46470D01*
X40112D01*
Y46503D01*
X40178D01*
Y46537D01*
X40211D01*
Y46570D01*
X40244D01*
Y46603D01*
X40278D01*
Y46636D01*
X40311D01*
Y46670D01*
X40344D01*
Y46703D01*
X40378D01*
Y46736D01*
X40411D01*
Y46836D01*
X40444D01*
Y46936D01*
X40477D01*
Y47135D01*
X40444D01*
Y47268D01*
X40411D01*
Y47335D01*
X40378D01*
Y47368D01*
X40344D01*
Y47434D01*
X40311D01*
Y47468D01*
X40278D01*
Y47501D01*
X40211D01*
Y47534D01*
X40178D01*
Y47567D01*
X40145D01*
Y47601D01*
X40078D01*
Y47634D01*
X40012D01*
Y47667D01*
X39912D01*
Y47701D01*
X39845D01*
Y47734D01*
X39746D01*
Y47767D01*
X39613D01*
Y47800D01*
X39480D01*
Y47833D01*
X39314D01*
Y47867D01*
X39180D01*
Y47900D01*
X39081D01*
Y47933D01*
X38981D01*
Y47966D01*
X38881D01*
Y48000D01*
X38781D01*
Y48033D01*
X38715D01*
Y48066D01*
X38649D01*
Y48099D01*
X38582D01*
Y48133D01*
X38549D01*
Y48166D01*
X38482D01*
Y48199D01*
X38449D01*
Y48232D01*
X38416D01*
Y48266D01*
X38383D01*
Y48299D01*
X38349D01*
Y48332D01*
X38316D01*
Y48365D01*
X38283D01*
Y48432D01*
X38249D01*
Y48498D01*
X38216D01*
Y48565D01*
X38183D01*
Y48665D01*
X38150D01*
Y49064D01*
X38183D01*
Y49197D01*
X38216D01*
Y49263D01*
X38249D01*
Y49330D01*
X38283D01*
Y49396D01*
X38316D01*
Y49430D01*
X38349D01*
Y49463D01*
X38383D01*
Y49496D01*
X38416D01*
Y49529D01*
X38449D01*
Y49562D01*
X38482D01*
Y49596D01*
X38516D01*
Y49629D01*
X38549D01*
Y49662D01*
X38615D01*
Y49695D01*
X38649D01*
Y49729D01*
X38715D01*
Y49762D01*
X38781D01*
Y49795D01*
X38881D01*
Y49828D01*
X38981D01*
Y49862D01*
X39114D01*
Y49895D01*
X39845D01*
Y49862D01*
D02*
G37*
G36*
X50253Y49529D02*
Y49496D01*
Y46071D01*
X49854D01*
Y46104D01*
X49821D01*
Y46503D01*
X49787D01*
Y46470D01*
X49754D01*
Y46437D01*
X49721D01*
Y46404D01*
X49688D01*
Y46370D01*
X49654D01*
Y46337D01*
X49621D01*
Y46304D01*
X49588D01*
Y46271D01*
X49555D01*
Y46237D01*
X49488D01*
Y46204D01*
X49455D01*
Y46171D01*
X49388D01*
Y46138D01*
X49322D01*
Y46104D01*
X49222D01*
Y46071D01*
X49122D01*
Y46038D01*
X48956D01*
Y46005D01*
X48358D01*
Y46038D01*
X48191D01*
Y46071D01*
X48092D01*
Y46104D01*
X48025D01*
Y46138D01*
X47959D01*
Y46171D01*
X47892D01*
Y46204D01*
X47859D01*
Y46237D01*
X47826D01*
Y46271D01*
X47759D01*
Y46304D01*
X47726D01*
Y46370D01*
X47693D01*
Y46404D01*
X47659D01*
Y46437D01*
X47626D01*
Y46503D01*
X47593D01*
Y46537D01*
X47560D01*
Y46603D01*
X47526D01*
Y46703D01*
X47493D01*
Y46803D01*
X47460D01*
Y46902D01*
X47427D01*
Y47135D01*
X47393D01*
Y49828D01*
X47792D01*
Y49795D01*
X47826D01*
Y47069D01*
X47859D01*
Y46936D01*
X47892D01*
Y46836D01*
X47925D01*
Y46769D01*
X47959D01*
Y46703D01*
X47992D01*
Y46670D01*
X48025D01*
Y46603D01*
X48058D01*
Y46570D01*
X48092D01*
Y46537D01*
X48158D01*
Y46503D01*
X48191D01*
Y46470D01*
X48258D01*
Y46437D01*
X48324D01*
Y46404D01*
X48457D01*
Y46370D01*
X48989D01*
Y46404D01*
X49122D01*
Y46437D01*
X49222D01*
Y46470D01*
X49289D01*
Y46503D01*
X49355D01*
Y46537D01*
X49422D01*
Y46570D01*
X49455D01*
Y46603D01*
X49521D01*
Y46636D01*
X49555D01*
Y46670D01*
X49588D01*
Y46703D01*
X49621D01*
Y46769D01*
X49654D01*
Y46803D01*
X49688D01*
Y46836D01*
X49721D01*
Y46902D01*
X49754D01*
Y46969D01*
X49787D01*
Y47069D01*
X49821D01*
Y49828D01*
X50253D01*
Y49529D01*
D02*
G37*
G36*
X54077Y46071D02*
X53678D01*
Y46104D01*
X53644D01*
Y46370D01*
Y46404D01*
Y49828D01*
X54077D01*
Y46071D01*
D02*
G37*
G36*
X46263Y51391D02*
X46296D01*
Y46437D01*
Y46404D01*
Y46104D01*
X46263D01*
Y46071D01*
X45864D01*
Y51424D01*
X46263D01*
Y51391D01*
D02*
G37*
G36*
X57003Y49862D02*
X57136D01*
Y49828D01*
X57235D01*
Y49795D01*
X57335D01*
Y49762D01*
X57402D01*
Y49729D01*
X57468D01*
Y49695D01*
X57535D01*
Y49662D01*
X57568D01*
Y49629D01*
X57634D01*
Y49596D01*
X57668D01*
Y49562D01*
X57701D01*
Y49529D01*
X57734D01*
Y49496D01*
X57767D01*
Y49463D01*
X57801D01*
Y49430D01*
X57834D01*
Y49396D01*
X57867D01*
Y49363D01*
X57900D01*
Y49330D01*
X57934D01*
Y49296D01*
X57967D01*
Y49230D01*
X58000D01*
Y49197D01*
X58033D01*
Y49163D01*
X58067D01*
Y49097D01*
X58100D01*
Y49031D01*
X58133D01*
Y48964D01*
X58166D01*
Y48897D01*
X58200D01*
Y48798D01*
X58233D01*
Y48698D01*
X58266D01*
Y48565D01*
X58299D01*
Y48365D01*
X58333D01*
Y47534D01*
X58299D01*
Y47335D01*
X58266D01*
Y47202D01*
X58233D01*
Y47135D01*
X58200D01*
Y47035D01*
X58166D01*
Y46936D01*
X58133D01*
Y46869D01*
X58100D01*
Y46803D01*
X58067D01*
Y46769D01*
X58033D01*
Y46703D01*
X58000D01*
Y46670D01*
X57967D01*
Y46603D01*
X57934D01*
Y46570D01*
X57900D01*
Y46537D01*
X57867D01*
Y46503D01*
X57834D01*
Y46470D01*
X57801D01*
Y46437D01*
X57767D01*
Y46404D01*
X57734D01*
Y46370D01*
X57701D01*
Y46337D01*
X57668D01*
Y46304D01*
X57601D01*
Y46271D01*
X57568D01*
Y46237D01*
X57501D01*
Y46204D01*
X57468D01*
Y46171D01*
X57402D01*
Y46138D01*
X57302D01*
Y46104D01*
X57235D01*
Y46071D01*
X57102D01*
Y46038D01*
X56936D01*
Y46005D01*
X56371D01*
Y46038D01*
X56205D01*
Y46071D01*
X56105D01*
Y46104D01*
X56005D01*
Y46138D01*
X55939D01*
Y46171D01*
X55872D01*
Y46204D01*
X55806D01*
Y46237D01*
X55772D01*
Y46271D01*
X55706D01*
Y46304D01*
X55673D01*
Y46337D01*
X55639D01*
Y46370D01*
X55573D01*
Y46404D01*
X55540D01*
Y46437D01*
X55506D01*
Y46470D01*
X55473D01*
Y46503D01*
X55440D01*
Y46570D01*
X55407D01*
Y46603D01*
X55373D01*
Y46636D01*
X55340D01*
Y46670D01*
X55307D01*
Y46736D01*
X55274D01*
Y46769D01*
X55240D01*
Y46836D01*
X55207D01*
Y46902D01*
X55174D01*
Y46969D01*
X55141D01*
Y47069D01*
X55107D01*
Y47168D01*
X55074D01*
Y47268D01*
X55041D01*
Y47401D01*
X55008D01*
Y47634D01*
X54974D01*
Y48299D01*
X55008D01*
Y48498D01*
X55041D01*
Y48632D01*
X55074D01*
Y48764D01*
X55107D01*
Y48831D01*
X55141D01*
Y48931D01*
X55174D01*
Y48997D01*
X55207D01*
Y49064D01*
X55240D01*
Y49130D01*
X55274D01*
Y49163D01*
X55307D01*
Y49230D01*
X55340D01*
Y49263D01*
X55373D01*
Y49330D01*
X55407D01*
Y49363D01*
X55440D01*
Y49396D01*
X55473D01*
Y49430D01*
X55506D01*
Y49463D01*
X55540D01*
Y49496D01*
X55573D01*
Y49529D01*
X55606D01*
Y49562D01*
X55673D01*
Y49596D01*
X55706D01*
Y49629D01*
X55739D01*
Y49662D01*
X55806D01*
Y49695D01*
X55872D01*
Y49729D01*
X55939D01*
Y49762D01*
X56005D01*
Y49795D01*
X56072D01*
Y49828D01*
X56205D01*
Y49862D01*
X56338D01*
Y49895D01*
X57003D01*
Y49862D01*
D02*
G37*
G36*
X51982Y49828D02*
X52747D01*
Y49496D01*
X51982D01*
Y46703D01*
X52015D01*
Y46603D01*
X52048D01*
Y46537D01*
X52082D01*
Y46503D01*
X52115D01*
Y46470D01*
X52148D01*
Y46437D01*
X52215D01*
Y46404D01*
X52281D01*
Y46370D01*
X52713D01*
Y46404D01*
X52780D01*
Y46370D01*
X52813D01*
Y46038D01*
X52680D01*
Y46005D01*
X52148D01*
Y46038D01*
X52015D01*
Y46071D01*
X51949D01*
Y46104D01*
X51882D01*
Y46138D01*
X51849D01*
Y46171D01*
X51816D01*
Y46204D01*
X51782D01*
Y46237D01*
X51749D01*
Y46271D01*
X51716D01*
Y46304D01*
X51683D01*
Y46370D01*
X51649D01*
Y46437D01*
X51616D01*
Y46570D01*
X51583D01*
Y46736D01*
X51550D01*
Y49496D01*
X50851D01*
Y49828D01*
X51550D01*
Y50793D01*
X51982D01*
Y49828D01*
D02*
G37*
G36*
X43603Y49862D02*
X43769D01*
Y49828D01*
X43869D01*
Y49795D01*
X43935D01*
Y49762D01*
X44002D01*
Y49729D01*
X44068D01*
Y49695D01*
X44135D01*
Y49662D01*
X44201D01*
Y49629D01*
X44235D01*
Y49596D01*
X44268D01*
Y49562D01*
X44334D01*
Y49529D01*
X44368D01*
Y49496D01*
X44401D01*
Y49463D01*
X44434D01*
Y49430D01*
X44467D01*
Y49396D01*
X44501D01*
Y49363D01*
X44534D01*
Y49296D01*
X44567D01*
Y49263D01*
X44600D01*
Y49230D01*
X44634D01*
Y49163D01*
X44667D01*
Y49097D01*
X44700D01*
Y49064D01*
X44733D01*
Y48997D01*
X44767D01*
Y48897D01*
X44800D01*
Y48831D01*
X44833D01*
Y48731D01*
X44866D01*
Y48598D01*
X44900D01*
Y48465D01*
X44933D01*
Y48133D01*
X44966D01*
Y47734D01*
X44933D01*
Y47434D01*
X44900D01*
Y47301D01*
X44866D01*
Y47168D01*
X44833D01*
Y47069D01*
X44800D01*
Y47002D01*
X44767D01*
Y46936D01*
X44733D01*
Y46869D01*
X44700D01*
Y46803D01*
X44667D01*
Y46736D01*
X44634D01*
Y46703D01*
X44600D01*
Y46636D01*
X44567D01*
Y46603D01*
X44534D01*
Y46570D01*
X44501D01*
Y46503D01*
X44467D01*
Y46470D01*
X44434D01*
Y46437D01*
X44401D01*
Y46404D01*
X44368D01*
Y46370D01*
X44301D01*
Y46337D01*
X44268D01*
Y46304D01*
X44235D01*
Y46271D01*
X44168D01*
Y46237D01*
X44135D01*
Y46204D01*
X44068D01*
Y46171D01*
X44002D01*
Y46138D01*
X43935D01*
Y46104D01*
X43836D01*
Y46071D01*
X43736D01*
Y46038D01*
X43569D01*
Y46005D01*
X42971D01*
Y46038D01*
X42805D01*
Y46071D01*
X42705D01*
Y46104D01*
X42638D01*
Y46138D01*
X42539D01*
Y46171D01*
X42472D01*
Y46204D01*
X42439D01*
Y46237D01*
X42373D01*
Y46271D01*
X42306D01*
Y46304D01*
X42273D01*
Y46337D01*
X42240D01*
Y46370D01*
X42206D01*
Y46404D01*
X42173D01*
Y46437D01*
X42140D01*
Y46470D01*
X42107D01*
Y46503D01*
X42073D01*
Y46537D01*
X42040D01*
Y46570D01*
X42007D01*
Y46603D01*
X41974D01*
Y46670D01*
X41940D01*
Y46703D01*
X41907D01*
Y46736D01*
X41874D01*
Y46803D01*
X41841D01*
Y46869D01*
X41807D01*
Y46936D01*
X41774D01*
Y47002D01*
X41741D01*
Y47102D01*
X41708D01*
Y47202D01*
X41674D01*
Y47301D01*
X41641D01*
Y47468D01*
X41608D01*
Y47867D01*
X41574D01*
Y48066D01*
X41608D01*
Y48432D01*
X41641D01*
Y48598D01*
X41674D01*
Y48698D01*
X41708D01*
Y48798D01*
X41741D01*
Y48897D01*
X41774D01*
Y48964D01*
X41807D01*
Y49031D01*
X41841D01*
Y49097D01*
X41874D01*
Y49163D01*
X41907D01*
Y49197D01*
X41940D01*
Y49263D01*
X41974D01*
Y49296D01*
X42007D01*
Y49330D01*
X42040D01*
Y49363D01*
X42073D01*
Y49430D01*
X42107D01*
Y49463D01*
X42140D01*
Y49496D01*
X42206D01*
Y49529D01*
X42240D01*
Y49562D01*
X42273D01*
Y49596D01*
X42306D01*
Y49629D01*
X42373D01*
Y49662D01*
X42406D01*
Y49695D01*
X42472D01*
Y49729D01*
X42539D01*
Y49762D01*
X42605D01*
Y49795D01*
X42705D01*
Y49828D01*
X42805D01*
Y49862D01*
X42938D01*
Y49895D01*
X43603D01*
Y49862D01*
D02*
G37*
%LPC*%
G36*
X50153Y62198D02*
X49688D01*
Y62164D01*
X49555D01*
Y62131D01*
X49488D01*
Y62098D01*
X49388D01*
Y62064D01*
X49355D01*
Y62031D01*
X49289D01*
Y61998D01*
X49255D01*
Y61965D01*
X49189D01*
Y61932D01*
X49156D01*
Y61898D01*
X49122D01*
Y61865D01*
X49089D01*
Y61832D01*
X49056D01*
Y61799D01*
X49023D01*
Y61732D01*
X48989D01*
Y61699D01*
X48956D01*
Y61665D01*
X48923D01*
Y61599D01*
X48890D01*
Y61532D01*
X48856D01*
Y61466D01*
X48823D01*
Y61400D01*
X48790D01*
Y61300D01*
X48757D01*
Y61200D01*
X48723D01*
Y61034D01*
X48690D01*
Y60768D01*
X48657D01*
Y60402D01*
X48690D01*
Y60136D01*
X48723D01*
Y60003D01*
X48757D01*
Y59870D01*
X48790D01*
Y59803D01*
X48823D01*
Y59737D01*
X48856D01*
Y59671D01*
X48890D01*
Y59604D01*
X48923D01*
Y59538D01*
X48956D01*
Y59504D01*
X48989D01*
Y59471D01*
X49023D01*
Y59404D01*
X49056D01*
Y59371D01*
X49089D01*
Y59338D01*
X49122D01*
Y59305D01*
X49156D01*
Y59272D01*
X49189D01*
Y59238D01*
X49255D01*
Y59205D01*
X49289D01*
Y59172D01*
X49355D01*
Y59139D01*
X49422D01*
Y59105D01*
X49488D01*
Y59072D01*
X49588D01*
Y59039D01*
X49721D01*
Y59005D01*
X50153D01*
Y59039D01*
X50286D01*
Y59072D01*
X50386D01*
Y59105D01*
X50452D01*
Y59139D01*
X50519D01*
Y59172D01*
X50585D01*
Y59205D01*
X50619D01*
Y59238D01*
X50652D01*
Y59272D01*
X50718D01*
Y59305D01*
X50752D01*
Y59338D01*
X50785D01*
Y59371D01*
X50818D01*
Y59438D01*
X50851D01*
Y59471D01*
X50885D01*
Y59504D01*
X50918D01*
Y59571D01*
X50951D01*
Y59604D01*
X50984D01*
Y59671D01*
X51018D01*
Y59737D01*
X51051D01*
Y59837D01*
X51084D01*
Y59903D01*
X51117D01*
Y60036D01*
X51151D01*
Y60202D01*
X51184D01*
Y61001D01*
X51151D01*
Y61167D01*
X51117D01*
Y61266D01*
X51084D01*
Y61366D01*
X51051D01*
Y61466D01*
X51018D01*
Y61532D01*
X50984D01*
Y61599D01*
X50951D01*
Y61632D01*
X50918D01*
Y61699D01*
X50885D01*
Y61732D01*
X50851D01*
Y61765D01*
X50818D01*
Y61832D01*
X50785D01*
Y61865D01*
X50752D01*
Y61898D01*
X50718D01*
Y61932D01*
X50652D01*
Y61965D01*
X50619D01*
Y61998D01*
X50585D01*
Y62031D01*
X50519D01*
Y62064D01*
X50452D01*
Y62098D01*
X50386D01*
Y62131D01*
X50286D01*
Y62164D01*
X50153D01*
Y62198D01*
D02*
G37*
G36*
X46230D02*
X45831D01*
Y62164D01*
X45664D01*
Y62131D01*
X45598D01*
Y62098D01*
X45498D01*
Y62064D01*
X45432D01*
Y62031D01*
X45398D01*
Y61998D01*
X45332D01*
Y61965D01*
X45299D01*
Y61932D01*
X45265D01*
Y61898D01*
X45232D01*
Y61865D01*
X45199D01*
Y61832D01*
X45166D01*
Y61799D01*
X45132D01*
Y61732D01*
X45099D01*
Y61699D01*
X45066D01*
Y61632D01*
X45033D01*
Y61599D01*
X44999D01*
Y61499D01*
X44966D01*
Y61433D01*
X44933D01*
Y59704D01*
X44966D01*
Y59637D01*
X44999D01*
Y59571D01*
X45033D01*
Y59538D01*
X45066D01*
Y59471D01*
X45099D01*
Y59438D01*
X45132D01*
Y59404D01*
X45166D01*
Y59371D01*
X45199D01*
Y59338D01*
X45232D01*
Y59305D01*
X45265D01*
Y59272D01*
X45299D01*
Y59238D01*
X45332D01*
Y59205D01*
X45398D01*
Y59172D01*
X45432D01*
Y59139D01*
X45498D01*
Y59105D01*
X45598D01*
Y59072D01*
X45698D01*
Y59039D01*
X45930D01*
Y59005D01*
X46163D01*
Y59039D01*
X46329D01*
Y59072D01*
X46429D01*
Y59105D01*
X46529D01*
Y59139D01*
X46562D01*
Y59172D01*
X46629D01*
Y59205D01*
X46662D01*
Y59238D01*
X46695D01*
Y59272D01*
X46728D01*
Y59305D01*
X46762D01*
Y59338D01*
X46795D01*
Y59371D01*
X46828D01*
Y59404D01*
X46861D01*
Y59471D01*
X46895D01*
Y59504D01*
X46928D01*
Y59571D01*
X46961D01*
Y59637D01*
X46994D01*
Y59737D01*
X47028D01*
Y59837D01*
X47061D01*
Y59903D01*
Y59936D01*
Y59970D01*
X47094D01*
Y60136D01*
X47127D01*
Y60502D01*
X47161D01*
Y60734D01*
X47127D01*
Y61100D01*
X47094D01*
Y61266D01*
X47061D01*
Y61400D01*
X47028D01*
Y61499D01*
X46994D01*
Y61566D01*
X46961D01*
Y61632D01*
X46928D01*
Y61699D01*
X46895D01*
Y61765D01*
X46861D01*
Y61799D01*
X46828D01*
Y61832D01*
X46795D01*
Y61898D01*
X46762D01*
Y61932D01*
X46728D01*
Y61965D01*
X46662D01*
Y61998D01*
X46629D01*
Y62031D01*
X46595D01*
Y62064D01*
X46529D01*
Y62098D01*
X46462D01*
Y62131D01*
X46363D01*
Y62164D01*
X46230D01*
Y62198D01*
D02*
G37*
G36*
X42206D02*
X41741D01*
Y62164D01*
X41641D01*
Y62131D01*
X41541D01*
Y62098D01*
X41475D01*
Y62064D01*
X41408D01*
Y62031D01*
X41342D01*
Y61998D01*
X41309D01*
Y61965D01*
X41275D01*
Y61932D01*
X41209D01*
Y61898D01*
X41175D01*
Y61865D01*
X41142D01*
Y61832D01*
X41109D01*
Y61765D01*
X41076D01*
Y61732D01*
X41043D01*
Y61699D01*
X41009D01*
Y61632D01*
X40976D01*
Y61599D01*
X40943D01*
Y61532D01*
X40910D01*
Y61466D01*
X40876D01*
Y61366D01*
X40843D01*
Y61266D01*
X40810D01*
Y61200D01*
Y61167D01*
X40777D01*
Y61001D01*
X40743D01*
Y60169D01*
X40777D01*
Y60036D01*
X40810D01*
Y59903D01*
X40843D01*
Y59803D01*
X40876D01*
Y59737D01*
X40910D01*
Y59671D01*
X40943D01*
Y59604D01*
X40976D01*
Y59571D01*
X41009D01*
Y59504D01*
X41043D01*
Y59471D01*
X41076D01*
Y59438D01*
X41109D01*
Y59371D01*
X41142D01*
Y59338D01*
X41175D01*
Y59305D01*
X41209D01*
Y59272D01*
X41275D01*
Y59238D01*
X41309D01*
Y59205D01*
X41342D01*
Y59172D01*
X41408D01*
Y59139D01*
X41475D01*
Y59105D01*
X41541D01*
Y59072D01*
X41641D01*
Y59039D01*
X41774D01*
Y59005D01*
X42206D01*
Y59039D01*
X42339D01*
Y59072D01*
X42439D01*
Y59105D01*
X42505D01*
Y59139D01*
X42572D01*
Y59172D01*
X42638D01*
Y59205D01*
X42672D01*
Y59238D01*
X42738D01*
Y59272D01*
X42772D01*
Y59305D01*
X42805D01*
Y59338D01*
X42838D01*
Y59371D01*
X42871D01*
Y59404D01*
X42905D01*
Y59471D01*
X42938D01*
Y59504D01*
X42971D01*
Y59538D01*
X43004D01*
Y59604D01*
X43038D01*
Y59671D01*
X43071D01*
Y59737D01*
X43104D01*
Y59803D01*
X43137D01*
Y59903D01*
X43170D01*
Y60003D01*
X43204D01*
Y60136D01*
X43237D01*
Y60469D01*
X43270D01*
Y60768D01*
X43237D01*
Y61067D01*
X43204D01*
Y61200D01*
X43170D01*
Y61300D01*
X43137D01*
Y61400D01*
X43104D01*
Y61466D01*
X43071D01*
Y61532D01*
X43038D01*
Y61599D01*
X43004D01*
Y61665D01*
X42971D01*
Y61699D01*
X42938D01*
Y61732D01*
X42905D01*
Y61799D01*
X42871D01*
Y61832D01*
X42838D01*
Y61865D01*
X42805D01*
Y61898D01*
X42772D01*
Y61932D01*
X42738D01*
Y61965D01*
X42672D01*
Y61998D01*
X42638D01*
Y62031D01*
X42572D01*
Y62064D01*
X42505D01*
Y62098D01*
X42439D01*
Y62131D01*
X42339D01*
Y62164D01*
X42206D01*
Y62198D01*
D02*
G37*
G36*
X49721Y55581D02*
X49588D01*
Y55547D01*
X49355D01*
Y55514D01*
X49255D01*
Y55481D01*
X49189D01*
Y55448D01*
X49122D01*
Y55414D01*
X49056D01*
Y55381D01*
X49023D01*
Y55348D01*
X48989D01*
Y55315D01*
X48956D01*
Y55282D01*
X48923D01*
Y55248D01*
X48890D01*
Y55215D01*
X48856D01*
Y55182D01*
X48823D01*
Y55115D01*
X48790D01*
Y55082D01*
X48757D01*
Y55015D01*
X48723D01*
Y54949D01*
X48690D01*
Y54882D01*
X48657D01*
Y54783D01*
X48624D01*
Y54683D01*
X48590D01*
Y54517D01*
X48557D01*
Y54251D01*
X48524D01*
Y53652D01*
X48557D01*
Y53419D01*
X48590D01*
Y53253D01*
X48624D01*
Y53153D01*
X48657D01*
Y53054D01*
X48690D01*
Y52987D01*
X48723D01*
Y52921D01*
X48757D01*
Y52854D01*
X48790D01*
Y52821D01*
X48823D01*
Y52754D01*
X48856D01*
Y52721D01*
X48890D01*
Y52688D01*
X48923D01*
Y52655D01*
X48956D01*
Y52622D01*
X48989D01*
Y52588D01*
X49023D01*
Y52555D01*
X49089D01*
Y52522D01*
X49122D01*
Y52488D01*
X49189D01*
Y52455D01*
X49289D01*
Y52422D01*
X49422D01*
Y52389D01*
X49887D01*
Y52422D01*
X50020D01*
Y52455D01*
X50120D01*
Y52488D01*
X50186D01*
Y52522D01*
X50253D01*
Y52555D01*
X50319D01*
Y52588D01*
X50353D01*
Y52622D01*
X50386D01*
Y52655D01*
X50452D01*
Y52688D01*
X50486D01*
Y52721D01*
X50519D01*
Y52788D01*
X50552D01*
Y52821D01*
X50585D01*
Y52854D01*
X50619D01*
Y52921D01*
X50652D01*
Y52954D01*
X50685D01*
Y53021D01*
X50718D01*
Y54882D01*
X50685D01*
Y54949D01*
X50652D01*
Y54982D01*
X50619D01*
Y55049D01*
X50585D01*
Y55082D01*
X50552D01*
Y55149D01*
X50519D01*
Y55182D01*
X50486D01*
Y55215D01*
X50452D01*
Y55248D01*
X50419D01*
Y55282D01*
X50386D01*
Y55315D01*
X50353D01*
Y55348D01*
X50319D01*
Y55381D01*
X50253D01*
Y55414D01*
X50186D01*
Y55448D01*
X50120D01*
Y55481D01*
X50053D01*
Y55514D01*
X49954D01*
Y55547D01*
X49721D01*
Y55581D01*
D02*
G37*
G36*
X59895Y53951D02*
X58798D01*
Y53918D01*
X58599D01*
Y53885D01*
X58499D01*
Y53852D01*
X58399D01*
Y53818D01*
X58299D01*
Y53785D01*
X58233D01*
Y53752D01*
X58200D01*
Y53719D01*
X58133D01*
Y53685D01*
X58100D01*
Y53652D01*
X58067D01*
Y53619D01*
X58033D01*
Y53586D01*
X58000D01*
Y53552D01*
X57967D01*
Y53519D01*
X57934D01*
Y53486D01*
X57900D01*
Y53419D01*
X57867D01*
Y53320D01*
X57834D01*
Y52954D01*
X57867D01*
Y52854D01*
X57900D01*
Y52788D01*
X57934D01*
Y52721D01*
X57967D01*
Y52688D01*
X58000D01*
Y52655D01*
X58033D01*
Y52622D01*
X58067D01*
Y52588D01*
X58100D01*
Y52555D01*
X58133D01*
Y52522D01*
X58200D01*
Y52488D01*
X58266D01*
Y52455D01*
X58366D01*
Y52422D01*
X58499D01*
Y52389D01*
X58898D01*
Y52422D01*
X59064D01*
Y52455D01*
X59164D01*
Y52488D01*
X59264D01*
Y52522D01*
X59330D01*
Y52555D01*
X59397D01*
Y52588D01*
X59430D01*
Y52622D01*
X59496D01*
Y52655D01*
X59530D01*
Y52688D01*
X59563D01*
Y52721D01*
X59596D01*
Y52754D01*
X59663D01*
Y52788D01*
X59696D01*
Y52854D01*
X59729D01*
Y52887D01*
X59762D01*
Y52921D01*
X59796D01*
Y52987D01*
X59829D01*
Y53021D01*
X59862D01*
Y53087D01*
X59895D01*
Y53951D01*
D02*
G37*
G36*
X44401D02*
X43304D01*
Y53918D01*
X43137D01*
Y53885D01*
X43004D01*
Y53852D01*
X42905D01*
Y53818D01*
X42838D01*
Y53785D01*
X42772D01*
Y53752D01*
X42705D01*
Y53719D01*
X42672D01*
Y53685D01*
X42605D01*
Y53652D01*
X42572D01*
Y53619D01*
X42539D01*
Y53586D01*
X42505D01*
Y53552D01*
X42472D01*
Y53486D01*
X42439D01*
Y53453D01*
X42406D01*
Y53353D01*
X42373D01*
Y53253D01*
X42339D01*
Y53220D01*
Y53187D01*
Y53021D01*
X42373D01*
Y52887D01*
X42406D01*
Y52821D01*
X42439D01*
Y52754D01*
X42472D01*
Y52688D01*
X42505D01*
Y52655D01*
X42539D01*
Y52622D01*
X42572D01*
Y52588D01*
X42605D01*
Y52555D01*
X42672D01*
Y52522D01*
X42705D01*
Y52488D01*
X42772D01*
Y52455D01*
X42871D01*
Y52422D01*
X43004D01*
Y52389D01*
X43403D01*
Y52422D01*
X43569D01*
Y52455D01*
X43669D01*
Y52488D01*
X43769D01*
Y52522D01*
X43836D01*
Y52555D01*
X43902D01*
Y52588D01*
X43969D01*
Y52622D01*
X44002D01*
Y52655D01*
X44068D01*
Y52688D01*
X44102D01*
Y52721D01*
X44135D01*
Y52754D01*
X44168D01*
Y52788D01*
X44201D01*
Y52821D01*
X44235D01*
Y52854D01*
X44268D01*
Y52921D01*
X44301D01*
Y52954D01*
X44334D01*
Y53021D01*
X44368D01*
Y53054D01*
X44401D01*
Y53951D01*
D02*
G37*
G36*
X65282Y55581D02*
X65016D01*
Y55547D01*
X64850D01*
Y55514D01*
X64750D01*
Y55481D01*
X64650D01*
Y55448D01*
X64617D01*
Y55414D01*
X64550D01*
Y55381D01*
X64517D01*
Y55348D01*
X64451D01*
Y55315D01*
X64417D01*
Y55282D01*
X64384D01*
Y55248D01*
X64351D01*
Y55215D01*
X64318D01*
Y55182D01*
X64284D01*
Y55115D01*
X64251D01*
Y55082D01*
X64218D01*
Y55049D01*
X64185D01*
Y54982D01*
X64151D01*
Y54916D01*
X64118D01*
Y54849D01*
X64085D01*
Y54783D01*
X64052D01*
Y54683D01*
X64018D01*
Y54550D01*
X63985D01*
Y54384D01*
X63952D01*
Y54317D01*
X66213D01*
Y54550D01*
X66180D01*
Y54716D01*
X66146D01*
Y54816D01*
X66113D01*
Y54916D01*
X66080D01*
Y54982D01*
X66047D01*
Y55049D01*
X66013D01*
Y55115D01*
X65980D01*
Y55149D01*
X65947D01*
Y55182D01*
X65914D01*
Y55248D01*
X65880D01*
Y55282D01*
X65847D01*
Y55315D01*
X65814D01*
Y55348D01*
X65781D01*
Y55381D01*
X65714D01*
Y55414D01*
X65681D01*
Y55448D01*
X65614D01*
Y55481D01*
X65548D01*
Y55514D01*
X65448D01*
Y55547D01*
X65282D01*
Y55581D01*
D02*
G37*
G36*
X56770Y49562D02*
X56537D01*
Y49529D01*
X56338D01*
Y49496D01*
X56238D01*
Y49463D01*
X56171D01*
Y49430D01*
X56105D01*
Y49396D01*
X56038D01*
Y49363D01*
X56005D01*
Y49330D01*
X55939D01*
Y49296D01*
X55905D01*
Y49263D01*
X55872D01*
Y49230D01*
X55839D01*
Y49197D01*
X55806D01*
Y49163D01*
X55772D01*
Y49130D01*
X55739D01*
Y49064D01*
X55706D01*
Y49031D01*
X55673D01*
Y48997D01*
X55639D01*
Y48931D01*
X55606D01*
Y48864D01*
X55573D01*
Y48798D01*
X55540D01*
Y48731D01*
X55506D01*
Y48632D01*
X55473D01*
Y48498D01*
X55440D01*
Y48332D01*
X55407D01*
Y47534D01*
X55440D01*
Y47368D01*
X55473D01*
Y47268D01*
X55506D01*
Y47168D01*
X55540D01*
Y47102D01*
X55573D01*
Y47035D01*
X55606D01*
Y46969D01*
X55639D01*
Y46902D01*
X55673D01*
Y46869D01*
X55706D01*
Y46836D01*
X55739D01*
Y46769D01*
X55772D01*
Y46736D01*
X55806D01*
Y46703D01*
X55839D01*
Y46670D01*
X55872D01*
Y46636D01*
X55905D01*
Y46603D01*
X55939D01*
Y46570D01*
X56005D01*
Y46537D01*
X56038D01*
Y46503D01*
X56105D01*
Y46470D01*
X56171D01*
Y46437D01*
X56238D01*
Y46404D01*
X56371D01*
Y46370D01*
X56604D01*
Y46337D01*
X56737D01*
Y46370D01*
X56969D01*
Y46404D01*
X57069D01*
Y46437D01*
X57169D01*
Y46470D01*
X57235D01*
Y46503D01*
X57269D01*
Y46537D01*
X57335D01*
Y46570D01*
X57368D01*
Y46603D01*
X57402D01*
Y46636D01*
X57435D01*
Y46670D01*
X57468D01*
Y46703D01*
X57501D01*
Y46736D01*
X57535D01*
Y46769D01*
X57568D01*
Y46803D01*
X57601D01*
Y46836D01*
X57634D01*
Y46902D01*
X57668D01*
Y46936D01*
X57701D01*
Y47002D01*
X57734D01*
Y47069D01*
X57767D01*
Y47135D01*
X57801D01*
Y47202D01*
Y47235D01*
X57834D01*
Y47335D01*
X57867D01*
Y47468D01*
X57900D01*
Y47734D01*
X57934D01*
Y48199D01*
X57900D01*
Y48432D01*
X57867D01*
Y48565D01*
X57834D01*
Y48665D01*
X57801D01*
Y48764D01*
X57767D01*
Y48831D01*
X57734D01*
Y48897D01*
X57701D01*
Y48964D01*
X57668D01*
Y48997D01*
X57634D01*
Y49064D01*
X57601D01*
Y49097D01*
X57568D01*
Y49130D01*
X57535D01*
Y49197D01*
X57501D01*
Y49230D01*
X57468D01*
Y49263D01*
X57402D01*
Y49296D01*
X57368D01*
Y49330D01*
X57335D01*
Y49363D01*
X57269D01*
Y49396D01*
X57235D01*
Y49430D01*
X57169D01*
Y49463D01*
X57069D01*
Y49496D01*
X56969D01*
Y49529D01*
X56770D01*
Y49562D01*
D02*
G37*
G36*
X43370D02*
X43137D01*
Y49529D01*
X42971D01*
Y49496D01*
X42838D01*
Y49463D01*
X42772D01*
Y49430D01*
X42705D01*
Y49396D01*
X42638D01*
Y49363D01*
X42605D01*
Y49330D01*
X42572D01*
Y49296D01*
X42505D01*
Y49263D01*
X42472D01*
Y49230D01*
X42439D01*
Y49197D01*
X42406D01*
Y49130D01*
X42373D01*
Y49097D01*
X42339D01*
Y49064D01*
X42306D01*
Y48997D01*
X42273D01*
Y48964D01*
X42240D01*
Y48897D01*
X42206D01*
Y48831D01*
X42173D01*
Y48764D01*
X42140D01*
Y48698D01*
X42107D01*
Y48565D01*
X42073D01*
Y48432D01*
X42040D01*
Y48232D01*
X42007D01*
Y47667D01*
X42040D01*
Y47434D01*
X42073D01*
Y47301D01*
X42107D01*
Y47202D01*
X42140D01*
Y47168D01*
Y47135D01*
X42173D01*
Y47069D01*
X42206D01*
Y47002D01*
X42240D01*
Y46936D01*
X42273D01*
Y46869D01*
X42306D01*
Y46836D01*
X42339D01*
Y46803D01*
X42373D01*
Y46769D01*
X42406D01*
Y46703D01*
X42439D01*
Y46670D01*
X42472D01*
Y46636D01*
X42539D01*
Y46603D01*
X42572D01*
Y46570D01*
X42605D01*
Y46537D01*
X42672D01*
Y46503D01*
X42705D01*
Y46470D01*
X42772D01*
Y46437D01*
X42871D01*
Y46404D01*
X42971D01*
Y46370D01*
X43204D01*
Y46337D01*
X43337D01*
Y46370D01*
X43569D01*
Y46404D01*
X43669D01*
Y46437D01*
X43769D01*
Y46470D01*
X43836D01*
Y46503D01*
X43902D01*
Y46537D01*
X43935D01*
Y46570D01*
X44002D01*
Y46603D01*
X44035D01*
Y46636D01*
X44068D01*
Y46670D01*
X44102D01*
Y46703D01*
X44135D01*
Y46736D01*
X44168D01*
Y46769D01*
X44201D01*
Y46836D01*
X44235D01*
Y46869D01*
X44268D01*
Y46936D01*
X44301D01*
Y46969D01*
X44334D01*
Y47035D01*
X44368D01*
Y47102D01*
X44401D01*
Y47202D01*
X44434D01*
Y47301D01*
X44467D01*
Y47434D01*
X44501D01*
Y47601D01*
X44534D01*
Y48299D01*
X44501D01*
Y48498D01*
X44467D01*
Y48598D01*
X44434D01*
Y48698D01*
X44401D01*
Y48798D01*
X44368D01*
Y48864D01*
X44334D01*
Y48931D01*
X44301D01*
Y48964D01*
X44268D01*
Y49031D01*
X44235D01*
Y49064D01*
X44201D01*
Y49130D01*
X44168D01*
Y49163D01*
X44135D01*
Y49197D01*
X44102D01*
Y49230D01*
X44068D01*
Y49263D01*
X44035D01*
Y49296D01*
X44002D01*
Y49330D01*
X43935D01*
Y49363D01*
X43902D01*
Y49396D01*
X43836D01*
Y49430D01*
X43769D01*
Y49463D01*
X43703D01*
Y49496D01*
X43569D01*
Y49529D01*
X43370D01*
Y49562D01*
D02*
G37*
%LPD*%
D27*
X115157Y11850D02*
D03*
Y21850D02*
D03*
Y31850D02*
D03*
D28*
X42323Y37992D02*
D03*
X36417D02*
D03*
X42323Y31890D02*
D03*
X36417D02*
D03*
X95353Y10335D02*
D03*
X89447D02*
D03*
X77756D02*
D03*
X83661D02*
D03*
X77658Y39173D02*
D03*
X83563D02*
D03*
X95255D02*
D03*
X89349D02*
D03*
D29*
X36640Y18406D02*
D03*
Y22146D02*
D03*
Y25886D02*
D03*
X46522D02*
D03*
Y22146D02*
D03*
Y18406D02*
D03*
D30*
X96653Y22244D02*
D03*
Y16339D02*
D03*
Y27165D02*
D03*
Y33071D02*
D03*
D31*
X71752Y10335D02*
D03*
X65847D02*
D03*
X78051Y31102D02*
D03*
X83957D02*
D03*
D32*
X68504Y-9941D02*
D03*
Y-4035D02*
D03*
X96752Y-9941D02*
D03*
Y-4035D02*
D03*
D33*
X83957Y-7382D02*
D03*
D34*
X90857Y-2682D02*
D03*
Y-5782D02*
D03*
Y-8982D02*
D03*
Y-12082D02*
D03*
X77057D02*
D03*
Y-8982D02*
D03*
Y-5782D02*
D03*
Y-2682D02*
D03*
D35*
X61221Y25394D02*
D03*
Y23425D02*
D03*
Y21457D02*
D03*
Y19488D02*
D03*
Y17520D02*
D03*
X78937D02*
D03*
Y19488D02*
D03*
Y21457D02*
D03*
Y23425D02*
D03*
Y25394D02*
D03*
D36*
X26161Y34555D02*
D03*
Y31405D02*
D03*
Y12114D02*
D03*
Y8965D02*
D03*
D37*
Y22744D02*
D03*
Y24713D02*
D03*
Y26681D02*
D03*
Y28650D02*
D03*
Y20776D02*
D03*
Y18807D02*
D03*
Y16839D02*
D03*
Y14870D02*
D03*
D38*
X103839Y295D02*
D03*
X114469D02*
D03*
D39*
X22559Y38768D02*
D03*
Y4752D02*
D03*
X6102Y38768D02*
D03*
Y4752D02*
D03*
D40*
X20472Y33138D02*
D03*
Y10382D02*
D03*
D41*
X40354Y-6890D02*
D03*
D42*
X103839Y18701D02*
D03*
Y16043D02*
D03*
M02*
